<?xml version="1.0" encoding="UTF-8" standalone="no"?>
<!DOCTYPE svg PUBLIC "-//W3C//DTD SVG 1.1//EN" "http://www.w3.org/Graphics/SVG/1.1/DTD/svg11.dtd">
<svg width="100%" height="100%" viewBox="0 0 592 250" version="1.1" xmlns="http://www.w3.org/2000/svg" xmlns:xlink="http://www.w3.org/1999/xlink" xml:space="preserve" xmlns:serif="http://www.serif.com/" style="fill-rule:evenodd;clip-rule:evenodd;stroke-linejoin:round;stroke-miterlimit:2;">
    <g transform="matrix(1,0,0,1,-170.021,-172.638)">
        <g id="LOGO">
            <g>
                <path d="M345.23,245.898L346.102,244.286C338.016,239.979 329.698,237.153 321.333,235.958C317.868,235.467 314.377,235.218 310.956,235.218C283.358,235.218 258.668,251.819 249.516,276.526L258.399,279.815C266.18,258.806 287.302,244.691 310.957,244.691C313.935,244.691 316.978,244.908 319.999,245.337C336.036,247.628 351.446,256.376 365.802,271.337L371.031,266.318C363.967,258.769 355.346,251.37 345.23,245.898Z" style="fill:rgb(98,174,178);fill-rule:nonzero;"/>
                <path d="M280.472,356.516C256.683,345.457 241.312,322.07 241.312,296.934C241.312,284.218 245.039,271.912 252.088,261.346C254.77,257.322 257.939,253.55 261.504,250.136L265.871,254.698C262.638,257.792 259.768,261.207 257.341,264.848C250.986,274.374 247.626,285.468 247.626,296.933C247.626,319.971 261.231,340.608 283.134,350.788L280.472,356.516Z" style="fill:rgb(98,174,178);fill-rule:nonzero;"/>
                <path d="M396.354,304.689L393.616,298.3C393.366,297.807 393.021,297.146 392.603,296.367C387.808,305.447 362.582,349.783 321.105,355.706C317.718,356.19 314.225,357.298 310.922,357.298C301.262,357.294 291.996,355.261 283.384,351.254L280.222,357.049C289.832,361.52 300.16,363.788 310.927,363.792C314.578,363.792 318.324,363.521 322.061,362.987C362.081,357.271 387.34,320.67 396.643,304.564L396.354,304.689Z" style="fill:rgb(98,174,178);fill-rule:nonzero;"/>
                <path d="M405.128,335.549C397.014,346.575 388.06,356.121 378.454,363.92L380.772,366.774C390.271,359.061 399.146,349.704 407.213,338.927C423.722,361.452 451.19,388.172 491.007,393.856L491.95,387.253C451.254,381.442 423.997,352.667 407.79,328.178C407.027,327.022 405.128,335.549 405.128,335.549Z" style="fill:rgb(228,113,40);fill-rule:nonzero;"/>
                <path d="M511.482,362.999C506.226,363.343 500.877,363.144 495.511,362.377C483.283,360.629 471.433,355.747 460.288,347.866L456.823,352.764C468.752,361.2 481.482,366.432 494.661,368.316C498.627,368.883 502.628,369.17 506.552,369.17C508.203,369.17 509.845,369.107 511.482,369.007L511.482,362.999Z" style="fill:rgb(229,173,36);fill-rule:nonzero;"/>
                <path d="M399.523,303.331L396.353,304.689L393.615,298.3C391.564,294.262 383.879,280.041 371.031,266.317L365.802,271.336C377.07,283.078 383.839,294.717 386.227,299.176L395.839,315.95L404.056,311.239L399.523,303.331Z" style="fill:rgb(228,113,40);fill-rule:nonzero;"/>
                <path d="M506.553,357.661C503.148,357.661 499.695,357.413 496.29,356.923C453.483,350.81 428.439,307.347 423.853,298.695L430.476,295.185C433.104,300.142 457.306,343.784 497.354,349.503C500.41,349.942 503.502,350.166 506.552,350.166L506.552,357.661L506.553,357.661Z" style="fill:rgb(98,174,178);fill-rule:nonzero;"/>
                <path d="M566.199,280.234C563.346,270.97 558.024,262.422 550.806,255.513C541.347,246.465 529.335,240.681 516.068,238.787L517.281,230.295C532.332,232.442 545.975,239.02 556.737,249.315C565.009,257.233 571.116,267.051 574.398,277.709L566.199,280.234Z" style="fill:rgb(0,135,143);fill-rule:nonzero;"/>
                <path d="M451.607,252.945L447.564,248.341C462.124,235.554 477.966,227.863 494.653,225.483C498.593,224.92 502.587,224.634 506.52,224.634C526.84,224.634 545.877,232.141 560.124,245.773L555.888,250.201C542.787,237.666 525.255,230.762 506.521,230.762C502.876,230.762 499.175,231.028 495.52,231.55C480.031,233.759 465.257,240.958 451.607,252.945Z" style="fill:rgb(0,135,143);fill-rule:nonzero;"/>
                <path d="M420.48,312.622L399.227,302.512L404.282,291.885C407.565,284.986 419.973,260.981 441.822,241.8L450.666,234.036L466.193,251.724L457.349,259.488C438.405,276.118 427.524,297.816 425.536,301.997L420.48,312.622Z" style="fill:rgb(229,173,36);fill-rule:nonzero;"/>
                <path d="M240.581,325.311C236.656,316.354 234.666,306.806 234.666,296.934C234.666,277.379 242.567,259.054 256.914,245.332C261.926,240.538 267.582,236.449 273.726,233.179L277.181,239.669C271.631,242.624 266.522,246.316 261.995,250.647C249.113,262.967 242.018,279.406 242.018,296.934C242.018,305.785 243.8,314.338 247.314,322.36L240.581,325.311Z" style="fill:rgb(0,135,143);fill-rule:nonzero;"/>
                <path d="M265.907,254.738L261.468,250.095C274.605,237.533 292.181,230.615 310.957,230.615C314.617,230.615 318.329,230.88 321.989,231.402C330.953,232.683 339.801,235.66 348.286,240.248L345.231,245.898C337.415,241.672 329.29,238.935 321.08,237.761C317.721,237.282 314.314,237.038 310.957,237.038C293.843,237.039 277.844,243.325 265.907,254.738Z" style="fill:rgb(229,173,36);fill-rule:nonzero;"/>
                <path d="M221.919,296.934L217.997,296.934C217.997,272.788 227.726,250.185 245.392,233.289L248.103,236.123C231.218,252.272 221.919,273.868 221.919,296.934Z" style="fill:rgb(229,173,36);fill-rule:nonzero;"/>
                <path d="M377.118,229.892C361.271,217.224 343.901,209.468 325.49,206.839C320.668,206.151 315.778,205.803 310.957,205.803C291.884,205.803 273.573,211.166 258.004,221.314L255.149,216.933C271.569,206.23 290.868,200.573 310.958,200.573C316.025,200.573 321.164,200.939 326.23,201.662C345.579,204.425 363.798,212.549 380.384,225.807L377.118,229.892Z" style="fill:rgb(0,135,143);fill-rule:nonzero;"/>
                <path d="M413.901,263.84L403.583,256.559C420.089,233.163 448.607,204.013 490.729,197.999L492.514,210.501C454.851,215.879 428.976,242.475 413.901,263.84Z" style="fill:rgb(0,135,143);fill-rule:nonzero;"/>
                <path d="M425.715,265.347L418.414,259.827C432.86,240.717 457.476,216.88 492.707,211.853C497.289,211.198 501.937,210.866 506.52,210.866C518.394,210.866 529.896,213.032 540.707,217.304L537.344,225.816C527.609,221.969 517.239,220.019 506.521,220.019C502.37,220.019 498.158,220.321 494.001,220.915C461.855,225.501 439.124,247.608 425.715,265.347Z" style="fill:rgb(98,174,178);fill-rule:nonzero;"/>
                <path d="M410.996,280.249L400.781,276.091L403.818,268.628L404.08,268.215C417.268,247.341 446.188,211.353 491.707,204.859C496.622,204.157 501.606,203.801 506.52,203.801L506.52,214.83C502.126,214.83 497.666,215.149 493.266,215.777C454.422,221.319 428.573,250.235 413.663,273.695L410.996,280.249Z" style="fill:rgb(98,174,178);fill-rule:nonzero;"/>
                <path d="M410.822,268.945L405.537,262.461C396.754,250.014 386.918,239.399 376.302,230.912L381.2,224.784C392.36,233.706 402.679,244.822 411.867,257.824L416.898,263.982L410.822,268.945Z" style="fill:rgb(98,174,178);fill-rule:nonzero;"/>
                <path d="M573.146,232.169C555.377,215.166 531.716,205.803 506.521,205.803C501.704,205.803 496.815,206.152 491.991,206.839L491.253,201.661C496.32,200.938 501.458,200.572 506.522,200.572C533.071,200.572 558.016,210.451 576.762,228.389L573.146,232.169Z" style="fill:rgb(228,113,40);fill-rule:nonzero;"/>
                <path d="M324.215,378.084L322.309,364.738C375.671,357.12 402.26,294.965 402.522,294.338C403.704,291.497 432.227,224.487 493.267,215.776L495.171,229.122C441.646,236.76 415.227,298.894 414.966,299.521C413.78,302.371 385.239,369.371 324.215,378.084Z" style="fill:rgb(0,135,143);fill-rule:nonzero;"/>
                <path d="M268.146,364.592L273.999,354.52C288.361,362.864 305.005,365.977 322.134,363.526L323.784,375.052C334.942,373.459 345.844,369.639 356.185,363.699L346.419,346.695C338.243,351.391 329.693,354.401 321.006,355.641C317.638,356.122 314.247,356.366 310.922,356.366C293.941,356.365 278.067,350.123 266.224,338.79C260.488,333.3 256.014,326.944 252.929,319.901L236.096,327.274C240.115,336.445 245.977,344.856 253.515,352.07L252.667,352.956C257.382,357.468 262.58,361.354 268.146,364.592Z" style="fill:rgb(0,135,143);fill-rule:nonzero;"/>
                <path d="M310.927,381.103C287.541,381.102 265.594,372.421 249.122,356.662L252.823,352.794C268.294,367.597 288.927,375.749 310.921,375.75C315.161,375.75 319.475,375.44 323.748,374.829C367.755,368.544 394.355,331.304 406.33,309.572L409.367,302.384L414.299,304.468L411.088,312.032C398.664,334.62 370.895,373.504 324.506,380.128C319.982,380.774 315.414,381.103 310.927,381.103Z" style="fill:rgb(0,135,143);fill-rule:nonzero;"/>
                <path d="M310.927,395.585C283.788,395.581 258.286,385.473 239.112,367.122L245.891,360.038C263.232,376.635 286.327,385.776 310.922,385.78C315.641,385.78 320.432,385.436 325.165,384.758C343.509,382.137 360.787,374.326 376.522,361.542L382.704,369.151C365.57,383.071 346.679,391.588 326.554,394.463C321.363,395.207 316.105,395.585 310.927,395.585Z" style="fill:rgb(0,135,143);fill-rule:nonzero;"/>
                <path d="M325.601,387.789L324.388,379.297C363.921,373.652 390.077,344.238 405.071,320.525C405.53,319.729 409.567,312.724 411.113,309.784L418.707,313.776C416.995,317.031 412.642,324.57 412.457,324.889L412.37,325.035C396.417,350.288 368.415,381.676 325.601,387.789Z" style="fill:rgb(229,173,36);fill-rule:nonzero;"/>
                <path d="M268.458,364.057C243.845,349.765 229.151,324.672 229.151,296.934C229.151,292.898 229.468,288.851 230.095,284.907L236.146,285.868C235.571,289.496 235.278,293.219 235.278,296.934C235.278,322.463 248.832,345.576 271.534,358.758L268.458,364.057Z" style="fill:rgb(98,174,178);fill-rule:nonzero;"/>
                <path d="M238.933,286.309L227.31,284.465C230.674,263.27 242.39,244.541 260.301,231.73C278.492,218.717 301.143,213.35 324.097,216.625C329.266,217.364 334.415,218.57 339.404,220.209L335.73,231.389C331.395,229.965 326.921,228.917 322.433,228.275C281.706,222.478 245.02,247.957 238.933,286.309Z" style="fill:rgb(228,113,40);fill-rule:nonzero;"/>
                <path d="M237.418,368.893C226.687,358.626 218.56,346.567 213.262,333.05L226.953,327.683C231.467,339.198 238.408,349.488 247.584,358.267L237.418,368.893Z" style="fill:rgb(229,173,36);fill-rule:nonzero;"/>
                <path d="M310.927,388.842C285.533,388.839 261.686,379.396 243.77,362.251C227.463,346.646 217.574,325.867 215.923,303.744L215.914,303.585L215.672,297.094L224.244,296.774L224.483,303.184C225.993,323.162 234.947,341.934 249.701,356.054C266.013,371.663 287.755,380.261 310.922,380.264C315.375,380.264 319.904,379.939 324.387,379.297L325.602,387.789C320.718,388.487 315.78,388.842 310.927,388.842Z" style="fill:rgb(98,174,178);fill-rule:nonzero;"/>
                <path d="M350.312,358.852L347.647,354.208L349.968,352.876C380.242,335.497 397.154,302.274 400.237,295.791L401.386,293.374L406.22,295.673L405.071,298.09C401.869,304.825 384.29,339.348 352.634,357.519L350.312,358.852Z" style="fill:rgb(229,173,36);fill-rule:nonzero;"/>
                <path d="M417.194,293.418C416.926,292.775 415.017,288.272 411.386,281.689L412.749,280.938C400.122,258.024 371.902,218.58 324.776,211.853C320.192,211.198 315.542,210.866 310.956,210.866L310.956,220.018C315.11,220.018 319.324,220.32 323.482,220.914C328.577,221.642 333.426,222.809 338.053,224.313L334.705,234.492C378.205,248.8 400.08,299.946 400.291,300.448C401.497,303.347 430.54,371.567 492.924,380.471L495.51,362.35C443.533,354.931 417.448,294.022 417.194,293.418Z" style="fill:rgb(0,135,143);fill-rule:nonzero;"/>
                <path d="M588.917,296.934L581.563,296.934C581.563,276.684 572.628,257.319 557.049,243.804C540.313,229.285 517.604,222.831 494.737,226.089L493.7,218.81C518.673,215.246 543.521,222.333 561.868,238.249C579.058,253.161 588.917,274.551 588.917,296.934Z" style="fill:rgb(229,173,36);fill-rule:nonzero;"/>
                <rect x="301.648" y="266.091" width="19.887" height="61.699" style="fill:rgb(229,173,36);"/>
                <rect x="280.743" y="286.998" width="61.695" height="19.89" style="fill:rgb(0,135,143);"/>
                <path d="M607.156,305.922L599.297,305.193C599.548,302.479 599.676,299.701 599.676,296.933C599.676,272.725 589.927,250.067 572.225,233.13L577.682,227.427C596.954,245.866 607.569,270.551 607.569,296.933C607.568,299.942 607.43,302.967 607.156,305.922Z" style="fill:rgb(98,174,178);fill-rule:nonzero;"/>
                <path d="M580.115,310.515L574.984,309.495C575.808,305.347 576.226,301.084 576.226,296.826C576.226,279.008 569.016,262.296 555.925,249.769L559.54,245.99C573.673,259.513 581.456,277.567 581.456,296.826C581.457,301.426 581.005,306.031 580.115,310.515Z" style="fill:rgb(0,135,143);fill-rule:nonzero;"/>
                <path d="M571.13,311.774L559.255,308.747C560.233,304.913 560.728,300.938 560.729,296.933C560.729,268.894 536.412,246.082 506.521,246.082C503.611,246.082 500.635,246.295 497.676,246.714C496.893,246.826 496.112,246.955 495.334,247.098L493.123,235.043C494.061,234.871 495,234.717 495.95,234.581C499.482,234.08 503.037,233.826 506.52,233.826C543.168,233.826 572.984,262.137 572.984,296.933C572.983,301.96 572.359,306.952 571.13,311.774Z" style="fill:rgb(228,113,40);fill-rule:nonzero;"/>
                <path d="M472.94,248.847L471.527,246.298C443.391,261.896 426.921,292.428 423.904,298.391L420.925,304.455L417.774,302.906L416.475,305.791L427.655,310.811L432.667,299.649C435.615,294.186 458.506,253.884 495.34,247.097L494.232,241.081C487,242.417 479.851,245.019 472.94,248.847Z" style="fill:rgb(0,135,143);fill-rule:nonzero;"/>
                <path d="M506.553,383.94C501.934,383.94 497.229,383.602 492.569,382.936C471.764,379.965 452.461,370.298 435.194,354.205L442.714,346.137C458.3,360.664 475.599,369.372 494.129,372.019C499.08,372.725 504.054,372.995 508.941,372.88L509.199,383.907C508.316,383.928 507.436,383.94 506.553,383.94Z" style="fill:rgb(98,174,178);fill-rule:nonzero;"/>
            </g>
        </g>
    </g>
    <g transform="matrix(1,0,0,1,-170.021,-172.638)">
        <g id="OPENSOURCECOMMUNITY">
            <g>
                <path d="M524.588,342.071L530.455,323.375L535.661,323.375L541.615,342.071L536.697,342.071L535.661,338.246L530.283,338.246L529.334,342.071L524.588,342.071ZM532.871,327.805L531.175,334.651L534.712,334.651L532.871,327.805Z" style="fill:rgb(0,135,143);fill-rule:nonzero;"/>
                <path d="M544.579,323.375L552.115,323.375C557.292,323.375 559.248,326.021 559.248,329.617C559.248,332.177 558.213,334.133 556.171,335.225L559.823,342.071L554.358,342.071L551.54,336.146L549.21,336.146L549.21,342.071L544.579,342.071L544.579,323.375ZM554.33,329.646C554.33,327.978 553.726,327.144 551.568,327.144L549.21,327.144L549.21,332.436L551.655,332.436C553.266,332.436 554.33,331.717 554.33,329.646Z" style="fill:rgb(0,135,143);fill-rule:nonzero;"/>
                <path d="M562.99,323.375L569.116,323.375C576.105,323.375 578.435,326.684 578.435,332.551C578.435,336.981 577.083,342.072 569.145,342.072L562.99,342.072L562.99,323.375ZM567.621,327.144L567.621,338.247L569.375,338.247C573.201,338.247 573.488,335.917 573.488,332.753C573.488,329.101 573.114,327.145 568.972,327.145L567.621,327.145L567.621,327.144Z" style="fill:rgb(0,135,143);fill-rule:nonzero;"/>
                <path d="M592.128,323.375L596.586,323.375L596.586,335.657C596.586,341.179 592.358,342.359 589.051,342.359C585.858,342.359 581.774,341.295 581.774,335.628L581.774,323.375L586.405,323.375L586.405,334.766C586.405,337.872 587.498,338.591 589.253,338.591C591.353,338.591 592.129,337.642 592.129,334.794L592.129,323.375L592.128,323.375Z" style="fill:rgb(0,135,143);fill-rule:nonzero;"/>
                <path d="M600.729,338.246L605.561,338.246L605.561,327.201L600.729,327.201L600.729,323.375L615.053,323.375L615.053,327.201L610.192,327.201L610.192,338.246L615.053,338.246L615.053,342.071L600.729,342.071L600.729,338.246Z" style="fill:rgb(0,135,143);fill-rule:nonzero;"/>
                <path d="M623.253,342.071L618.881,342.071L618.881,323.375L623.915,323.375L629.983,334.593L629.983,323.375L634.297,323.375L634.297,342.071L629.609,342.071L623.223,330.106L623.253,342.071Z" style="fill:rgb(0,135,143);fill-rule:nonzero;"/>
                <path d="M653.226,332.724C653.226,338.131 651.242,342.36 645.23,342.36C639.851,342.36 637.377,339.109 637.377,332.925C637.377,327.287 639.534,323.116 645.201,323.116C650.521,323.116 653.226,325.59 653.226,332.724ZM648.308,332.724C648.308,328.151 647.934,326.885 645.202,326.885C642.728,326.885 642.297,328.352 642.297,332.925C642.297,336.693 642.556,338.591 645.231,338.591C647.934,338.591 648.308,337.038 648.308,332.724Z" style="fill:rgb(0,135,143);fill-rule:nonzero;"/>
                <path d="M540.982,360.182C540.982,365.647 538.739,369.818 533.015,369.818C527.607,369.818 525.22,366.395 525.22,360.326C525.22,354.631 527.521,350.575 533.072,350.575C538.451,350.574 540.982,353.394 540.982,360.182ZM537.042,360.182C537.042,355.494 536.352,353.653 533.072,353.653C529.937,353.653 529.161,355.551 529.161,360.326C529.161,364.497 529.736,366.74 533.015,366.74C536.266,366.739 537.042,364.611 537.042,360.182Z" style="fill:rgb(140,121,101);fill-rule:nonzero;"/>
                <path d="M545.27,350.833L552.317,350.833C557.322,350.833 559.191,353.451 559.191,357.104C559.191,361.016 556.689,363.576 552.173,363.576L548.981,363.576L548.981,369.53L545.27,369.53L545.27,350.833ZM555.25,357.248C555.25,355.292 554.56,353.911 551.942,353.911L548.98,353.911L548.98,360.498L552.057,360.498C554.071,360.498 555.25,359.664 555.25,357.248Z" style="fill:rgb(140,121,101);fill-rule:nonzero;"/>
                <path d="M577.199,350.833L577.199,353.911L567.678,353.911L567.678,358.456L576.306,358.456L576.306,361.505L567.678,361.505L567.678,366.423L577.169,366.423L577.169,369.529L563.967,369.529L563.967,350.833L577.199,350.833Z" style="fill:rgb(140,121,101);fill-rule:nonzero;"/>
                <path d="M585.312,369.529L581.802,369.529L581.802,350.833L585.858,350.833L593.135,363.547L593.135,350.833L596.586,350.833L596.586,369.529L592.818,369.529L585.282,356.241L585.312,369.529Z" style="fill:rgb(140,121,101);fill-rule:nonzero;"/>
                <rect x="603.951" y="360.727" width="7.881" height="3.021" style="fill:rgb(140,121,101);fill-rule:nonzero;"/>
                <path d="M620.09,355.78C620.09,352.731 623.167,350.574 627.022,350.574C629.122,350.574 630.991,351.006 632.746,351.984L631.711,355.435C630.503,354.371 628.949,353.652 627.051,353.652C625.297,353.652 624.031,354.198 624.031,355.521C624.031,358.886 633.494,357.765 633.494,364.294C633.494,368.205 629.898,369.816 625.93,369.816C623.887,369.816 621.616,369.355 619.717,368.119L620.925,364.696C622.392,365.99 624.203,366.767 626.303,366.767C628.115,366.767 629.525,366.163 629.525,364.666C629.523,360.699 620.09,362.138 620.09,355.78Z" style="fill:rgb(140,121,101);fill-rule:nonzero;"/>
                <path d="M653.168,360.182C653.168,365.647 650.925,369.818 645.201,369.818C639.793,369.818 637.406,366.395 637.406,360.326C637.406,354.631 639.707,350.575 645.258,350.575C650.637,350.574 653.168,353.394 653.168,360.182ZM649.228,360.182C649.228,355.494 648.538,353.653 645.258,353.653C642.123,353.653 641.347,355.551 641.347,360.326C641.347,364.497 641.922,366.74 645.201,366.74C648.451,366.739 649.228,364.611 649.228,360.182Z" style="fill:rgb(140,121,101);fill-rule:nonzero;"/>
                <path d="M667.552,350.833L671.148,350.833L671.148,362.885C671.148,367.919 667.955,369.818 663.871,369.818C659.902,369.818 656.796,368.178 656.796,362.972L656.796,350.833L660.506,350.833L660.506,362.339C660.506,365.819 661.686,366.769 664.015,366.769C666.661,366.769 667.553,365.56 667.553,362.282L667.553,350.833L667.552,350.833Z" style="fill:rgb(140,121,101);fill-rule:nonzero;"/>
                <path d="M675.837,350.833L682.769,350.833C687.774,350.833 689.672,353.221 689.672,356.874C689.672,359.434 688.55,361.332 686.45,362.339L690.39,369.529L685.99,369.529L682.711,363.057L679.548,363.057L679.548,369.529L675.837,369.529L675.837,350.833ZM685.731,356.932C685.731,354.831 684.868,353.911 682.423,353.911L679.547,353.911L679.547,360.037L682.509,360.037C684.38,360.037 685.731,359.261 685.731,356.932Z" style="fill:rgb(140,121,101);fill-rule:nonzero;"/>
                <path d="M708.57,368.35C706.672,369.357 704.831,369.818 702.703,369.818C697.324,369.818 694.247,366.625 694.247,360.211C694.247,354.056 697.756,350.575 703.191,350.575C705.119,350.575 706.93,351.064 708.398,351.956L707.161,355.12C705.809,354.056 704.486,353.653 703.019,353.653C699.855,353.653 698.187,355.81 698.187,360.125C698.187,364.497 699.711,366.77 703.047,366.77C704.859,366.77 706.47,366.223 707.707,365.389L708.57,368.35Z" style="fill:rgb(140,121,101);fill-rule:nonzero;"/>
                <path d="M726.78,350.833L726.78,353.911L717.259,353.911L717.259,358.456L725.887,358.456L725.887,361.505L717.259,361.505L717.259,366.423L726.75,366.423L726.75,369.529L713.548,369.529L713.548,350.833L726.78,350.833Z" style="fill:rgb(140,121,101);fill-rule:nonzero;"/>
                <path d="M540.292,395.809C538.394,396.816 536.553,397.277 534.425,397.277C529.046,397.277 525.969,394.084 525.969,387.67C525.969,381.515 529.478,378.034 534.913,378.034C536.841,378.034 538.652,378.523 540.119,379.415L538.883,382.579C537.531,381.515 536.208,381.112 534.741,381.112C531.577,381.112 529.909,383.269 529.909,387.584C529.909,391.956 531.433,394.229 534.769,394.229C536.581,394.229 538.192,393.682 539.429,392.848L540.292,395.809Z" style="fill:rgb(228,113,40);fill-rule:nonzero;"/>
                <path d="M559.68,387.641C559.68,393.106 557.437,397.277 551.713,397.277C546.305,397.277 543.918,393.854 543.918,387.785C543.918,382.09 546.219,378.034 551.77,378.034C557.148,378.033 559.68,380.853 559.68,387.641ZM555.739,387.641C555.739,382.953 555.049,381.112 551.769,381.112C548.634,381.112 547.858,383.01 547.858,387.785C547.858,391.956 548.433,394.199 551.712,394.199C554.963,394.198 555.739,392.07 555.739,387.641Z" style="fill:rgb(228,113,40);fill-rule:nonzero;"/>
                <path d="M575.099,384.074L571.907,390.516L569.261,390.516L565.81,383.814L565.81,396.988L562.819,396.988L562.819,378.292L566.098,378.292L570.584,386.864L574.956,378.292L578.148,378.292L578.148,396.988L575.099,396.988L575.099,384.074Z" style="fill:rgb(228,113,40);fill-rule:nonzero;"/>
                <path d="M593.796,384.074L590.604,390.516L587.958,390.516L584.507,383.814L584.507,396.988L581.516,396.988L581.516,378.292L584.795,378.292L589.281,386.864L593.653,378.292L596.845,378.292L596.845,396.988L593.796,396.988L593.796,384.074Z" style="fill:rgb(228,113,40);fill-rule:nonzero;"/>
                <path d="M611.458,378.292L615.054,378.292L615.054,390.344C615.054,395.378 611.861,397.277 607.777,397.277C603.808,397.277 600.702,395.637 600.702,390.431L600.702,378.292L604.412,378.292L604.412,389.798C604.412,393.278 605.592,394.228 607.921,394.228C610.567,394.228 611.459,393.019 611.459,389.741L611.459,378.292L611.458,378.292Z" style="fill:rgb(228,113,40);fill-rule:nonzero;"/>
                <path d="M622.707,396.988L619.197,396.988L619.197,378.292L623.253,378.292L630.53,391.006L630.53,378.292L633.981,378.292L633.981,396.988L630.213,396.988L622.677,383.7L622.707,396.988Z" style="fill:rgb(228,113,40);fill-rule:nonzero;"/>
                <path d="M638.441,393.882L643.417,393.882L643.417,381.399L638.441,381.399L638.441,378.293L652.19,378.293L652.19,381.399L647.128,381.399L647.128,393.882L652.19,393.882L652.19,396.988L638.441,396.988L638.441,393.882Z" style="fill:rgb(228,113,40);fill-rule:nonzero;"/>
                <path d="M671.723,381.37L665.827,381.37L665.827,396.988L662.116,396.988L662.116,381.37L656.22,381.37L656.22,378.292L671.723,378.292L671.723,381.37Z" style="fill:rgb(228,113,40);fill-rule:nonzero;"/>
                <path d="M682.999,386.662L686.853,378.292L690.563,378.292L684.696,389.625L684.696,396.988L680.957,396.988L680.957,389.711L674.802,378.292L678.8,378.292L682.999,386.662Z" style="fill:rgb(228,113,40);fill-rule:nonzero;"/>
            </g>
        </g>
    </g>
</svg>
