<?xml version="1.0" encoding="UTF-8" standalone="no"?>
<!DOCTYPE svg PUBLIC "-//W3C//DTD SVG 1.1//EN" "http://www.w3.org/Graphics/SVG/1.1/DTD/svg11.dtd">
<svg width="100%" height="100%" viewBox="0 0 220 235" version="1.1" xmlns="http://www.w3.org/2000/svg" xmlns:xlink="http://www.w3.org/1999/xlink" xml:space="preserve" xmlns:serif="http://www.serif.com/" style="fill-rule:evenodd;clip-rule:evenodd;stroke-linejoin:round;stroke-miterlimit:2;">
    <g id="Dark-Blob-3" serif:id="Dark Blob 3" transform="matrix(0.918066,0.16188,-0.16188,0.918066,-2082.68,-717.762)">
        <path d="M2569,350L2483,344L2527.9,590.245L2608,577.529L2569,350Z" style="fill:none;"/>
        <clipPath id="_clip1">
            <path d="M2569,350L2483,344L2527.9,590.245L2608,577.529L2569,350Z"/>
        </clipPath>
        <g clip-path="url(#_clip1)">
            <g id="Grid-Dark" serif:id="Grid Dark" transform="matrix(0.984808,-0.173648,0.173648,0.984808,1270,29.9922)">
                <g>
                    <g id="Grid-Texture" serif:id="Grid Texture">
                    </g>
                    <g id="Grid-Texture1" serif:id="Grid Texture" transform="matrix(1,0,0,1,875.812,400.167)">
                        <g transform="matrix(0.909091,0,0,0.909091,257.727,116.818)">
                            <circle cx="24.5" cy="14.5" r="5.5" style="fill-opacity:0.22;"/>
                        </g>
                        <g transform="matrix(0.909091,0,0,0.909091,282.727,116.818)">
                            <circle cx="24.5" cy="14.5" r="5.5" style="fill-opacity:0.22;"/>
                        </g>
                        <g transform="matrix(0.909091,0,0,0.909091,307.727,116.818)">
                            <circle cx="24.5" cy="14.5" r="5.5" style="fill-opacity:0.22;"/>
                        </g>
                        <g transform="matrix(0.909091,0,0,0.909091,257.727,141.818)">
                            <circle cx="24.5" cy="14.5" r="5.5" style="fill-opacity:0.22;"/>
                        </g>
                        <g transform="matrix(0.909091,0,0,0.909091,257.727,166.818)">
                            <circle cx="24.5" cy="14.5" r="5.5" style="fill-opacity:0.22;"/>
                        </g>
                        <g transform="matrix(0.909091,0,0,0.909091,282.727,141.818)">
                            <circle cx="24.5" cy="14.5" r="5.5" style="fill-opacity:0.22;"/>
                        </g>
                        <g transform="matrix(0.909091,0,0,0.909091,307.727,141.818)">
                            <circle cx="24.5" cy="14.5" r="5.5" style="fill-opacity:0.22;"/>
                        </g>
                        <g transform="matrix(0.909091,0,0,0.909091,282.727,166.818)">
                            <circle cx="24.5" cy="14.5" r="5.5" style="fill-opacity:0.22;"/>
                        </g>
                        <g transform="matrix(0.909091,0,0,0.909091,307.727,166.818)">
                            <circle cx="24.5" cy="14.5" r="5.5" style="fill-opacity:0.22;"/>
                        </g>
                        <g transform="matrix(0.909091,0,0,0.909091,257.727,241.818)">
                            <circle cx="24.5" cy="14.5" r="5.5" style="fill-opacity:0.22;"/>
                        </g>
                        <g transform="matrix(0.909091,0,0,0.909091,257.727,191.818)">
                            <circle cx="24.5" cy="14.5" r="5.5" style="fill-opacity:0.22;"/>
                        </g>
                        <g transform="matrix(0.909091,0,0,0.909091,257.727,216.818)">
                            <circle cx="24.5" cy="14.5" r="5.5" style="fill-opacity:0.22;"/>
                        </g>
                        <g transform="matrix(0.909091,0,0,0.909091,257.727,316.818)">
                            <circle cx="24.5" cy="14.5" r="5.5" style="fill-opacity:0.22;"/>
                        </g>
                        <g transform="matrix(0.909091,0,0,0.909091,257.727,266.818)">
                            <circle cx="24.5" cy="14.5" r="5.5" style="fill-opacity:0.22;"/>
                        </g>
                        <g transform="matrix(0.909091,0,0,0.909091,257.727,291.818)">
                            <circle cx="24.5" cy="14.5" r="5.5" style="fill-opacity:0.22;"/>
                        </g>
                        <g transform="matrix(0.909091,0,0,0.909091,282.727,191.818)">
                            <circle cx="24.5" cy="14.5" r="5.5" style="fill-opacity:0.22;"/>
                        </g>
                        <g transform="matrix(0.909091,0,0,0.909091,307.727,191.818)">
                            <circle cx="24.5" cy="14.5" r="5.5" style="fill-opacity:0.22;"/>
                        </g>
                        <g transform="matrix(0.909091,0,0,0.909091,282.727,216.818)">
                            <circle cx="24.5" cy="14.5" r="5.5" style="fill-opacity:0.22;"/>
                        </g>
                        <g transform="matrix(0.909091,0,0,0.909091,307.727,216.818)">
                            <circle cx="24.5" cy="14.5" r="5.5" style="fill-opacity:0.22;"/>
                        </g>
                        <g transform="matrix(0.909091,0,0,0.909091,282.727,241.818)">
                            <circle cx="24.5" cy="14.5" r="5.5" style="fill-opacity:0.22;"/>
                        </g>
                        <g transform="matrix(0.909091,0,0,0.909091,307.727,241.818)">
                            <circle cx="24.5" cy="14.5" r="5.5" style="fill-opacity:0.22;"/>
                        </g>
                        <g transform="matrix(0.909091,0,0,0.909091,282.727,266.818)">
                            <circle cx="24.5" cy="14.5" r="5.5" style="fill-opacity:0.22;"/>
                        </g>
                        <g transform="matrix(0.909091,0,0,0.909091,307.727,266.818)">
                            <circle cx="24.5" cy="14.5" r="5.5" style="fill-opacity:0.22;"/>
                        </g>
                        <g transform="matrix(0.909091,0,0,0.909091,282.727,291.818)">
                            <circle cx="24.5" cy="14.5" r="5.5" style="fill-opacity:0.22;"/>
                        </g>
                        <g transform="matrix(0.909091,0,0,0.909091,307.727,291.818)">
                            <circle cx="24.5" cy="14.5" r="5.5" style="fill-opacity:0.22;"/>
                        </g>
                        <g transform="matrix(0.909091,0,0,0.909091,282.727,316.818)">
                            <circle cx="24.5" cy="14.5" r="5.5" style="fill-opacity:0.22;"/>
                        </g>
                        <g transform="matrix(0.909091,0,0,0.909091,307.727,316.818)">
                            <circle cx="24.5" cy="14.5" r="5.5" style="fill-opacity:0.22;"/>
                        </g>
                        <g transform="matrix(0.909091,0,0,0.909091,257.727,341.818)">
                            <circle cx="24.5" cy="14.5" r="5.5" style="fill-opacity:0.22;"/>
                        </g>
                        <g transform="matrix(0.909091,0,0,0.909091,282.727,341.818)">
                            <circle cx="24.5" cy="14.5" r="5.5" style="fill-opacity:0.22;"/>
                        </g>
                        <g transform="matrix(0.909091,0,0,0.909091,307.727,341.818)">
                            <circle cx="24.5" cy="14.5" r="5.5" style="fill-opacity:0.22;"/>
                        </g>
                    </g>
                </g>
            </g>
        </g>
    </g>
    <g id="Light-Blob-6" serif:id="Light Blob 6" transform="matrix(0.918066,0.16188,-0.16188,0.918066,-1451.24,-111.363)">
        <path d="M1579,-10L1574,-43L1649.29,-52.639L1654.4,-26.646L1753,-39.722L1766,28L1593,65.875L1579,-10Z" style="fill:none;"/>
        <clipPath id="_clip2">
            <path d="M1579,-10L1574,-43L1649.29,-52.639L1654.4,-26.646L1753,-39.722L1766,28L1593,65.875L1579,-10Z"/>
        </clipPath>
        <g clip-path="url(#_clip2)">
            <g id="Grid-Light" serif:id="Grid Light" transform="matrix(0.984808,-0.173648,0.173648,0.984808,1264,25.9922)">
                <g>
                    <g id="Grid-Texture2" serif:id="Grid Texture">
                        <g transform="matrix(0.909091,0,0,0.909091,307.727,-8.18182)">
                            <circle cx="24.5" cy="14.5" r="5.5" style="fill:rgb(55,72,85);"/>
                        </g>
                        <g transform="matrix(0.909091,0,0,0.909091,332.727,-8.18182)">
                            <circle cx="24.5" cy="14.5" r="5.5" style="fill:rgb(55,72,85);"/>
                        </g>
                        <g transform="matrix(0.909091,0,0,0.909091,307.727,16.8182)">
                            <circle cx="24.5" cy="14.5" r="5.5" style="fill:rgb(55,72,85);"/>
                        </g>
                        <g transform="matrix(0.909091,0,0,0.909091,332.727,16.8182)">
                            <circle cx="24.5" cy="14.5" r="5.5" style="fill:rgb(55,72,85);"/>
                        </g>
                        <g transform="matrix(0.909091,0,0,0.909091,307.727,41.8182)">
                            <circle cx="24.5" cy="14.5" r="5.5" style="fill:rgb(55,72,85);"/>
                        </g>
                        <g transform="matrix(0.909091,0,0,0.909091,332.727,41.8182)">
                            <circle cx="24.5" cy="14.5" r="5.5" style="fill:rgb(55,72,85);"/>
                        </g>
                        <g transform="matrix(0.909091,0,0,0.909091,307.727,66.8182)">
                            <circle cx="24.5" cy="14.5" r="5.5" style="fill:rgb(55,72,85);"/>
                        </g>
                        <g transform="matrix(0.909091,0,0,0.909091,332.727,66.8182)">
                            <circle cx="24.5" cy="14.5" r="5.5" style="fill:rgb(55,72,85);"/>
                        </g>
                        <g transform="matrix(0.909091,0,0,0.909091,357.727,-8.18182)">
                            <circle cx="24.5" cy="14.5" r="5.5" style="fill:rgb(55,72,85);"/>
                        </g>
                        <g transform="matrix(0.909091,0,0,0.909091,357.727,16.8182)">
                            <circle cx="24.5" cy="14.5" r="5.5" style="fill:rgb(55,72,85);"/>
                        </g>
                        <g transform="matrix(0.909091,0,0,0.909091,357.727,41.8182)">
                            <circle cx="24.5" cy="14.5" r="5.5" style="fill:rgb(55,72,85);"/>
                        </g>
                        <g transform="matrix(0.909091,0,0,0.909091,357.727,66.8182)">
                            <circle cx="24.5" cy="14.5" r="5.5" style="fill:rgb(55,72,85);"/>
                        </g>
                    </g>
                    <g id="Grid-Texture3" serif:id="Grid Texture" transform="matrix(1,0,0,1,400,5.32907e-15)">
                        <g transform="matrix(0.909091,0,0,0.909091,57.7273,41.8182)">
                            <circle cx="24.5" cy="14.5" r="5.5" style="fill:rgb(55,72,85);"/>
                        </g>
                        <g transform="matrix(0.909091,0,0,0.909091,-17.2727,16.8182)">
                            <circle cx="24.5" cy="14.5" r="5.5" style="fill:rgb(55,72,85);"/>
                        </g>
                        <g transform="matrix(0.909091,0,0,0.909091,7.72727,16.8182)">
                            <circle cx="24.5" cy="14.5" r="5.5" style="fill:rgb(55,72,85);"/>
                        </g>
                        <g transform="matrix(0.909091,0,0,0.909091,32.7273,16.8182)">
                            <circle cx="24.5" cy="14.5" r="5.5" style="fill:rgb(55,72,85);"/>
                        </g>
                        <g transform="matrix(0.909091,0,0,0.909091,57.7273,16.8182)">
                            <circle cx="24.5" cy="14.5" r="5.5" style="fill:rgb(55,72,85);"/>
                        </g>
                        <g transform="matrix(0.909091,0,0,0.909091,-17.2727,41.8182)">
                            <circle cx="24.5" cy="14.5" r="5.5" style="fill:rgb(55,72,85);"/>
                        </g>
                        <g transform="matrix(0.909091,0,0,0.909091,7.72727,41.8182)">
                            <circle cx="24.5" cy="14.5" r="5.5" style="fill:rgb(55,72,85);"/>
                        </g>
                        <g transform="matrix(0.909091,0,0,0.909091,32.7273,41.8182)">
                            <circle cx="24.5" cy="14.5" r="5.5" style="fill:rgb(55,72,85);"/>
                        </g>
                        <g transform="matrix(0.909091,0,0,0.909091,-17.2727,66.8182)">
                            <circle cx="24.5" cy="14.5" r="5.5" style="fill:rgb(55,72,85);"/>
                        </g>
                        <g transform="matrix(0.909091,0,0,0.909091,7.72727,66.8182)">
                            <circle cx="24.5" cy="14.5" r="5.5" style="fill:rgb(55,72,85);"/>
                        </g>
                        <g transform="matrix(0.909091,0,0,0.909091,32.7273,66.8182)">
                            <circle cx="24.5" cy="14.5" r="5.5" style="fill:rgb(55,72,85);"/>
                        </g>
                        <g transform="matrix(0.909091,0,0,0.909091,57.7273,66.8182)">
                            <circle cx="24.5" cy="14.5" r="5.5" style="fill:rgb(55,72,85);"/>
                        </g>
                    </g>
                </g>
            </g>
        </g>
    </g>
</svg>
