<?xml version="1.0" encoding="UTF-8" standalone="no"?>
<!DOCTYPE svg PUBLIC "-//W3C//DTD SVG 1.1//EN" "http://www.w3.org/Graphics/SVG/1.1/DTD/svg11.dtd">
<svg width="100%" height="100%" viewBox="0 0 1050 400" version="1.1" xmlns="http://www.w3.org/2000/svg" xmlns:xlink="http://www.w3.org/1999/xlink" xml:space="preserve" xmlns:serif="http://www.serif.com/" style="fill-rule:evenodd;clip-rule:evenodd;stroke-linecap:round;stroke-linejoin:round;stroke-miterlimit:1.5;">
    <g transform="matrix(1,0,0,-1,-233.811,445.159)">
        <path d="M919.246,149.943L866.819,228.584" style="fill:none;stroke:rgb(206,217,224);stroke-width:3.85px;"/>
    </g>
    <g transform="matrix(1,0,0,-1,-233.811,445.159)">
        <path d="M916.561,151.518L977.005,223.252" style="fill:none;stroke:rgb(206,217,224);stroke-width:3.85px;"/>
    </g>
    <g transform="matrix(-1,0,0,1,1087.03,108.853)">
        <path d="M919.246,149.943L828.499,210.642" style="fill:none;stroke:rgb(206,217,224);stroke-width:3.85px;"/>
    </g>
    <g transform="matrix(-1,0,0,1,1087.03,108.853)">
        <path d="M916.561,151.518L977.005,223.252" style="fill:none;stroke:rgb(206,217,224);stroke-width:3.85px;"/>
    </g>
    <g transform="matrix(-1,0,0,1,1087.03,108.853)">
        <path d="M919.246,151.518L1007.22,113.066" style="fill:none;stroke:rgb(206,217,224);stroke-width:3.85px;"/>
    </g>
    <g transform="matrix(-1,0,0,1,1087.03,108.853)">
        <path d="M916.561,149.943L935.241,57.973" style="fill:none;stroke:rgb(206,217,224);stroke-width:3.85px;"/>
    </g>
    <g transform="matrix(1,0,0,1,0,94.4131)">
        <path d="M919.246,149.943L866.819,228.584" style="fill:none;stroke:rgb(206,217,224);stroke-width:3.85px;"/>
    </g>
    <g transform="matrix(1,0,0,1,3.88758,-3.33224)">
        <path d="M681.547,296.561L912.673,249.264" style="fill:none;stroke:rgb(206,217,224);stroke-width:3.85px;"/>
    </g>
    <g transform="matrix(1,0,0,1,3.88758,-3.33224)">
        <path d="M268.888,403.332L338.687,360.275L367.429,352.904L620.234,371.203L681.547,296.561L746.169,360.275" style="fill:none;stroke:rgb(206,217,224);stroke-width:3.85px;"/>
    </g>
    <g transform="matrix(1,0,0,1,3.88758,-3.33224)">
        <path d="M274.829,322.359L350.334,349.895" style="fill:none;stroke:rgb(206,217,224);stroke-width:3.85px;"/>
    </g>
    <g transform="matrix(1,0,0,1,0,94.4131)">
        <path d="M916.561,151.518L977.005,223.252" style="fill:none;stroke:rgb(206,217,224);stroke-width:3.85px;"/>
    </g>
    <g transform="matrix(1,0,0,1,0,94.4131)">
        <path d="M919.246,151.518L1007.22,113.066" style="fill:none;stroke:rgb(206,217,224);stroke-width:3.85px;"/>
    </g>
    <g transform="matrix(1,0,0,1,0,94.4131)">
        <path d="M916.561,149.943L935.241,57.973" style="fill:none;stroke:rgb(206,217,224);stroke-width:3.85px;"/>
    </g>
    <g transform="matrix(1.88445,0,0,1.40359,-529.95,-60.6608)">
        <path d="M699.203,292.024C699.203,291.238 698.727,290.599 698.142,290.599L663.139,290.599C662.554,290.599 662.078,291.238 662.078,292.024L662.078,305.007C662.078,305.793 662.554,306.432 663.139,306.432L698.142,306.432C698.727,306.432 699.203,305.793 699.203,305.007L699.203,292.024Z" style="fill:rgb(206,217,224);"/>
    </g>
    <g transform="matrix(1.88445,0,0,1.40359,-598.558,-124.901)">
        <path d="M699.203,292.024C699.203,291.238 698.727,290.599 698.142,290.599L663.139,290.599C662.554,290.599 662.078,291.238 662.078,292.024L662.078,305.007C662.078,305.793 662.554,306.432 663.139,306.432L698.142,306.432C698.727,306.432 699.203,305.793 699.203,305.007L699.203,292.024Z" style="fill:rgb(206,217,224);"/>
    </g>
    <g transform="matrix(1.88445,0,0,1.40359,-657.339,-51.1977)">
        <path d="M699.203,292.024C699.203,291.238 698.727,290.599 698.142,290.599L663.139,290.599C662.554,290.599 662.078,291.238 662.078,292.024L662.078,305.007C662.078,305.793 662.554,306.432 663.139,306.432L698.142,306.432C698.727,306.432 699.203,305.793 699.203,305.007L699.203,292.024Z" style="fill:rgb(206,217,224);"/>
    </g>
    <g transform="matrix(1.88445,0,0,1.40359,-366.071,-173.061)">
        <path d="M699.203,292.024C699.203,291.238 698.727,290.599 698.142,290.599L663.139,290.599C662.554,290.599 662.078,291.238 662.078,292.024L662.078,305.007C662.078,305.793 662.554,306.432 663.139,306.432L698.142,306.432C698.727,306.432 699.203,305.793 699.203,305.007L699.203,292.024Z" style="fill:rgb(206,217,224);"/>
    </g>
    <g transform="matrix(1.88445,0,0,1.40359,-306.642,-102.827)">
        <path d="M699.203,292.024C699.203,291.238 698.727,290.599 698.142,290.599L663.139,290.599C662.554,290.599 662.078,291.238 662.078,292.024L662.078,305.007C662.078,305.793 662.554,306.432 663.139,306.432L698.142,306.432C698.727,306.432 699.203,305.793 699.203,305.007L699.203,292.024Z" style="fill:rgb(206,217,224);"/>
    </g>
    <g transform="matrix(1,0,0,1,-166.503,206.814)">
        <path d="M916.561,151.518L977.005,223.252" style="fill:none;stroke:rgb(206,217,224);stroke-width:3.85px;"/>
    </g>
    <g transform="matrix(-1,0,0,1,1660.5,207.809)">
        <path d="M916.561,151.518L977.005,223.252" style="fill:none;stroke:rgb(206,217,224);stroke-width:3.85px;"/>
    </g>
    <g transform="matrix(1.88445,0,0,1.40359,-415.548,-95.4565)">
        <path d="M699.203,292.024C699.203,291.238 698.727,290.599 698.142,290.599L663.139,290.599C662.554,290.599 662.078,291.238 662.078,292.024L662.078,305.007C662.078,305.793 662.554,306.432 663.139,306.432L698.142,306.432C698.727,306.432 699.203,305.793 699.203,305.007L699.203,292.024Z" style="fill:rgb(206,217,224);"/>
    </g>
    <g transform="matrix(1.88445,0,0,-1.40359,-540.453,642.399)">
        <path d="M699.203,292.024C699.203,291.238 698.727,290.599 698.142,290.599L663.139,290.599C662.554,290.599 662.078,291.238 662.078,292.024L662.078,305.007C662.078,305.793 662.554,306.432 663.139,306.432L698.142,306.432C698.727,306.432 699.203,305.793 699.203,305.007L699.203,292.024Z" style="fill:rgb(206,217,224);"/>
    </g>
    <g transform="matrix(1.88445,0,0,-1.40359,-649.359,635.029)">
        <path d="M699.203,292.024C699.203,291.238 698.727,290.599 698.142,290.599L663.139,290.599C662.554,290.599 662.078,291.238 662.078,292.024L662.078,305.007C662.078,305.793 662.554,306.432 663.139,306.432L698.142,306.432C698.727,306.432 699.203,305.793 699.203,305.007L699.203,292.024Z" style="fill:rgb(206,217,224);"/>
    </g>
    <g transform="matrix(1.88445,0,0,1.40359,-279.06,-211.471)">
        <path d="M699.203,292.024C699.203,291.238 698.727,290.599 698.142,290.599L663.139,290.599C662.554,290.599 662.078,291.238 662.078,292.024L662.078,305.007C662.078,305.793 662.554,306.432 663.139,306.432L698.142,306.432C698.727,306.432 699.203,305.793 699.203,305.007L699.203,292.024Z" style="fill:rgb(206,217,224);"/>
    </g>
    <g transform="matrix(1.88445,0,0,1.40359,-347.019,-265.214)">
        <path d="M699.203,292.024C699.203,291.238 698.727,290.599 698.142,290.599L663.139,290.599C662.554,290.599 662.078,291.238 662.078,292.024L662.078,305.007C662.078,305.793 662.554,306.432 663.139,306.432L698.142,306.432C698.727,306.432 699.203,305.793 699.203,305.007L699.203,292.024Z" style="fill:rgb(206,217,224);"/>
    </g>
    <g transform="matrix(-1.88445,0,0,1.40359,1453.1,-158.622)">
        <path d="M699.203,292.024C699.203,291.238 698.727,290.599 698.142,290.599L663.139,290.599C662.554,290.599 662.078,291.238 662.078,292.024L662.078,305.007C662.078,305.793 662.554,306.432 663.139,306.432L698.142,306.432C698.727,306.432 699.203,305.793 699.203,305.007L699.203,292.024Z" style="fill:rgb(206,217,224);"/>
    </g>
    <g transform="matrix(-1.88445,0,0,1.40359,1393.67,-88.3872)">
        <path d="M699.203,292.024C699.203,291.238 698.727,290.599 698.142,290.599L663.139,290.599C662.554,290.599 662.078,291.238 662.078,292.024L662.078,305.007C662.078,305.793 662.554,306.432 663.139,306.432L698.142,306.432C698.727,306.432 699.203,305.793 699.203,305.007L699.203,292.024Z" style="fill:rgb(206,217,224);"/>
    </g>
    <g transform="matrix(-1.88445,0,0,1.40359,1366.09,-197.032)">
        <path d="M699.203,292.024C699.203,291.238 698.727,290.599 698.142,290.599L663.139,290.599C662.554,290.599 662.078,291.238 662.078,292.024L662.078,305.007C662.078,305.793 662.554,306.432 663.139,306.432L698.142,306.432C698.727,306.432 699.203,305.793 699.203,305.007L699.203,292.024Z" style="fill:rgb(206,217,224);"/>
    </g>
    <g transform="matrix(-1.88445,0,0,1.40359,1434.05,-250.774)">
        <path d="M699.203,292.024C699.203,291.238 698.727,290.599 698.142,290.599L663.139,290.599C662.554,290.599 662.078,291.238 662.078,292.024L662.078,305.007C662.078,305.793 662.554,306.432 663.139,306.432L698.142,306.432C698.727,306.432 699.203,305.793 699.203,305.007L699.203,292.024Z" style="fill:rgb(206,217,224);"/>
    </g>
    <g transform="matrix(1.88445,0,0,1.40359,-925.872,-69.4206)">
        <path d="M699.203,292.024C699.203,291.238 698.727,290.599 698.142,290.599L663.139,290.599C662.554,290.599 662.078,291.238 662.078,292.024L662.078,305.007C662.078,305.793 662.554,306.432 663.139,306.432L698.142,306.432C698.727,306.432 699.203,305.793 699.203,305.007L699.203,292.024Z" style="fill:rgb(206,217,224);"/>
    </g>
    <g transform="matrix(1.88445,0,0,1.40359,-1027.12,-99.9661)">
        <path d="M699.203,292.024C699.203,291.238 698.727,290.599 698.142,290.599L663.139,290.599C662.554,290.599 662.078,291.238 662.078,292.024L662.078,305.007C662.078,305.793 662.554,306.432 663.139,306.432L698.142,306.432C698.727,306.432 699.203,305.793 699.203,305.007L699.203,292.024Z" style="fill:rgb(206,217,224);"/>
    </g>
    <g transform="matrix(1.88445,0,0,1.40359,-1009.86,-18.9927)">
        <path d="M699.203,292.024C699.203,291.238 698.727,290.599 698.142,290.599L663.139,290.599C662.554,290.599 662.078,291.238 662.078,292.024L662.078,305.007C662.078,305.793 662.554,306.432 663.139,306.432L698.142,306.432C698.727,306.432 699.203,305.793 699.203,305.007L699.203,292.024Z" style="fill:rgb(206,217,224);"/>
    </g>
</svg>
