<?xml version="1.0" encoding="UTF-8" standalone="no"?>
<!DOCTYPE svg PUBLIC "-//W3C//DTD SVG 1.1//EN" "http://www.w3.org/Graphics/SVG/1.1/DTD/svg11.dtd">
<svg width="100%" height="100%" viewBox="0 0 1400 300" version="1.1" xmlns="http://www.w3.org/2000/svg" xmlns:xlink="http://www.w3.org/1999/xlink" xml:space="preserve" xmlns:serif="http://www.serif.com/" style="fill-rule:evenodd;clip-rule:evenodd;stroke-linejoin:round;stroke-miterlimit:2;">
    <g transform="matrix(1,0,0,1.22388,5.68434e-14,-90.4179)">
        <path d="M1400,195L0,319L0,10.146L1400,10.146L1400,195Z" style="fill:white;"/>
        <clipPath id="_clip1">
            <path d="M1400,195L0,319L0,10.146L1400,10.146L1400,195Z"/>
        </clipPath>
        <g clip-path="url(#_clip1)">
            <g transform="matrix(-0.341048,-2.42691,9.36643,-0.878734,-3133.23,1509.24)">
                <rect x="307" y="323" width="251" height="204" style="fill:url(#_Linear2);"/>
            </g>
        </g>
    </g>
    <g transform="matrix(1,0,0,1,2.27374e-13,-78)">
        <path d="M0,378C0,378 101.406,331.673 145,329C189.897,326.247 581.662,362.369 607,360C634.196,357.457 901.169,212.478 913,203C924.831,193.522 1333.54,243.104 1350,244C1366.46,244.896 1400,226.239 1400,226.239" style="fill:rgb(130,176,211);fill-opacity:0.43;"/>
        <clipPath id="_clip3">
            <path d="M0,378C0,378 101.406,331.673 145,329C189.897,326.247 581.662,362.369 607,360C634.196,357.457 901.169,212.478 913,203C924.831,193.522 1333.54,243.104 1350,244C1366.46,244.896 1400,226.239 1400,226.239"/>
        </clipPath>
        <g clip-path="url(#_clip3)">
            <g transform="matrix(0.0474256,0.391052,-1.9703,0.238952,1359.42,81.1559)">
                <rect x="307" y="323" width="251" height="204" style="fill:url(#_Linear4);"/>
            </g>
            <g transform="matrix(-0.1699,-0.90451,2.60655,-0.489604,-35.965,805.034)">
                <rect x="307" y="323" width="251" height="204" style="fill:url(#_Linear5);"/>
            </g>
            <g transform="matrix(-0.104984,-0.914321,2.71571,-0.311821,-1049.44,865.102)">
                <rect x="307" y="323" width="251" height="204" style="fill:url(#_Linear6);"/>
            </g>
            <g transform="matrix(0.0147427,0.121562,-1.95473,0.237064,2319.95,75.1338)">
                <rect x="307" y="323" width="251" height="204" style="fill:url(#_Linear7);"/>
            </g>
        </g>
    </g>
    <g transform="matrix(0.000545104,-0.325414,9.42796,0.0157929,-3159.41,176.48)">
        <rect x="307" y="323" width="251" height="204" style="fill:url(#_Linear8);"/>
    </g>
    <defs>
        <linearGradient id="_Linear2" x1="0" y1="0" x2="1" y2="0" gradientUnits="userSpaceOnUse" gradientTransform="matrix(251,0,0,204,307,425)"><stop offset="0" style="stop-color:rgb(43,149,214);stop-opacity:0.65"/><stop offset="1" style="stop-color:rgb(179,204,223);stop-opacity:0.65"/></linearGradient>
        <linearGradient id="_Linear4" x1="0" y1="0" x2="1" y2="0" gradientUnits="userSpaceOnUse" gradientTransform="matrix(251,0,0,204,307,425)"><stop offset="0" style="stop-color:rgb(95,170,217);stop-opacity:1"/><stop offset="1" style="stop-color:rgb(179,204,223);stop-opacity:1"/></linearGradient>
        <linearGradient id="_Linear5" x1="0" y1="0" x2="1" y2="0" gradientUnits="userSpaceOnUse" gradientTransform="matrix(251,0,0,204,307,425)"><stop offset="0" style="stop-color:rgb(43,149,214);stop-opacity:1"/><stop offset="1" style="stop-color:rgb(179,204,223);stop-opacity:1"/></linearGradient>
        <linearGradient id="_Linear6" x1="0" y1="0" x2="1" y2="0" gradientUnits="userSpaceOnUse" gradientTransform="matrix(251,0,0,204,307,425)"><stop offset="0" style="stop-color:rgb(43,149,214);stop-opacity:1"/><stop offset="1" style="stop-color:rgb(179,204,223);stop-opacity:1"/></linearGradient>
        <linearGradient id="_Linear7" x1="0" y1="0" x2="1" y2="0" gradientUnits="userSpaceOnUse" gradientTransform="matrix(251,0,0,204,307,425)"><stop offset="0" style="stop-color:rgb(73,161,216);stop-opacity:1"/><stop offset="1" style="stop-color:rgb(179,204,223);stop-opacity:1"/></linearGradient>
        <linearGradient id="_Linear8" x1="0" y1="0" x2="1" y2="0" gradientUnits="userSpaceOnUse" gradientTransform="matrix(251,0,0,204,307,425)"><stop offset="0" style="stop-color:rgb(153,201,231);stop-opacity:0"/><stop offset="1" style="stop-color:rgb(153,201,231);stop-opacity:1"/></linearGradient>
    </defs>
</svg>
