<?xml version="1.0" encoding="UTF-8" standalone="no"?>
<!DOCTYPE svg PUBLIC "-//W3C//DTD SVG 1.1//EN" "http://www.w3.org/Graphics/SVG/1.1/DTD/svg11.dtd">
<svg width="100%" height="100%" viewBox="0 0 600 500" version="1.1" xmlns="http://www.w3.org/2000/svg" xmlns:xlink="http://www.w3.org/1999/xlink" xml:space="preserve" xmlns:serif="http://www.serif.com/" style="fill-rule:evenodd;clip-rule:evenodd;stroke-linecap:round;stroke-miterlimit:1.5;">
    <path d="M411.375,427L308.849,285.7L216.5,72.8L142,177L300,285.7L140,387L142,177" style="fill:none;stroke:rgb(24,42,55);stroke-width:9px;"/>
    <path d="M146.5,382.885L408.182,422.6" style="fill:none;stroke:rgb(24,42,55);stroke-width:9px;"/>
    <g id="Layer6" transform="matrix(1,0,0,1,241.199,254.7)">
        <g opacity="0.41">
            <g transform="matrix(0.594937,0,0,0.73545,57.6456,4.84656)">
                <path d="M325,47.323C325,43.833 321.498,41 317.184,41L16.816,41C12.502,41 9,43.833 9,47.323L9,110.277C9,113.767 12.502,116.6 16.816,116.6L317.184,116.6C321.498,116.6 325,113.767 325,110.277L325,47.323Z" style="fill:rgb(24,42,55);"/>
            </g>
            <g transform="matrix(0.594937,0,0,0.78836,57.6456,-5.32275)">
                <path d="M325,47.323C325,43.833 321.246,41 316.622,41L17.378,41C12.754,41 9,43.833 9,47.323L9,110.277C9,113.767 12.754,116.6 17.378,116.6L316.622,116.6C321.246,116.6 325,113.767 325,110.277L325,47.323Z" style="fill:rgb(91,113,129);"/>
            </g>
            <g transform="matrix(0.594937,0,0,0.73545,57.6456,0.846561)">
                <path d="M325,47.323C325,43.833 321.498,41 317.184,41L16.816,41C12.502,41 9,43.833 9,47.323L9,110.277C9,113.767 12.502,116.6 16.816,116.6L317.184,116.6C321.498,116.6 325,113.767 325,110.277L325,47.323Z" style="fill:rgb(56,74,88);"/>
            </g>
        </g>
    </g>
    <g id="Layer61" serif:id="Layer6" transform="matrix(1,0,0,1,241.199,43.9757)">
        <g opacity="0.41">
            <g transform="matrix(0.594937,0,0,0.73545,57.6456,4.84656)">
                <path d="M325,47.323C325,43.833 321.498,41 317.184,41L16.816,41C12.502,41 9,43.833 9,47.323L9,110.277C9,113.767 12.502,116.6 16.816,116.6L317.184,116.6C321.498,116.6 325,113.767 325,110.277L325,47.323Z" style="fill:rgb(24,42,55);"/>
            </g>
            <g transform="matrix(0.594937,0,0,0.78836,57.6456,-5.32275)">
                <path d="M325,47.323C325,43.833 321.246,41 316.622,41L17.378,41C12.754,41 9,43.833 9,47.323L9,110.277C9,113.767 12.754,116.6 17.378,116.6L316.622,116.6C321.246,116.6 325,113.767 325,110.277L325,47.323Z" style="fill:rgb(91,113,129);"/>
            </g>
            <g transform="matrix(0.594937,0,0,0.73545,57.6456,0.846561)">
                <path d="M325,47.323C325,43.833 321.498,41 317.184,41L16.816,41C12.502,41 9,43.833 9,47.323L9,110.277C9,113.767 12.502,116.6 16.816,116.6L317.184,116.6C321.498,116.6 325,113.767 325,110.277L325,47.323Z" style="fill:rgb(56,74,88);"/>
            </g>
        </g>
    </g>
    <g id="Layer62" serif:id="Layer6" transform="matrix(1,0,0,1,42.375,163.8)">
        <g opacity="0.41">
            <g transform="matrix(0.79237,0,0,1.07937,55.8687,-9.25397)">
                <path d="M325,47.323C325,43.833 321.141,41 316.387,41L17.613,41C12.859,41 9,43.833 9,47.323L9,110.277C9,113.767 12.859,116.6 17.613,116.6L316.387,116.6C321.141,116.6 325,113.767 325,110.277L325,47.323Z" style="fill:rgb(24,42,55);"/>
            </g>
            <g transform="matrix(0.794304,0,0,1.07937,55.8513,-17.254)">
                <path d="M325,47.323C325,43.833 321.15,41 316.408,41L17.592,41C12.85,41 9,43.833 9,47.323L9,110.277C9,113.767 12.85,116.6 17.592,116.6L316.408,116.6C321.15,116.6 325,113.767 325,110.277L325,47.323Z" style="fill:rgb(91,113,129);"/>
            </g>
            <g transform="matrix(0.794304,0,0,1.07937,55.8513,-13.254)">
                <path d="M325,47.323C325,43.833 321.15,41 316.408,41L17.592,41C12.85,41 9,43.833 9,47.323L9,110.277C9,113.767 12.85,116.6 17.592,116.6L316.408,116.6C321.15,116.6 325,113.767 325,110.277L325,47.323Z" style="fill:rgb(56,74,88);"/>
            </g>
        </g>
    </g>
    <g id="Layer63" serif:id="Layer6" transform="matrix(1,0,0,1,115.699,370.1)">
        <g opacity="0.41">
            <g transform="matrix(0.79237,0,0,1.07937,55.8687,-9.25397)">
                <path d="M325,47.323C325,43.833 321.141,41 316.387,41L17.613,41C12.859,41 9,43.833 9,47.323L9,110.277C9,113.767 12.859,116.6 17.613,116.6L316.387,116.6C321.141,116.6 325,113.767 325,110.277L325,47.323Z" style="fill:rgb(24,42,55);"/>
            </g>
            <g transform="matrix(0.794304,0,0,1.07937,55.8513,-17.254)">
                <path d="M325,47.323C325,43.833 321.15,41 316.408,41L17.592,41C12.85,41 9,43.833 9,47.323L9,110.277C9,113.767 12.85,116.6 17.592,116.6L316.408,116.6C321.15,116.6 325,113.767 325,110.277L325,47.323Z" style="fill:rgb(91,113,129);"/>
            </g>
            <g transform="matrix(0.794304,0,0,1.07937,55.8513,-13.254)">
                <path d="M325,47.323C325,43.833 321.15,41 316.408,41L17.592,41C12.85,41 9,43.833 9,47.323L9,110.277C9,113.767 12.85,116.6 17.592,116.6L316.408,116.6C321.15,116.6 325,113.767 325,110.277L325,47.323Z" style="fill:rgb(56,74,88);"/>
            </g>
        </g>
    </g>
    <g id="Layer3" transform="matrix(1,0,0,1,146.125,-2)">
        <g id="Layer64" serif:id="Layer6" transform="matrix(1,0,0,1,-26.375,210.6)">
            <g transform="matrix(0.79237,0,0,1.07937,48.8687,-9.25397)">
                <path d="M325,47.323C325,43.833 321.141,41 316.387,41L17.613,41C12.859,41 9,43.833 9,47.323L9,110.277C9,113.767 12.859,116.6 17.613,116.6L316.387,116.6C321.141,116.6 325,113.767 325,110.277L325,47.323Z" style="fill:rgb(24,42,55);"/>
            </g>
            <g transform="matrix(0.794304,0,0,1.07937,48.8513,-17.254)">
                <path d="M325,47.323C325,43.833 321.15,41 316.408,41L17.592,41C12.85,41 9,43.833 9,47.323L9,110.277C9,113.767 12.85,116.6 17.592,116.6L316.408,116.6C321.15,116.6 325,113.767 325,110.277L325,47.323Z" style="fill:rgb(91,113,129);"/>
            </g>
            <g transform="matrix(0.794304,0,0,1.07937,48.8513,-13.254)">
                <path d="M325,47.323C325,43.833 321.15,41 316.408,41L17.592,41C12.85,41 9,43.833 9,47.323L9,110.277C9,113.767 12.85,116.6 17.592,116.6L316.408,116.6C321.15,116.6 325,113.767 325,110.277L325,47.323Z" style="fill:rgb(56,74,88);"/>
            </g>
        </g>
        <g transform="matrix(1,0,0,1,-120.75,-53.5)">
            <text x="169.75px" y="333.4px" style="font-family:'DINNextLTW04-Bold', 'DIN Next LT W04', sans-serif;font-weight:700;font-size:30px;fill:white;">CS<tspan x="204.58px 221.56px " y="333.4px 333.4px ">V </tspan>File</text>
            <text x="169.75px" y="356.4px" style="font-family:'DINNextLTW04-Italic', 'DIN Next LT W04', sans-serif;font-style:italic;font-size:20px;fill:white;">Calculated Power Budget</text>
        </g>
    </g>
    <g id="Layer31" serif:id="Layer3" transform="matrix(1,0,0,1,2,-85)">
        <g id="Layer65" serif:id="Layer6" transform="matrix(1,0,0,1,-38.125,190.2)">
            <g transform="matrix(0.79237,0,0,1.07937,48.8687,-9.25397)">
                <path d="M325,47.323C325,43.833 321.141,41 316.387,41L17.613,41C12.859,41 9,43.833 9,47.323L9,110.277C9,113.767 12.859,116.6 17.613,116.6L316.387,116.6C321.141,116.6 325,113.767 325,110.277L325,47.323Z" style="fill:rgb(24,42,55);"/>
            </g>
            <g transform="matrix(0.794304,0,0,1.07937,48.8513,-17.254)">
                <path d="M325,47.323C325,43.833 321.15,41 316.408,41L17.592,41C12.85,41 9,43.833 9,47.323L9,110.277C9,113.767 12.85,116.6 17.592,116.6L316.408,116.6C321.15,116.6 325,113.767 325,110.277L325,47.323Z" style="fill:rgb(91,113,129);"/>
            </g>
            <g transform="matrix(0.794304,0,0,1.07937,48.8513,-13.254)">
                <path d="M325,47.323C325,43.833 321.15,41 316.408,41L17.592,41C12.85,41 9,43.833 9,47.323L9,110.277C9,113.767 12.85,116.6 17.592,116.6L316.408,116.6C321.15,116.6 325,113.767 325,110.277L325,47.323Z" style="fill:rgb(56,74,88);"/>
            </g>
        </g>
        <g transform="matrix(1,0,0,1,-130.5,-79.5)">
            <text x="169.75px" y="333.4px" style="font-family:'DINNextLTW04-Bold', 'DIN Next LT W04', sans-serif;font-weight:700;font-size:30px;fill:white;">Python Node</text>
            <text x="169.75px" y="365.4px" style="font-family:'DINNextLTW04-Italic', 'DIN Next LT W04', sans-serif;font-style:italic;font-size:20px;fill:white;">Battery State Estimation</text>
        </g>
    </g>
    <g id="Layer4" transform="matrix(1,0,0,1,-48,21)">
        <g id="Layer66" serif:id="Layer6" transform="matrix(1,0,0,1,15,290.6)">
            <g transform="matrix(0.79237,0,0,1.07937,48.8687,-9.25397)">
                <path d="M325,47.323C325,43.833 321.141,41 316.387,41L17.613,41C12.859,41 9,43.833 9,47.323L9,110.277C9,113.767 12.859,116.6 17.613,116.6L316.387,116.6C321.141,116.6 325,113.767 325,110.277L325,47.323Z" style="fill:rgb(24,42,55);"/>
            </g>
            <g transform="matrix(0.794304,0,0,1.07937,48.8513,-17.254)">
                <path d="M325,47.323C325,43.833 321.15,41 316.408,41L17.592,41C12.85,41 9,43.833 9,47.323L9,110.277C9,113.767 12.85,116.6 17.592,116.6L316.408,116.6C321.15,116.6 325,113.767 325,110.277L325,47.323Z" style="fill:rgb(91,113,129);"/>
            </g>
            <g transform="matrix(0.794304,0,0,1.07937,48.8513,-13.254)">
                <path d="M325,47.323C325,43.833 321.15,41 316.408,41L17.592,41C12.85,41 9,43.833 9,47.323L9,110.277C9,113.767 12.85,116.6 17.592,116.6L316.408,116.6C321.15,116.6 325,113.767 325,110.277L325,47.323Z" style="fill:rgb(56,74,88);"/>
            </g>
        </g>
        <g transform="matrix(1,0,0,1,-83.375,23.6)">
            <text x="169.75px" y="333.4px" style="font-family:'DINNextLTW04-Bold', 'DIN Next LT W04', sans-serif;font-weight:700;font-size:30px;fill:white;">USB-<tspan x="236.89px " y="333.4px ">S</tspan>erial Port</text>
            <text x="169.75px" y="365.4px" style="font-family:'DINNextLTW04-Italic', 'DIN Next LT W04', sans-serif;font-style:italic;font-size:20px;fill:white;">Motor Controller</text>
        </g>
    </g>
    <g id="Layer5" transform="matrix(1,0,0,1,28,-9)">
        <g id="Layer67" serif:id="Layer6" transform="matrix(1,0,0,1,-34,10)">
            <g transform="matrix(1.0538,0,0,1.07937,46.5158,-9.25397)">
                <path d="M325,47.323C325,43.833 322.098,41 318.524,41L15.476,41C11.902,41 9,43.833 9,47.323L9,110.277C9,113.767 11.902,116.6 15.476,116.6L318.524,116.6C322.098,116.6 325,113.767 325,110.277L325,47.323Z" style="fill:rgb(24,42,55);"/>
            </g>
            <g transform="matrix(1.0538,0,0,1.07937,46.5158,-17.254)">
                <path d="M325,47.323C325,43.833 322.098,41 318.524,41L15.476,41C11.902,41 9,43.833 9,47.323L9,110.277C9,113.767 11.902,116.6 15.476,116.6L318.524,116.6C322.098,116.6 325,113.767 325,110.277L325,47.323Z" style="fill:rgb(91,113,129);"/>
            </g>
            <g transform="matrix(1.0538,0,0,1.07937,46.5158,-13.254)">
                <path d="M325,47.323C325,43.833 322.098,41 318.524,41L15.476,41C11.902,41 9,43.833 9,47.323L9,110.277C9,113.767 11.902,116.6 15.476,116.6L318.524,116.6C322.098,116.6 325,113.767 325,110.277L325,47.323Z" style="fill:rgb(56,74,88);"/>
            </g>
        </g>
        <g transform="matrix(1,0,0,1,-129.5,-258.7)">
            <text x="169.75px" y="333.4px" style="font-family:'DINNextLTW04-Bold', 'DIN Next LT W04', sans-serif;font-weight:700;font-size:30px;fill:white;">CAN-Bus</text>
            <text x="169.75px" y="365.4px" style="font-family:'DINNextLTW04-Italic', 'DIN Next LT W04', sans-serif;font-style:italic;font-size:20px;fill:white;">Throttle,<tspan x="239.35px " y="365.4px "> </tspan>Motor RPM,<tspan x="338.61px 343.05px " y="365.4px 365.4px "> T</tspan>emp.<tspan x="393.61px " y="365.4px "> </tspan>Sensor</text>
        </g>
    </g>
    <g id="Layer1" transform="matrix(1,0,0,1,-49.625,242.2)">
        <g id="Layer68" serif:id="Layer6" transform="matrix(1,0,0,1,273.625,110.6)">
            <g transform="matrix(0.79237,0,0,1.07937,55.8687,-9.25397)">
                <path d="M325,47.323C325,43.833 321.141,41 316.387,41L17.613,41C12.859,41 9,43.833 9,47.323L9,110.277C9,113.767 12.859,116.6 17.613,116.6L316.387,116.6C321.141,116.6 325,113.767 325,110.277L325,47.323Z" style="fill:rgb(24,42,55);"/>
            </g>
            <g transform="matrix(0.794304,0,0,1.07937,55.8513,-17.254)">
                <path d="M325,47.323C325,43.833 321.15,41 316.408,41L17.592,41C12.85,41 9,43.833 9,47.323L9,110.277C9,113.767 12.85,116.6 17.592,116.6L316.408,116.6C321.15,116.6 325,113.767 325,110.277L325,47.323Z" style="fill:rgb(91,113,129);"/>
            </g>
            <g transform="matrix(0.794304,0,0,1.07937,55.8513,-13.254)">
                <path d="M325,47.323C325,43.833 321.15,41 316.408,41L17.592,41C12.85,41 9,43.833 9,47.323L9,110.277C9,113.767 12.85,116.6 17.592,116.6L316.408,116.6C321.15,116.6 325,113.767 325,110.277L325,47.323Z" style="fill:rgb(56,74,88);"/>
            </g>
        </g>
        <g transform="matrix(1,0,0,1,182,-158.1)">
            <text x="169.75px" y="333.4px" style="font-family:'DINNextLTW04-Bold', 'DIN Next LT W04', sans-serif;font-weight:700;font-size:30px;fill:white;">USB-<tspan x="236.89px " y="333.4px ">S</tspan>erial Port</text>
            <text x="169.75px" y="365.4px" style="font-family:'DINNextLTW04-Italic', 'DIN Next LT W04', sans-serif;font-style:italic;font-size:20px;fill:white;">GPS Unit</text>
        </g>
    </g>
</svg>
