<?xml version="1.0" encoding="UTF-8" standalone="no"?><!DOCTYPE svg PUBLIC "-//W3C//DTD SVG 1.1//EN" "http://www.w3.org/Graphics/SVG/1.1/DTD/svg11.dtd"><svg width="100%" height="100%" viewBox="0 0 300 200" version="1.1" xmlns="http://www.w3.org/2000/svg" xmlns:xlink="http://www.w3.org/1999/xlink" xml:space="preserve" xmlns:serif="http://www.serif.com/" style="fill-rule:evenodd;clip-rule:evenodd;stroke-linejoin:round;stroke-miterlimit:2;"><g id="Layer1"><rect x="0" y="0" width="300" height="200" style="fill:#202b33;"/><rect x="18.342" y="55" width="265.658" height="32.375" style="fill:#191d20;"/><rect x="155.342" y="55" width="128.658" height="32.375" style="fill:#394b59;"/><g transform="matrix(1,0,0,1,38.171,-12)"><text x="147.761px" y="89.987px" style="font-family:'DINNextLTW04-Bold', 'DIN Next LT W04', sans-serif;font-weight:700;font-size:20px;fill:#fff;">8.7</text><text x="179.901px" y="89.987px" style="font-family:'DINNextLTW04-Bold', 'DIN Next LT W04', sans-serif;font-weight:700;font-size:16px;fill:#fff;">mph</text></g><text x="58.583px" y="77.987px" style="font-family:'DINNextLTW04-Bold', 'DIN Next LT W04', sans-serif;font-weight:700;font-size:20px;fill:#fff;">Current</text><rect x="18.342" y="97" width="265.658" height="32.375" style="fill:#191d20;"/><rect x="155.342" y="97" width="128.658" height="32.375" style="fill:#394b59;"/><g transform="matrix(1,0,0,1,38.171,30)"><text x="147.761px" y="89.987px" style="font-family:'DINNextLTW04-Bold', 'DIN Next LT W04', sans-serif;font-weight:700;font-size:20px;fill:#fff;">9.2</text><text x="179.901px" y="89.987px" style="font-family:'DINNextLTW04-Bold', 'DIN Next LT W04', sans-serif;font-weight:700;font-size:16px;fill:#fff;">mph</text></g><text x="56.183px" y="119.987px" style="font-family:'DINNextLTW04-Bold', 'DIN Next LT W04', sans-serif;font-weight:700;font-size:20px;fill:#fff;">A<tspan x="68.023px " y="119.987px ">v</tspan>er<tspan x="96.763px " y="119.987px ">a</tspan>ge</text><rect x="18.342" y="139" width="265.658" height="32.375" style="fill:#191d20;"/><rect x="155.342" y="139" width="128.658" height="32.375" style="fill:#394b59;"/><g transform="matrix(1,0,0,1,38.171,72)"><text x="142.201px" y="89.987px" style="font-family:'DINNextLTW04-Bold', 'DIN Next LT W04', sans-serif;font-weight:700;font-size:20px;fill:#fff;">13.1</text><text x="185.461px" y="89.987px" style="font-family:'DINNextLTW04-Bold', 'DIN Next LT W04', sans-serif;font-weight:700;font-size:16px;fill:#fff;">mph</text></g><text x="49.363px" y="161.987px" style="font-family:'DINNextLTW04-Bold', 'DIN Next LT W04', sans-serif;font-weight:700;font-size:20px;fill:#fff;">Maximum</text><text x="18.342px" y="32.32px" style="font-family:'DINNextLTW04-Bold', 'DIN Next LT W04', sans-serif;font-weight:700;font-size:24px;fill:#fff;">GPS Speed</text></g></svg>