<?xml version="1.0" encoding="UTF-8" standalone="no"?><!DOCTYPE svg PUBLIC "-//W3C//DTD SVG 1.1//EN" "http://www.w3.org/Graphics/SVG/1.1/DTD/svg11.dtd"><svg width="100%" height="100%" viewBox="0 0 300 200" version="1.1" xmlns="http://www.w3.org/2000/svg" xmlns:xlink="http://www.w3.org/1999/xlink" xml:space="preserve" xmlns:serif="http://www.serif.com/" style="fill-rule:evenodd;clip-rule:evenodd;stroke-linejoin:round;stroke-miterlimit:2;"><g id="Layer1"><rect x="0" y="0" width="300" height="200" style="fill:#202b33;"/><path d="M267.393,183.25c10.809,-15.437 16.607,-33.826 16.607,-52.671c0,-50.682 -41.147,-91.829 -91.829,-91.829c-50.682,0 -91.829,41.147 -91.829,91.829c0,18.845 5.798,37.234 16.607,52.671l24.823,-17.381c-7.242,-10.343 -11.126,-22.664 -11.126,-35.29c0,-33.957 27.568,-61.525 61.525,-61.525c33.957,0 61.525,27.568 61.525,61.525c0,12.626 -3.884,24.947 -11.126,35.29l24.823,17.381Z" style="fill:#191d20;"/><path d="M264.393,177.25c10.809,-15.437 16.607,-33.826 16.607,-52.671c0,-50.682 -41.147,-91.829 -91.829,-91.829c-50.682,0 -91.829,41.147 -91.829,91.829c0,18.845 5.798,37.234 16.607,52.671l24.823,-17.381c-7.242,-10.343 -11.126,-22.664 -11.126,-35.29c0,-33.957 27.568,-61.525 61.525,-61.525c33.957,0 61.525,27.568 61.525,61.525c0,12.626 -3.884,24.947 -11.126,35.29l24.823,17.381Z" style="fill:#394b59;"/><path d="M263.462,70.603c-17.278,-23.781 -44.896,-37.853 -74.291,-37.853c-50.682,0 -91.829,41.147 -91.829,91.829c0,18.845 5.798,37.234 16.607,52.671l24.823,-17.381c-7.242,-10.343 -11.126,-22.664 -11.126,-35.29c0,-33.957 27.568,-61.525 61.525,-61.525c19.695,0 38.199,9.428 49.775,25.361l24.516,-17.812Z" style="fill:#d9822b;"/><g transform="matrix(1,0,0,1,0.949044,35)"><text x="143.387px" y="99.64px" style="font-family:'DINNextLTW04-Bold', 'DIN Next LT W04', sans-serif;font-weight:700;font-size:48px;fill:#fff;">74%</text><text x="158.831px" y="131.64px" style="font-family:'DINNextLTW04-Bold', 'DIN Next LT W04', sans-serif;font-weight:700;font-size:20px;fill:#fff;">12.14V</text></g><g transform="matrix(1,0,0,1,-94.658,-51)"><text x="113px" y="83.32px" style="font-family:'DINNextLTW04-Bold', 'DIN Next LT W04', sans-serif;font-weight:700;font-size:24px;fill:#fff;">Battery</text><text x="113px" y="107.32px" style="font-family:'DINNextLTW04-Bold', 'DIN Next LT W04', sans-serif;font-weight:700;font-size:24px;fill:#fff;">Vol<tspan x="147.128px " y="107.32px ">t</tspan>age</text></g></g></svg>