<?xml version="1.0" encoding="UTF-8" standalone="no"?><!DOCTYPE svg PUBLIC "-//W3C//DTD SVG 1.1//EN" "http://www.w3.org/Graphics/SVG/1.1/DTD/svg11.dtd"><svg width="100%" height="100%" viewBox="0 0 4000 1000" version="1.1" xmlns="http://www.w3.org/2000/svg" xmlns:xlink="http://www.w3.org/1999/xlink" xml:space="preserve" xmlns:serif="http://www.serif.com/" style="fill-rule:evenodd;clip-rule:evenodd;stroke-linejoin:round;stroke-miterlimit:2;"><g id="Layer1"><path d="M3170.41,9.602l-2384.01,420.366l100.512,570.032l2384.01,-420.366l-100.512,-570.032Z" style="fill:#bfccd6;"/><path id="Dark-Blob-4" serif:id="Dark Blob 4" d="M795.64,138.491l-79.323,7.556l116.564,697.254l74.792,-11.069l-49.083,-274.519l51.419,-9.336l-42.476,-234.315l-42.531,6.247l-29.362,-181.818Z" style="fill:none;"/><clipPath id="_clip1"><path d="M795.64,138.491l-79.323,7.556l116.564,697.254l74.792,-11.069l-49.083,-274.519l51.419,-9.336l-42.476,-234.315l-42.531,6.247l-29.362,-181.818Z"/></clipPath><g clip-path="url(#_clip1)"><g id="Grid-Dark" serif:id="Grid Dark"><g><g id="Grid-Texture" serif:id="Grid Texture"><path d="M797.332,546.807c2.538,-0.42 4.94,1.3 5.36,3.838c0.42,2.538 -1.3,4.939 -3.838,5.359c-2.538,0.42 -4.939,-1.299 -5.359,-3.837c-0.42,-2.538 1.299,-4.94 3.837,-5.36Z" style="fill:#a7b6c2;"/><path d="M789.722,500.821c2.538,-0.42 4.939,1.3 5.359,3.838c0.42,2.538 -1.299,4.939 -3.837,5.359c-2.538,0.42 -4.94,-1.299 -5.36,-3.837c-0.42,-2.538 1.3,-4.94 3.838,-5.36Z" style="fill:#a7b6c2;"/><path d="M793.527,523.814c2.538,-0.42 4.94,1.3 5.36,3.838c0.42,2.538 -1.3,4.939 -3.838,5.359c-2.538,0.42 -4.939,-1.299 -5.36,-3.837c-0.42,-2.538 1.3,-4.94 3.838,-5.36Z" style="fill:#a7b6c2;"/><path d="M808.748,615.786c2.538,-0.42 4.94,1.299 5.36,3.837c0.42,2.538 -1.3,4.94 -3.838,5.36c-2.538,0.42 -4.939,-1.299 -5.359,-3.837c-0.42,-2.538 1.299,-4.94 3.837,-5.36Z" style="fill:#a7b6c2;"/><path d="M801.138,569.8c2.538,-0.42 4.939,1.3 5.359,3.838c0.42,2.538 -1.299,4.939 -3.837,5.359c-2.538,0.42 -4.94,-1.299 -5.36,-3.837c-0.42,-2.538 1.3,-4.94 3.838,-5.36Z" style="fill:#a7b6c2;"/><path d="M804.943,592.793c2.538,-0.42 4.94,1.299 5.36,3.837c0.42,2.539 -1.3,4.94 -3.838,5.36c-2.538,0.42 -4.94,-1.299 -5.36,-3.837c-0.42,-2.538 1.3,-4.94 3.838,-5.36Z" style="fill:#a7b6c2;"/><path d="M812.715,497.016c2.538,-0.42 4.939,1.299 5.359,3.837c0.42,2.538 -1.299,4.94 -3.837,5.36c-2.538,0.42 -4.94,-1.299 -5.36,-3.837c-0.42,-2.539 1.3,-4.94 3.838,-5.36Z" style="fill:#a7b6c2;"/><path d="M835.708,493.211c2.538,-0.42 4.939,1.299 5.359,3.837c0.42,2.538 -1.299,4.94 -3.837,5.36c-2.538,0.42 -4.94,-1.3 -5.36,-3.838c-0.42,-2.538 1.3,-4.939 3.838,-5.359Z" style="fill:#a7b6c2;"/><path d="M858.701,489.405c2.538,-0.42 4.939,1.3 5.359,3.838c0.42,2.538 -1.299,4.939 -3.837,5.359c-2.538,0.42 -4.94,-1.299 -5.36,-3.837c-0.42,-2.538 1.3,-4.94 3.838,-5.36Z" style="fill:#a7b6c2;"/><path d="M816.52,520.009c2.538,-0.42 4.94,1.299 5.36,3.837c0.42,2.538 -1.3,4.94 -3.838,5.36c-2.538,0.42 -4.94,-1.3 -5.36,-3.838c-0.42,-2.538 1.3,-4.939 3.838,-5.359Z" style="fill:#a7b6c2;"/><path d="M839.513,516.204c2.538,-0.421 4.94,1.299 5.36,3.837c0.42,2.538 -1.3,4.94 -3.838,5.36c-2.538,0.42 -4.94,-1.3 -5.36,-3.838c-0.42,-2.538 1.3,-4.939 3.838,-5.359Z" style="fill:#a7b6c2;"/><path d="M862.506,512.398c2.538,-0.42 4.939,1.3 5.36,3.838c0.42,2.538 -1.3,4.939 -3.838,5.359c-2.538,0.42 -4.94,-1.299 -5.36,-3.837c-0.42,-2.538 1.3,-4.94 3.838,-5.36Z" style="fill:#a7b6c2;"/><path d="M820.325,543.002c2.538,-0.42 4.94,1.299 5.36,3.837c0.42,2.538 -1.3,4.94 -3.838,5.36c-2.538,0.42 -4.939,-1.3 -5.359,-3.838c-0.42,-2.538 1.299,-4.939 3.837,-5.359Z" style="fill:#a7b6c2;"/><path d="M843.318,539.196c2.538,-0.42 4.94,1.3 5.36,3.838c0.42,2.538 -1.3,4.94 -3.838,5.36c-2.538,0.42 -4.939,-1.3 -5.359,-3.838c-0.42,-2.538 1.299,-4.94 3.837,-5.36Z" style="fill:#a7b6c2;"/><path d="M866.311,535.391c2.538,-0.42 4.94,1.3 5.36,3.838c0.42,2.538 -1.3,4.939 -3.838,5.359c-2.538,0.42 -4.939,-1.299 -5.359,-3.837c-0.42,-2.538 1.299,-4.94 3.837,-5.36Z" style="fill:#a7b6c2;"/><path d="M824.131,565.995c2.538,-0.42 4.939,1.299 5.359,3.837c0.42,2.538 -1.299,4.94 -3.837,5.36c-2.538,0.42 -4.94,-1.3 -5.36,-3.838c-0.42,-2.538 1.3,-4.939 3.838,-5.359Z" style="fill:#a7b6c2;"/><path d="M847.124,562.189c2.538,-0.42 4.939,1.3 5.359,3.838c0.42,2.538 -1.299,4.94 -3.837,5.36c-2.538,0.42 -4.94,-1.3 -5.36,-3.838c-0.42,-2.538 1.299,-4.94 3.838,-5.36Z" style="fill:#a7b6c2;"/><path d="M827.936,588.988c2.538,-0.42 4.939,1.299 5.36,3.837c0.42,2.538 -1.3,4.94 -3.838,5.36c-2.538,0.42 -4.94,-1.3 -5.36,-3.838c-0.42,-2.538 1.3,-4.939 3.838,-5.359Z" style="fill:#a7b6c2;"/><path d="M850.929,585.182c2.538,-0.42 4.939,1.3 5.359,3.838c0.421,2.538 -1.299,4.939 -3.837,5.36c-2.538,0.42 -4.94,-1.3 -5.36,-3.838c-0.42,-2.538 1.3,-4.94 3.838,-5.36Z" style="fill:#a7b6c2;"/><path d="M831.741,611.981c2.538,-0.42 4.94,1.299 5.36,3.837c0.42,2.538 -1.3,4.94 -3.838,5.36c-2.538,0.42 -4.939,-1.3 -5.359,-3.838c-0.42,-2.538 1.299,-4.939 3.837,-5.359Z" style="fill:#a7b6c2;"/><path d="M854.734,608.175c2.538,-0.42 4.94,1.3 5.36,3.838c0.42,2.538 -1.3,4.939 -3.838,5.359c-2.538,0.421 -4.939,-1.299 -5.359,-3.837c-0.42,-2.538 1.299,-4.94 3.837,-5.36Z" style="fill:#a7b6c2;"/><path d="M812.554,638.779c2.538,-0.42 4.939,1.299 5.359,3.837c0.42,2.538 -1.299,4.94 -3.837,5.36c-2.538,0.42 -4.94,-1.299 -5.36,-3.837c-0.42,-2.539 1.299,-4.94 3.838,-5.36Z" style="fill:#a7b6c2;"/><path d="M816.359,661.772c2.538,-0.42 4.939,1.299 5.359,3.837c0.421,2.538 -1.299,4.94 -3.837,5.36c-2.538,0.42 -4.94,-1.3 -5.36,-3.838c-0.42,-2.538 1.3,-4.939 3.838,-5.359Z" style="fill:#a7b6c2;"/><path d="M835.546,634.974c2.538,-0.42 4.94,1.299 5.36,3.837c0.42,2.538 -1.299,4.94 -3.837,5.36c-2.538,0.42 -4.94,-1.3 -5.36,-3.838c-0.42,-2.538 1.299,-4.939 3.837,-5.359Z" style="fill:#a7b6c2;"/><path d="M858.539,631.168c2.538,-0.42 4.94,1.3 5.36,3.838c0.42,2.538 -1.299,4.939 -3.837,5.359c-2.538,0.42 -4.94,-1.299 -5.36,-3.837c-0.42,-2.538 1.299,-4.94 3.837,-5.36Z" style="fill:#a7b6c2;"/><path d="M839.352,657.967c2.538,-0.421 4.939,1.299 5.359,3.837c0.42,2.538 -1.299,4.94 -3.837,5.36c-2.538,0.42 -4.94,-1.3 -5.36,-3.838c-0.42,-2.538 1.3,-4.939 3.838,-5.359Z" style="fill:#a7b6c2;"/><path d="M862.345,654.161c2.538,-0.42 4.939,1.3 5.359,3.838c0.42,2.538 -1.299,4.939 -3.837,5.359c-2.538,0.42 -4.94,-1.299 -5.36,-3.837c-0.42,-2.538 1.3,-4.94 3.838,-5.36Z" style="fill:#a7b6c2;"/><path d="M881.693,485.6c2.539,-0.42 4.94,1.299 5.36,3.837c0.42,2.539 -1.299,4.94 -3.837,5.36c-2.538,0.42 -4.94,-1.299 -5.36,-3.837c-0.42,-2.538 1.299,-4.94 3.837,-5.36Z" style="fill:#a7b6c2;"/><path d="M885.499,508.593c2.538,-0.42 4.939,1.299 5.359,3.837c0.42,2.538 -1.299,4.94 -3.837,5.36c-2.538,0.42 -4.94,-1.299 -5.36,-3.837c-0.42,-2.538 1.3,-4.94 3.838,-5.36Z" style="fill:#a7b6c2;"/><path d="M889.304,531.586c2.538,-0.42 4.94,1.299 5.36,3.837c0.42,2.538 -1.3,4.94 -3.838,5.36c-2.538,0.42 -4.939,-1.299 -5.359,-3.837c-0.42,-2.539 1.299,-4.94 3.837,-5.36Z" style="fill:#a7b6c2;"/><path d="M827.775,730.751c2.538,-0.42 4.939,1.299 5.359,3.837c0.42,2.538 -1.299,4.94 -3.837,5.36c-2.538,0.42 -4.94,-1.3 -5.36,-3.838c-0.42,-2.538 1.3,-4.939 3.838,-5.359Z" style="fill:#a7b6c2;"/><path d="M820.164,684.765c2.538,-0.42 4.94,1.299 5.36,3.837c0.42,2.538 -1.3,4.94 -3.838,5.36c-2.538,0.42 -4.939,-1.3 -5.359,-3.838c-0.42,-2.538 1.299,-4.939 3.837,-5.359Z" style="fill:#a7b6c2;"/><path d="M823.969,707.758c2.538,-0.42 4.94,1.299 5.36,3.837c0.42,2.538 -1.299,4.94 -3.837,5.36c-2.538,0.42 -4.94,-1.3 -5.36,-3.838c-0.42,-2.538 1.299,-4.939 3.837,-5.359Z" style="fill:#a7b6c2;"/><path d="M839.191,799.73c2.538,-0.421 4.939,1.299 5.359,3.837c0.42,2.538 -1.299,4.94 -3.837,5.36c-2.538,0.42 -4.94,-1.3 -5.36,-3.838c-0.42,-2.538 1.3,-4.939 3.838,-5.359Z" style="fill:#a7b6c2;"/><path d="M831.58,753.744c2.538,-0.42 4.94,1.299 5.36,3.837c0.42,2.538 -1.3,4.94 -3.838,5.36c-2.538,0.42 -4.939,-1.3 -5.359,-3.838c-0.421,-2.538 1.299,-4.939 3.837,-5.359Z" style="fill:#a7b6c2;"/><path d="M835.385,776.737c2.538,-0.42 4.94,1.299 5.36,3.837c0.42,2.538 -1.3,4.94 -3.838,5.36c-2.538,0.42 -4.939,-1.3 -5.359,-3.838c-0.42,-2.538 1.299,-4.939 3.837,-5.359Z" style="fill:#a7b6c2;"/><path d="M843.157,680.959c2.538,-0.42 4.94,1.3 5.36,3.838c0.42,2.538 -1.3,4.94 -3.838,5.36c-2.538,0.42 -4.939,-1.3 -5.359,-3.838c-0.42,-2.538 1.299,-4.94 3.837,-5.36Z" style="fill:#a7b6c2;"/><path d="M866.15,677.154c2.538,-0.42 4.94,1.3 5.36,3.838c0.42,2.538 -1.3,4.939 -3.838,5.359c-2.538,0.42 -4.939,-1.299 -5.36,-3.837c-0.42,-2.538 1.3,-4.94 3.838,-5.36Z" style="fill:#a7b6c2;"/><path d="M846.962,703.952c2.538,-0.42 4.94,1.3 5.36,3.838c0.42,2.538 -1.299,4.94 -3.838,5.36c-2.538,0.42 -4.939,-1.3 -5.359,-3.838c-0.42,-2.538 1.299,-4.94 3.837,-5.36Z" style="fill:#a7b6c2;"/><path d="M869.955,700.147c2.538,-0.42 4.94,1.3 5.36,3.838c0.42,2.538 -1.3,4.939 -3.838,5.359c-2.538,0.42 -4.939,-1.299 -5.359,-3.837c-0.42,-2.538 1.299,-4.94 3.837,-5.36Z" style="fill:#a7b6c2;"/><path d="M850.768,726.945c2.538,-0.42 4.939,1.3 5.359,3.838c0.42,2.538 -1.299,4.939 -3.837,5.36c-2.538,0.42 -4.94,-1.3 -5.36,-3.838c-0.42,-2.538 1.3,-4.94 3.838,-5.36Z" style="fill:#a7b6c2;"/><path d="M873.761,723.14c2.538,-0.42 4.939,1.3 5.359,3.838c0.42,2.538 -1.299,4.939 -3.837,5.359c-2.538,0.42 -4.94,-1.299 -5.36,-3.837c-0.42,-2.538 1.3,-4.94 3.838,-5.36Z" style="fill:#a7b6c2;"/><path d="M854.573,749.938c2.538,-0.42 4.94,1.3 5.36,3.838c0.42,2.538 -1.3,4.939 -3.838,5.359c-2.538,0.421 -4.94,-1.299 -5.36,-3.837c-0.42,-2.538 1.3,-4.94 3.838,-5.36Z" style="fill:#a7b6c2;"/><path d="M877.566,746.133c2.538,-0.42 4.94,1.3 5.36,3.838c0.42,2.538 -1.3,4.939 -3.838,5.359c-2.538,0.42 -4.94,-1.299 -5.36,-3.837c-0.42,-2.538 1.3,-4.94 3.838,-5.36Z" style="fill:#a7b6c2;"/><path d="M858.378,772.931c2.538,-0.42 4.94,1.3 5.36,3.838c0.42,2.538 -1.3,4.939 -3.838,5.359c-2.538,0.42 -4.939,-1.299 -5.359,-3.837c-0.42,-2.538 1.299,-4.94 3.837,-5.36Z" style="fill:#a7b6c2;"/><path d="M881.371,769.126c2.538,-0.42 4.94,1.299 5.36,3.837c0.42,2.539 -1.3,4.94 -3.838,5.36c-2.538,0.42 -4.939,-1.299 -5.359,-3.837c-0.42,-2.538 1.299,-4.94 3.837,-5.36Z" style="fill:#a7b6c2;"/><path d="M862.184,795.924c2.538,-0.42 4.939,1.3 5.359,3.838c0.42,2.538 -1.299,4.939 -3.837,5.359c-2.538,0.42 -4.94,-1.299 -5.36,-3.837c-0.42,-2.538 1.3,-4.94 3.838,-5.36Z" style="fill:#a7b6c2;"/><path d="M885.177,792.119c2.538,-0.42 4.939,1.299 5.359,3.837c0.42,2.538 -1.299,4.94 -3.837,5.36c-2.538,0.42 -4.94,-1.299 -5.36,-3.837c-0.42,-2.538 1.3,-4.94 3.838,-5.36Z" style="fill:#a7b6c2;"/><path d="M842.996,822.722c2.538,-0.42 4.94,1.3 5.36,3.838c0.42,2.538 -1.3,4.94 -3.838,5.36c-2.538,0.42 -4.94,-1.3 -5.36,-3.838c-0.42,-2.538 1.3,-4.939 3.838,-5.36Z" style="fill:#a7b6c2;"/><path d="M865.989,818.917c2.538,-0.42 4.94,1.3 5.36,3.838c0.42,2.538 -1.3,4.939 -3.838,5.359c-2.538,0.42 -4.94,-1.299 -5.36,-3.837c-0.42,-2.538 1.3,-4.94 3.838,-5.36Z" style="fill:#a7b6c2;"/><path d="M888.982,815.112c2.538,-0.42 4.939,1.299 5.359,3.837c0.421,2.538 -1.299,4.94 -3.837,5.36c-2.538,0.42 -4.94,-1.299 -5.36,-3.837c-0.42,-2.539 1.3,-4.94 3.838,-5.36Z" style="fill:#a7b6c2;"/></g></g></g></g><path id="Dark-Blob-3" serif:id="Dark Blob 3" d="M3225.38,161.517l-76.306,13.908l44.385,229.081l74.536,-12.676l-42.615,-230.313Z" style="fill:none;"/><clipPath id="_clip2"><path d="M3225.38,161.517l-76.306,13.908l44.385,229.081l74.536,-12.676l-42.615,-230.313Z"/></clipPath><g clip-path="url(#_clip2)"><g id="Grid-Dark1" serif:id="Grid Dark"><g><g id="Grid-Texture1" serif:id="Grid Texture"><path d="M3164.43,177.565c2.528,-0.475 4.967,1.192 5.441,3.721c0.475,2.528 -1.193,4.966 -3.721,5.441c-2.528,0.474 -4.966,-1.193 -5.441,-3.721c-0.475,-2.529 1.193,-4.967 3.721,-5.441Z" style="fill:#a7b6c2;"/><path d="M3187.34,173.265c2.528,-0.475 4.966,1.193 5.441,3.721c0.474,2.528 -1.193,4.966 -3.721,5.441c-2.529,0.475 -4.967,-1.193 -5.441,-3.721c-0.475,-2.529 1.192,-4.967 3.721,-5.441Z" style="fill:#a7b6c2;"/><path d="M3210.24,168.965c2.529,-0.475 4.967,1.193 5.441,3.721c0.475,2.529 -1.192,4.967 -3.721,5.441c-2.528,0.475 -4.966,-1.192 -5.441,-3.721c-0.474,-2.528 1.193,-4.966 3.721,-5.441Z" style="fill:#a7b6c2;"/><path d="M3168.73,200.47c2.528,-0.474 4.966,1.193 5.441,3.721c0.475,2.529 -1.193,4.967 -3.721,5.441c-2.529,0.475 -4.967,-1.192 -5.441,-3.721c-0.475,-2.528 1.192,-4.966 3.721,-5.441Z" style="fill:#a7b6c2;"/><path d="M3173.03,223.376c2.528,-0.475 4.966,1.193 5.441,3.721c0.474,2.528 -1.193,4.966 -3.722,5.441c-2.528,0.475 -4.966,-1.193 -5.441,-3.721c-0.474,-2.528 1.193,-4.967 3.722,-5.441Z" style="fill:#a7b6c2;"/><path d="M3191.64,196.17c2.529,-0.474 4.967,1.193 5.442,3.722c0.474,2.528 -1.193,4.966 -3.722,5.441c-2.528,0.474 -4.966,-1.193 -5.441,-3.721c-0.474,-2.529 1.193,-4.967 3.721,-5.442Z" style="fill:#a7b6c2;"/><path d="M3214.55,191.871c2.528,-0.475 4.967,1.193 5.441,3.721c0.475,2.528 -1.193,4.966 -3.721,5.441c-2.528,0.475 -4.966,-1.193 -5.441,-3.721c-0.475,-2.529 1.193,-4.967 3.721,-5.441Z" style="fill:#a7b6c2;"/><path d="M3195.94,219.076c2.529,-0.475 4.967,1.193 5.441,3.721c0.475,2.529 -1.193,4.967 -3.721,5.441c-2.528,0.475 -4.966,-1.192 -5.441,-3.721c-0.475,-2.528 1.193,-4.966 3.721,-5.441Z" style="fill:#a7b6c2;"/><path d="M3218.85,214.776c2.528,-0.474 4.966,1.193 5.441,3.722c0.475,2.528 -1.193,4.966 -3.721,5.441c-2.529,0.474 -4.967,-1.193 -5.441,-3.722c-0.475,-2.528 1.192,-4.966 3.721,-5.441Z" style="fill:#a7b6c2;"/><path d="M3185.93,292.093c2.528,-0.475 4.966,1.193 5.441,3.721c0.474,2.528 -1.193,4.966 -3.721,5.441c-2.529,0.475 -4.967,-1.193 -5.441,-3.721c-0.475,-2.529 1.192,-4.967 3.721,-5.441Z" style="fill:#a7b6c2;"/><path d="M3177.33,246.281c2.529,-0.474 4.967,1.193 5.441,3.722c0.475,2.528 -1.192,4.966 -3.721,5.441c-2.528,0.474 -4.966,-1.193 -5.441,-3.721c-0.475,-2.529 1.193,-4.967 3.721,-5.442Z" style="fill:#a7b6c2;"/><path d="M3181.63,269.187c2.528,-0.475 4.966,1.193 5.441,3.721c0.475,2.529 -1.193,4.967 -3.721,5.441c-2.528,0.475 -4.967,-1.192 -5.441,-3.721c-0.475,-2.528 1.193,-4.966 3.721,-5.441Z" style="fill:#a7b6c2;"/><path d="M3198.83,360.81c2.528,-0.475 4.966,1.192 5.441,3.721c0.475,2.528 -1.193,4.966 -3.721,5.441c-2.529,0.475 -4.967,-1.193 -5.441,-3.721c-0.475,-2.529 1.193,-4.967 3.721,-5.441Z" style="fill:#a7b6c2;"/><path d="M3190.23,314.998c2.529,-0.474 4.967,1.193 5.442,3.722c0.474,2.528 -1.193,4.966 -3.722,5.441c-2.528,0.474 -4.966,-1.193 -5.441,-3.722c-0.474,-2.528 1.193,-4.966 3.721,-5.441Z" style="fill:#a7b6c2;"/><path d="M3194.53,337.904c2.529,-0.475 4.967,1.193 5.441,3.721c0.475,2.529 -1.193,4.967 -3.721,5.441c-2.528,0.475 -4.966,-1.193 -5.441,-3.721c-0.475,-2.528 1.193,-4.966 3.721,-5.441Z" style="fill:#a7b6c2;"/><path d="M3200.24,241.982c2.528,-0.475 4.966,1.193 5.441,3.721c0.475,2.528 -1.193,4.966 -3.721,5.441c-2.529,0.475 -4.967,-1.193 -5.441,-3.721c-0.475,-2.529 1.193,-4.967 3.721,-5.441Z" style="fill:#a7b6c2;"/><path d="M3223.14,237.682c2.528,-0.475 4.966,1.193 5.441,3.721c0.474,2.529 -1.193,4.967 -3.722,5.441c-2.528,0.475 -4.966,-1.193 -5.441,-3.721c-0.474,-2.528 1.193,-4.966 3.722,-5.441Z" style="fill:#a7b6c2;"/><path d="M3204.54,264.887c2.528,-0.474 4.966,1.193 5.441,3.722c0.474,2.528 -1.193,4.966 -3.721,5.441c-2.529,0.474 -4.967,-1.193 -5.442,-3.722c-0.474,-2.528 1.193,-4.966 3.722,-5.441Z" style="fill:#a7b6c2;"/><path d="M3227.44,260.588c2.529,-0.475 4.967,1.192 5.441,3.721c0.475,2.528 -1.192,4.966 -3.721,5.441c-2.528,0.475 -4.966,-1.193 -5.441,-3.721c-0.475,-2.529 1.193,-4.967 3.721,-5.441Z" style="fill:#a7b6c2;"/><path d="M3208.84,287.793c2.529,-0.475 4.967,1.193 5.441,3.721c0.475,2.529 -1.192,4.967 -3.721,5.441c-2.528,0.475 -4.966,-1.193 -5.441,-3.721c-0.474,-2.528 1.193,-4.966 3.721,-5.441Z" style="fill:#a7b6c2;"/><path d="M3231.74,283.493c2.528,-0.474 4.966,1.193 5.441,3.721c0.475,2.529 -1.193,4.967 -3.721,5.442c-2.528,0.474 -4.967,-1.193 -5.441,-3.722c-0.475,-2.528 1.193,-4.966 3.721,-5.441Z" style="fill:#a7b6c2;"/><path d="M3213.14,310.699c2.528,-0.475 4.967,1.192 5.441,3.721c0.475,2.528 -1.193,4.966 -3.721,5.441c-2.528,0.475 -4.966,-1.193 -5.441,-3.721c-0.475,-2.529 1.193,-4.967 3.721,-5.441Z" style="fill:#a7b6c2;"/><path d="M3236.04,306.399c2.528,-0.475 4.966,1.193 5.441,3.721c0.474,2.529 -1.193,4.967 -3.721,5.441c-2.529,0.475 -4.967,-1.193 -5.441,-3.721c-0.475,-2.528 1.192,-4.966 3.721,-5.441Z" style="fill:#a7b6c2;"/><path d="M3217.44,333.604c2.528,-0.474 4.966,1.193 5.441,3.721c0.475,2.529 -1.193,4.967 -3.721,5.442c-2.529,0.474 -4.967,-1.193 -5.441,-3.722c-0.475,-2.528 1.192,-4.966 3.721,-5.441Z" style="fill:#a7b6c2;"/><path d="M3240.34,329.305c2.529,-0.475 4.967,1.192 5.442,3.721c0.474,2.528 -1.193,4.966 -3.722,5.441c-2.528,0.474 -4.966,-1.193 -5.441,-3.721c-0.474,-2.529 1.193,-4.967 3.721,-5.441Z" style="fill:#a7b6c2;"/><path d="M3221.74,356.51c2.528,-0.475 4.966,1.193 5.441,3.721c0.474,2.529 -1.193,4.967 -3.722,5.441c-2.528,0.475 -4.966,-1.193 -5.441,-3.721c-0.474,-2.528 1.193,-4.966 3.722,-5.441Z" style="fill:#a7b6c2;"/><path d="M3244.64,352.21c2.529,-0.474 4.967,1.193 5.441,3.721c0.475,2.529 -1.193,4.967 -3.721,5.441c-2.528,0.475 -4.966,-1.192 -5.441,-3.721c-0.475,-2.528 1.193,-4.966 3.721,-5.441Z" style="fill:#a7b6c2;"/><path d="M3203.13,383.715c2.528,-0.474 4.966,1.193 5.441,3.721c0.474,2.529 -1.193,4.967 -3.721,5.442c-2.529,0.474 -4.967,-1.193 -5.442,-3.722c-0.474,-2.528 1.193,-4.966 3.722,-5.441Z" style="fill:#a7b6c2;"/><path d="M3226.04,379.416c2.529,-0.475 4.967,1.192 5.441,3.721c0.475,2.528 -1.192,4.966 -3.721,5.441c-2.528,0.474 -4.966,-1.193 -5.441,-3.721c-0.475,-2.529 1.193,-4.967 3.721,-5.441Z" style="fill:#a7b6c2;"/><path d="M3248.94,375.116c2.528,-0.475 4.966,1.193 5.441,3.721c0.475,2.528 -1.193,4.966 -3.721,5.441c-2.529,0.475 -4.967,-1.193 -5.441,-3.721c-0.475,-2.528 1.193,-4.967 3.721,-5.441Z" style="fill:#a7b6c2;"/></g></g></g></g><path id="Dark-Blob-2" serif:id="Dark Blob 2" d="M2592.37,412.604l-44.319,5.716l0.237,21.509l-20.46,5.292l3.366,27.893l52.406,271.649l141.245,-21.928l-16.44,-73.608l-68.86,11.718l-47.175,-248.241Z" style="fill:none;"/><clipPath id="_clip3"><path d="M2592.37,412.604l-44.319,5.716l0.237,21.509l-20.46,5.292l3.366,27.893l52.406,271.649l141.245,-21.928l-16.44,-73.608l-68.86,11.718l-47.175,-248.241Z"/></clipPath><g clip-path="url(#_clip3)"><g id="Grid-Dark2" serif:id="Grid Dark"><g><g id="Grid-Texture2" serif:id="Grid Texture"><path d="M2568.89,448.839c2.528,-0.475 4.966,1.192 5.441,3.721c0.474,2.528 -1.193,4.966 -3.721,5.441c-2.529,0.475 -4.967,-1.193 -5.442,-3.721c-0.474,-2.529 1.193,-4.967 3.722,-5.441Z" style="fill:#a7b6c2;"/><path d="M2545.98,453.138c2.528,-0.474 4.966,1.193 5.441,3.722c0.475,2.528 -1.193,4.966 -3.721,5.441c-2.528,0.474 -4.967,-1.193 -5.441,-3.722c-0.475,-2.528 1.193,-4.966 3.721,-5.441Z" style="fill:#a7b6c2;"/><path d="M2591.79,444.539c2.529,-0.475 4.967,1.193 5.441,3.721c0.475,2.528 -1.192,4.967 -3.721,5.441c-2.528,0.475 -4.966,-1.193 -5.441,-3.721c-0.475,-2.528 1.193,-4.966 3.721,-5.441Z" style="fill:#a7b6c2;"/><path d="M2550.28,476.044c2.528,-0.475 4.966,1.193 5.441,3.721c0.474,2.529 -1.193,4.967 -3.721,5.441c-2.529,0.475 -4.967,-1.193 -5.441,-3.721c-0.475,-2.528 1.192,-4.966 3.721,-5.441Z" style="fill:#a7b6c2;"/><path d="M2573.19,471.744c2.529,-0.474 4.967,1.193 5.441,3.721c0.475,2.529 -1.192,4.967 -3.721,5.442c-2.528,0.474 -4.966,-1.193 -5.441,-3.722c-0.474,-2.528 1.193,-4.966 3.721,-5.441Z" style="fill:#a7b6c2;"/><path d="M2554.58,498.95c2.529,-0.475 4.967,1.192 5.442,3.721c0.474,2.528 -1.193,4.966 -3.722,5.441c-2.528,0.475 -4.966,-1.193 -5.441,-3.721c-0.474,-2.529 1.193,-4.967 3.721,-5.441Z" style="fill:#a7b6c2;"/><path d="M2577.49,494.65c2.529,-0.475 4.967,1.193 5.441,3.721c0.475,2.528 -1.193,4.967 -3.721,5.441c-2.528,0.475 -4.966,-1.193 -5.441,-3.721c-0.475,-2.528 1.193,-4.966 3.721,-5.441Z" style="fill:#a7b6c2;"/><path d="M2596.09,467.445c2.528,-0.475 4.966,1.192 5.441,3.721c0.475,2.528 -1.193,4.966 -3.721,5.441c-2.528,0.474 -4.967,-1.193 -5.441,-3.721c-0.475,-2.529 1.193,-4.967 3.721,-5.441Z" style="fill:#a7b6c2;"/><path d="M2600.39,490.35c2.528,-0.474 4.966,1.193 5.441,3.721c0.474,2.529 -1.193,4.967 -3.721,5.441c-2.529,0.475 -4.967,-1.192 -5.441,-3.721c-0.475,-2.528 1.192,-4.966 3.721,-5.441Z" style="fill:#a7b6c2;"/></g><g id="Grid-Texture3" serif:id="Grid Texture"><path d="M2590.39,563.367c2.529,-0.475 4.967,1.193 5.441,3.721c0.475,2.528 -1.192,4.966 -3.721,5.441c-2.528,0.475 -4.966,-1.193 -5.441,-3.721c-0.475,-2.528 1.193,-4.967 3.721,-5.441Z" style="fill:#a7b6c2;"/><path d="M2558.88,521.855c2.529,-0.474 4.967,1.193 5.441,3.721c0.475,2.529 -1.193,4.967 -3.721,5.442c-2.528,0.474 -4.966,-1.193 -5.441,-3.722c-0.475,-2.528 1.193,-4.966 3.721,-5.441Z" style="fill:#a7b6c2;"/><path d="M2581.79,517.556c2.528,-0.475 4.966,1.192 5.441,3.721c0.475,2.528 -1.193,4.966 -3.721,5.441c-2.529,0.474 -4.967,-1.193 -5.441,-3.721c-0.475,-2.529 1.192,-4.967 3.721,-5.441Z" style="fill:#a7b6c2;"/><path d="M2563.18,544.761c2.528,-0.475 4.966,1.193 5.441,3.721c0.475,2.529 -1.193,4.967 -3.721,5.441c-2.529,0.475 -4.967,-1.193 -5.441,-3.721c-0.475,-2.528 1.193,-4.966 3.721,-5.441Z" style="fill:#a7b6c2;"/><path d="M2586.09,540.461c2.528,-0.474 4.966,1.193 5.441,3.721c0.474,2.529 -1.193,4.967 -3.722,5.441c-2.528,0.475 -4.966,-1.192 -5.441,-3.721c-0.474,-2.528 1.193,-4.966 3.722,-5.441Z" style="fill:#a7b6c2;"/><path d="M2567.48,567.667c2.528,-0.475 4.966,1.192 5.441,3.721c0.474,2.528 -1.193,4.966 -3.721,5.441c-2.529,0.474 -4.967,-1.193 -5.442,-3.721c-0.474,-2.529 1.193,-4.967 3.722,-5.441Z" style="fill:#a7b6c2;"/><path d="M2603.29,632.084c2.529,-0.475 4.967,1.193 5.442,3.721c0.474,2.528 -1.193,4.966 -3.722,5.441c-2.528,0.475 -4.966,-1.193 -5.441,-3.721c-0.474,-2.529 1.193,-4.967 3.721,-5.441Z" style="fill:#a7b6c2;"/><path d="M2571.78,590.572c2.529,-0.474 4.967,1.193 5.441,3.721c0.475,2.529 -1.192,4.967 -3.721,5.441c-2.528,0.475 -4.966,-1.192 -5.441,-3.721c-0.474,-2.528 1.193,-4.966 3.721,-5.441Z" style="fill:#a7b6c2;"/><path d="M2594.69,586.272c2.528,-0.474 4.966,1.193 5.441,3.722c0.475,2.528 -1.193,4.966 -3.721,5.441c-2.528,0.474 -4.967,-1.193 -5.441,-3.721c-0.475,-2.529 1.193,-4.967 3.721,-5.442Z" style="fill:#a7b6c2;"/><path d="M2576.08,613.478c2.529,-0.475 4.967,1.193 5.441,3.721c0.475,2.528 -1.193,4.966 -3.721,5.441c-2.528,0.475 -4.966,-1.193 -5.441,-3.721c-0.475,-2.528 1.193,-4.967 3.721,-5.441Z" style="fill:#a7b6c2;"/><path d="M2598.99,609.178c2.528,-0.474 4.966,1.193 5.441,3.721c0.474,2.529 -1.193,4.967 -3.721,5.441c-2.529,0.475 -4.967,-1.192 -5.441,-3.721c-0.475,-2.528 1.192,-4.966 3.721,-5.441Z" style="fill:#a7b6c2;"/><path d="M2580.38,636.383c2.528,-0.474 4.966,1.193 5.441,3.722c0.475,2.528 -1.193,4.966 -3.721,5.441c-2.529,0.474 -4.967,-1.193 -5.441,-3.721c-0.475,-2.529 1.192,-4.967 3.721,-5.442Z" style="fill:#a7b6c2;"/><path d="M2604.69,513.256c2.529,-0.475 4.967,1.193 5.442,3.721c0.474,2.528 -1.193,4.966 -3.722,5.441c-2.528,0.475 -4.966,-1.193 -5.441,-3.721c-0.474,-2.528 1.193,-4.967 3.721,-5.441Z" style="fill:#a7b6c2;"/><path d="M2608.99,536.161c2.529,-0.474 4.967,1.193 5.441,3.722c0.475,2.528 -1.193,4.966 -3.721,5.441c-2.528,0.474 -4.966,-1.193 -5.441,-3.721c-0.475,-2.529 1.193,-4.967 3.721,-5.442Z" style="fill:#a7b6c2;"/><path d="M2613.29,559.067c2.528,-0.475 4.966,1.193 5.441,3.721c0.475,2.529 -1.193,4.967 -3.721,5.441c-2.529,0.475 -4.967,-1.192 -5.441,-3.721c-0.475,-2.528 1.193,-4.966 3.721,-5.441Z" style="fill:#a7b6c2;"/><path d="M2617.59,581.973c2.528,-0.475 4.966,1.193 5.441,3.721c0.474,2.528 -1.193,4.966 -3.721,5.441c-2.529,0.475 -4.967,-1.193 -5.442,-3.721c-0.474,-2.529 1.193,-4.967 3.722,-5.441Z" style="fill:#a7b6c2;"/><path d="M2621.89,604.878c2.529,-0.474 4.967,1.193 5.441,3.722c0.475,2.528 -1.192,4.966 -3.721,5.441c-2.528,0.474 -4.966,-1.193 -5.441,-3.722c-0.474,-2.528 1.193,-4.966 3.721,-5.441Z" style="fill:#a7b6c2;"/><path d="M2626.19,627.784c2.529,-0.475 4.967,1.193 5.441,3.721c0.475,2.529 -1.193,4.967 -3.721,5.441c-2.528,0.475 -4.966,-1.192 -5.441,-3.721c-0.475,-2.528 1.193,-4.966 3.721,-5.441Z" style="fill:#a7b6c2;"/><path d="M2584.68,659.289c2.528,-0.474 4.966,1.193 5.441,3.721c0.474,2.529 -1.193,4.967 -3.722,5.441c-2.528,0.475 -4.966,-1.192 -5.441,-3.721c-0.474,-2.528 1.193,-4.966 3.722,-5.441Z" style="fill:#a7b6c2;"/><path d="M2607.59,654.989c2.529,-0.474 4.967,1.193 5.441,3.722c0.475,2.528 -1.193,4.966 -3.721,5.441c-2.528,0.474 -4.966,-1.193 -5.441,-3.722c-0.475,-2.528 1.193,-4.966 3.721,-5.441Z" style="fill:#a7b6c2;"/><path d="M2588.98,682.195c2.529,-0.475 4.967,1.193 5.441,3.721c0.475,2.528 -1.192,4.966 -3.721,5.441c-2.528,0.475 -4.966,-1.193 -5.441,-3.721c-0.475,-2.529 1.193,-4.967 3.721,-5.441Z" style="fill:#a7b6c2;"/><path d="M2611.89,677.895c2.528,-0.475 4.966,1.193 5.441,3.721c0.475,2.529 -1.193,4.967 -3.721,5.441c-2.529,0.475 -4.967,-1.192 -5.441,-3.721c-0.475,-2.528 1.193,-4.966 3.721,-5.441Z" style="fill:#a7b6c2;"/><path d="M2630.49,650.69c2.528,-0.475 4.966,1.192 5.441,3.721c0.475,2.528 -1.193,4.966 -3.721,5.441c-2.529,0.475 -4.967,-1.193 -5.441,-3.721c-0.475,-2.529 1.192,-4.967 3.721,-5.441Z" style="fill:#a7b6c2;"/><path d="M2634.79,673.595c2.528,-0.474 4.966,1.193 5.441,3.722c0.474,2.528 -1.193,4.966 -3.722,5.441c-2.528,0.474 -4.966,-1.193 -5.441,-3.722c-0.474,-2.528 1.193,-4.966 3.722,-5.441Z" style="fill:#a7b6c2;"/><path d="M2657.7,669.296c2.529,-0.475 4.967,1.192 5.441,3.721c0.475,2.528 -1.192,4.966 -3.721,5.441c-2.528,0.474 -4.966,-1.193 -5.441,-3.721c-0.475,-2.529 1.193,-4.967 3.721,-5.441Z" style="fill:#a7b6c2;"/><path d="M2680.6,664.996c2.528,-0.475 4.966,1.193 5.441,3.721c0.475,2.528 -1.193,4.967 -3.721,5.441c-2.529,0.475 -4.967,-1.193 -5.441,-3.721c-0.475,-2.528 1.192,-4.967 3.721,-5.441Z" style="fill:#a7b6c2;"/><path d="M2703.51,660.696c2.528,-0.474 4.966,1.193 5.441,3.721c0.474,2.529 -1.193,4.967 -3.722,5.441c-2.528,0.475 -4.966,-1.192 -5.441,-3.721c-0.474,-2.528 1.193,-4.966 3.722,-5.441Z" style="fill:#a7b6c2;"/><path d="M2593.28,705.1c2.528,-0.474 4.966,1.193 5.441,3.722c0.475,2.528 -1.193,4.966 -3.721,5.441c-2.528,0.474 -4.967,-1.193 -5.441,-3.722c-0.475,-2.528 1.193,-4.966 3.721,-5.441Z" style="fill:#a7b6c2;"/><path d="M2616.19,700.801c2.528,-0.475 4.966,1.192 5.441,3.721c0.474,2.528 -1.193,4.966 -3.721,5.441c-2.529,0.475 -4.967,-1.193 -5.442,-3.721c-0.474,-2.529 1.193,-4.967 3.722,-5.441Z" style="fill:#a7b6c2;"/><path d="M2597.58,728.006c2.528,-0.475 4.966,1.193 5.441,3.721c0.474,2.529 -1.193,4.967 -3.721,5.441c-2.529,0.475 -4.967,-1.192 -5.441,-3.721c-0.475,-2.528 1.192,-4.966 3.721,-5.441Z" style="fill:#a7b6c2;"/><path d="M2620.49,723.706c2.529,-0.474 4.967,1.193 5.441,3.722c0.475,2.528 -1.192,4.966 -3.721,5.441c-2.528,0.474 -4.966,-1.193 -5.441,-3.722c-0.474,-2.528 1.193,-4.966 3.721,-5.441Z" style="fill:#a7b6c2;"/><path d="M2639.09,696.501c2.529,-0.475 4.967,1.193 5.441,3.721c0.475,2.529 -1.192,4.967 -3.721,5.441c-2.528,0.475 -4.966,-1.193 -5.441,-3.721c-0.474,-2.528 1.193,-4.966 3.721,-5.441Z" style="fill:#a7b6c2;"/><path d="M2662,692.201c2.528,-0.474 4.966,1.193 5.441,3.721c0.475,2.529 -1.193,4.967 -3.721,5.441c-2.529,0.475 -4.967,-1.192 -5.441,-3.721c-0.475,-2.528 1.193,-4.966 3.721,-5.441Z" style="fill:#a7b6c2;"/><path d="M2684.9,687.902c2.528,-0.475 4.966,1.192 5.441,3.721c0.474,2.528 -1.193,4.966 -3.722,5.441c-2.528,0.474 -4.966,-1.193 -5.441,-3.721c-0.474,-2.529 1.193,-4.967 3.722,-5.441Z" style="fill:#a7b6c2;"/><path d="M2643.39,719.407c2.528,-0.475 4.966,1.192 5.441,3.721c0.475,2.528 -1.193,4.966 -3.721,5.441c-2.528,0.474 -4.967,-1.193 -5.441,-3.721c-0.475,-2.529 1.193,-4.967 3.721,-5.441Z" style="fill:#a7b6c2;"/><path d="M2666.3,715.107c2.528,-0.475 4.966,1.193 5.441,3.721c0.474,2.528 -1.193,4.967 -3.721,5.441c-2.529,0.475 -4.967,-1.193 -5.442,-3.721c-0.474,-2.528 1.193,-4.967 3.722,-5.441Z" style="fill:#a7b6c2;"/><path d="M2689.2,710.807c2.529,-0.474 4.967,1.193 5.441,3.721c0.475,2.529 -1.192,4.967 -3.721,5.441c-2.528,0.475 -4.966,-1.192 -5.441,-3.721c-0.474,-2.528 1.193,-4.966 3.721,-5.441Z" style="fill:#a7b6c2;"/><path d="M2707.81,683.602c2.529,-0.475 4.967,1.193 5.441,3.721c0.475,2.528 -1.192,4.966 -3.721,5.441c-2.528,0.475 -4.966,-1.193 -5.441,-3.721c-0.475,-2.529 1.193,-4.967 3.721,-5.441Z" style="fill:#a7b6c2;"/><path d="M2712.11,706.507c2.528,-0.474 4.966,1.193 5.441,3.722c0.475,2.528 -1.193,4.966 -3.721,5.441c-2.529,0.474 -4.967,-1.193 -5.441,-3.722c-0.475,-2.528 1.193,-4.966 3.721,-5.441Z" style="fill:#a7b6c2;"/></g></g></g></g><path id="Dark-Blob-1" serif:id="Dark Blob 1" d="M1383.29,713.36l37.38,215.083l183.586,-30.213l-18.037,-94.915l-111.227,16.367l-19.519,-117.966l-72.183,11.644Z" style="fill:none;"/><clipPath id="_clip4"><path d="M1383.29,713.36l37.38,215.083l183.586,-30.213l-18.037,-94.915l-111.227,16.367l-19.519,-117.966l-72.183,11.644Z"/></clipPath><g clip-path="url(#_clip4)"><g id="Grid-Dark3" serif:id="Grid Dark"><g><g id="Grid-Texture4" serif:id="Grid Texture"><path d="M1422.3,724.951c2.532,-0.452 4.955,1.237 5.407,3.769c0.452,2.533 -1.237,4.956 -3.769,5.408c-2.533,0.452 -4.956,-1.237 -5.408,-3.77c-0.452,-2.532 1.237,-4.955 3.77,-5.407Z" style="fill:#a7b6c2;"/><path d="M1399.35,729.045c2.533,-0.452 4.956,1.237 5.408,3.77c0.452,2.533 -1.237,4.956 -3.77,5.408c-2.532,0.452 -4.955,-1.238 -5.407,-3.77c-0.452,-2.533 1.237,-4.956 3.769,-5.408Z" style="fill:#a7b6c2;"/><path d="M1445.24,720.856c2.532,-0.452 4.955,1.237 5.407,3.77c0.452,2.532 -1.237,4.955 -3.769,5.407c-2.533,0.452 -4.956,-1.237 -5.408,-3.77c-0.452,-2.532 1.237,-4.955 3.77,-5.407Z" style="fill:#a7b6c2;"/><path d="M1403.45,751.988c2.533,-0.452 4.956,1.238 5.408,3.77c0.452,2.533 -1.237,4.956 -3.77,5.408c-2.533,0.452 -4.956,-1.237 -5.408,-3.77c-0.452,-2.532 1.238,-4.956 3.77,-5.408Z" style="fill:#a7b6c2;"/><path d="M1426.39,747.894c2.533,-0.452 4.956,1.237 5.408,3.769c0.452,2.533 -1.237,4.956 -3.77,5.408c-2.532,0.452 -4.955,-1.237 -5.407,-3.77c-0.452,-2.532 1.237,-4.955 3.769,-5.407Z" style="fill:#a7b6c2;"/><path d="M1449.34,743.799c2.532,-0.452 4.955,1.237 5.407,3.77c0.452,2.532 -1.237,4.955 -3.77,5.407c-2.532,0.452 -4.955,-1.237 -5.407,-3.769c-0.452,-2.533 1.237,-4.956 3.77,-5.408Z" style="fill:#a7b6c2;"/><path d="M1407.54,774.932c2.532,-0.452 4.955,1.237 5.407,3.769c0.452,2.533 -1.237,4.956 -3.769,5.408c-2.533,0.452 -4.956,-1.237 -5.408,-3.77c-0.452,-2.532 1.237,-4.955 3.77,-5.407Z" style="fill:#a7b6c2;"/><path d="M1430.49,770.837c2.533,-0.452 4.956,1.237 5.408,3.77c0.452,2.532 -1.238,4.955 -3.77,5.407c-2.533,0.452 -4.956,-1.237 -5.408,-3.769c-0.452,-2.533 1.237,-4.956 3.77,-5.408Z" style="fill:#a7b6c2;"/><path d="M1453.43,766.742c2.533,-0.452 4.956,1.237 5.408,3.77c0.452,2.533 -1.237,4.956 -3.77,5.408c-2.532,0.452 -4.956,-1.238 -5.407,-3.77c-0.452,-2.533 1.237,-4.956 3.769,-5.408Z" style="fill:#a7b6c2;"/><path d="M1411.64,797.875c2.532,-0.452 4.955,1.237 5.407,3.77c0.452,2.532 -1.237,4.955 -3.77,5.407c-2.532,0.452 -4.955,-1.237 -5.407,-3.77c-0.452,-2.532 1.237,-4.955 3.77,-5.407Z" style="fill:#a7b6c2;"/><path d="M1488.66,831.477c2.533,-0.452 4.956,1.237 5.408,3.77c0.452,2.532 -1.237,4.955 -3.77,5.407c-2.532,0.452 -4.955,-1.237 -5.407,-3.769c-0.452,-2.533 1.237,-4.956 3.769,-5.408Z" style="fill:#a7b6c2;"/><path d="M1434.58,793.78c2.532,-0.452 4.955,1.237 5.407,3.77c0.452,2.532 -1.237,4.955 -3.769,5.407c-2.533,0.452 -4.956,-1.237 -5.408,-3.769c-0.452,-2.533 1.237,-4.956 3.77,-5.408Z" style="fill:#a7b6c2;"/><path d="M1457.53,789.685c2.532,-0.452 4.955,1.238 5.407,3.77c0.452,2.533 -1.237,4.956 -3.769,5.408c-2.533,0.452 -4.956,-1.237 -5.408,-3.77c-0.452,-2.533 1.237,-4.956 3.77,-5.408Z" style="fill:#a7b6c2;"/><path d="M1415.73,820.818c2.533,-0.452 4.956,1.237 5.408,3.77c0.452,2.532 -1.237,4.955 -3.77,5.407c-2.532,0.452 -4.955,-1.237 -5.407,-3.769c-0.452,-2.533 1.237,-4.956 3.769,-5.408Z" style="fill:#a7b6c2;"/><path d="M1438.68,816.723c2.533,-0.452 4.956,1.237 5.408,3.77c0.452,2.533 -1.237,4.956 -3.77,5.408c-2.532,0.452 -4.955,-1.238 -5.407,-3.77c-0.452,-2.533 1.237,-4.956 3.769,-5.408Z" style="fill:#a7b6c2;"/><path d="M1461.62,812.629c2.532,-0.452 4.955,1.237 5.407,3.769c0.452,2.533 -1.237,4.956 -3.77,5.408c-2.532,0.452 -4.955,-1.237 -5.407,-3.77c-0.452,-2.532 1.237,-4.955 3.77,-5.407Z" style="fill:#a7b6c2;"/><path d="M1419.83,843.761c2.532,-0.452 4.955,1.237 5.407,3.77c0.452,2.532 -1.237,4.955 -3.769,5.407c-2.533,0.452 -4.956,-1.237 -5.408,-3.769c-0.452,-2.533 1.237,-4.956 3.77,-5.408Z" style="fill:#a7b6c2;"/><path d="M1442.77,839.667c2.533,-0.452 4.956,1.237 5.408,3.769c0.452,2.533 -1.237,4.956 -3.77,5.408c-2.533,0.452 -4.956,-1.237 -5.408,-3.77c-0.452,-2.532 1.238,-4.956 3.77,-5.407Z" style="fill:#a7b6c2;"/><path d="M1465.71,835.572c2.533,-0.452 4.956,1.237 5.408,3.77c0.452,2.532 -1.237,4.955 -3.77,5.407c-2.532,0.452 -4.955,-1.237 -5.407,-3.77c-0.452,-2.532 1.237,-4.955 3.769,-5.407Z" style="fill:#a7b6c2;"/><path d="M1511.6,827.382c2.532,-0.452 4.955,1.238 5.407,3.77c0.452,2.533 -1.237,4.956 -3.769,5.408c-2.533,0.452 -4.956,-1.237 -5.408,-3.77c-0.452,-2.533 1.237,-4.956 3.77,-5.408Z" style="fill:#a7b6c2;"/><path d="M1534.54,823.288c2.532,-0.452 4.955,1.237 5.407,3.769c0.452,2.533 -1.237,4.956 -3.769,5.408c-2.533,0.452 -4.956,-1.237 -5.408,-3.77c-0.452,-2.532 1.237,-4.955 3.77,-5.407Z" style="fill:#a7b6c2;"/><path d="M1557.49,819.193c2.533,-0.452 4.956,1.237 5.408,3.77c0.452,2.532 -1.238,4.955 -3.77,5.407c-2.533,0.452 -4.956,-1.237 -5.408,-3.769c-0.452,-2.533 1.237,-4.956 3.77,-5.408Z" style="fill:#a7b6c2;"/><path d="M1423.92,866.704c2.532,-0.452 4.955,1.238 5.407,3.77c0.452,2.533 -1.237,4.956 -3.77,5.408c-2.532,0.452 -4.955,-1.238 -5.407,-3.77c-0.452,-2.533 1.237,-4.956 3.77,-5.408Z" style="fill:#a7b6c2;"/><path d="M1446.87,862.61c2.532,-0.452 4.955,1.237 5.407,3.769c0.452,2.533 -1.237,4.956 -3.769,5.408c-2.533,0.452 -4.956,-1.237 -5.408,-3.77c-0.452,-2.532 1.237,-4.955 3.77,-5.407Z" style="fill:#a7b6c2;"/><path d="M1469.81,858.515c2.532,-0.452 4.956,1.237 5.408,3.77c0.452,2.532 -1.238,4.955 -3.77,5.407c-2.533,0.452 -4.956,-1.237 -5.408,-3.769c-0.452,-2.533 1.237,-4.956 3.77,-5.408Z" style="fill:#a7b6c2;"/><path d="M1492.75,854.42c2.533,-0.452 4.956,1.237 5.408,3.77c0.452,2.533 -1.237,4.956 -3.77,5.408c-2.533,0.452 -4.956,-1.238 -5.408,-3.77c-0.452,-2.533 1.238,-4.956 3.77,-5.408Z" style="fill:#a7b6c2;"/><path d="M1428.02,889.648c2.533,-0.452 4.956,1.237 5.408,3.769c0.452,2.533 -1.237,4.956 -3.77,5.408c-2.532,0.452 -4.955,-1.237 -5.407,-3.77c-0.452,-2.532 1.237,-4.955 3.769,-5.407Z" style="fill:#a7b6c2;"/><path d="M1450.96,885.553c2.533,-0.452 4.956,1.237 5.408,3.77c0.452,2.532 -1.237,4.955 -3.77,5.407c-2.532,0.452 -4.955,-1.237 -5.407,-3.77c-0.452,-2.532 1.237,-4.955 3.769,-5.407Z" style="fill:#a7b6c2;"/><path d="M1473.9,881.458c2.532,-0.452 4.955,1.237 5.407,3.77c0.452,2.532 -1.237,4.955 -3.769,5.407c-2.533,0.452 -4.956,-1.237 -5.408,-3.769c-0.452,-2.533 1.237,-4.956 3.77,-5.408Z" style="fill:#a7b6c2;"/><path d="M1496.85,877.363c2.532,-0.451 4.955,1.238 5.407,3.77c0.452,2.533 -1.237,4.956 -3.769,5.408c-2.533,0.452 -4.956,-1.237 -5.408,-3.77c-0.452,-2.532 1.237,-4.956 3.77,-5.408Z" style="fill:#a7b6c2;"/><path d="M1515.69,850.326c2.533,-0.452 4.956,1.237 5.408,3.769c0.452,2.533 -1.237,4.956 -3.77,5.408c-2.532,0.452 -4.955,-1.237 -5.407,-3.77c-0.452,-2.532 1.237,-4.955 3.769,-5.407Z" style="fill:#a7b6c2;"/><path d="M1538.64,846.231c2.532,-0.452 4.955,1.237 5.407,3.77c0.452,2.532 -1.237,4.955 -3.77,5.407c-2.532,0.452 -4.955,-1.237 -5.407,-3.769c-0.452,-2.533 1.237,-4.956 3.77,-5.408Z" style="fill:#a7b6c2;"/><path d="M1561.58,842.136c2.532,-0.452 4.955,1.237 5.407,3.77c0.452,2.532 -1.237,4.956 -3.769,5.408c-2.533,0.452 -4.956,-1.238 -5.408,-3.77c-0.452,-2.533 1.237,-4.956 3.77,-5.408Z" style="fill:#a7b6c2;"/><path d="M1519.79,873.269c2.533,-0.452 4.956,1.237 5.408,3.77c0.452,2.532 -1.238,4.955 -3.77,5.407c-2.533,0.452 -4.956,-1.237 -5.408,-3.77c-0.452,-2.532 1.237,-4.955 3.77,-5.407Z" style="fill:#a7b6c2;"/><path d="M1542.73,869.174c2.533,-0.452 4.956,1.237 5.408,3.77c0.452,2.532 -1.237,4.955 -3.77,5.407c-2.532,0.452 -4.956,-1.237 -5.408,-3.769c-0.451,-2.533 1.238,-4.956 3.77,-5.408Z" style="fill:#a7b6c2;"/><path d="M1565.68,865.079c2.533,-0.452 4.956,1.238 5.408,3.77c0.452,2.533 -1.237,4.956 -3.77,5.408c-2.532,0.452 -4.955,-1.237 -5.407,-3.77c-0.452,-2.533 1.237,-4.956 3.769,-5.408Z" style="fill:#a7b6c2;"/><path d="M1580.43,815.098c2.533,-0.452 4.956,1.238 5.408,3.77c0.452,2.533 -1.237,4.956 -3.77,5.408c-2.532,0.452 -4.956,-1.238 -5.408,-3.77c-0.452,-2.533 1.238,-4.956 3.77,-5.408Z" style="fill:#a7b6c2;"/><path d="M1584.53,838.042c2.532,-0.452 4.955,1.237 5.407,3.769c0.452,2.533 -1.237,4.956 -3.769,5.408c-2.533,0.452 -4.956,-1.237 -5.408,-3.77c-0.452,-2.532 1.237,-4.955 3.77,-5.407Z" style="fill:#a7b6c2;"/><path d="M1588.62,860.985c2.532,-0.452 4.955,1.237 5.407,3.769c0.452,2.533 -1.237,4.956 -3.77,5.408c-2.532,0.452 -4.955,-1.237 -5.407,-3.77c-0.452,-2.532 1.237,-4.955 3.77,-5.407Z" style="fill:#a7b6c2;"/><path d="M1455.06,908.496c2.533,-0.452 4.956,1.237 5.408,3.77c0.452,2.532 -1.237,4.955 -3.77,5.407c-2.533,0.452 -4.956,-1.237 -5.408,-3.769c-0.452,-2.533 1.238,-4.956 3.77,-5.408Z" style="fill:#a7b6c2;"/><path d="M1432.11,912.591c2.533,-0.452 4.956,1.237 5.408,3.769c0.452,2.533 -1.238,4.956 -3.77,5.408c-2.533,0.452 -4.956,-1.237 -5.408,-3.77c-0.452,-2.532 1.237,-4.955 3.77,-5.407Z" style="fill:#a7b6c2;"/><path d="M1478,904.401c2.533,-0.452 4.956,1.238 5.408,3.77c0.452,2.533 -1.237,4.956 -3.77,5.408c-2.532,0.452 -4.955,-1.238 -5.407,-3.77c-0.452,-2.533 1.237,-4.956 3.769,-5.408Z" style="fill:#a7b6c2;"/><path d="M1500.94,900.307c2.532,-0.452 4.955,1.237 5.407,3.769c0.452,2.533 -1.237,4.956 -3.77,5.408c-2.532,0.452 -4.955,-1.237 -5.407,-3.77c-0.452,-2.532 1.237,-4.955 3.77,-5.407Z" style="fill:#a7b6c2;"/><path d="M1523.88,896.212c2.532,-0.452 4.955,1.237 5.407,3.77c0.452,2.532 -1.237,4.955 -3.769,5.407c-2.533,0.452 -4.956,-1.237 -5.408,-3.769c-0.452,-2.533 1.237,-4.956 3.77,-5.408Z" style="fill:#a7b6c2;"/><path d="M1546.83,892.117c2.532,-0.452 4.955,1.237 5.407,3.77c0.452,2.533 -1.237,4.956 -3.769,5.408c-2.533,0.452 -4.956,-1.238 -5.408,-3.77c-0.452,-2.533 1.237,-4.956 3.77,-5.408Z" style="fill:#a7b6c2;"/><path d="M1569.77,888.023c2.533,-0.452 4.956,1.237 5.408,3.769c0.452,2.533 -1.238,4.956 -3.77,5.408c-2.533,0.452 -4.956,-1.237 -5.408,-3.77c-0.452,-2.532 1.238,-4.955 3.77,-5.407Z" style="fill:#a7b6c2;"/><path d="M1592.71,883.928c2.533,-0.452 4.956,1.237 5.408,3.77c0.452,2.532 -1.237,4.955 -3.77,5.407c-2.532,0.452 -4.955,-1.237 -5.407,-3.77c-0.452,-2.532 1.237,-4.955 3.769,-5.407Z" style="fill:#a7b6c2;"/></g></g></g></g><path id="Dark-Blob-11" serif:id="Dark Blob 1" d="M1337.48,158.377l39.301,214.74l183.309,-31.854l-18.886,-94.751l-111.076,17.362l-20.572,-117.787l-72.076,12.29Z" style="fill:none;"/><clipPath id="_clip5"><path d="M1337.48,158.377l39.301,214.74l183.309,-31.854l-18.886,-94.751l-111.076,17.362l-20.572,-117.787l-72.076,12.29Z"/></clipPath><g clip-path="url(#_clip5)"><g id="Grid-Dark4" serif:id="Grid Dark"><g><g id="Grid-Texture5" serif:id="Grid Texture"><path d="M1431,206.829c2.528,-0.474 4.966,1.193 5.441,3.721c0.475,2.529 -1.193,4.967 -3.721,5.442c-2.529,0.474 -4.967,-1.193 -5.441,-3.722c-0.475,-2.528 1.193,-4.966 3.721,-5.441Z" style="fill:#a7b6c2;"/><path d="M1422.4,161.018c2.528,-0.475 4.966,1.193 5.441,3.721c0.474,2.529 -1.193,4.967 -3.722,5.441c-2.528,0.475 -4.966,-1.193 -5.441,-3.721c-0.474,-2.528 1.193,-4.966 3.722,-5.441Z" style="fill:#a7b6c2;"/><path d="M1426.7,183.924c2.529,-0.475 4.967,1.192 5.441,3.721c0.475,2.528 -1.192,4.966 -3.721,5.441c-2.528,0.475 -4.966,-1.193 -5.441,-3.721c-0.475,-2.529 1.193,-4.967 3.721,-5.441Z" style="fill:#a7b6c2;"/><path d="M1443.9,275.546c2.529,-0.474 4.967,1.193 5.441,3.721c0.475,2.529 -1.193,4.967 -3.721,5.441c-2.528,0.475 -4.966,-1.192 -5.441,-3.721c-0.475,-2.528 1.193,-4.966 3.721,-5.441Z" style="fill:#a7b6c2;"/><path d="M1435.3,229.735c2.528,-0.475 4.966,1.193 5.441,3.721c0.474,2.529 -1.193,4.967 -3.721,5.441c-2.529,0.475 -4.967,-1.193 -5.441,-3.721c-0.475,-2.528 1.192,-4.966 3.721,-5.441Z" style="fill:#a7b6c2;"/><path d="M1439.6,252.641c2.529,-0.475 4.967,1.192 5.441,3.721c0.475,2.528 -1.192,4.966 -3.721,5.441c-2.528,0.474 -4.966,-1.193 -5.441,-3.721c-0.474,-2.529 1.193,-4.967 3.721,-5.441Z" style="fill:#a7b6c2;"/><path d="M1375.18,288.445c2.529,-0.474 4.967,1.193 5.441,3.722c0.475,2.528 -1.192,4.966 -3.721,5.441c-2.528,0.474 -4.966,-1.193 -5.441,-3.722c-0.475,-2.528 1.193,-4.966 3.721,-5.441Z" style="fill:#a7b6c2;"/><path d="M1398.09,284.146c2.528,-0.475 4.966,1.192 5.441,3.721c0.475,2.528 -1.193,4.966 -3.721,5.441c-2.529,0.475 -4.967,-1.193 -5.441,-3.721c-0.475,-2.529 1.192,-4.967 3.721,-5.441Z" style="fill:#a7b6c2;"/><path d="M1420.99,279.846c2.528,-0.475 4.966,1.193 5.441,3.721c0.474,2.529 -1.193,4.967 -3.722,5.441c-2.528,0.475 -4.966,-1.193 -5.441,-3.721c-0.474,-2.528 1.193,-4.966 3.722,-5.441Z" style="fill:#a7b6c2;"/><path d="M1445.3,156.718c2.529,-0.474 4.967,1.193 5.441,3.721c0.475,2.529 -1.193,4.967 -3.721,5.442c-2.528,0.474 -4.966,-1.193 -5.441,-3.722c-0.475,-2.528 1.193,-4.966 3.721,-5.441Z" style="fill:#a7b6c2;"/><path d="M1468.21,152.419c2.528,-0.475 4.966,1.192 5.441,3.721c0.474,2.528 -1.193,4.966 -3.721,5.441c-2.529,0.474 -4.967,-1.193 -5.441,-3.721c-0.475,-2.529 1.192,-4.967 3.721,-5.441Z" style="fill:#a7b6c2;"/><path d="M1491.11,148.119c2.529,-0.475 4.967,1.193 5.442,3.721c0.474,2.528 -1.193,4.966 -3.722,5.441c-2.528,0.475 -4.966,-1.193 -5.441,-3.721c-0.474,-2.528 1.193,-4.967 3.721,-5.441Z" style="fill:#a7b6c2;"/><path d="M1449.6,179.624c2.528,-0.475 4.966,1.193 5.441,3.721c0.475,2.529 -1.193,4.967 -3.721,5.441c-2.529,0.475 -4.967,-1.193 -5.441,-3.721c-0.475,-2.528 1.192,-4.966 3.721,-5.441Z" style="fill:#a7b6c2;"/><path d="M1472.51,175.324c2.528,-0.474 4.966,1.193 5.441,3.721c0.474,2.529 -1.193,4.967 -3.722,5.441c-2.528,0.475 -4.966,-1.192 -5.441,-3.721c-0.474,-2.528 1.193,-4.966 3.722,-5.441Z" style="fill:#a7b6c2;"/><path d="M1495.41,171.024c2.529,-0.474 4.967,1.193 5.441,3.722c0.475,2.528 -1.193,4.966 -3.721,5.441c-2.528,0.474 -4.966,-1.193 -5.441,-3.721c-0.475,-2.529 1.193,-4.967 3.721,-5.442Z" style="fill:#a7b6c2;"/><path d="M1453.9,202.53c2.528,-0.475 4.966,1.192 5.441,3.721c0.474,2.528 -1.193,4.966 -3.721,5.441c-2.529,0.474 -4.967,-1.193 -5.442,-3.721c-0.474,-2.529 1.193,-4.967 3.722,-5.441Z" style="fill:#a7b6c2;"/><path d="M1476.81,198.23c2.529,-0.475 4.967,1.193 5.441,3.721c0.475,2.528 -1.192,4.966 -3.721,5.441c-2.528,0.475 -4.966,-1.193 -5.441,-3.721c-0.475,-2.528 1.193,-4.967 3.721,-5.441Z" style="fill:#a7b6c2;"/><path d="M1499.71,193.93c2.528,-0.474 4.966,1.193 5.441,3.721c0.475,2.529 -1.193,4.967 -3.721,5.441c-2.529,0.475 -4.967,-1.192 -5.441,-3.721c-0.475,-2.528 1.192,-4.966 3.721,-5.441Z" style="fill:#a7b6c2;"/><path d="M1458.2,225.435c2.529,-0.474 4.967,1.193 5.441,3.721c0.475,2.529 -1.192,4.967 -3.721,5.441c-2.528,0.475 -4.966,-1.192 -5.441,-3.721c-0.474,-2.528 1.193,-4.966 3.721,-5.441Z" style="fill:#a7b6c2;"/><path d="M1481.11,221.135c2.528,-0.474 4.966,1.193 5.441,3.722c0.475,2.528 -1.193,4.966 -3.721,5.441c-2.529,0.474 -4.967,-1.193 -5.441,-3.721c-0.475,-2.529 1.193,-4.967 3.721,-5.442Z" style="fill:#a7b6c2;"/><path d="M1504.01,216.836c2.528,-0.475 4.966,1.193 5.441,3.721c0.474,2.528 -1.193,4.966 -3.721,5.441c-2.529,0.475 -4.967,-1.193 -5.442,-3.721c-0.474,-2.529 1.193,-4.967 3.722,-5.441Z" style="fill:#a7b6c2;"/><path d="M1462.5,248.341c2.528,-0.475 4.967,1.193 5.441,3.721c0.475,2.528 -1.193,4.967 -3.721,5.441c-2.528,0.475 -4.966,-1.193 -5.441,-3.721c-0.475,-2.528 1.193,-4.967 3.721,-5.441Z" style="fill:#a7b6c2;"/><path d="M1485.41,244.041c2.528,-0.474 4.966,1.193 5.441,3.721c0.474,2.529 -1.193,4.967 -3.721,5.441c-2.529,0.475 -4.967,-1.192 -5.441,-3.721c-0.475,-2.528 1.192,-4.966 3.721,-5.441Z" style="fill:#a7b6c2;"/><path d="M1508.31,239.741c2.529,-0.474 4.967,1.193 5.441,3.722c0.475,2.528 -1.192,4.966 -3.721,5.441c-2.528,0.474 -4.966,-1.193 -5.441,-3.722c-0.474,-2.528 1.193,-4.966 3.721,-5.441Z" style="fill:#a7b6c2;"/><path d="M1466.8,271.247c2.528,-0.475 4.966,1.192 5.441,3.721c0.474,2.528 -1.193,4.966 -3.721,5.441c-2.529,0.474 -4.967,-1.193 -5.441,-3.721c-0.475,-2.529 1.192,-4.967 3.721,-5.441Z" style="fill:#a7b6c2;"/><path d="M1489.71,266.947c2.529,-0.475 4.967,1.193 5.442,3.721c0.474,2.528 -1.193,4.966 -3.722,5.441c-2.528,0.475 -4.966,-1.193 -5.441,-3.721c-0.474,-2.529 1.193,-4.967 3.721,-5.441Z" style="fill:#a7b6c2;"/><path d="M1379.48,311.351c2.528,-0.475 4.966,1.193 5.441,3.721c0.475,2.529 -1.193,4.967 -3.721,5.441c-2.529,0.475 -4.967,-1.192 -5.441,-3.721c-0.475,-2.528 1.193,-4.966 3.721,-5.441Z" style="fill:#a7b6c2;"/><path d="M1402.38,307.051c2.528,-0.474 4.966,1.193 5.441,3.722c0.474,2.528 -1.193,4.966 -3.722,5.441c-2.528,0.474 -4.966,-1.193 -5.441,-3.722c-0.474,-2.528 1.193,-4.966 3.722,-5.441Z" style="fill:#a7b6c2;"/><path d="M1425.29,302.752c2.529,-0.475 4.967,1.192 5.441,3.721c0.475,2.528 -1.192,4.966 -3.721,5.441c-2.528,0.474 -4.966,-1.193 -5.441,-3.721c-0.475,-2.529 1.193,-4.967 3.721,-5.441Z" style="fill:#a7b6c2;"/><path d="M1448.2,298.452c2.528,-0.475 4.966,1.193 5.441,3.721c0.475,2.528 -1.193,4.967 -3.721,5.441c-2.529,0.475 -4.967,-1.193 -5.441,-3.721c-0.475,-2.528 1.192,-4.967 3.721,-5.441Z" style="fill:#a7b6c2;"/><path d="M1383.78,334.257c2.528,-0.475 4.966,1.192 5.441,3.721c0.474,2.528 -1.193,4.966 -3.721,5.441c-2.529,0.475 -4.967,-1.193 -5.441,-3.721c-0.475,-2.529 1.192,-4.967 3.721,-5.441Z" style="fill:#a7b6c2;"/><path d="M1406.68,329.957c2.529,-0.475 4.967,1.193 5.441,3.721c0.475,2.529 -1.192,4.967 -3.721,5.441c-2.528,0.475 -4.966,-1.193 -5.441,-3.721c-0.474,-2.528 1.193,-4.966 3.721,-5.441Z" style="fill:#a7b6c2;"/><path d="M1429.59,325.657c2.528,-0.474 4.966,1.193 5.441,3.721c0.475,2.529 -1.193,4.967 -3.721,5.441c-2.529,0.475 -4.967,-1.192 -5.441,-3.721c-0.475,-2.528 1.193,-4.966 3.721,-5.441Z" style="fill:#a7b6c2;"/><path d="M1452.5,321.358c2.528,-0.475 4.966,1.192 5.441,3.721c0.474,2.528 -1.193,4.966 -3.721,5.441c-2.529,0.474 -4.967,-1.193 -5.442,-3.721c-0.474,-2.529 1.193,-4.967 3.722,-5.441Z" style="fill:#a7b6c2;"/><path d="M1471.1,294.152c2.528,-0.474 4.966,1.193 5.441,3.721c0.474,2.529 -1.193,4.967 -3.722,5.441c-2.528,0.475 -4.966,-1.192 -5.441,-3.721c-0.474,-2.528 1.193,-4.966 3.722,-5.441Z" style="fill:#a7b6c2;"/><path d="M1494.01,289.852c2.529,-0.474 4.967,1.193 5.441,3.722c0.475,2.528 -1.193,4.966 -3.721,5.441c-2.528,0.474 -4.966,-1.193 -5.441,-3.722c-0.475,-2.528 1.193,-4.966 3.721,-5.441Z" style="fill:#a7b6c2;"/><path d="M1516.91,285.553c2.528,-0.475 4.966,1.192 5.441,3.721c0.474,2.528 -1.193,4.966 -3.721,5.441c-2.529,0.475 -4.967,-1.193 -5.441,-3.721c-0.475,-2.529 1.192,-4.967 3.721,-5.441Z" style="fill:#a7b6c2;"/><path d="M1475.4,317.058c2.529,-0.475 4.967,1.193 5.441,3.721c0.475,2.528 -1.192,4.966 -3.721,5.441c-2.528,0.475 -4.966,-1.193 -5.441,-3.721c-0.475,-2.529 1.193,-4.967 3.721,-5.441Z" style="fill:#a7b6c2;"/><path d="M1498.31,312.758c2.528,-0.475 4.966,1.193 5.441,3.721c0.475,2.529 -1.193,4.967 -3.721,5.441c-2.529,0.475 -4.967,-1.192 -5.441,-3.721c-0.475,-2.528 1.193,-4.966 3.721,-5.441Z" style="fill:#a7b6c2;"/><path d="M1521.21,308.458c2.528,-0.474 4.966,1.193 5.441,3.722c0.474,2.528 -1.193,4.966 -3.722,5.441c-2.528,0.474 -4.966,-1.193 -5.441,-3.722c-0.474,-2.528 1.193,-4.966 3.722,-5.441Z" style="fill:#a7b6c2;"/><path d="M1514.02,143.819c2.528,-0.475 4.967,1.193 5.441,3.721c0.475,2.529 -1.193,4.967 -3.721,5.441c-2.528,0.475 -4.966,-1.192 -5.441,-3.721c-0.475,-2.528 1.193,-4.966 3.721,-5.441Z" style="fill:#a7b6c2;"/><path d="M1518.32,166.725c2.528,-0.475 4.966,1.193 5.441,3.721c0.474,2.528 -1.193,4.966 -3.721,5.441c-2.529,0.475 -4.967,-1.193 -5.441,-3.721c-0.475,-2.529 1.192,-4.967 3.721,-5.441Z" style="fill:#a7b6c2;"/><path d="M1522.62,189.63c2.528,-0.474 4.966,1.193 5.441,3.722c0.474,2.528 -1.193,4.966 -3.722,5.441c-2.528,0.474 -4.966,-1.193 -5.441,-3.722c-0.474,-2.528 1.193,-4.966 3.722,-5.441Z" style="fill:#a7b6c2;"/><path d="M1526.92,212.536c2.529,-0.475 4.967,1.193 5.441,3.721c0.475,2.529 -1.192,4.967 -3.721,5.441c-2.528,0.475 -4.966,-1.192 -5.441,-3.721c-0.475,-2.528 1.193,-4.966 3.721,-5.441Z" style="fill:#a7b6c2;"/><path d="M1531.22,235.442c2.528,-0.475 4.966,1.192 5.441,3.721c0.475,2.528 -1.193,4.966 -3.721,5.441c-2.529,0.475 -4.967,-1.193 -5.441,-3.721c-0.475,-2.529 1.193,-4.967 3.721,-5.441Z" style="fill:#a7b6c2;"/><path d="M1539.82,281.253c2.529,-0.475 4.967,1.193 5.442,3.721c0.474,2.529 -1.193,4.967 -3.722,5.441c-2.528,0.475 -4.966,-1.193 -5.441,-3.721c-0.474,-2.528 1.193,-4.966 3.721,-5.441Z" style="fill:#a7b6c2;"/><path d="M1544.12,304.159c2.529,-0.475 4.967,1.192 5.441,3.721c0.475,2.528 -1.193,4.966 -3.721,5.441c-2.528,0.474 -4.966,-1.193 -5.441,-3.721c-0.475,-2.529 1.193,-4.967 3.721,-5.441Z" style="fill:#a7b6c2;"/><path d="M1456.8,344.263c2.529,-0.474 4.967,1.193 5.441,3.721c0.475,2.529 -1.192,4.967 -3.721,5.441c-2.528,0.475 -4.966,-1.192 -5.441,-3.721c-0.474,-2.528 1.193,-4.966 3.721,-5.441Z" style="fill:#a7b6c2;"/><path d="M1479.7,339.963c2.528,-0.474 4.966,1.193 5.441,3.722c0.475,2.528 -1.193,4.966 -3.721,5.441c-2.529,0.474 -4.967,-1.193 -5.441,-3.721c-0.475,-2.529 1.193,-4.967 3.721,-5.442Z" style="fill:#a7b6c2;"/><path d="M1502.61,335.664c2.528,-0.475 4.966,1.192 5.441,3.721c0.474,2.528 -1.193,4.966 -3.721,5.441c-2.529,0.475 -4.967,-1.193 -5.442,-3.721c-0.474,-2.529 1.193,-4.967 3.722,-5.441Z" style="fill:#a7b6c2;"/><path d="M1525.51,331.364c2.529,-0.475 4.967,1.193 5.441,3.721c0.475,2.529 -1.192,4.967 -3.721,5.441c-2.528,0.475 -4.966,-1.193 -5.441,-3.721c-0.475,-2.528 1.193,-4.966 3.721,-5.441Z" style="fill:#a7b6c2;"/><path d="M1548.42,327.064c2.528,-0.474 4.966,1.193 5.441,3.721c0.475,2.529 -1.193,4.967 -3.721,5.441c-2.529,0.475 -4.967,-1.192 -5.441,-3.721c-0.475,-2.528 1.193,-4.966 3.721,-5.441Z" style="fill:#a7b6c2;"/></g></g></g></g><path id="Light-Blob-8" serif:id="Light Blob 8" d="M1098.74,536.431l161.89,-29.753l17.121,115.415l-155.356,30.496l-23.655,-116.158Z" style="fill:none;"/><clipPath id="_clip6"><path d="M1098.74,536.431l161.89,-29.753l17.121,115.415l-155.356,30.496l-23.655,-116.158Z"/></clipPath><g clip-path="url(#_clip6)"><g id="Grid-Light" serif:id="Grid Light"><g><g id="Grid-Texture6" serif:id="Grid Texture"><path d="M1117.18,563.582c2.528,-0.475 4.966,1.193 5.441,3.721c0.475,2.529 -1.193,4.967 -3.721,5.441c-2.528,0.475 -4.967,-1.193 -5.441,-3.721c-0.475,-2.528 1.193,-4.966 3.721,-5.441Z" style="fill:#ced9e0;"/><path d="M1112.88,540.676c2.529,-0.474 4.967,1.193 5.441,3.721c0.475,2.529 -1.192,4.967 -3.721,5.442c-2.528,0.474 -4.966,-1.193 -5.441,-3.722c-0.474,-2.528 1.193,-4.966 3.721,-5.441Z" style="fill:#ced9e0;"/><path d="M1130.08,632.299c2.529,-0.475 4.967,1.193 5.441,3.721c0.475,2.528 -1.192,4.967 -3.721,5.441c-2.528,0.475 -4.966,-1.193 -5.441,-3.721c-0.475,-2.528 1.193,-4.967 3.721,-5.441Z" style="fill:#ced9e0;"/><path d="M1121.48,586.488c2.528,-0.475 4.966,1.192 5.441,3.721c0.474,2.528 -1.193,4.966 -3.721,5.441c-2.529,0.474 -4.967,-1.193 -5.441,-3.721c-0.475,-2.529 1.192,-4.967 3.721,-5.441Z" style="fill:#ced9e0;"/><path d="M1125.78,609.393c2.529,-0.474 4.967,1.193 5.442,3.721c0.474,2.529 -1.193,4.967 -3.722,5.441c-2.528,0.475 -4.966,-1.192 -5.441,-3.721c-0.474,-2.528 1.193,-4.966 3.721,-5.441Z" style="fill:#ced9e0;"/><path d="M1135.79,536.377c2.528,-0.475 4.966,1.192 5.441,3.721c0.475,2.528 -1.193,4.966 -3.721,5.441c-2.529,0.474 -4.967,-1.193 -5.441,-3.721c-0.475,-2.529 1.193,-4.967 3.721,-5.441Z" style="fill:#ced9e0;"/><path d="M1158.69,532.077c2.528,-0.475 4.966,1.193 5.441,3.721c0.474,2.528 -1.193,4.966 -3.722,5.441c-2.528,0.475 -4.966,-1.193 -5.441,-3.721c-0.474,-2.528 1.193,-4.967 3.722,-5.441Z" style="fill:#ced9e0;"/><path d="M1181.6,527.777c2.529,-0.475 4.967,1.193 5.441,3.721c0.475,2.529 -1.192,4.967 -3.721,5.441c-2.528,0.475 -4.966,-1.192 -5.441,-3.721c-0.475,-2.528 1.193,-4.966 3.721,-5.441Z" style="fill:#ced9e0;"/><path d="M1140.09,559.282c2.528,-0.474 4.966,1.193 5.441,3.721c0.474,2.529 -1.193,4.967 -3.721,5.441c-2.529,0.475 -4.967,-1.192 -5.441,-3.721c-0.475,-2.528 1.192,-4.966 3.721,-5.441Z" style="fill:#ced9e0;"/><path d="M1162.99,554.982c2.529,-0.474 4.967,1.193 5.441,3.722c0.475,2.528 -1.192,4.966 -3.721,5.441c-2.528,0.474 -4.966,-1.193 -5.441,-3.721c-0.474,-2.529 1.193,-4.967 3.721,-5.442Z" style="fill:#ced9e0;"/><path d="M1185.9,550.683c2.528,-0.475 4.966,1.193 5.441,3.721c0.475,2.528 -1.193,4.966 -3.721,5.441c-2.529,0.475 -4.967,-1.193 -5.441,-3.721c-0.475,-2.529 1.193,-4.967 3.721,-5.441Z" style="fill:#ced9e0;"/><path d="M1144.39,582.188c2.529,-0.475 4.967,1.193 5.441,3.721c0.475,2.528 -1.192,4.966 -3.721,5.441c-2.528,0.475 -4.966,-1.193 -5.441,-3.721c-0.474,-2.528 1.193,-4.967 3.721,-5.441Z" style="fill:#ced9e0;"/><path d="M1167.29,577.888c2.528,-0.474 4.967,1.193 5.441,3.721c0.475,2.529 -1.193,4.967 -3.721,5.441c-2.528,0.475 -4.967,-1.192 -5.441,-3.721c-0.475,-2.528 1.193,-4.966 3.721,-5.441Z" style="fill:#ced9e0;"/><path d="M1190.2,573.588c2.528,-0.474 4.966,1.193 5.441,3.722c0.474,2.528 -1.193,4.966 -3.721,5.441c-2.529,0.474 -4.967,-1.193 -5.441,-3.722c-0.475,-2.528 1.192,-4.966 3.721,-5.441Z" style="fill:#ced9e0;"/><path d="M1148.69,605.093c2.529,-0.474 4.967,1.193 5.441,3.722c0.475,2.528 -1.193,4.966 -3.721,5.441c-2.528,0.474 -4.966,-1.193 -5.441,-3.721c-0.475,-2.529 1.193,-4.967 3.721,-5.442Z" style="fill:#ced9e0;"/><path d="M1171.59,600.794c2.528,-0.475 4.966,1.193 5.441,3.721c0.474,2.528 -1.193,4.966 -3.721,5.441c-2.529,0.475 -4.967,-1.193 -5.441,-3.721c-0.475,-2.529 1.192,-4.967 3.721,-5.441Z" style="fill:#ced9e0;"/><path d="M1194.5,596.494c2.529,-0.475 4.967,1.193 5.441,3.721c0.475,2.529 -1.192,4.967 -3.721,5.441c-2.528,0.475 -4.966,-1.192 -5.441,-3.721c-0.474,-2.528 1.193,-4.966 3.721,-5.441Z" style="fill:#ced9e0;"/><path d="M1152.99,627.999c2.528,-0.474 4.966,1.193 5.441,3.721c0.475,2.529 -1.193,4.967 -3.721,5.441c-2.529,0.475 -4.967,-1.192 -5.441,-3.721c-0.475,-2.528 1.192,-4.966 3.721,-5.441Z" style="fill:#ced9e0;"/><path d="M1175.89,623.699c2.528,-0.474 4.966,1.193 5.441,3.722c0.474,2.528 -1.193,4.966 -3.722,5.441c-2.528,0.474 -4.966,-1.193 -5.441,-3.722c-0.474,-2.528 1.193,-4.966 3.722,-5.441Z" style="fill:#ced9e0;"/><path d="M1198.8,619.4c2.529,-0.475 4.967,1.192 5.441,3.721c0.475,2.528 -1.193,4.966 -3.721,5.441c-2.528,0.475 -4.966,-1.193 -5.441,-3.721c-0.475,-2.529 1.193,-4.967 3.721,-5.441Z" style="fill:#ced9e0;"/><path d="M1204.51,523.477c2.528,-0.474 4.966,1.193 5.441,3.722c0.475,2.528 -1.193,4.966 -3.721,5.441c-2.529,0.474 -4.967,-1.193 -5.441,-3.722c-0.475,-2.528 1.192,-4.966 3.721,-5.441Z" style="fill:#ced9e0;"/><path d="M1208.81,546.383c2.528,-0.475 4.966,1.193 5.441,3.721c0.474,2.529 -1.193,4.967 -3.722,5.441c-2.528,0.475 -4.966,-1.193 -5.441,-3.721c-0.474,-2.528 1.193,-4.966 3.722,-5.441Z" style="fill:#ced9e0;"/><path d="M1213.11,569.289c2.529,-0.475 4.967,1.192 5.441,3.721c0.475,2.528 -1.192,4.966 -3.721,5.441c-2.528,0.475 -4.966,-1.193 -5.441,-3.721c-0.474,-2.529 1.193,-4.967 3.721,-5.441Z" style="fill:#ced9e0;"/><path d="M1217.4,592.194c2.528,-0.474 4.967,1.193 5.441,3.721c0.475,2.529 -1.193,4.967 -3.721,5.442c-2.528,0.474 -4.967,-1.193 -5.441,-3.722c-0.475,-2.528 1.193,-4.966 3.721,-5.441Z" style="fill:#ced9e0;"/><path d="M1221.7,615.1c2.528,-0.475 4.966,1.193 5.441,3.721c0.474,2.529 -1.193,4.967 -3.721,5.441c-2.529,0.475 -4.967,-1.193 -5.441,-3.721c-0.475,-2.528 1.192,-4.966 3.721,-5.441Z" style="fill:#ced9e0;"/><path d="M1227.41,519.178c2.528,-0.475 4.966,1.192 5.441,3.721c0.474,2.528 -1.193,4.966 -3.722,5.441c-2.528,0.475 -4.966,-1.193 -5.441,-3.721c-0.474,-2.529 1.193,-4.967 3.722,-5.441Z" style="fill:#ced9e0;"/><path d="M1250.32,514.878c2.529,-0.475 4.967,1.193 5.441,3.721c0.475,2.529 -1.193,4.967 -3.721,5.441c-2.528,0.475 -4.966,-1.193 -5.441,-3.721c-0.475,-2.528 1.193,-4.966 3.721,-5.441Z" style="fill:#ced9e0;"/><path d="M1231.71,542.083c2.529,-0.474 4.967,1.193 5.441,3.721c0.475,2.529 -1.192,4.967 -3.721,5.442c-2.528,0.474 -4.966,-1.193 -5.441,-3.722c-0.475,-2.528 1.193,-4.966 3.721,-5.441Z" style="fill:#ced9e0;"/><path d="M1254.62,537.784c2.528,-0.475 4.966,1.192 5.441,3.721c0.475,2.528 -1.193,4.966 -3.721,5.441c-2.529,0.474 -4.967,-1.193 -5.441,-3.721c-0.475,-2.529 1.192,-4.967 3.721,-5.441Z" style="fill:#ced9e0;"/><path d="M1236.01,564.989c2.528,-0.475 4.966,1.193 5.441,3.721c0.475,2.529 -1.193,4.967 -3.721,5.441c-2.529,0.475 -4.967,-1.193 -5.441,-3.721c-0.475,-2.528 1.193,-4.966 3.721,-5.441Z" style="fill:#ced9e0;"/><path d="M1258.92,560.689c2.528,-0.474 4.966,1.193 5.441,3.721c0.474,2.529 -1.193,4.967 -3.721,5.441c-2.529,0.475 -4.967,-1.192 -5.442,-3.721c-0.474,-2.528 1.193,-4.966 3.722,-5.441Z" style="fill:#ced9e0;"/><path d="M1240.31,587.895c2.528,-0.475 4.966,1.192 5.441,3.721c0.474,2.528 -1.193,4.966 -3.721,5.441c-2.529,0.474 -4.967,-1.193 -5.441,-3.721c-0.475,-2.529 1.192,-4.967 3.721,-5.441Z" style="fill:#ced9e0;"/><path d="M1263.22,583.595c2.529,-0.475 4.967,1.193 5.441,3.721c0.475,2.528 -1.192,4.966 -3.721,5.441c-2.528,0.475 -4.966,-1.193 -5.441,-3.721c-0.474,-2.528 1.193,-4.967 3.721,-5.441Z" style="fill:#ced9e0;"/><path d="M1244.61,610.8c2.529,-0.474 4.967,1.193 5.442,3.721c0.474,2.529 -1.193,4.967 -3.722,5.441c-2.528,0.475 -4.966,-1.192 -5.441,-3.721c-0.474,-2.528 1.193,-4.966 3.721,-5.441Z" style="fill:#ced9e0;"/><path d="M1267.52,606.5c2.528,-0.474 4.967,1.193 5.441,3.722c0.475,2.528 -1.193,4.966 -3.721,5.441c-2.528,0.474 -4.966,-1.193 -5.441,-3.721c-0.475,-2.529 1.193,-4.967 3.721,-5.442Z" style="fill:#ced9e0;"/></g><g id="Grid-Texture7" serif:id="Grid Texture"></g></g></g></g><path id="Light-Blob-7" serif:id="Light Blob 7" d="M2067.57,247.664l90.256,-15.912l16.628,70.671l-93.085,13.029l-13.799,-67.788Z" style="fill:none;"/><clipPath id="_clip7"><path d="M2067.57,247.664l90.256,-15.912l16.628,70.671l-93.085,13.029l-13.799,-67.788Z"/></clipPath><g clip-path="url(#_clip7)"><g id="Grid-Light1" serif:id="Grid Light"><g><g id="Grid-Texture8" serif:id="Grid Texture"><path d="M2078.81,252.851c2.528,-0.474 4.967,1.193 5.441,3.721c0.475,2.529 -1.193,4.967 -3.721,5.441c-2.528,0.475 -4.967,-1.192 -5.441,-3.721c-0.475,-2.528 1.193,-4.966 3.721,-5.441Z" style="fill:#ced9e0;"/><path d="M2083.11,275.757c2.528,-0.475 4.966,1.193 5.441,3.721c0.474,2.528 -1.193,4.966 -3.721,5.441c-2.529,0.475 -4.967,-1.193 -5.441,-3.721c-0.475,-2.528 1.192,-4.967 3.721,-5.441Z" style="fill:#ced9e0;"/><path d="M2087.41,298.662c2.528,-0.474 4.966,1.193 5.441,3.722c0.474,2.528 -1.193,4.966 -3.722,5.441c-2.528,0.474 -4.966,-1.193 -5.441,-3.721c-0.474,-2.529 1.193,-4.967 3.722,-5.442Z" style="fill:#ced9e0;"/><path d="M2101.71,248.551c2.528,-0.474 4.966,1.193 5.441,3.722c0.474,2.528 -1.193,4.966 -3.721,5.441c-2.529,0.474 -4.967,-1.193 -5.441,-3.721c-0.475,-2.529 1.192,-4.967 3.721,-5.442Z" style="fill:#ced9e0;"/><path d="M2106.01,271.457c2.529,-0.475 4.967,1.193 5.442,3.721c0.474,2.529 -1.193,4.967 -3.722,5.441c-2.528,0.475 -4.966,-1.192 -5.441,-3.721c-0.474,-2.528 1.193,-4.966 3.721,-5.441Z" style="fill:#ced9e0;"/><path d="M2110.31,294.363c2.529,-0.475 4.967,1.193 5.441,3.721c0.475,2.528 -1.193,4.966 -3.721,5.441c-2.528,0.475 -4.966,-1.193 -5.441,-3.721c-0.475,-2.529 1.193,-4.967 3.721,-5.441Z" style="fill:#ced9e0;"/><path d="M2124.62,244.252c2.529,-0.475 4.967,1.193 5.441,3.721c0.475,2.528 -1.192,4.966 -3.721,5.441c-2.528,0.475 -4.966,-1.193 -5.441,-3.721c-0.474,-2.529 1.193,-4.967 3.721,-5.441Z" style="fill:#ced9e0;"/><path d="M2147.52,239.952c2.528,-0.475 4.966,1.193 5.441,3.721c0.475,2.529 -1.193,4.967 -3.721,5.441c-2.529,0.475 -4.967,-1.193 -5.441,-3.721c-0.475,-2.528 1.193,-4.966 3.721,-5.441Z" style="fill:#ced9e0;"/><path d="M2128.92,267.157c2.528,-0.474 4.967,1.193 5.441,3.722c0.475,2.528 -1.193,4.966 -3.721,5.441c-2.528,0.474 -4.966,-1.193 -5.441,-3.722c-0.475,-2.528 1.193,-4.966 3.721,-5.441Z" style="fill:#ced9e0;"/><path d="M2151.82,262.858c2.528,-0.475 4.966,1.192 5.441,3.721c0.474,2.528 -1.193,4.966 -3.721,5.441c-2.529,0.475 -4.967,-1.193 -5.441,-3.721c-0.475,-2.529 1.192,-4.967 3.721,-5.441Z" style="fill:#ced9e0;"/><path d="M2133.22,290.063c2.528,-0.475 4.966,1.193 5.441,3.721c0.474,2.529 -1.193,4.967 -3.721,5.441c-2.529,0.475 -4.967,-1.193 -5.441,-3.721c-0.475,-2.528 1.192,-4.966 3.721,-5.441Z" style="fill:#ced9e0;"/><path d="M2156.12,285.763c2.529,-0.474 4.967,1.193 5.442,3.721c0.474,2.529 -1.193,4.967 -3.722,5.442c-2.528,0.474 -4.966,-1.193 -5.441,-3.722c-0.474,-2.528 1.193,-4.966 3.721,-5.441Z" style="fill:#ced9e0;"/></g></g></g></g><path id="Light-Blob-9" serif:id="Light Blob 9" d="M1471.49,298.535l98.636,-16.937l10.055,53.284l-19.631,8.353l3.78,19.37l-81.79,16.513l-11.05,-80.583Z" style="fill:none;"/><clipPath id="_clip8"><path d="M1471.49,298.535l98.636,-16.937l10.055,53.284l-19.631,8.353l3.78,19.37l-81.79,16.513l-11.05,-80.583Z"/></clipPath><g clip-path="url(#_clip8)"><g id="Grid-Light2" serif:id="Grid Light"><g><g id="Grid-Texture9" serif:id="Grid Texture"><path d="M1516.82,305.291c2.528,-0.475 4.966,1.192 5.441,3.721c0.475,2.528 -1.193,4.966 -3.721,5.441c-2.529,0.474 -4.967,-1.193 -5.441,-3.721c-0.475,-2.529 1.193,-4.967 3.721,-5.441Z" style="fill:#ced9e0;"/><path d="M1493.92,309.59c2.529,-0.474 4.967,1.193 5.441,3.721c0.475,2.529 -1.192,4.967 -3.721,5.442c-2.528,0.474 -4.966,-1.193 -5.441,-3.722c-0.474,-2.528 1.193,-4.966 3.721,-5.441Z" style="fill:#ced9e0;"/><path d="M1539.73,300.991c2.528,-0.475 4.966,1.193 5.441,3.721c0.474,2.528 -1.193,4.966 -3.722,5.441c-2.528,0.475 -4.966,-1.193 -5.441,-3.721c-0.474,-2.528 1.193,-4.967 3.722,-5.441Z" style="fill:#ced9e0;"/><path d="M1562.63,296.691c2.529,-0.474 4.967,1.193 5.441,3.721c0.475,2.529 -1.192,4.967 -3.721,5.441c-2.528,0.475 -4.966,-1.192 -5.441,-3.721c-0.475,-2.528 1.193,-4.966 3.721,-5.441Z" style="fill:#ced9e0;"/><path d="M1498.22,332.496c2.528,-0.475 4.966,1.193 5.441,3.721c0.475,2.529 -1.193,4.967 -3.721,5.441c-2.528,0.475 -4.967,-1.193 -5.441,-3.721c-0.475,-2.528 1.193,-4.966 3.721,-5.441Z" style="fill:#ced9e0;"/><path d="M1521.12,328.196c2.528,-0.474 4.966,1.193 5.441,3.721c0.474,2.529 -1.193,4.967 -3.721,5.441c-2.529,0.475 -4.967,-1.192 -5.442,-3.721c-0.474,-2.528 1.193,-4.966 3.722,-5.441Z" style="fill:#ced9e0;"/><path d="M1544.03,323.896c2.529,-0.474 4.967,1.193 5.441,3.722c0.475,2.528 -1.192,4.966 -3.721,5.441c-2.528,0.474 -4.966,-1.193 -5.441,-3.721c-0.474,-2.529 1.193,-4.967 3.721,-5.442Z" style="fill:#ced9e0;"/><path d="M1566.93,319.597c2.528,-0.475 4.966,1.193 5.441,3.721c0.475,2.528 -1.193,4.966 -3.721,5.441c-2.529,0.475 -4.967,-1.193 -5.441,-3.721c-0.475,-2.529 1.193,-4.967 3.721,-5.441Z" style="fill:#ced9e0;"/><path d="M1502.52,355.402c2.528,-0.475 4.966,1.192 5.441,3.721c0.474,2.528 -1.193,4.966 -3.721,5.441c-2.529,0.474 -4.967,-1.193 -5.441,-3.721c-0.475,-2.529 1.192,-4.967 3.721,-5.441Z" style="fill:#ced9e0;"/><path d="M1525.42,351.102c2.529,-0.475 4.967,1.193 5.441,3.721c0.475,2.528 -1.192,4.967 -3.721,5.441c-2.528,0.475 -4.966,-1.193 -5.441,-3.721c-0.474,-2.528 1.193,-4.967 3.721,-5.441Z" style="fill:#ced9e0;"/><path d="M1548.33,346.802c2.528,-0.474 4.966,1.193 5.441,3.721c0.475,2.529 -1.193,4.967 -3.721,5.441c-2.528,0.475 -4.967,-1.192 -5.441,-3.721c-0.475,-2.528 1.193,-4.966 3.721,-5.441Z" style="fill:#ced9e0;"/></g></g></g></g><path id="Light-Blob-6" serif:id="Light Blob 6" d="M3025.22,289.548l-5,-30.71l70.087,-9.759l5.03,24.178l91.776,-13.203l12.814,62.995l-160.877,37.084l-13.83,-70.585Z" style="fill:none;"/><clipPath id="_clip9"><path d="M3025.22,289.548l-5,-30.71l70.087,-9.759l5.03,24.178l91.776,-13.203l12.814,62.995l-160.877,37.084l-13.83,-70.585Z"/></clipPath><g clip-path="url(#_clip9)"><g id="Grid-Light3" serif:id="Grid Light"><g><g id="Grid-Texture10" serif:id="Grid Texture"><path d="M3034.31,269.579c2.529,-0.474 4.967,1.193 5.441,3.722c0.475,2.528 -1.192,4.966 -3.721,5.441c-2.528,0.474 -4.966,-1.193 -5.441,-3.722c-0.474,-2.528 1.193,-4.966 3.721,-5.441Z" style="fill:#ced9e0;"/><path d="M3057.22,265.28c2.528,-0.475 4.966,1.192 5.441,3.721c0.475,2.528 -1.193,4.966 -3.721,5.441c-2.529,0.475 -4.967,-1.193 -5.441,-3.721c-0.475,-2.529 1.193,-4.967 3.721,-5.441Z" style="fill:#ced9e0;"/><path d="M3038.61,292.485c2.528,-0.475 4.967,1.193 5.441,3.721c0.475,2.529 -1.193,4.967 -3.721,5.441c-2.528,0.475 -4.966,-1.193 -5.441,-3.721c-0.475,-2.528 1.193,-4.966 3.721,-5.441Z" style="fill:#ced9e0;"/><path d="M3061.52,288.185c2.528,-0.474 4.966,1.193 5.441,3.721c0.474,2.529 -1.193,4.967 -3.721,5.442c-2.529,0.474 -4.967,-1.193 -5.441,-3.722c-0.475,-2.528 1.192,-4.966 3.721,-5.441Z" style="fill:#ced9e0;"/><path d="M3042.91,315.391c2.528,-0.475 4.966,1.192 5.441,3.721c0.474,2.528 -1.193,4.966 -3.721,5.441c-2.529,0.475 -4.967,-1.193 -5.441,-3.721c-0.475,-2.529 1.192,-4.967 3.721,-5.441Z" style="fill:#ced9e0;"/><path d="M3065.82,311.091c2.529,-0.475 4.967,1.193 5.442,3.721c0.474,2.528 -1.193,4.967 -3.722,5.441c-2.528,0.475 -4.966,-1.193 -5.441,-3.721c-0.474,-2.528 1.193,-4.966 3.721,-5.441Z" style="fill:#ced9e0;"/><path d="M3047.21,338.296c2.528,-0.474 4.966,1.193 5.441,3.721c0.474,2.529 -1.193,4.967 -3.722,5.442c-2.528,0.474 -4.966,-1.193 -5.441,-3.722c-0.474,-2.528 1.193,-4.966 3.722,-5.441Z" style="fill:#ced9e0;"/><path d="M3070.12,333.997c2.529,-0.475 4.967,1.192 5.441,3.721c0.475,2.528 -1.193,4.966 -3.721,5.441c-2.528,0.474 -4.966,-1.193 -5.441,-3.721c-0.475,-2.529 1.193,-4.967 3.721,-5.441Z" style="fill:#ced9e0;"/><path d="M3080.12,260.98c2.528,-0.475 4.966,1.193 5.441,3.721c0.474,2.528 -1.193,4.967 -3.721,5.441c-2.529,0.475 -4.967,-1.193 -5.442,-3.721c-0.474,-2.528 1.193,-4.966 3.722,-5.441Z" style="fill:#ced9e0;"/><path d="M3084.42,283.886c2.529,-0.475 4.967,1.192 5.441,3.721c0.475,2.528 -1.192,4.966 -3.721,5.441c-2.528,0.474 -4.966,-1.193 -5.441,-3.721c-0.474,-2.529 1.193,-4.967 3.721,-5.441Z" style="fill:#ced9e0;"/><path d="M3088.72,306.791c2.528,-0.474 4.967,1.193 5.441,3.721c0.475,2.529 -1.193,4.967 -3.721,5.441c-2.528,0.475 -4.966,-1.192 -5.441,-3.721c-0.475,-2.528 1.193,-4.966 3.721,-5.441Z" style="fill:#ced9e0;"/><path d="M3093.02,329.697c2.528,-0.475 4.966,1.193 5.441,3.721c0.474,2.528 -1.193,4.966 -3.721,5.441c-2.529,0.475 -4.967,-1.193 -5.441,-3.721c-0.475,-2.528 1.192,-4.967 3.721,-5.441Z" style="fill:#ced9e0;"/></g><g id="Grid-Texture11" serif:id="Grid Texture"><path d="M3180.35,289.592c2.528,-0.474 4.966,1.193 5.441,3.721c0.474,2.529 -1.193,4.967 -3.721,5.442c-2.529,0.474 -4.967,-1.193 -5.442,-3.722c-0.474,-2.528 1.193,-4.966 3.722,-5.441Z" style="fill:#ced9e0;"/><path d="M3107.33,279.586c2.528,-0.475 4.966,1.193 5.441,3.721c0.475,2.528 -1.193,4.966 -3.721,5.441c-2.529,0.475 -4.967,-1.193 -5.441,-3.721c-0.475,-2.529 1.193,-4.967 3.721,-5.441Z" style="fill:#ced9e0;"/><path d="M3130.24,275.286c2.528,-0.475 4.966,1.193 5.441,3.721c0.474,2.529 -1.193,4.967 -3.721,5.441c-2.529,0.475 -4.967,-1.192 -5.442,-3.721c-0.474,-2.528 1.193,-4.966 3.722,-5.441Z" style="fill:#ced9e0;"/><path d="M3153.14,270.986c2.529,-0.474 4.967,1.193 5.441,3.722c0.475,2.528 -1.192,4.966 -3.721,5.441c-2.528,0.474 -4.966,-1.193 -5.441,-3.722c-0.475,-2.528 1.193,-4.966 3.721,-5.441Z" style="fill:#ced9e0;"/><path d="M3176.05,266.687c2.528,-0.475 4.966,1.192 5.441,3.721c0.475,2.528 -1.193,4.966 -3.721,5.441c-2.529,0.474 -4.967,-1.193 -5.441,-3.721c-0.475,-2.529 1.193,-4.967 3.721,-5.441Z" style="fill:#ced9e0;"/><path d="M3111.63,302.491c2.528,-0.474 4.966,1.193 5.441,3.722c0.474,2.528 -1.193,4.966 -3.721,5.441c-2.529,0.474 -4.967,-1.193 -5.441,-3.721c-0.475,-2.529 1.192,-4.967 3.721,-5.442Z" style="fill:#ced9e0;"/><path d="M3134.53,298.192c2.529,-0.475 4.967,1.193 5.441,3.721c0.475,2.528 -1.192,4.966 -3.721,5.441c-2.528,0.475 -4.966,-1.193 -5.441,-3.721c-0.474,-2.529 1.193,-4.967 3.721,-5.441Z" style="fill:#ced9e0;"/><path d="M3157.44,293.892c2.528,-0.475 4.966,1.193 5.441,3.721c0.475,2.529 -1.193,4.967 -3.721,5.441c-2.528,0.475 -4.967,-1.193 -5.441,-3.721c-0.475,-2.528 1.193,-4.966 3.721,-5.441Z" style="fill:#ced9e0;"/><path d="M3115.93,325.397c2.529,-0.475 4.967,1.193 5.442,3.721c0.474,2.529 -1.193,4.967 -3.722,5.441c-2.528,0.475 -4.966,-1.192 -5.441,-3.721c-0.474,-2.528 1.193,-4.966 3.721,-5.441Z" style="fill:#ced9e0;"/><path d="M3138.83,321.097c2.528,-0.474 4.967,1.193 5.441,3.722c0.475,2.528 -1.193,4.966 -3.721,5.441c-2.528,0.474 -4.966,-1.193 -5.441,-3.722c-0.475,-2.528 1.193,-4.966 3.721,-5.441Z" style="fill:#ced9e0;"/><path d="M3161.74,316.798c2.528,-0.475 4.966,1.192 5.441,3.721c0.474,2.528 -1.193,4.966 -3.721,5.441c-2.529,0.475 -4.967,-1.193 -5.441,-3.721c-0.475,-2.529 1.192,-4.967 3.721,-5.441Z" style="fill:#ced9e0;"/><path d="M3184.64,312.498c2.529,-0.475 4.967,1.193 5.441,3.721c0.475,2.528 -1.192,4.967 -3.721,5.441c-2.528,0.475 -4.966,-1.193 -5.441,-3.721c-0.474,-2.528 1.193,-4.966 3.721,-5.441Z" style="fill:#ced9e0;"/></g></g></g></g><path id="Light-Blob-4" serif:id="Light Blob 4" d="M1400,834.998l441.475,-75.708l6.359,44.329l-437.987,77.581l-9.847,-46.202Z" style="fill:none;"/><clipPath id="_clip10"><path d="M1400,834.998l441.475,-75.708l6.359,44.329l-437.987,77.581l-9.847,-46.202Z"/></clipPath><g clip-path="url(#_clip10)"><g id="Grid-Light4" serif:id="Grid Light"><g><g id="Grid-Texture12" serif:id="Grid Texture"><path d="M1415.29,839.485c2.532,-0.452 4.955,1.237 5.407,3.769c0.452,2.533 -1.237,4.956 -3.77,5.408c-2.532,0.452 -4.955,-1.237 -5.407,-3.77c-0.452,-2.532 1.237,-4.955 3.77,-5.407Z" style="fill:#ced9e0;"/><path d="M1419.38,862.428c2.533,-0.452 4.956,1.237 5.408,3.769c0.452,2.533 -1.237,4.956 -3.77,5.408c-2.532,0.452 -4.955,-1.237 -5.407,-3.77c-0.452,-2.532 1.237,-4.955 3.769,-5.407Z" style="fill:#ced9e0;"/><path d="M1438.23,835.39c2.532,-0.452 4.955,1.237 5.407,3.77c0.452,2.532 -1.237,4.955 -3.769,5.407c-2.533,0.452 -4.956,-1.237 -5.408,-3.77c-0.452,-2.532 1.237,-4.955 3.77,-5.407Z" style="fill:#ced9e0;"/><path d="M1461.17,831.295c2.532,-0.452 4.956,1.237 5.408,3.77c0.451,2.532 -1.238,4.956 -3.77,5.407c-2.533,0.452 -4.956,-1.237 -5.408,-3.769c-0.452,-2.533 1.237,-4.956 3.77,-5.408Z" style="fill:#ced9e0;"/><path d="M1484.11,827.201c2.533,-0.452 4.956,1.237 5.408,3.769c0.452,2.533 -1.237,4.956 -3.77,5.408c-2.533,0.452 -4.956,-1.237 -5.408,-3.77c-0.452,-2.532 1.238,-4.955 3.77,-5.407Z" style="fill:#ced9e0;"/><path d="M1442.32,858.333c2.533,-0.452 4.956,1.237 5.408,3.77c0.452,2.532 -1.237,4.955 -3.77,5.407c-2.532,0.452 -4.955,-1.237 -5.407,-3.769c-0.452,-2.533 1.237,-4.956 3.769,-5.408Z" style="fill:#ced9e0;"/><path d="M1465.27,854.238c2.532,-0.452 4.955,1.238 5.407,3.77c0.452,2.533 -1.237,4.956 -3.77,5.408c-2.532,0.452 -4.955,-1.237 -5.407,-3.77c-0.452,-2.533 1.237,-4.956 3.77,-5.408Z" style="fill:#ced9e0;"/><path d="M1488.21,850.144c2.532,-0.452 4.955,1.237 5.407,3.769c0.452,2.533 -1.237,4.956 -3.769,5.408c-2.533,0.452 -4.956,-1.237 -5.408,-3.77c-0.452,-2.532 1.237,-4.955 3.77,-5.407Z" style="fill:#ced9e0;"/><path d="M1507.06,823.106c2.533,-0.452 4.956,1.237 5.408,3.77c0.452,2.532 -1.237,4.955 -3.77,5.407c-2.532,0.452 -4.955,-1.237 -5.407,-3.77c-0.452,-2.532 1.237,-4.955 3.769,-5.407Z" style="fill:#ced9e0;"/><path d="M1511.15,846.049c2.533,-0.452 4.956,1.237 5.408,3.77c0.452,2.532 -1.238,4.955 -3.77,5.407c-2.533,0.452 -4.956,-1.237 -5.408,-3.769c-0.452,-2.533 1.237,-4.956 3.77,-5.408Z" style="fill:#ced9e0;"/><path d="M1598.83,806.727c2.533,-0.452 4.956,1.237 5.408,3.77c0.452,2.532 -1.238,4.955 -3.77,5.407c-2.533,0.452 -4.956,-1.237 -5.408,-3.769c-0.452,-2.533 1.237,-4.956 3.77,-5.408Z" style="fill:#ced9e0;"/><path d="M1530,819.011c2.533,-0.452 4.956,1.237 5.408,3.77c0.452,2.532 -1.237,4.955 -3.77,5.407c-2.532,0.452 -4.955,-1.237 -5.407,-3.769c-0.452,-2.533 1.237,-4.956 3.769,-5.408Z" style="fill:#ced9e0;"/><path d="M1552.94,814.916c2.532,-0.452 4.955,1.238 5.407,3.77c0.452,2.533 -1.237,4.956 -3.769,5.408c-2.533,0.452 -4.956,-1.237 -5.408,-3.77c-0.452,-2.532 1.237,-4.956 3.77,-5.408Z" style="fill:#ced9e0;"/><path d="M1575.89,810.822c2.532,-0.452 4.955,1.237 5.407,3.769c0.452,2.533 -1.237,4.956 -3.769,5.408c-2.533,0.452 -4.956,-1.237 -5.408,-3.77c-0.452,-2.532 1.237,-4.955 3.77,-5.407Z" style="fill:#ced9e0;"/><path d="M1534.1,841.954c2.533,-0.452 4.956,1.237 5.408,3.77c0.452,2.533 -1.237,4.956 -3.77,5.408c-2.532,0.452 -4.956,-1.238 -5.408,-3.77c-0.452,-2.533 1.238,-4.956 3.77,-5.408Z" style="fill:#ced9e0;"/><path d="M1557.04,837.86c2.533,-0.452 4.956,1.237 5.408,3.769c0.452,2.533 -1.237,4.956 -3.77,5.408c-2.532,0.452 -4.955,-1.237 -5.407,-3.77c-0.452,-2.532 1.237,-4.955 3.769,-5.407Z" style="fill:#ced9e0;"/><path d="M1579.98,833.765c2.532,-0.452 4.955,1.237 5.407,3.77c0.452,2.532 -1.237,4.955 -3.77,5.407c-2.532,0.452 -4.955,-1.237 -5.407,-3.769c-0.452,-2.533 1.237,-4.956 3.77,-5.408Z" style="fill:#ced9e0;"/><path d="M1602.92,829.67c2.532,-0.452 4.955,1.237 5.407,3.77c0.452,2.533 -1.237,4.956 -3.769,5.408c-2.533,0.452 -4.956,-1.238 -5.408,-3.77c-0.452,-2.533 1.237,-4.956 3.77,-5.408Z" style="fill:#ced9e0;"/><path d="M1621.77,802.632c2.533,-0.452 4.956,1.238 5.408,3.77c0.452,2.533 -1.237,4.956 -3.77,5.408c-2.532,0.452 -4.956,-1.237 -5.407,-3.77c-0.452,-2.533 1.237,-4.956 3.769,-5.408Z" style="fill:#ced9e0;"/><path d="M1644.72,798.538c2.533,-0.452 4.956,1.237 5.408,3.769c0.452,2.533 -1.237,4.956 -3.77,5.408c-2.532,0.452 -4.955,-1.237 -5.407,-3.77c-0.452,-2.532 1.237,-4.955 3.769,-5.407Z" style="fill:#ced9e0;"/><path d="M1667.66,794.443c2.532,-0.452 4.955,1.237 5.407,3.77c0.452,2.532 -1.237,4.955 -3.77,5.407c-2.532,0.452 -4.955,-1.237 -5.407,-3.769c-0.452,-2.533 1.237,-4.956 3.77,-5.408Z" style="fill:#ced9e0;"/><path d="M1625.87,825.576c2.532,-0.452 4.955,1.237 5.407,3.769c0.452,2.533 -1.237,4.956 -3.769,5.408c-2.533,0.452 -4.956,-1.237 -5.408,-3.77c-0.452,-2.532 1.237,-4.955 3.77,-5.407Z" style="fill:#ced9e0;"/><path d="M1648.81,821.481c2.533,-0.452 4.956,1.237 5.408,3.77c0.452,2.532 -1.238,4.955 -3.77,5.407c-2.533,0.452 -4.956,-1.237 -5.408,-3.77c-0.452,-2.532 1.238,-4.955 3.77,-5.407Z" style="fill:#ced9e0;"/><path d="M1671.75,817.386c2.533,-0.452 4.956,1.237 5.408,3.77c0.452,2.532 -1.237,4.955 -3.77,5.407c-2.532,0.452 -4.955,-1.237 -5.407,-3.769c-0.452,-2.533 1.237,-4.956 3.769,-5.408Z" style="fill:#ced9e0;"/><path d="M1690.6,790.348c2.532,-0.452 4.955,1.237 5.407,3.77c0.452,2.533 -1.237,4.956 -3.769,5.408c-2.533,0.452 -4.956,-1.238 -5.408,-3.77c-0.452,-2.533 1.237,-4.956 3.77,-5.408Z" style="fill:#ced9e0;"/><path d="M1694.7,813.292c2.533,-0.452 4.956,1.237 5.408,3.769c0.452,2.533 -1.237,4.956 -3.77,5.408c-2.532,0.452 -4.955,-1.237 -5.407,-3.77c-0.452,-2.532 1.237,-4.955 3.769,-5.407Z" style="fill:#ced9e0;"/></g><g id="Grid-Texture13" serif:id="Grid Texture"><path d="M1782.38,773.97c2.533,-0.452 4.956,1.237 5.408,3.769c0.452,2.533 -1.237,4.956 -3.77,5.408c-2.532,0.452 -4.955,-1.237 -5.407,-3.77c-0.452,-2.532 1.237,-4.955 3.769,-5.407Z" style="fill:#ced9e0;"/><path d="M1713.55,786.254c2.532,-0.452 4.956,1.237 5.408,3.769c0.451,2.533 -1.238,4.956 -3.77,5.408c-2.533,0.452 -4.956,-1.237 -5.408,-3.77c-0.452,-2.532 1.237,-4.955 3.77,-5.407Z" style="fill:#ced9e0;"/><path d="M1736.49,782.159c2.533,-0.452 4.956,1.237 5.408,3.77c0.452,2.532 -1.237,4.955 -3.77,5.407c-2.533,0.452 -4.956,-1.237 -5.408,-3.769c-0.452,-2.533 1.238,-4.956 3.77,-5.408Z" style="fill:#ced9e0;"/><path d="M1759.43,778.064c2.533,-0.452 4.956,1.237 5.408,3.77c0.452,2.533 -1.237,4.956 -3.77,5.408c-2.532,0.452 -4.955,-1.238 -5.407,-3.77c-0.452,-2.533 1.237,-4.956 3.769,-5.408Z" style="fill:#ced9e0;"/><path d="M1717.64,809.197c2.532,-0.452 4.955,1.237 5.407,3.77c0.452,2.532 -1.237,4.955 -3.769,5.407c-2.533,0.452 -4.956,-1.237 -5.408,-3.77c-0.452,-2.532 1.237,-4.955 3.77,-5.407Z" style="fill:#ced9e0;"/><path d="M1740.58,805.102c2.532,-0.452 4.955,1.237 5.407,3.77c0.452,2.532 -1.237,4.955 -3.769,5.407c-2.533,0.452 -4.956,-1.237 -5.408,-3.769c-0.452,-2.533 1.237,-4.956 3.77,-5.408Z" style="fill:#ced9e0;"/><path d="M1763.53,801.007c2.533,-0.452 4.956,1.238 5.408,3.77c0.452,2.533 -1.238,4.956 -3.77,5.408c-2.533,0.452 -4.956,-1.237 -5.408,-3.77c-0.452,-2.533 1.237,-4.956 3.77,-5.408Z" style="fill:#ced9e0;"/><path d="M1786.47,796.913c2.533,-0.452 4.956,1.237 5.408,3.769c0.452,2.533 -1.237,4.956 -3.77,5.408c-2.532,0.452 -4.956,-1.237 -5.408,-3.77c-0.452,-2.532 1.238,-4.955 3.77,-5.407Z" style="fill:#ced9e0;"/><path d="M1805.32,769.875c2.532,-0.452 4.955,1.237 5.407,3.77c0.452,2.532 -1.237,4.955 -3.769,5.407c-2.533,0.452 -4.956,-1.237 -5.408,-3.77c-0.452,-2.532 1.237,-4.955 3.77,-5.407Z" style="fill:#ced9e0;"/><path d="M1828.26,765.78c2.532,-0.452 4.955,1.237 5.407,3.77c0.452,2.532 -1.237,4.955 -3.769,5.407c-2.533,0.452 -4.956,-1.237 -5.408,-3.769c-0.452,-2.533 1.237,-4.956 3.77,-5.408Z" style="fill:#ced9e0;"/><path d="M1809.41,792.818c2.533,-0.452 4.956,1.237 5.408,3.77c0.452,2.532 -1.237,4.955 -3.77,5.407c-2.532,0.452 -4.955,-1.237 -5.407,-3.769c-0.452,-2.533 1.237,-4.956 3.769,-5.408Z" style="fill:#ced9e0;"/><path d="M1832.36,788.723c2.532,-0.452 4.955,1.238 5.407,3.77c0.452,2.533 -1.237,4.956 -3.77,5.408c-2.532,0.452 -4.955,-1.237 -5.407,-3.77c-0.452,-2.533 1.237,-4.956 3.77,-5.408Z" style="fill:#ced9e0;"/></g></g></g></g><path id="Light-Blob-3" serif:id="Light Blob 3" d="M2455.15,597.458l188.377,-33.094l19.147,91.432l-187.445,36.55l-20.079,-94.888Z" style="fill:none;"/><clipPath id="_clip11"><path d="M2455.15,597.458l188.377,-33.094l19.147,91.432l-187.445,36.55l-20.079,-94.888Z"/></clipPath><g clip-path="url(#_clip11)"><g id="Grid-Light5" serif:id="Grid Light"><g><g id="Grid-Texture14" serif:id="Grid Texture"><path d="M2473.6,604.434c2.528,-0.474 4.966,1.193 5.441,3.722c0.474,2.528 -1.193,4.966 -3.721,5.441c-2.529,0.474 -4.967,-1.193 -5.442,-3.721c-0.474,-2.529 1.193,-4.967 3.722,-5.442Z" style="fill:#ced9e0;"/><path d="M2477.9,627.34c2.529,-0.474 4.967,1.193 5.441,3.721c0.475,2.529 -1.192,4.967 -3.721,5.441c-2.528,0.475 -4.966,-1.192 -5.441,-3.721c-0.474,-2.528 1.193,-4.966 3.721,-5.441Z" style="fill:#ced9e0;"/><path d="M2482.2,650.246c2.528,-0.475 4.967,1.193 5.441,3.721c0.475,2.528 -1.193,4.966 -3.721,5.441c-2.528,0.475 -4.966,-1.193 -5.441,-3.721c-0.475,-2.529 1.193,-4.967 3.721,-5.441Z" style="fill:#ced9e0;"/><path d="M2486.5,673.151c2.528,-0.474 4.966,1.193 5.441,3.722c0.474,2.528 -1.193,4.966 -3.721,5.441c-2.529,0.474 -4.967,-1.193 -5.441,-3.722c-0.475,-2.528 1.192,-4.966 3.721,-5.441Z" style="fill:#ced9e0;"/><path d="M2496.51,600.135c2.529,-0.475 4.967,1.193 5.441,3.721c0.475,2.528 -1.192,4.966 -3.721,5.441c-2.528,0.475 -4.966,-1.193 -5.441,-3.721c-0.475,-2.529 1.193,-4.967 3.721,-5.441Z" style="fill:#ced9e0;"/><path d="M2500.81,623.04c2.528,-0.474 4.966,1.193 5.441,3.722c0.475,2.528 -1.193,4.966 -3.721,5.441c-2.529,0.474 -4.967,-1.193 -5.441,-3.722c-0.475,-2.528 1.193,-4.966 3.721,-5.441Z" style="fill:#ced9e0;"/><path d="M2505.11,645.946c2.528,-0.475 4.966,1.193 5.441,3.721c0.474,2.529 -1.193,4.967 -3.721,5.441c-2.529,0.475 -4.967,-1.193 -5.441,-3.721c-0.475,-2.528 1.192,-4.966 3.721,-5.441Z" style="fill:#ced9e0;"/><path d="M2509.41,668.852c2.529,-0.475 4.967,1.192 5.442,3.721c0.474,2.528 -1.193,4.966 -3.722,5.441c-2.528,0.475 -4.966,-1.193 -5.441,-3.721c-0.474,-2.529 1.193,-4.967 3.721,-5.441Z" style="fill:#ced9e0;"/></g><g id="Grid-Texture15" serif:id="Grid Texture"><path d="M2593.36,605.831c2.528,-0.474 4.966,1.193 5.441,3.721c0.474,2.529 -1.193,4.967 -3.721,5.441c-2.529,0.475 -4.967,-1.192 -5.441,-3.721c-0.475,-2.528 1.192,-4.966 3.721,-5.441Z" style="fill:#ced9e0;"/><path d="M2520.34,595.825c2.528,-0.475 4.967,1.193 5.441,3.721c0.475,2.528 -1.193,4.966 -3.721,5.441c-2.528,0.475 -4.966,-1.193 -5.441,-3.721c-0.475,-2.529 1.193,-4.967 3.721,-5.441Z" style="fill:#ced9e0;"/><path d="M2543.25,591.525c2.528,-0.475 4.966,1.193 5.441,3.721c0.474,2.529 -1.193,4.967 -3.721,5.441c-2.529,0.475 -4.967,-1.193 -5.441,-3.721c-0.475,-2.528 1.192,-4.966 3.721,-5.441Z" style="fill:#ced9e0;"/><path d="M2566.16,587.225c2.529,-0.474 4.967,1.193 5.441,3.721c0.475,2.529 -1.192,4.967 -3.721,5.442c-2.528,0.474 -4.966,-1.193 -5.441,-3.722c-0.474,-2.528 1.193,-4.966 3.721,-5.441Z" style="fill:#ced9e0;"/><path d="M2589.06,582.926c2.528,-0.475 4.966,1.192 5.441,3.721c0.475,2.528 -1.193,4.966 -3.721,5.441c-2.529,0.474 -4.967,-1.193 -5.441,-3.721c-0.475,-2.529 1.193,-4.967 3.721,-5.441Z" style="fill:#ced9e0;"/><path d="M2524.64,618.73c2.528,-0.474 4.966,1.193 5.441,3.722c0.474,2.528 -1.193,4.966 -3.721,5.441c-2.529,0.474 -4.967,-1.193 -5.441,-3.722c-0.475,-2.528 1.192,-4.966 3.721,-5.441Z" style="fill:#ced9e0;"/><path d="M2547.55,614.431c2.529,-0.475 4.967,1.192 5.442,3.721c0.474,2.528 -1.193,4.966 -3.722,5.441c-2.528,0.475 -4.966,-1.193 -5.441,-3.721c-0.474,-2.529 1.193,-4.967 3.721,-5.441Z" style="fill:#ced9e0;"/><path d="M2570.45,610.131c2.528,-0.475 4.967,1.193 5.441,3.721c0.475,2.529 -1.193,4.967 -3.721,5.441c-2.528,0.475 -4.966,-1.193 -5.441,-3.721c-0.475,-2.528 1.193,-4.966 3.721,-5.441Z" style="fill:#ced9e0;"/><path d="M2528.94,641.636c2.528,-0.475 4.966,1.193 5.441,3.721c0.474,2.529 -1.193,4.967 -3.722,5.441c-2.528,0.475 -4.966,-1.193 -5.441,-3.721c-0.474,-2.528 1.193,-4.966 3.722,-5.441Z" style="fill:#ced9e0;"/><path d="M2551.85,637.336c2.529,-0.474 4.967,1.193 5.441,3.721c0.475,2.529 -1.193,4.967 -3.721,5.442c-2.528,0.474 -4.966,-1.193 -5.441,-3.722c-0.475,-2.528 1.193,-4.966 3.721,-5.441Z" style="fill:#ced9e0;"/><path d="M2574.76,633.037c2.528,-0.475 4.966,1.192 5.441,3.721c0.475,2.528 -1.193,4.966 -3.721,5.441c-2.529,0.474 -4.967,-1.193 -5.441,-3.721c-0.475,-2.529 1.192,-4.967 3.721,-5.441Z" style="fill:#ced9e0;"/><path d="M2597.66,628.737c2.529,-0.475 4.967,1.193 5.442,3.721c0.474,2.528 -1.193,4.966 -3.722,5.441c-2.528,0.475 -4.966,-1.193 -5.441,-3.721c-0.474,-2.528 1.193,-4.967 3.721,-5.441Z" style="fill:#ced9e0;"/><path d="M2533.24,664.542c2.529,-0.475 4.967,1.192 5.441,3.721c0.475,2.528 -1.192,4.966 -3.721,5.441c-2.528,0.475 -4.966,-1.193 -5.441,-3.721c-0.475,-2.529 1.193,-4.967 3.721,-5.441Z" style="fill:#ced9e0;"/><path d="M2556.15,660.242c2.528,-0.475 4.966,1.193 5.441,3.721c0.475,2.529 -1.193,4.967 -3.721,5.441c-2.529,0.475 -4.967,-1.193 -5.441,-3.721c-0.475,-2.528 1.193,-4.966 3.721,-5.441Z" style="fill:#ced9e0;"/><path d="M2579.05,655.942c2.528,-0.474 4.966,1.193 5.441,3.721c0.474,2.529 -1.193,4.967 -3.722,5.441c-2.528,0.475 -4.966,-1.192 -5.441,-3.721c-0.474,-2.528 1.193,-4.966 3.722,-5.441Z" style="fill:#ced9e0;"/><path d="M2601.96,651.642c2.529,-0.474 4.967,1.193 5.441,3.722c0.475,2.528 -1.193,4.966 -3.721,5.441c-2.528,0.474 -4.966,-1.193 -5.441,-3.721c-0.475,-2.529 1.193,-4.967 3.721,-5.442Z" style="fill:#ced9e0;"/><path d="M2611.97,578.626c2.528,-0.475 4.966,1.193 5.441,3.721c0.474,2.528 -1.193,4.966 -3.721,5.441c-2.529,0.475 -4.967,-1.193 -5.442,-3.721c-0.474,-2.528 1.193,-4.967 3.722,-5.441Z" style="fill:#ced9e0;"/><path d="M2634.87,574.326c2.529,-0.475 4.967,1.193 5.441,3.721c0.475,2.529 -1.192,4.967 -3.721,5.441c-2.528,0.475 -4.966,-1.192 -5.441,-3.721c-0.475,-2.528 1.193,-4.966 3.721,-5.441Z" style="fill:#ced9e0;"/><path d="M2616.27,601.531c2.529,-0.474 4.967,1.193 5.441,3.722c0.475,2.528 -1.192,4.966 -3.721,5.441c-2.528,0.474 -4.966,-1.193 -5.441,-3.721c-0.474,-2.529 1.193,-4.967 3.721,-5.442Z" style="fill:#ced9e0;"/><path d="M2639.17,597.232c2.528,-0.475 4.966,1.193 5.441,3.721c0.475,2.528 -1.193,4.966 -3.721,5.441c-2.528,0.475 -4.967,-1.193 -5.441,-3.721c-0.475,-2.529 1.193,-4.967 3.721,-5.441Z" style="fill:#ced9e0;"/><path d="M2620.57,624.437c2.528,-0.475 4.967,1.193 5.441,3.721c0.475,2.529 -1.193,4.967 -3.721,5.441c-2.528,0.475 -4.966,-1.192 -5.441,-3.721c-0.475,-2.528 1.193,-4.966 3.721,-5.441Z" style="fill:#ced9e0;"/><path d="M2643.47,620.137c2.528,-0.474 4.966,1.193 5.441,3.722c0.474,2.528 -1.193,4.966 -3.721,5.441c-2.529,0.474 -4.967,-1.193 -5.441,-3.722c-0.475,-2.528 1.192,-4.966 3.721,-5.441Z" style="fill:#ced9e0;"/><path d="M2624.87,647.343c2.528,-0.475 4.966,1.193 5.441,3.721c0.475,2.528 -1.193,4.966 -3.721,5.441c-2.529,0.475 -4.967,-1.193 -5.441,-3.721c-0.475,-2.529 1.192,-4.967 3.721,-5.441Z" style="fill:#ced9e0;"/><path d="M2647.77,643.043c2.529,-0.475 4.967,1.193 5.442,3.721c0.474,2.529 -1.193,4.967 -3.722,5.441c-2.528,0.475 -4.966,-1.193 -5.441,-3.721c-0.474,-2.528 1.193,-4.966 3.721,-5.441Z" style="fill:#ced9e0;"/></g></g></g></g></g></svg>