<?xml version="1.0" encoding="UTF-8" standalone="no"?><!DOCTYPE svg PUBLIC "-//W3C//DTD SVG 1.1//EN" "http://www.w3.org/Graphics/SVG/1.1/DTD/svg11.dtd"><svg width="100%" height="100%" viewBox="0 0 400 300" version="1.1" xmlns="http://www.w3.org/2000/svg" xmlns:xlink="http://www.w3.org/1999/xlink" xml:space="preserve" xmlns:serif="http://www.serif.com/" style="fill-rule:evenodd;clip-rule:evenodd;stroke-linecap:round;stroke-miterlimit:1.5;"><g id="Layer1"><rect x="0" y="0" width="400" height="300" style="fill:#202b33;"/><rect x="18.342" y="16" width="363.658" height="266" style="fill:none;"/><clipPath id="_clip1"><rect x="18.342" y="16" width="363.658" height="266"/></clipPath><g clip-path="url(#_clip1)"><path d="M391.71,178.48l-2,141.334l-380.121,2.707l-1.299,-66.156l41.726,-29.276l32.883,11.438l32.883,-20.016l39.958,1.43l34.385,-24.305l47.18,5.719l41.461,-58.617l28.593,37.172l38.602,-4.289l28.838,-17.156l16.911,20.015" style="fill:#192025;stroke:#137cbd;stroke-width:9.5px;"/></g><rect x="25" y="25" width="240.051" height="66" style="fill:#191d20;"/><rect x="117" y="25" width="148.051" height="66" style="fill:#394b59;"/><g transform="matrix(1,0,0,1,4,-42)"><g transform="matrix(36,0,0,36,128.177,112.24)"><path d="M0.065,-0.103c0,-0.005 0.002,-0.01 0.005,-0.014l0.239,-0.284c0.013,-0.015 0.023,-0.03 0.03,-0.045c0.007,-0.016 0.01,-0.032 0.01,-0.049c0,-0.023 -0.007,-0.041 -0.02,-0.056c-0.013,-0.015 -0.031,-0.022 -0.054,-0.022c-0.047,0 -0.074,0.027 -0.08,0.08c0,0.007 -0.004,0.009 -0.011,0.008l-0.11,-0.018c-0.007,-0.001 -0.009,-0.005 -0.008,-0.012c0.002,-0.023 0.008,-0.046 0.018,-0.067c0.01,-0.021 0.024,-0.04 0.042,-0.056c0.019,-0.016 0.041,-0.029 0.066,-0.038c0.026,-0.01 0.055,-0.015 0.088,-0.015c0.033,0 0.062,0.005 0.087,0.015c0.026,0.01 0.048,0.024 0.066,0.041c0.018,0.017 0.032,0.038 0.041,0.062c0.01,0.023 0.015,0.049 0.015,0.076c0,0.033 -0.006,0.062 -0.019,0.089c-0.012,0.026 -0.029,0.051 -0.05,0.076l-0.179,0.211l0,0.002l0.238,0c0.007,0 0.01,0.003 0.01,0.01l0,0.099c0,0.007 -0.003,0.01 -0.01,0.01l-0.404,0c-0.007,0 -0.01,-0.003 -0.01,-0.01l0,-0.093Z" style="fill:#fff;fill-rule:nonzero;"/></g><g transform="matrix(36,0,0,36,148.193,112.24)"><path d="M0.056,-0.145c-0.001,-0.007 0.001,-0.011 0.008,-0.013l0.11,-0.021c0.006,-0.001 0.01,0.002 0.012,0.008c0.006,0.018 0.016,0.033 0.031,0.045c0.015,0.013 0.034,0.019 0.058,0.019c0.026,0 0.046,-0.008 0.062,-0.025c0.014,-0.017 0.022,-0.038 0.022,-0.063c0,-0.031 -0.009,-0.054 -0.026,-0.071c-0.017,-0.017 -0.04,-0.025 -0.069,-0.025l-0.029,0c-0.007,0 -0.01,-0.003 -0.01,-0.01l0,-0.097c0,-0.007 0.003,-0.01 0.01,-0.01l0.027,0c0.025,0 0.046,-0.008 0.061,-0.023c0.015,-0.015 0.023,-0.036 0.023,-0.062c0,-0.024 -0.007,-0.043 -0.021,-0.058c-0.013,-0.015 -0.032,-0.022 -0.056,-0.022c-0.021,0 -0.038,0.006 -0.051,0.017c-0.012,0.011 -0.021,0.027 -0.026,0.046c-0.002,0.006 -0.006,0.008 -0.012,0.007l-0.109,-0.021c-0.007,-0.001 -0.009,-0.005 -0.008,-0.011c0.004,-0.023 0.012,-0.043 0.023,-0.063c0.011,-0.018 0.026,-0.035 0.044,-0.049c0.019,-0.014 0.04,-0.025 0.065,-0.032c0.024,-0.008 0.051,-0.012 0.081,-0.012c0.033,0 0.063,0.005 0.089,0.014c0.026,0.009 0.048,0.022 0.066,0.039c0.018,0.017 0.032,0.037 0.041,0.06c0.009,0.023 0.014,0.048 0.014,0.075c0,0.029 -0.007,0.056 -0.019,0.08c-0.013,0.024 -0.032,0.044 -0.057,0.06l0,0.002c0.01,0.005 0.02,0.013 0.031,0.022c0.011,0.009 0.02,0.021 0.029,0.035c0.009,0.013 0.016,0.029 0.021,0.047c0.005,0.018 0.008,0.038 0.008,0.061c0,0.031 -0.006,0.06 -0.017,0.085c-0.01,0.025 -0.026,0.047 -0.046,0.065c-0.02,0.018 -0.043,0.032 -0.071,0.042c-0.026,0.01 -0.056,0.015 -0.088,0.015c-0.058,0 -0.107,-0.014 -0.147,-0.041c-0.04,-0.027 -0.065,-0.066 -0.074,-0.115Z" style="fill:#fff;fill-rule:nonzero;"/></g><g transform="matrix(36,0,0,36,168.209,112.24)"><path d="M0.05,-0.203c0,-0.029 0.004,-0.057 0.013,-0.084c0.009,-0.027 0.021,-0.055 0.037,-0.084l0.165,-0.302c0.002,-0.005 0.006,-0.007 0.012,-0.007l0.127,0c0.008,0 0.01,0.003 0.007,0.01l-0.144,0.263l0.002,0.002c0.003,-0.001 0.009,-0.003 0.017,-0.004c0.007,-0.001 0.016,-0.002 0.025,-0.002c0.027,0 0.052,0.005 0.075,0.015c0.024,0.009 0.045,0.023 0.062,0.041c0.018,0.017 0.032,0.039 0.042,0.064c0.011,0.025 0.016,0.054 0.016,0.085c0,0.034 -0.006,0.065 -0.018,0.092c-0.011,0.027 -0.027,0.049 -0.047,0.068c-0.021,0.019 -0.045,0.033 -0.073,0.043c-0.028,0.009 -0.058,0.014 -0.09,0.014c-0.033,0 -0.063,-0.005 -0.091,-0.014c-0.027,-0.01 -0.051,-0.024 -0.072,-0.042c-0.02,-0.019 -0.036,-0.041 -0.048,-0.068c-0.011,-0.027 -0.017,-0.057 -0.017,-0.09Zm0.138,0.002c0,0.028 0.008,0.051 0.024,0.068c0.016,0.017 0.038,0.026 0.066,0.026c0.028,0 0.05,-0.009 0.066,-0.026c0.016,-0.017 0.024,-0.04 0.024,-0.068c0,-0.028 -0.008,-0.051 -0.024,-0.069c-0.016,-0.017 -0.038,-0.026 -0.066,-0.026c-0.028,0 -0.05,0.009 -0.066,0.027c-0.016,0.017 -0.024,0.04 -0.024,0.068Z" style="fill:#fff;fill-rule:nonzero;"/></g><g transform="matrix(36,0,0,36,188.225,112.24)"><path d="M0.073,-0.128c-0.003,-0.007 -0.005,-0.015 -0.006,-0.024c-0.002,-0.01 -0.004,-0.021 -0.005,-0.037c-0.001,-0.015 -0.002,-0.034 -0.003,-0.058c-0.001,-0.024 -0.001,-0.055 -0.001,-0.093c0,-0.038 0,-0.069 0.001,-0.093c0.001,-0.024 0.002,-0.044 0.003,-0.059c0.001,-0.015 0.003,-0.027 0.005,-0.036c0.001,-0.009 0.003,-0.017 0.006,-0.024c0.014,-0.044 0.038,-0.078 0.073,-0.103c0.034,-0.024 0.078,-0.036 0.132,-0.036c0.054,0 0.098,0.012 0.133,0.036c0.034,0.025 0.058,0.059 0.072,0.103c0.003,0.007 0.005,0.015 0.006,0.024c0.002,0.009 0.004,0.021 0.005,0.036c0.001,0.015 0.002,0.035 0.003,0.059c0.001,0.024 0.001,0.055 0.001,0.093c0,0.038 0,0.069 -0.001,0.093c-0.001,0.024 -0.002,0.043 -0.003,0.058c-0.001,0.015 -0.003,0.027 -0.005,0.036c-0.001,0.009 -0.003,0.018 -0.006,0.025c-0.014,0.044 -0.038,0.078 -0.073,0.102c-0.034,0.025 -0.078,0.037 -0.132,0.037c-0.054,0 -0.098,-0.012 -0.133,-0.037c-0.034,-0.024 -0.058,-0.058 -0.072,-0.102Zm0.136,-0.025c0.01,0.031 0.033,0.046 0.069,0.046c0.036,0 0.059,-0.015 0.069,-0.046c0.001,-0.005 0.003,-0.01 0.004,-0.016c0,-0.006 0.001,-0.016 0.002,-0.029c0.001,-0.013 0.001,-0.03 0.001,-0.053c0.001,-0.022 0.001,-0.052 0.001,-0.089c0,-0.037 0,-0.067 -0.001,-0.09c0,-0.022 0,-0.04 -0.001,-0.053c-0.001,-0.013 -0.002,-0.022 -0.003,-0.028c0,-0.006 -0.002,-0.011 -0.003,-0.016c-0.01,-0.031 -0.033,-0.046 -0.069,-0.046c-0.036,0 -0.059,0.015 -0.069,0.046c-0.001,0.005 -0.003,0.01 -0.004,0.016c-0.001,0.006 -0.001,0.015 -0.002,0.028c-0.001,0.013 -0.001,0.031 -0.002,0.053c0,0.023 0,0.053 0,0.09c0,0.037 0,0.067 0.001,0.089c0,0.023 0,0.04 0.001,0.053c0.001,0.013 0.002,0.023 0.003,0.029c0.001,0.006 0.002,0.011 0.003,0.016Z" style="fill:#fff;fill-rule:nonzero;"/></g><g transform="matrix(16,0,0,16,216.737,112.24)"><path d="M0.073,0c-0.007,0 -0.01,-0.003 -0.01,-0.01l0,-0.464c0,-0.007 0.003,-0.01 0.01,-0.01l0.12,0c0.007,0 0.01,0.003 0.01,0.01l0,0.041l0.001,0c0.011,-0.019 0.028,-0.034 0.049,-0.045c0.021,-0.012 0.047,-0.017 0.077,-0.017c0.016,0 0.031,0.003 0.046,0.008c0.016,0.005 0.028,0.012 0.039,0.021c0.005,0.004 0.006,0.009 0.003,0.014l-0.056,0.102c-0.003,0.004 -0.008,0.005 -0.014,0.002c-0.024,-0.015 -0.047,-0.023 -0.07,-0.022c-0.026,0.001 -0.045,0.011 -0.057,0.029c-0.012,0.018 -0.018,0.043 -0.018,0.076l0,0.255c0,0.007 -0.003,0.01 -0.01,0.01l-0.12,0Z" style="fill:#fff;fill-rule:nonzero;"/></g><g transform="matrix(16,0,0,16,223.553,112.24)"><path d="M0.073,0.18c-0.007,0 -0.01,-0.003 -0.01,-0.01l0,-0.644c0,-0.007 0.003,-0.01 0.01,-0.01l0.12,0c0.007,0 0.01,0.003 0.01,0.01l0,0.035l0.001,0c0.011,-0.017 0.027,-0.03 0.048,-0.04c0.021,-0.011 0.047,-0.016 0.079,-0.016c0.041,0 0.075,0.01 0.103,0.029c0.028,0.019 0.048,0.048 0.061,0.087c0.006,0.019 0.01,0.039 0.013,0.059c0.003,0.02 0.004,0.046 0.004,0.078c0,0.031 -0.001,0.057 -0.004,0.077c-0.003,0.021 -0.007,0.041 -0.013,0.06c-0.013,0.038 -0.033,0.067 -0.061,0.086c-0.028,0.02 -0.062,0.03 -0.103,0.03c-0.032,0 -0.058,-0.005 -0.079,-0.016c-0.021,-0.01 -0.037,-0.023 -0.048,-0.04l-0.001,0l0,0.215c0,0.007 -0.003,0.01 -0.01,0.01l-0.12,0Zm0.213,-0.287c0.039,0 0.064,-0.017 0.075,-0.052c0.003,-0.009 0.006,-0.02 0.007,-0.032c0.001,-0.013 0.002,-0.03 0.002,-0.051c0,-0.021 -0.001,-0.038 -0.002,-0.05c-0.001,-0.013 -0.004,-0.024 -0.007,-0.033c-0.011,-0.035 -0.036,-0.052 -0.075,-0.052c-0.039,0 -0.063,0.017 -0.074,0.052c-0.003,0.009 -0.006,0.02 -0.007,0.033c-0.001,0.012 -0.002,0.029 -0.002,0.05c0,0.021 0.001,0.038 0.002,0.051c0.001,0.012 0.004,0.023 0.007,0.032c0.011,0.035 0.036,0.052 0.074,0.052Z" style="fill:#fff;fill-rule:nonzero;"/></g><g transform="matrix(16,0,0,16,232.369,112.24)"><path d="M0.655,0c-0.007,0 -0.01,-0.003 -0.01,-0.01l0,-0.278c0,-0.027 -0.006,-0.048 -0.019,-0.064c-0.013,-0.016 -0.032,-0.024 -0.057,-0.024c-0.024,0 -0.042,0.008 -0.055,0.024c-0.013,0.016 -0.02,0.037 -0.02,0.064l0,0.278c0,0.007 -0.003,0.01 -0.01,0.01l-0.12,0c-0.007,0 -0.01,-0.003 -0.01,-0.01l0,-0.278c0,-0.027 -0.006,-0.048 -0.018,-0.064c-0.013,-0.016 -0.032,-0.024 -0.057,-0.024c-0.024,0 -0.043,0.008 -0.056,0.024c-0.013,0.016 -0.02,0.037 -0.02,0.064l0,0.278c0,0.007 -0.003,0.01 -0.01,0.01l-0.12,0c-0.007,0 -0.01,-0.003 -0.01,-0.01l0,-0.464c0,-0.007 0.003,-0.01 0.01,-0.01l0.12,0c0.007,0 0.01,0.003 0.01,0.01l0,0.034l0.001,0c0.011,-0.015 0.027,-0.028 0.048,-0.039c0.02,-0.011 0.046,-0.016 0.077,-0.016c0.058,0 0.101,0.02 0.13,0.061l0.001,0c0.018,-0.019 0.039,-0.034 0.064,-0.045c0.025,-0.011 0.054,-0.016 0.088,-0.016c0.057,0 0.1,0.017 0.129,0.05c0.029,0.033 0.044,0.077 0.044,0.13l0,0.305c0,0.007 -0.003,0.01 -0.01,0.01l-0.12,0Z" style="fill:#fff;fill-rule:nonzero;"/></g></g><g transform="matrix(1,0,0,1,-75,-42.997)"><g transform="matrix(24,0,0,24,113,96.6585)"><path d="M0.294,0.011c-0.027,0 -0.053,-0.003 -0.078,-0.008c-0.026,-0.005 -0.05,-0.011 -0.073,-0.02c-0.023,-0.008 -0.043,-0.018 -0.062,-0.029c-0.019,-0.011 -0.036,-0.023 -0.049,-0.036c-0.005,-0.005 -0.006,-0.011 -0.001,-0.017l0.076,-0.087c0.004,-0.005 0.009,-0.006 0.015,-0.001c0.023,0.018 0.049,0.034 0.079,0.048c0.03,0.015 0.063,0.022 0.099,0.022c0.036,0 0.064,-0.007 0.083,-0.022c0.019,-0.015 0.028,-0.035 0.028,-0.059c0,-0.02 -0.007,-0.036 -0.022,-0.049c-0.015,-0.013 -0.042,-0.022 -0.083,-0.027l-0.036,-0.005c-0.069,-0.009 -0.122,-0.03 -0.159,-0.064c-0.037,-0.032 -0.056,-0.079 -0.056,-0.14c0,-0.031 0.006,-0.06 0.017,-0.085c0.011,-0.026 0.028,-0.048 0.049,-0.066c0.021,-0.018 0.046,-0.032 0.076,-0.042c0.029,-0.01 0.062,-0.015 0.099,-0.015c0.045,0 0.088,0.006 0.128,0.019c0.04,0.013 0.074,0.03 0.103,0.052c0.006,0.004 0.007,0.009 0.002,0.015l-0.061,0.091c-0.004,0.005 -0.009,0.006 -0.014,0.003c-0.026,-0.017 -0.052,-0.03 -0.077,-0.039c-0.026,-0.009 -0.053,-0.013 -0.081,-0.013c-0.03,0 -0.053,0.007 -0.068,0.021c-0.015,0.014 -0.023,0.032 -0.023,0.053c0,0.019 0.008,0.035 0.024,0.048c0.015,0.013 0.043,0.022 0.082,0.027l0.036,0.005c0.071,0.009 0.124,0.031 0.16,0.064c0.036,0.033 0.054,0.08 0.054,0.142c0,0.031 -0.006,0.059 -0.017,0.086c-0.011,0.026 -0.028,0.049 -0.05,0.068c-0.023,0.019 -0.051,0.033 -0.084,0.044c-0.033,0.011 -0.072,0.016 -0.116,0.016Z" style="fill:#fff;fill-rule:nonzero;"/></g><g transform="matrix(24,0,0,24,127.28,96.6585)"><path d="M0.364,0c-0.007,0 -0.01,-0.003 -0.01,-0.01l0,-0.278c0,-0.027 -0.006,-0.048 -0.018,-0.064c-0.013,-0.016 -0.032,-0.024 -0.057,-0.024c-0.024,0 -0.043,0.008 -0.056,0.024c-0.013,0.016 -0.02,0.037 -0.02,0.064l0,0.278c0,0.007 -0.003,0.01 -0.01,0.01l-0.12,0c-0.007,0 -0.01,-0.003 -0.01,-0.01l0,-0.66c0,-0.007 0.003,-0.01 0.01,-0.01l0.12,0c0.007,0 0.01,0.003 0.01,0.01l0,0.23l0.001,0c0.011,-0.015 0.027,-0.028 0.048,-0.039c0.02,-0.011 0.046,-0.016 0.077,-0.016c0.027,0 0.05,0.004 0.071,0.013c0.021,0.009 0.038,0.021 0.052,0.037c0.014,0.016 0.024,0.035 0.031,0.057c0.008,0.022 0.011,0.046 0.011,0.073l0,0.305c0,0.007 -0.003,0.01 -0.01,0.01l-0.12,0Z" style="fill:#fff;fill-rule:nonzero;"/></g><g transform="matrix(24,0,0,24,140.552,96.6585)"><path d="M0.347,0c-0.007,0 -0.01,-0.003 -0.01,-0.01l0,-0.032l-0.001,0c-0.013,0.016 -0.03,0.029 -0.051,0.039c-0.021,0.009 -0.049,0.014 -0.082,0.014c-0.021,0 -0.042,-0.003 -0.062,-0.008c-0.019,-0.006 -0.036,-0.015 -0.051,-0.027c-0.015,-0.012 -0.026,-0.027 -0.035,-0.046c-0.009,-0.019 -0.013,-0.041 -0.013,-0.067c0,-0.053 0.018,-0.093 0.055,-0.118c0.037,-0.025 0.086,-0.038 0.146,-0.038l0.086,0c0.004,0 0.006,-0.002 0.006,-0.006l0,-0.018c0,-0.023 -0.007,-0.039 -0.021,-0.05c-0.013,-0.011 -0.039,-0.016 -0.078,-0.016c-0.025,0 -0.046,0.003 -0.064,0.009c-0.018,0.006 -0.033,0.013 -0.044,0.022c-0.005,0.004 -0.01,0.003 -0.013,-0.002l-0.045,-0.079c-0.003,-0.006 -0.002,-0.011 0.003,-0.014c0.021,-0.015 0.046,-0.026 0.075,-0.035c0.03,-0.009 0.065,-0.013 0.105,-0.013c0.039,0 0.073,0.004 0.1,0.011c0.027,0.006 0.05,0.017 0.067,0.031c0.016,0.015 0.029,0.033 0.037,0.055c0.007,0.022 0.011,0.048 0.011,0.078l0,0.31c0,0.007 -0.003,0.01 -0.01,0.01l-0.111,0Zm-0.102,-0.094c0.06,0 0.09,-0.022 0.09,-0.067l0,-0.033c0,-0.004 -0.002,-0.006 -0.006,-0.006l-0.068,0c-0.057,0 -0.086,0.018 -0.086,0.055c0,0.034 0.023,0.051 0.07,0.051Z" style="fill:#fff;fill-rule:nonzero;"/></g><g transform="matrix(24,0,0,24,153.224,96.6585)"><path d="M0.091,0c-0.007,0 -0.01,-0.003 -0.01,-0.01l0,-0.365c0,-0.004 -0.002,-0.006 -0.006,-0.006l-0.03,0c-0.007,0 -0.01,-0.003 -0.01,-0.01l0,-0.083c0,-0.007 0.003,-0.01 0.01,-0.01l0.03,0c0.004,0 0.006,-0.002 0.006,-0.006l0,-0.023c0,-0.059 0.014,-0.102 0.041,-0.128c0.028,-0.026 0.071,-0.039 0.129,-0.039l0.055,0c0.007,0 0.01,0.003 0.01,0.01l0,0.094c0,0.007 -0.003,0.01 -0.01,0.01l-0.031,0c-0.022,0 -0.037,0.004 -0.044,0.011c-0.007,0.006 -0.011,0.02 -0.011,0.041l0,0.024c0,0.004 0.002,0.006 0.006,0.006l0.079,0c0.007,0 0.01,0.003 0.01,0.01l0,0.083c0,0.007 -0.003,0.01 -0.01,0.01l-0.079,0c-0.004,0 -0.006,0.002 -0.006,0.006l0,0.365c0,0.007 -0.003,0.01 -0.01,0.01l-0.119,0Z" style="fill:#fff;fill-rule:nonzero;"/></g><g transform="matrix(24,0,0,24,161.36,96.6585)"><path d="M0.227,0.006c-0.056,0 -0.096,-0.013 -0.119,-0.039c-0.023,-0.026 -0.035,-0.067 -0.035,-0.122l0,-0.22c0,-0.004 -0.002,-0.006 -0.006,-0.006l-0.03,0c-0.007,0 -0.01,-0.003 -0.01,-0.01l0,-0.083c0,-0.007 0.003,-0.01 0.01,-0.01l0.03,0c0.004,0 0.006,-0.002 0.006,-0.006l0,-0.13c0,-0.007 0.003,-0.01 0.01,-0.01l0.119,0c0.007,0 0.01,0.003 0.01,0.01l0,0.13c0,0.004 0.002,0.006 0.006,0.006l0.062,0c0.007,0 0.01,0.003 0.01,0.01l0,0.083c0,0.007 -0.003,0.01 -0.01,0.01l-0.062,0c-0.004,0 -0.006,0.002 -0.006,0.006l0,0.214c0,0.018 0.003,0.031 0.01,0.038c0.007,0.007 0.018,0.01 0.034,0.01l0.024,0c0.007,0 0.01,0.003 0.01,0.01l0,0.099c0,0.007 -0.003,0.01 -0.01,0.01l-0.053,0Z" style="fill:#fff;fill-rule:nonzero;"/></g><g transform="matrix(24,0,0,24,113,120.659)"><path d="M0.294,0.011c-0.027,0 -0.053,-0.003 -0.078,-0.008c-0.026,-0.005 -0.05,-0.011 -0.073,-0.02c-0.023,-0.008 -0.043,-0.018 -0.062,-0.029c-0.019,-0.011 -0.036,-0.023 -0.049,-0.036c-0.005,-0.005 -0.006,-0.011 -0.001,-0.017l0.076,-0.087c0.004,-0.005 0.009,-0.006 0.015,-0.001c0.023,0.018 0.049,0.034 0.079,0.048c0.03,0.015 0.063,0.022 0.099,0.022c0.036,0 0.064,-0.007 0.083,-0.022c0.019,-0.015 0.028,-0.035 0.028,-0.059c0,-0.02 -0.007,-0.036 -0.022,-0.049c-0.015,-0.013 -0.042,-0.022 -0.083,-0.027l-0.036,-0.005c-0.069,-0.009 -0.122,-0.03 -0.159,-0.064c-0.037,-0.032 -0.056,-0.079 -0.056,-0.14c0,-0.031 0.006,-0.06 0.017,-0.085c0.011,-0.026 0.028,-0.048 0.049,-0.066c0.021,-0.018 0.046,-0.032 0.076,-0.042c0.029,-0.01 0.062,-0.015 0.099,-0.015c0.045,0 0.088,0.006 0.128,0.019c0.04,0.013 0.074,0.03 0.103,0.052c0.006,0.004 0.007,0.009 0.002,0.015l-0.061,0.091c-0.004,0.005 -0.009,0.006 -0.014,0.003c-0.026,-0.017 -0.052,-0.03 -0.077,-0.039c-0.026,-0.009 -0.053,-0.013 -0.081,-0.013c-0.03,0 -0.053,0.007 -0.068,0.021c-0.015,0.014 -0.023,0.032 -0.023,0.053c0,0.019 0.008,0.035 0.024,0.048c0.015,0.013 0.043,0.022 0.082,0.027l0.036,0.005c0.071,0.009 0.124,0.031 0.16,0.064c0.036,0.033 0.054,0.08 0.054,0.142c0,0.031 -0.006,0.059 -0.017,0.086c-0.011,0.026 -0.028,0.049 -0.05,0.068c-0.023,0.019 -0.051,0.033 -0.084,0.044c-0.033,0.011 -0.072,0.016 -0.116,0.016Z" style="fill:#fff;fill-rule:nonzero;"/></g><g transform="matrix(24,0,0,24,127.28,120.659)"><path d="M0.073,0.18c-0.007,0 -0.01,-0.003 -0.01,-0.01l0,-0.644c0,-0.007 0.003,-0.01 0.01,-0.01l0.12,0c0.007,0 0.01,0.003 0.01,0.01l0,0.035l0.001,0c0.011,-0.017 0.027,-0.03 0.048,-0.04c0.021,-0.011 0.047,-0.016 0.079,-0.016c0.041,0 0.075,0.01 0.103,0.029c0.028,0.019 0.048,0.048 0.061,0.087c0.006,0.019 0.01,0.039 0.013,0.059c0.003,0.02 0.004,0.046 0.004,0.078c0,0.031 -0.001,0.057 -0.004,0.077c-0.003,0.021 -0.007,0.041 -0.013,0.06c-0.013,0.038 -0.033,0.067 -0.061,0.086c-0.028,0.02 -0.062,0.03 -0.103,0.03c-0.032,0 -0.058,-0.005 -0.079,-0.016c-0.021,-0.01 -0.037,-0.023 -0.048,-0.04l-0.001,0l0,0.215c0,0.007 -0.003,0.01 -0.01,0.01l-0.12,0Zm0.213,-0.287c0.039,0 0.064,-0.017 0.075,-0.052c0.003,-0.009 0.006,-0.02 0.007,-0.032c0.001,-0.013 0.002,-0.03 0.002,-0.051c0,-0.021 -0.001,-0.038 -0.002,-0.05c-0.001,-0.013 -0.004,-0.024 -0.007,-0.033c-0.011,-0.035 -0.036,-0.052 -0.075,-0.052c-0.039,0 -0.063,0.017 -0.074,0.052c-0.003,0.009 -0.006,0.02 -0.007,0.033c-0.001,0.012 -0.002,0.029 -0.002,0.05c0,0.021 0.001,0.038 0.002,0.051c0.001,0.012 0.004,0.023 0.007,0.032c0.011,0.035 0.036,0.052 0.074,0.052Z" style="fill:#fff;fill-rule:nonzero;"/></g><g transform="matrix(24,0,0,24,140.504,120.659)"><path d="M0.27,0.011c-0.055,0 -0.101,-0.012 -0.138,-0.036c-0.037,-0.024 -0.062,-0.058 -0.076,-0.102c-0.005,-0.015 -0.01,-0.032 -0.013,-0.05c-0.003,-0.018 -0.004,-0.04 -0.004,-0.065c0,-0.025 0.001,-0.047 0.004,-0.066c0.003,-0.018 0.007,-0.035 0.012,-0.05c0.014,-0.044 0.039,-0.078 0.076,-0.102c0.036,-0.023 0.08,-0.035 0.132,-0.035c0.054,0 0.099,0.012 0.135,0.036c0.035,0.024 0.06,0.057 0.074,0.1c0.003,0.008 0.005,0.016 0.007,0.025c0.002,0.009 0.004,0.02 0.005,0.031c0.001,0.011 0.002,0.024 0.003,0.039c0.001,0.015 0.001,0.033 0.001,0.054c0,0.007 -0.004,0.01 -0.011,0.01l-0.293,0c-0.004,0 -0.006,0.002 -0.006,0.006c0.001,0.01 0.003,0.019 0.006,0.027c0.007,0.021 0.019,0.037 0.036,0.048c0.017,0.011 0.039,0.016 0.064,0.016c0.024,0 0.045,-0.004 0.063,-0.012c0.018,-0.007 0.034,-0.018 0.048,-0.031c0.006,-0.005 0.011,-0.005 0.014,0l0.066,0.062c0.005,0.005 0.006,0.009 0.001,0.014c-0.023,0.025 -0.052,0.044 -0.087,0.059c-0.035,0.015 -0.074,0.022 -0.119,0.022Zm0.074,-0.304c0.004,0 0.006,-0.002 0.006,-0.006c0,-0.007 0,-0.014 -0.002,-0.02c-0.001,-0.005 -0.002,-0.011 -0.003,-0.016c-0.005,-0.017 -0.015,-0.03 -0.03,-0.039c-0.014,-0.009 -0.031,-0.014 -0.051,-0.014c-0.02,0 -0.037,0.005 -0.052,0.014c-0.014,0.009 -0.024,0.022 -0.029,0.039c-0.001,0.005 -0.003,0.011 -0.004,0.016c-0.001,0.006 -0.001,0.013 -0.001,0.02c0,0.004 0.002,0.006 0.006,0.006l0.16,0Z" style="fill:#fff;fill-rule:nonzero;"/></g><g transform="matrix(24,0,0,24,153.152,120.659)"><path d="M0.27,0.011c-0.055,0 -0.101,-0.012 -0.138,-0.036c-0.037,-0.024 -0.062,-0.058 -0.076,-0.102c-0.005,-0.015 -0.01,-0.032 -0.013,-0.05c-0.003,-0.018 -0.004,-0.04 -0.004,-0.065c0,-0.025 0.001,-0.047 0.004,-0.066c0.003,-0.018 0.007,-0.035 0.012,-0.05c0.014,-0.044 0.039,-0.078 0.076,-0.102c0.036,-0.023 0.08,-0.035 0.132,-0.035c0.054,0 0.099,0.012 0.135,0.036c0.035,0.024 0.06,0.057 0.074,0.1c0.003,0.008 0.005,0.016 0.007,0.025c0.002,0.009 0.004,0.02 0.005,0.031c0.001,0.011 0.002,0.024 0.003,0.039c0.001,0.015 0.001,0.033 0.001,0.054c0,0.007 -0.004,0.01 -0.011,0.01l-0.293,0c-0.004,0 -0.006,0.002 -0.006,0.006c0.001,0.01 0.003,0.019 0.006,0.027c0.007,0.021 0.019,0.037 0.036,0.048c0.017,0.011 0.039,0.016 0.064,0.016c0.024,0 0.045,-0.004 0.063,-0.012c0.018,-0.007 0.034,-0.018 0.048,-0.031c0.006,-0.005 0.011,-0.005 0.014,0l0.066,0.062c0.005,0.005 0.006,0.009 0.001,0.014c-0.023,0.025 -0.052,0.044 -0.087,0.059c-0.035,0.015 -0.074,0.022 -0.119,0.022Zm0.074,-0.304c0.004,0 0.006,-0.002 0.006,-0.006c0,-0.007 0,-0.014 -0.002,-0.02c-0.001,-0.005 -0.002,-0.011 -0.003,-0.016c-0.005,-0.017 -0.015,-0.03 -0.03,-0.039c-0.014,-0.009 -0.031,-0.014 -0.051,-0.014c-0.02,0 -0.037,0.005 -0.052,0.014c-0.014,0.009 -0.024,0.022 -0.029,0.039c-0.001,0.005 -0.003,0.011 -0.004,0.016c-0.001,0.006 -0.001,0.013 -0.001,0.02c0,0.004 0.002,0.006 0.006,0.006l0.16,0Z" style="fill:#fff;fill-rule:nonzero;"/></g><g transform="matrix(24,0,0,24,165.8,120.659)"><path d="M0.358,0c-0.007,0 -0.01,-0.003 -0.01,-0.01l0,-0.035l-0.001,0c-0.011,0.017 -0.027,0.03 -0.048,0.041c-0.021,0.01 -0.047,0.015 -0.079,0.015c-0.041,0 -0.075,-0.01 -0.103,-0.029c-0.028,-0.02 -0.048,-0.049 -0.061,-0.087c-0.006,-0.019 -0.01,-0.039 -0.013,-0.059c-0.003,-0.021 -0.004,-0.047 -0.004,-0.078c0,-0.032 0.001,-0.058 0.004,-0.078c0.003,-0.02 0.007,-0.04 0.013,-0.059c0.013,-0.039 0.033,-0.068 0.061,-0.087c0.028,-0.019 0.062,-0.029 0.103,-0.029c0.032,0 0.058,0.005 0.079,0.016c0.021,0.01 0.037,0.023 0.048,0.04l0.001,0l0,-0.231c0,-0.007 0.003,-0.01 0.01,-0.01l0.12,0c0.007,0 0.01,0.003 0.01,0.01l0,0.66c0,0.007 -0.003,0.01 -0.01,0.01l-0.12,0Zm-0.093,-0.107c0.038,0 0.063,-0.017 0.074,-0.052c0.003,-0.009 0.006,-0.02 0.007,-0.032c0.001,-0.013 0.002,-0.03 0.002,-0.051c0,-0.021 -0.001,-0.038 -0.002,-0.05c-0.001,-0.013 -0.004,-0.024 -0.007,-0.033c-0.011,-0.035 -0.035,-0.052 -0.074,-0.052c-0.039,0 -0.064,0.017 -0.075,0.052c-0.003,0.009 -0.006,0.02 -0.007,0.033c-0.001,0.012 -0.002,0.029 -0.002,0.05c0,0.021 0.001,0.038 0.002,0.051c0.001,0.012 0.004,0.023 0.007,0.032c0.011,0.035 0.036,0.052 0.075,0.052Z" style="fill:#fff;fill-rule:nonzero;"/></g></g><path d="M265.051,25l0,66" style="fill:none;stroke:#394b59;stroke-width:5.5px;stroke-linecap:butt;"/><path d="M265.051,64.738l74.592,78l0.123,24" style="fill:none;stroke:#394b59;stroke-width:5.5px;stroke-linecap:butt;"/></g></svg>