<?xml version="1.0" encoding="UTF-8" standalone="no"?><!DOCTYPE svg PUBLIC "-//W3C//DTD SVG 1.1//EN" "http://www.w3.org/Graphics/SVG/1.1/DTD/svg11.dtd"><svg width="100%" height="100%" viewBox="0 0 400 300" version="1.1" xmlns="http://www.w3.org/2000/svg" xmlns:xlink="http://www.w3.org/1999/xlink" xml:space="preserve" xmlns:serif="http://www.serif.com/" style="fill-rule:evenodd;clip-rule:evenodd;stroke-linecap:round;stroke-miterlimit:1.5;"><g id="Layer1"><rect x="0" y="0" width="400" height="300" style="fill:#202b33;"/><rect x="18.342" y="16" width="363.658" height="266" style="fill:none;"/><clipPath id="_clip1"><rect x="18.342" y="16" width="363.658" height="266"/></clipPath><g clip-path="url(#_clip1)"><path d="M391.71,178.48l-2,141.334l-380.121,2.707l-1.299,-66.156l41.726,-29.276l32.883,11.438l32.883,-20.016l39.958,1.43l34.385,-24.305l47.18,5.719l41.461,-58.617l28.593,37.172l38.602,-4.289l28.838,-17.156l16.911,20.015" style="fill:#192025;stroke:#137cbd;stroke-width:9.5px;"/></g><rect x="25" y="25" width="240.051" height="66" style="fill:#191d20;"/><rect x="117" y="25" width="148.051" height="66" style="fill:#394b59;"/><g transform="matrix(1,0,0,1,4,-42)"><text x="128.177px" y="112.24px" style="font-family:'DINNextLTW04-Bold', 'DIN Next LT W04', sans-serif;font-weight:700;font-size:36px;fill:#fff;">2360</text><text x="216.737px" y="112.24px" style="font-family:'DINNextLTW04-Bold', 'DIN Next LT W04', sans-serif;font-weight:700;font-size:16px;fill:#fff;">rpm</text></g><g transform="matrix(1,0,0,1,-75,-42.997)"><text x="113px" y="96.659px" style="font-family:'DINNextLTW04-Bold', 'DIN Next LT W04', sans-serif;font-weight:700;font-size:24px;fill:#fff;">Shaft</text><text x="113px" y="120.659px" style="font-family:'DINNextLTW04-Bold', 'DIN Next LT W04', sans-serif;font-weight:700;font-size:24px;fill:#fff;">Speed</text></g><path d="M265.051,25l0,66" style="fill:none;stroke:#394b59;stroke-width:5.5px;stroke-linecap:butt;"/><path d="M265.051,64.738l74.592,78l0.123,24" style="fill:none;stroke:#394b59;stroke-width:5.5px;stroke-linecap:butt;"/></g></svg>