<?xml version="1.0" encoding="UTF-8" standalone="no"?><!DOCTYPE svg PUBLIC "-//W3C//DTD SVG 1.1//EN" "http://www.w3.org/Graphics/SVG/1.1/DTD/svg11.dtd"><svg width="100%" height="100%" viewBox="0 0 300 200" version="1.1" xmlns="http://www.w3.org/2000/svg" xmlns:xlink="http://www.w3.org/1999/xlink" xml:space="preserve" xmlns:serif="http://www.serif.com/" style="fill-rule:evenodd;clip-rule:evenodd;stroke-linejoin:round;stroke-miterlimit:2;"><g id="Layer1"><rect x="0" y="0" width="300" height="200" style="fill:#202b33;"/><path d="M267.393,183.25c10.809,-15.437 16.607,-33.826 16.607,-52.671c0,-50.682 -41.147,-91.829 -91.829,-91.829c-50.682,0 -91.829,41.147 -91.829,91.829c0,18.845 5.798,37.234 16.607,52.671l24.823,-17.381c-7.242,-10.343 -11.126,-22.664 -11.126,-35.29c0,-33.957 27.568,-61.525 61.525,-61.525c33.957,0 61.525,27.568 61.525,61.525c0,12.626 -3.884,24.947 -11.126,35.29l24.823,17.381Z" style="fill:#191d20;"/><path d="M264.393,177.25c10.809,-15.437 16.607,-33.826 16.607,-52.671c0,-50.682 -41.147,-91.829 -91.829,-91.829c-50.682,0 -91.829,41.147 -91.829,91.829c0,18.845 5.798,37.234 16.607,52.671l24.823,-17.381c-7.242,-10.343 -11.126,-22.664 -11.126,-35.29c0,-33.957 27.568,-61.525 61.525,-61.525c33.957,0 61.525,27.568 61.525,61.525c0,12.626 -3.884,24.947 -11.126,35.29l24.823,17.381Z" style="fill:#394b59;"/><path d="M263.462,70.603c-17.278,-23.781 -44.896,-37.853 -74.291,-37.853c-50.682,0 -91.829,41.147 -91.829,91.829c0,18.845 5.798,37.234 16.607,52.671l24.823,-17.381c-7.242,-10.343 -11.126,-22.664 -11.126,-35.29c0,-33.957 27.568,-61.525 61.525,-61.525c19.695,0 38.199,9.428 49.775,25.361l24.516,-17.812Z" style="fill:#d9822b;"/><g transform="matrix(1,0,0,1,0.949044,35)"><g transform="matrix(48,0,0,48,143.387,99.64)"><path d="M0.349,-0.555l0,-0.003l-0.143,0c-0.004,0 -0.006,0.002 -0.006,0.006l0,0.071c0,0.007 -0.003,0.01 -0.01,0.01l-0.111,0c-0.007,0 -0.01,-0.003 -0.01,-0.01l0,-0.189c0,-0.007 0.003,-0.01 0.01,-0.01l0.407,0c0.007,0 0.01,0.003 0.01,0.01l0,0.104c0,0.004 -0.001,0.008 -0.002,0.012l-0.216,0.545c-0.003,0.006 -0.007,0.009 -0.014,0.009l-0.125,0c-0.007,0 -0.009,-0.004 -0.006,-0.011l0.216,-0.544Z" style="fill:#fff;fill-rule:nonzero;"/></g><g transform="matrix(48,0,0,48,170.075,99.64)"><path d="M0.051,-0.099c-0.007,0 -0.01,-0.003 -0.01,-0.01l0,-0.102c0,-0.005 0.001,-0.009 0.002,-0.012l0.204,-0.449c0.003,-0.005 0.007,-0.008 0.014,-0.008l0.127,0c0.007,0 0.009,0.003 0.007,0.01l-0.204,0.447l0,0.003l0.125,0c0.004,0 0.006,-0.002 0.006,-0.006l0,-0.147c0,-0.007 0.003,-0.01 0.01,-0.01l0.116,0c0.007,0 0.01,0.003 0.01,0.01l0,0.147c0,0.004 0.002,0.006 0.006,0.006l0.045,0c0.007,0 0.01,0.003 0.01,0.01l0,0.101c0,0.007 -0.003,0.01 -0.01,0.01l-0.045,0c-0.004,0 -0.006,0.002 -0.006,0.006l0,0.083c0,0.007 -0.003,0.01 -0.01,0.01l-0.116,0c-0.007,0 -0.01,-0.003 -0.01,-0.01l0,-0.083c0,-0.004 -0.002,-0.006 -0.006,-0.006l-0.265,0Z" style="fill:#fff;fill-rule:nonzero;"/></g><g transform="matrix(48,0,0,48,196.763,99.64)"><path d="M0.553,-0.681c0.004,-0.007 0.009,-0.01 0.016,-0.01l0.084,0c0.003,0 0.005,0.001 0.005,0.003c0.001,0.002 0,0.004 -0.001,0.007l-0.395,0.682c-0.004,0.007 -0.009,0.01 -0.016,0.01l-0.083,0c-0.003,0 -0.005,-0.001 -0.006,-0.003c-0.001,-0.002 0,-0.004 0.001,-0.007l0.395,-0.682Zm-0.355,0.351c-0.032,0 -0.059,-0.007 -0.082,-0.022c-0.023,-0.015 -0.038,-0.035 -0.047,-0.06c-0.002,-0.005 -0.003,-0.009 -0.004,-0.014c-0.001,-0.005 -0.002,-0.011 -0.003,-0.018c-0.001,-0.007 -0.001,-0.016 -0.001,-0.026c-0.001,-0.01 -0.001,-0.023 -0.001,-0.039c0,-0.016 0,-0.029 0.001,-0.039c0,-0.01 0,-0.018 0.001,-0.025c0.001,-0.007 0.002,-0.013 0.003,-0.018c0.001,-0.005 0.002,-0.01 0.004,-0.015c0.009,-0.025 0.024,-0.045 0.047,-0.06c0.023,-0.015 0.05,-0.022 0.082,-0.022c0.032,0 0.059,0.007 0.082,0.022c0.023,0.015 0.038,0.035 0.047,0.06c0.002,0.005 0.004,0.01 0.005,0.015c0.001,0.005 0.001,0.011 0.002,0.018c0.001,0.007 0.001,0.015 0.002,0.025c0,0.01 0,0.023 0,0.039c0,0.016 0,0.029 0,0.039c-0.001,0.01 -0.001,0.019 -0.002,0.026c-0.001,0.007 -0.001,0.013 -0.002,0.018c-0.001,0.005 -0.003,0.009 -0.005,0.014c-0.009,0.025 -0.024,0.045 -0.047,0.06c-0.023,0.015 -0.05,0.022 -0.082,0.022Zm0,-0.079c0.018,0 0.03,-0.008 0.035,-0.023c0.001,-0.002 0.001,-0.004 0.002,-0.007c0.001,-0.003 0.001,-0.007 0.002,-0.012c0,-0.005 0,-0.013 0,-0.022l0,-0.072c0,-0.009 0,-0.017 0,-0.022c-0.001,-0.005 -0.001,-0.009 -0.002,-0.012c-0.001,-0.003 -0.001,-0.005 -0.002,-0.007c-0.005,-0.015 -0.017,-0.023 -0.035,-0.023c-0.018,0 -0.03,0.008 -0.035,0.023c-0.001,0.002 -0.001,0.004 -0.002,0.007c-0.001,0.003 -0.001,0.007 -0.001,0.012c-0.001,0.005 -0.001,0.013 -0.001,0.022l0,0.073c0,0.009 0,0.016 0.001,0.021c0,0.005 0,0.009 0.001,0.012c0.001,0.003 0.001,0.005 0.002,0.007c0.005,0.015 0.017,0.023 0.035,0.023Zm0.289,0.335c-0.002,-0.005 -0.003,-0.01 -0.004,-0.015c-0.001,-0.005 -0.002,-0.011 -0.003,-0.018c-0.001,-0.007 -0.001,-0.015 -0.001,-0.025c-0.001,-0.01 -0.001,-0.023 -0.001,-0.038c0,-0.016 0,-0.029 0.001,-0.039c0,-0.01 0,-0.019 0.001,-0.026c0.001,-0.007 0.002,-0.012 0.003,-0.017c0.001,-0.005 0.002,-0.01 0.004,-0.015c0.009,-0.025 0.024,-0.045 0.047,-0.06c0.022,-0.015 0.049,-0.022 0.082,-0.022c0.032,0 0.059,0.007 0.082,0.022c0.023,0.015 0.038,0.035 0.047,0.06c0.001,0.005 0.003,0.01 0.004,0.015c0.001,0.005 0.002,0.01 0.003,0.017c0.001,0.007 0.001,0.016 0.002,0.026c0,0.01 0,0.023 0,0.039c0,0.015 0,0.028 0,0.038c-0.001,0.01 -0.001,0.018 -0.002,0.025c-0.001,0.007 -0.002,0.013 -0.003,0.018c-0.001,0.005 -0.003,0.01 -0.004,0.015c-0.009,0.025 -0.024,0.045 -0.047,0.06c-0.023,0.015 -0.05,0.023 -0.082,0.023c-0.033,0 -0.06,-0.008 -0.082,-0.023c-0.023,-0.015 -0.038,-0.035 -0.047,-0.06Zm0.094,-0.02c0.005,0.016 0.016,0.024 0.035,0.024c0.018,0 0.03,-0.008 0.035,-0.024c0.001,-0.002 0.001,-0.004 0.002,-0.007c0.001,-0.002 0.001,-0.006 0.001,-0.011c0.001,-0.005 0.001,-0.013 0.001,-0.022l0,-0.073c0,-0.009 0,-0.016 -0.001,-0.021c0,-0.005 0,-0.009 -0.001,-0.012c-0.001,-0.003 -0.001,-0.005 -0.002,-0.007c-0.005,-0.015 -0.017,-0.023 -0.035,-0.023c-0.018,0 -0.03,0.008 -0.035,0.023c-0.001,0.002 -0.001,0.004 -0.002,0.007c-0.001,0.003 -0.001,0.007 -0.001,0.012c-0.001,0.005 -0.001,0.012 -0.001,0.021l0,0.073c0,0.009 0,0.017 0.001,0.022c0,0.005 0,0.009 0.001,0.011c0.001,0.003 0.001,0.005 0.002,0.007Z" style="fill:#fff;fill-rule:nonzero;"/></g><g transform="matrix(20,0,0,20,158.831,131.64)"><path d="M0.242,-0.522l-0.002,0l-0.108,0.074c-0.007,0.005 -0.011,0.003 -0.011,-0.006l0,-0.124c0,-0.005 0.002,-0.01 0.007,-0.014l0.114,-0.082c0.005,-0.004 0.011,-0.006 0.018,-0.006l0.112,0c0.007,0 0.01,0.003 0.01,0.01l0,0.66c0,0.007 -0.003,0.01 -0.01,0.01l-0.12,0c-0.007,0 -0.01,-0.003 -0.01,-0.01l0,-0.512Z" style="fill:#fff;fill-rule:nonzero;"/></g><g transform="matrix(20,0,0,20,169.951,131.64)"><path d="M0.065,-0.103c0,-0.005 0.002,-0.01 0.005,-0.014l0.239,-0.284c0.013,-0.015 0.023,-0.03 0.03,-0.045c0.007,-0.016 0.01,-0.032 0.01,-0.049c0,-0.023 -0.007,-0.041 -0.02,-0.056c-0.013,-0.015 -0.031,-0.022 -0.054,-0.022c-0.047,0 -0.074,0.027 -0.08,0.08c0,0.007 -0.004,0.009 -0.011,0.008l-0.11,-0.018c-0.007,-0.001 -0.009,-0.005 -0.008,-0.012c0.002,-0.023 0.008,-0.046 0.018,-0.067c0.01,-0.021 0.024,-0.04 0.042,-0.056c0.019,-0.016 0.041,-0.029 0.066,-0.038c0.026,-0.01 0.055,-0.015 0.088,-0.015c0.033,0 0.062,0.005 0.087,0.015c0.026,0.01 0.048,0.024 0.066,0.041c0.018,0.017 0.032,0.038 0.041,0.062c0.01,0.023 0.015,0.049 0.015,0.076c0,0.033 -0.006,0.062 -0.019,0.089c-0.012,0.026 -0.029,0.051 -0.05,0.076l-0.179,0.211l0,0.002l0.238,0c0.007,0 0.01,0.003 0.01,0.01l0,0.099c0,0.007 -0.003,0.01 -0.01,0.01l-0.404,0c-0.007,0 -0.01,-0.003 -0.01,-0.01l0,-0.093Z" style="fill:#fff;fill-rule:nonzero;"/></g><g transform="matrix(20,0,0,20,181.071,131.64)"><path d="M0.06,-0.13c0,-0.007 0.003,-0.01 0.01,-0.01l0.119,0c0.007,0 0.01,0.003 0.01,0.01l0,0.12c0,0.007 -0.003,0.01 -0.01,0.01l-0.119,0c-0.007,0 -0.01,-0.003 -0.01,-0.01l0,-0.12Z" style="fill:#fff;fill-rule:nonzero;"/></g><g transform="matrix(20,0,0,20,186.251,131.64)"><path d="M0.242,-0.522l-0.002,0l-0.108,0.074c-0.007,0.005 -0.011,0.003 -0.011,-0.006l0,-0.124c0,-0.005 0.002,-0.01 0.007,-0.014l0.114,-0.082c0.005,-0.004 0.011,-0.006 0.018,-0.006l0.112,0c0.007,0 0.01,0.003 0.01,0.01l0,0.66c0,0.007 -0.003,0.01 -0.01,0.01l-0.12,0c-0.007,0 -0.01,-0.003 -0.01,-0.01l0,-0.512Z" style="fill:#fff;fill-rule:nonzero;"/></g><g transform="matrix(20,0,0,20,197.371,131.64)"><path d="M0.051,-0.099c-0.007,0 -0.01,-0.003 -0.01,-0.01l0,-0.102c0,-0.005 0.001,-0.009 0.002,-0.012l0.204,-0.449c0.003,-0.005 0.007,-0.008 0.014,-0.008l0.127,0c0.007,0 0.009,0.003 0.007,0.01l-0.204,0.447l0,0.003l0.125,0c0.004,0 0.006,-0.002 0.006,-0.006l0,-0.147c0,-0.007 0.003,-0.01 0.01,-0.01l0.116,0c0.007,0 0.01,0.003 0.01,0.01l0,0.147c0,0.004 0.002,0.006 0.006,0.006l0.045,0c0.007,0 0.01,0.003 0.01,0.01l0,0.101c0,0.007 -0.003,0.01 -0.01,0.01l-0.045,0c-0.004,0 -0.006,0.002 -0.006,0.006l0,0.083c0,0.007 -0.003,0.01 -0.01,0.01l-0.116,0c-0.007,0 -0.01,-0.003 -0.01,-0.01l0,-0.083c0,-0.004 -0.002,-0.006 -0.006,-0.006l-0.265,0Z" style="fill:#fff;fill-rule:nonzero;"/></g><g transform="matrix(20,0,0,20,208.491,131.64)"><path d="M0.24,0c-0.007,0 -0.011,-0.003 -0.013,-0.01l-0.216,-0.659c-0.002,-0.007 0.001,-0.011 0.009,-0.011l0.13,0c0.007,0 0.011,0.003 0.013,0.01l0.136,0.446l0.003,0l0.132,-0.446c0.002,-0.007 0.006,-0.01 0.013,-0.01l0.129,0c0.007,0 0.01,0.004 0.008,0.011l-0.216,0.659c-0.002,0.007 -0.006,0.01 -0.012,0.01l-0.116,0Z" style="fill:#fff;fill-rule:nonzero;"/></g></g><g transform="matrix(1,0,0,1,-94.658,-51)"><g transform="matrix(24,0,0,24,113,83.32)"><path d="M0.065,-0.67c0,-0.007 0.003,-0.01 0.01,-0.01l0.265,0c0.074,0 0.129,0.017 0.164,0.05c0.035,0.033 0.053,0.077 0.053,0.131c0,0.037 -0.008,0.068 -0.023,0.091c-0.015,0.023 -0.033,0.041 -0.056,0.054l0,0.002c0.011,0.004 0.023,0.01 0.034,0.02c0.011,0.009 0.02,0.02 0.028,0.033c0.009,0.013 0.016,0.029 0.021,0.046c0.005,0.017 0.008,0.035 0.008,0.055c0,0.067 -0.021,0.117 -0.063,0.15c-0.041,0.032 -0.099,0.048 -0.173,0.048l-0.258,0c-0.007,0 -0.01,-0.003 -0.01,-0.01l0,-0.66Zm0.257,0.268c0.028,0 0.05,-0.007 0.066,-0.021c0.015,-0.014 0.023,-0.034 0.023,-0.059c0,-0.025 -0.008,-0.045 -0.023,-0.058c-0.016,-0.014 -0.038,-0.021 -0.066,-0.021l-0.104,0c-0.004,0 -0.006,0.002 -0.006,0.006l0,0.147c0,0.004 0.002,0.006 0.006,0.006l0.104,0Zm-0.11,0.277c0,0.004 0.002,0.006 0.006,0.006l0.112,0c0.03,0 0.053,-0.007 0.069,-0.022c0.015,-0.015 0.023,-0.036 0.023,-0.063c0,-0.026 -0.008,-0.047 -0.023,-0.062c-0.016,-0.015 -0.039,-0.023 -0.069,-0.023l-0.112,0c-0.004,0 -0.006,0.002 -0.006,0.006l0,0.158Z" style="fill:#fff;fill-rule:nonzero;"/></g><g transform="matrix(24,0,0,24,127.64,83.32)"><path d="M0.347,0c-0.007,0 -0.01,-0.003 -0.01,-0.01l0,-0.032l-0.001,0c-0.013,0.016 -0.03,0.029 -0.051,0.039c-0.021,0.009 -0.049,0.014 -0.082,0.014c-0.021,0 -0.042,-0.003 -0.062,-0.008c-0.019,-0.006 -0.036,-0.015 -0.051,-0.027c-0.015,-0.012 -0.026,-0.027 -0.035,-0.046c-0.009,-0.019 -0.013,-0.041 -0.013,-0.067c0,-0.053 0.018,-0.093 0.055,-0.118c0.037,-0.025 0.086,-0.038 0.146,-0.038l0.086,0c0.004,0 0.006,-0.002 0.006,-0.006l0,-0.018c0,-0.023 -0.007,-0.039 -0.021,-0.05c-0.013,-0.011 -0.039,-0.016 -0.078,-0.016c-0.025,0 -0.046,0.003 -0.064,0.009c-0.018,0.006 -0.033,0.013 -0.044,0.022c-0.005,0.004 -0.01,0.003 -0.013,-0.002l-0.045,-0.079c-0.003,-0.006 -0.002,-0.011 0.003,-0.014c0.021,-0.015 0.046,-0.026 0.075,-0.035c0.03,-0.009 0.065,-0.013 0.105,-0.013c0.039,0 0.073,0.004 0.1,0.011c0.027,0.006 0.05,0.017 0.067,0.031c0.016,0.015 0.029,0.033 0.037,0.055c0.007,0.022 0.011,0.048 0.011,0.078l0,0.31c0,0.007 -0.003,0.01 -0.01,0.01l-0.111,0Zm-0.102,-0.094c0.06,0 0.09,-0.022 0.09,-0.067l0,-0.033c0,-0.004 -0.002,-0.006 -0.006,-0.006l-0.068,0c-0.057,0 -0.086,0.018 -0.086,0.055c0,0.034 0.023,0.051 0.07,0.051Z" style="fill:#fff;fill-rule:nonzero;"/></g><g transform="matrix(24,0,0,24,140.312,83.32)"><path d="M0.227,0.006c-0.056,0 -0.096,-0.013 -0.119,-0.039c-0.023,-0.026 -0.035,-0.067 -0.035,-0.122l0,-0.22c0,-0.004 -0.002,-0.006 -0.006,-0.006l-0.03,0c-0.007,0 -0.01,-0.003 -0.01,-0.01l0,-0.083c0,-0.007 0.003,-0.01 0.01,-0.01l0.03,0c0.004,0 0.006,-0.002 0.006,-0.006l0,-0.13c0,-0.007 0.003,-0.01 0.01,-0.01l0.119,0c0.007,0 0.01,0.003 0.01,0.01l0,0.13c0,0.004 0.002,0.006 0.006,0.006l0.062,0c0.007,0 0.01,0.003 0.01,0.01l0,0.083c0,0.007 -0.003,0.01 -0.01,0.01l-0.062,0c-0.004,0 -0.006,0.002 -0.006,0.006l0,0.214c0,0.018 0.003,0.031 0.01,0.038c0.007,0.007 0.018,0.01 0.034,0.01l0.024,0c0.007,0 0.01,0.003 0.01,0.01l0,0.099c0,0.007 -0.003,0.01 -0.01,0.01l-0.053,0Z" style="fill:#fff;fill-rule:nonzero;"/></g><g transform="matrix(24,0,0,24,148.256,83.32)"><path d="M0.227,0.006c-0.056,0 -0.096,-0.013 -0.119,-0.039c-0.023,-0.026 -0.035,-0.067 -0.035,-0.122l0,-0.22c0,-0.004 -0.002,-0.006 -0.006,-0.006l-0.03,0c-0.007,0 -0.01,-0.003 -0.01,-0.01l0,-0.083c0,-0.007 0.003,-0.01 0.01,-0.01l0.03,0c0.004,0 0.006,-0.002 0.006,-0.006l0,-0.13c0,-0.007 0.003,-0.01 0.01,-0.01l0.119,0c0.007,0 0.01,0.003 0.01,0.01l0,0.13c0,0.004 0.002,0.006 0.006,0.006l0.062,0c0.007,0 0.01,0.003 0.01,0.01l0,0.083c0,0.007 -0.003,0.01 -0.01,0.01l-0.062,0c-0.004,0 -0.006,0.002 -0.006,0.006l0,0.214c0,0.018 0.003,0.031 0.01,0.038c0.007,0.007 0.018,0.01 0.034,0.01l0.024,0c0.007,0 0.01,0.003 0.01,0.01l0,0.099c0,0.007 -0.003,0.01 -0.01,0.01l-0.053,0Z" style="fill:#fff;fill-rule:nonzero;"/></g><g transform="matrix(24,0,0,24,156.2,83.32)"><path d="M0.27,0.011c-0.055,0 -0.101,-0.012 -0.138,-0.036c-0.037,-0.024 -0.062,-0.058 -0.076,-0.102c-0.005,-0.015 -0.01,-0.032 -0.013,-0.05c-0.003,-0.018 -0.004,-0.04 -0.004,-0.065c0,-0.025 0.001,-0.047 0.004,-0.066c0.003,-0.018 0.007,-0.035 0.012,-0.05c0.014,-0.044 0.039,-0.078 0.076,-0.102c0.036,-0.023 0.08,-0.035 0.132,-0.035c0.054,0 0.099,0.012 0.135,0.036c0.035,0.024 0.06,0.057 0.074,0.1c0.003,0.008 0.005,0.016 0.007,0.025c0.002,0.009 0.004,0.02 0.005,0.031c0.001,0.011 0.002,0.024 0.003,0.039c0.001,0.015 0.001,0.033 0.001,0.054c0,0.007 -0.004,0.01 -0.011,0.01l-0.293,0c-0.004,0 -0.006,0.002 -0.006,0.006c0.001,0.01 0.003,0.019 0.006,0.027c0.007,0.021 0.019,0.037 0.036,0.048c0.017,0.011 0.039,0.016 0.064,0.016c0.024,0 0.045,-0.004 0.063,-0.012c0.018,-0.007 0.034,-0.018 0.048,-0.031c0.006,-0.005 0.011,-0.005 0.014,0l0.066,0.062c0.005,0.005 0.006,0.009 0.001,0.014c-0.023,0.025 -0.052,0.044 -0.087,0.059c-0.035,0.015 -0.074,0.022 -0.119,0.022Zm0.074,-0.304c0.004,0 0.006,-0.002 0.006,-0.006c0,-0.007 0,-0.014 -0.002,-0.02c-0.001,-0.005 -0.002,-0.011 -0.003,-0.016c-0.005,-0.017 -0.015,-0.03 -0.03,-0.039c-0.014,-0.009 -0.031,-0.014 -0.051,-0.014c-0.02,0 -0.037,0.005 -0.052,0.014c-0.014,0.009 -0.024,0.022 -0.029,0.039c-0.001,0.005 -0.003,0.011 -0.004,0.016c-0.001,0.006 -0.001,0.013 -0.001,0.02c0,0.004 0.002,0.006 0.006,0.006l0.16,0Z" style="fill:#fff;fill-rule:nonzero;"/></g><g transform="matrix(24,0,0,24,168.848,83.32)"><path d="M0.073,0c-0.007,0 -0.01,-0.003 -0.01,-0.01l0,-0.464c0,-0.007 0.003,-0.01 0.01,-0.01l0.12,0c0.007,0 0.01,0.003 0.01,0.01l0,0.041l0.001,0c0.011,-0.019 0.028,-0.034 0.049,-0.045c0.021,-0.012 0.047,-0.017 0.077,-0.017c0.016,0 0.031,0.003 0.046,0.008c0.016,0.005 0.028,0.012 0.039,0.021c0.005,0.004 0.006,0.009 0.003,0.014l-0.056,0.102c-0.003,0.004 -0.008,0.005 -0.014,0.002c-0.024,-0.015 -0.047,-0.023 -0.07,-0.022c-0.026,0.001 -0.045,0.011 -0.057,0.029c-0.012,0.018 -0.018,0.043 -0.018,0.076l0,0.255c0,0.007 -0.003,0.01 -0.01,0.01l-0.12,0Z" style="fill:#fff;fill-rule:nonzero;"/></g><g transform="matrix(24,0,0,24,179.072,83.32)"><path d="M0.093,0.18c-0.007,0 -0.01,-0.003 -0.01,-0.01l0,-0.098c0,-0.007 0.003,-0.01 0.01,-0.01l0.021,0c0.017,0 0.031,-0.004 0.041,-0.011c0.011,-0.008 0.019,-0.021 0.025,-0.039l0.013,-0.036l-0.18,-0.45c-0.002,-0.007 0.001,-0.01 0.008,-0.01l0.128,0c0.006,0 0.01,0.003 0.012,0.01l0.097,0.28l0.002,0l0.09,-0.28c0.002,-0.007 0.006,-0.01 0.012,-0.01l0.124,0c0.007,0 0.01,0.003 0.008,0.01l-0.196,0.515c-0.01,0.027 -0.02,0.049 -0.031,0.067c-0.012,0.018 -0.024,0.032 -0.037,0.043c-0.013,0.011 -0.028,0.018 -0.045,0.023c-0.017,0.004 -0.036,0.006 -0.058,0.006l-0.034,0Z" style="fill:#fff;fill-rule:nonzero;"/></g><g transform="matrix(24,0,0,24,113,107.32)"><path d="M0.24,0c-0.007,0 -0.011,-0.003 -0.013,-0.01l-0.216,-0.659c-0.002,-0.007 0.001,-0.011 0.009,-0.011l0.13,0c0.007,0 0.011,0.003 0.013,0.01l0.136,0.446l0.003,0l0.132,-0.446c0.002,-0.007 0.006,-0.01 0.013,-0.01l0.129,0c0.007,0 0.01,0.004 0.008,0.011l-0.216,0.659c-0.002,0.007 -0.006,0.01 -0.012,0.01l-0.116,0Z" style="fill:#fff;fill-rule:nonzero;"/></g><g transform="matrix(24,0,0,24,127.28,107.32)"><path d="M0.265,0.011c-0.051,0 -0.096,-0.012 -0.133,-0.035c-0.037,-0.023 -0.063,-0.057 -0.077,-0.101c-0.005,-0.017 -0.009,-0.035 -0.012,-0.053c-0.003,-0.019 -0.004,-0.04 -0.004,-0.064c0,-0.024 0.001,-0.045 0.004,-0.064c0.003,-0.018 0.007,-0.036 0.012,-0.053c0.014,-0.044 0.04,-0.078 0.077,-0.101c0.037,-0.023 0.082,-0.035 0.133,-0.035c0.051,0 0.096,0.012 0.133,0.035c0.037,0.023 0.063,0.057 0.077,0.101c0.005,0.017 0.009,0.035 0.012,0.053c0.003,0.019 0.004,0.04 0.004,0.064c0,0.024 -0.001,0.045 -0.004,0.064c-0.003,0.018 -0.007,0.036 -0.012,0.053c-0.014,0.044 -0.04,0.078 -0.077,0.101c-0.037,0.023 -0.082,0.035 -0.133,0.035Zm0,-0.118c0.039,0 0.064,-0.017 0.075,-0.052c0.003,-0.011 0.006,-0.023 0.007,-0.035c0.001,-0.011 0.002,-0.027 0.002,-0.048c0,-0.021 -0.001,-0.037 -0.002,-0.048c-0.001,-0.012 -0.004,-0.024 -0.007,-0.035c-0.011,-0.035 -0.036,-0.052 -0.075,-0.052c-0.039,0 -0.064,0.017 -0.075,0.052c-0.003,0.011 -0.006,0.023 -0.007,0.034c-0.001,0.012 -0.002,0.028 -0.002,0.049c0,0.021 0.001,0.037 0.002,0.048c0.001,0.012 0.004,0.024 0.007,0.035c0.011,0.035 0.036,0.052 0.075,0.052Z" style="fill:#fff;fill-rule:nonzero;"/></g><g transform="matrix(24,0,0,24,140,107.32)"><path d="M0.211,0.006c-0.054,0 -0.092,-0.012 -0.115,-0.037c-0.023,-0.024 -0.035,-0.063 -0.035,-0.117l0,-0.522c0,-0.007 0.003,-0.01 0.01,-0.01l0.12,0c0.007,0 0.01,0.003 0.01,0.01l0,0.511c0,0.017 0.003,0.029 0.01,0.036c0.007,0.007 0.017,0.01 0.032,0.01l0.021,0c0.007,0 0.01,0.003 0.01,0.01l0,0.099c0,0.007 -0.003,0.01 -0.01,0.01l-0.053,0Z" style="fill:#fff;fill-rule:nonzero;"/></g><g transform="matrix(24,0,0,24,147.128,107.32)"><path d="M0.227,0.006c-0.056,0 -0.096,-0.013 -0.119,-0.039c-0.023,-0.026 -0.035,-0.067 -0.035,-0.122l0,-0.22c0,-0.004 -0.002,-0.006 -0.006,-0.006l-0.03,0c-0.007,0 -0.01,-0.003 -0.01,-0.01l0,-0.083c0,-0.007 0.003,-0.01 0.01,-0.01l0.03,0c0.004,0 0.006,-0.002 0.006,-0.006l0,-0.13c0,-0.007 0.003,-0.01 0.01,-0.01l0.119,0c0.007,0 0.01,0.003 0.01,0.01l0,0.13c0,0.004 0.002,0.006 0.006,0.006l0.062,0c0.007,0 0.01,0.003 0.01,0.01l0,0.083c0,0.007 -0.003,0.01 -0.01,0.01l-0.062,0c-0.004,0 -0.006,0.002 -0.006,0.006l0,0.214c0,0.018 0.003,0.031 0.01,0.038c0.007,0.007 0.018,0.01 0.034,0.01l0.024,0c0.007,0 0.01,0.003 0.01,0.01l0,0.099c0,0.007 -0.003,0.01 -0.01,0.01l-0.053,0Z" style="fill:#fff;fill-rule:nonzero;"/></g><g transform="matrix(24,0,0,24,155.072,107.32)"><path d="M0.347,0c-0.007,0 -0.01,-0.003 -0.01,-0.01l0,-0.032l-0.001,0c-0.013,0.016 -0.03,0.029 -0.051,0.039c-0.021,0.009 -0.049,0.014 -0.082,0.014c-0.021,0 -0.042,-0.003 -0.062,-0.008c-0.019,-0.006 -0.036,-0.015 -0.051,-0.027c-0.015,-0.012 -0.026,-0.027 -0.035,-0.046c-0.009,-0.019 -0.013,-0.041 -0.013,-0.067c0,-0.053 0.018,-0.093 0.055,-0.118c0.037,-0.025 0.086,-0.038 0.146,-0.038l0.086,0c0.004,0 0.006,-0.002 0.006,-0.006l0,-0.018c0,-0.023 -0.007,-0.039 -0.021,-0.05c-0.013,-0.011 -0.039,-0.016 -0.078,-0.016c-0.025,0 -0.046,0.003 -0.064,0.009c-0.018,0.006 -0.033,0.013 -0.044,0.022c-0.005,0.004 -0.01,0.003 -0.013,-0.002l-0.045,-0.079c-0.003,-0.006 -0.002,-0.011 0.003,-0.014c0.021,-0.015 0.046,-0.026 0.075,-0.035c0.03,-0.009 0.065,-0.013 0.105,-0.013c0.039,0 0.073,0.004 0.1,0.011c0.027,0.006 0.05,0.017 0.067,0.031c0.016,0.015 0.029,0.033 0.037,0.055c0.007,0.022 0.011,0.048 0.011,0.078l0,0.31c0,0.007 -0.003,0.01 -0.01,0.01l-0.111,0Zm-0.102,-0.094c0.06,0 0.09,-0.022 0.09,-0.067l0,-0.033c0,-0.004 -0.002,-0.006 -0.006,-0.006l-0.068,0c-0.057,0 -0.086,0.018 -0.086,0.055c0,0.034 0.023,0.051 0.07,0.051Z" style="fill:#fff;fill-rule:nonzero;"/></g><g transform="matrix(24,0,0,24,167.744,107.32)"><path d="M0.239,0.191c-0.018,0 -0.036,-0.002 -0.054,-0.006c-0.018,-0.003 -0.035,-0.008 -0.052,-0.014c-0.016,-0.007 -0.031,-0.014 -0.044,-0.023c-0.013,-0.01 -0.024,-0.019 -0.033,-0.03c-0.004,-0.005 -0.004,-0.01 0.001,-0.015l0.071,-0.072c0.005,-0.005 0.01,-0.005 0.015,0c0.015,0.013 0.031,0.024 0.047,0.031c0.016,0.007 0.034,0.011 0.053,0.011c0.034,0 0.059,-0.009 0.074,-0.026c0.015,-0.018 0.023,-0.045 0.023,-0.081l0,-0.041l-0.001,0c-0.011,0.017 -0.026,0.031 -0.047,0.041c-0.021,0.01 -0.046,0.015 -0.077,0.015c-0.04,0 -0.074,-0.01 -0.102,-0.029c-0.027,-0.02 -0.047,-0.049 -0.06,-0.088c-0.005,-0.018 -0.009,-0.036 -0.012,-0.054c-0.003,-0.019 -0.004,-0.041 -0.004,-0.067c0,-0.026 0.001,-0.048 0.004,-0.067c0.003,-0.019 0.007,-0.037 0.012,-0.054c0.013,-0.039 0.033,-0.068 0.06,-0.088c0.028,-0.019 0.062,-0.029 0.102,-0.029c0.031,0 0.056,0.005 0.077,0.015c0.021,0.01 0.036,0.024 0.047,0.041l0.001,0l0,-0.035c0,-0.007 0.003,-0.01 0.01,-0.01l0.12,0c0.007,0 0.01,0.003 0.01,0.01l0,0.422c0,0.162 -0.08,0.243 -0.241,0.243Zm0.02,-0.328c0.019,0 0.035,-0.004 0.046,-0.013c0.012,-0.009 0.021,-0.022 0.026,-0.039c0.003,-0.009 0.006,-0.019 0.007,-0.029c0.001,-0.011 0.002,-0.024 0.002,-0.039c0,-0.015 -0.001,-0.028 -0.002,-0.038c-0.001,-0.011 -0.004,-0.021 -0.007,-0.03c-0.005,-0.017 -0.014,-0.03 -0.026,-0.039c-0.011,-0.009 -0.027,-0.013 -0.046,-0.013c-0.019,0 -0.035,0.004 -0.046,0.013c-0.011,0.009 -0.02,0.022 -0.026,0.039c-0.003,0.009 -0.005,0.019 -0.006,0.029c-0.001,0.011 -0.002,0.024 -0.002,0.039c0,0.015 0.001,0.028 0.002,0.038c0.001,0.011 0.003,0.021 0.006,0.03c0.006,0.017 0.015,0.03 0.026,0.039c0.011,0.009 0.027,0.013 0.046,0.013Z" style="fill:#fff;fill-rule:nonzero;"/></g><g transform="matrix(24,0,0,24,180.776,107.32)"><path d="M0.27,0.011c-0.055,0 -0.101,-0.012 -0.138,-0.036c-0.037,-0.024 -0.062,-0.058 -0.076,-0.102c-0.005,-0.015 -0.01,-0.032 -0.013,-0.05c-0.003,-0.018 -0.004,-0.04 -0.004,-0.065c0,-0.025 0.001,-0.047 0.004,-0.066c0.003,-0.018 0.007,-0.035 0.012,-0.05c0.014,-0.044 0.039,-0.078 0.076,-0.102c0.036,-0.023 0.08,-0.035 0.132,-0.035c0.054,0 0.099,0.012 0.135,0.036c0.035,0.024 0.06,0.057 0.074,0.1c0.003,0.008 0.005,0.016 0.007,0.025c0.002,0.009 0.004,0.02 0.005,0.031c0.001,0.011 0.002,0.024 0.003,0.039c0.001,0.015 0.001,0.033 0.001,0.054c0,0.007 -0.004,0.01 -0.011,0.01l-0.293,0c-0.004,0 -0.006,0.002 -0.006,0.006c0.001,0.01 0.003,0.019 0.006,0.027c0.007,0.021 0.019,0.037 0.036,0.048c0.017,0.011 0.039,0.016 0.064,0.016c0.024,0 0.045,-0.004 0.063,-0.012c0.018,-0.007 0.034,-0.018 0.048,-0.031c0.006,-0.005 0.011,-0.005 0.014,0l0.066,0.062c0.005,0.005 0.006,0.009 0.001,0.014c-0.023,0.025 -0.052,0.044 -0.087,0.059c-0.035,0.015 -0.074,0.022 -0.119,0.022Zm0.074,-0.304c0.004,0 0.006,-0.002 0.006,-0.006c0,-0.007 0,-0.014 -0.002,-0.02c-0.001,-0.005 -0.002,-0.011 -0.003,-0.016c-0.005,-0.017 -0.015,-0.03 -0.03,-0.039c-0.014,-0.009 -0.031,-0.014 -0.051,-0.014c-0.02,0 -0.037,0.005 -0.052,0.014c-0.014,0.009 -0.024,0.022 -0.029,0.039c-0.001,0.005 -0.003,0.011 -0.004,0.016c-0.001,0.006 -0.001,0.013 -0.001,0.02c0,0.004 0.002,0.006 0.006,0.006l0.16,0Z" style="fill:#fff;fill-rule:nonzero;"/></g></g></g></svg>