<?xml version="1.0" encoding="UTF-8" standalone="no"?><!DOCTYPE svg PUBLIC "-//W3C//DTD SVG 1.1//EN" "http://www.w3.org/Graphics/SVG/1.1/DTD/svg11.dtd"><svg width="100%" height="100%" viewBox="0 0 300 200" version="1.1" xmlns="http://www.w3.org/2000/svg" xmlns:xlink="http://www.w3.org/1999/xlink" xml:space="preserve" xmlns:serif="http://www.serif.com/" style="fill-rule:evenodd;clip-rule:evenodd;stroke-linejoin:round;stroke-miterlimit:2;"><g id="Layer1"><rect x="0" y="0" width="300" height="200" style="fill:#202b33;"/><rect x="18.342" y="55" width="265.658" height="32.375" style="fill:#191d20;"/><rect x="155.342" y="55" width="128.658" height="32.375" style="fill:#394b59;"/><g transform="matrix(1,0,0,1,38.171,-12)"><g transform="matrix(20,0,0,20,147.761,89.9875)"><path d="M0.048,-0.196c0,-0.038 0.008,-0.07 0.024,-0.097c0.017,-0.027 0.036,-0.047 0.057,-0.062l0,-0.002c-0.016,-0.011 -0.031,-0.029 -0.045,-0.052c-0.014,-0.024 -0.021,-0.052 -0.021,-0.084c0,-0.026 0.005,-0.051 0.014,-0.075c0.009,-0.024 0.023,-0.045 0.042,-0.064c0.018,-0.018 0.04,-0.032 0.067,-0.043c0.027,-0.011 0.057,-0.016 0.092,-0.016c0.035,0 0.065,0.005 0.092,0.016c0.027,0.011 0.049,0.025 0.068,0.044c0.018,0.018 0.032,0.039 0.041,0.063c0.009,0.024 0.014,0.049 0.014,0.075c0,0.032 -0.007,0.06 -0.021,0.084c-0.014,0.023 -0.029,0.041 -0.045,0.052l0,0.002c0.021,0.015 0.04,0.035 0.056,0.062c0.017,0.027 0.025,0.059 0.025,0.097c0,0.031 -0.006,0.06 -0.018,0.085c-0.011,0.025 -0.027,0.047 -0.047,0.065c-0.021,0.018 -0.045,0.032 -0.074,0.042c-0.028,0.01 -0.058,0.015 -0.091,0.015c-0.033,0 -0.064,-0.005 -0.092,-0.015c-0.028,-0.01 -0.052,-0.024 -0.073,-0.042c-0.02,-0.018 -0.036,-0.04 -0.048,-0.065c-0.011,-0.025 -0.017,-0.054 -0.017,-0.085Zm0.23,-0.218c0.023,0 0.042,-0.008 0.056,-0.023c0.015,-0.016 0.022,-0.035 0.022,-0.056c0,-0.022 -0.007,-0.041 -0.022,-0.056c-0.014,-0.016 -0.033,-0.024 -0.056,-0.024c-0.023,0 -0.042,0.008 -0.057,0.024c-0.014,0.015 -0.021,0.034 -0.021,0.056c0,0.021 0.007,0.04 0.021,0.056c0.015,0.015 0.034,0.023 0.057,0.023Zm-0.092,0.212c0,0.028 0.008,0.051 0.025,0.069c0.017,0.017 0.039,0.026 0.067,0.026c0.028,0 0.05,-0.009 0.067,-0.026c0.017,-0.018 0.025,-0.041 0.025,-0.069c0,-0.028 -0.008,-0.051 -0.025,-0.068c-0.017,-0.017 -0.039,-0.026 -0.067,-0.026c-0.028,0 -0.05,0.009 -0.067,0.026c-0.017,0.017 -0.025,0.04 -0.025,0.068Z" style="fill:#fff;fill-rule:nonzero;"/></g><g transform="matrix(20,0,0,20,158.881,89.9875)"><path d="M0.06,-0.13c0,-0.007 0.003,-0.01 0.01,-0.01l0.119,0c0.007,0 0.01,0.003 0.01,0.01l0,0.12c0,0.007 -0.003,0.01 -0.01,0.01l-0.119,0c-0.007,0 -0.01,-0.003 -0.01,-0.01l0,-0.12Z" style="fill:#fff;fill-rule:nonzero;"/></g><g transform="matrix(20,0,0,20,164.061,89.9875)"><path d="M0.349,-0.555l0,-0.003l-0.143,0c-0.004,0 -0.006,0.002 -0.006,0.006l0,0.071c0,0.007 -0.003,0.01 -0.01,0.01l-0.111,0c-0.007,0 -0.01,-0.003 -0.01,-0.01l0,-0.189c0,-0.007 0.003,-0.01 0.01,-0.01l0.407,0c0.007,0 0.01,0.003 0.01,0.01l0,0.104c0,0.004 -0.001,0.008 -0.002,0.012l-0.216,0.545c-0.003,0.006 -0.007,0.009 -0.014,0.009l-0.125,0c-0.007,0 -0.009,-0.004 -0.006,-0.011l0.216,-0.544Z" style="fill:#fff;fill-rule:nonzero;"/></g><g transform="matrix(16,0,0,16,179.901,89.9875)"><path d="M0.655,0c-0.007,0 -0.01,-0.003 -0.01,-0.01l0,-0.278c0,-0.027 -0.006,-0.048 -0.019,-0.064c-0.013,-0.016 -0.032,-0.024 -0.057,-0.024c-0.024,0 -0.042,0.008 -0.055,0.024c-0.013,0.016 -0.02,0.037 -0.02,0.064l0,0.278c0,0.007 -0.003,0.01 -0.01,0.01l-0.12,0c-0.007,0 -0.01,-0.003 -0.01,-0.01l0,-0.278c0,-0.027 -0.006,-0.048 -0.018,-0.064c-0.013,-0.016 -0.032,-0.024 -0.057,-0.024c-0.024,0 -0.043,0.008 -0.056,0.024c-0.013,0.016 -0.02,0.037 -0.02,0.064l0,0.278c0,0.007 -0.003,0.01 -0.01,0.01l-0.12,0c-0.007,0 -0.01,-0.003 -0.01,-0.01l0,-0.464c0,-0.007 0.003,-0.01 0.01,-0.01l0.12,0c0.007,0 0.01,0.003 0.01,0.01l0,0.034l0.001,0c0.011,-0.015 0.027,-0.028 0.048,-0.039c0.02,-0.011 0.046,-0.016 0.077,-0.016c0.058,0 0.101,0.02 0.13,0.061l0.001,0c0.018,-0.019 0.039,-0.034 0.064,-0.045c0.025,-0.011 0.054,-0.016 0.088,-0.016c0.057,0 0.1,0.017 0.129,0.05c0.029,0.033 0.044,0.077 0.044,0.13l0,0.305c0,0.007 -0.003,0.01 -0.01,0.01l-0.12,0Z" style="fill:#fff;fill-rule:nonzero;"/></g><g transform="matrix(16,0,0,16,193.405,89.9875)"><path d="M0.073,0.18c-0.007,0 -0.01,-0.003 -0.01,-0.01l0,-0.644c0,-0.007 0.003,-0.01 0.01,-0.01l0.12,0c0.007,0 0.01,0.003 0.01,0.01l0,0.035l0.001,0c0.011,-0.017 0.027,-0.03 0.048,-0.04c0.021,-0.011 0.047,-0.016 0.079,-0.016c0.041,0 0.075,0.01 0.103,0.029c0.028,0.019 0.048,0.048 0.061,0.087c0.006,0.019 0.01,0.039 0.013,0.059c0.003,0.02 0.004,0.046 0.004,0.078c0,0.031 -0.001,0.057 -0.004,0.077c-0.003,0.021 -0.007,0.041 -0.013,0.06c-0.013,0.038 -0.033,0.067 -0.061,0.086c-0.028,0.02 -0.062,0.03 -0.103,0.03c-0.032,0 -0.058,-0.005 -0.079,-0.016c-0.021,-0.01 -0.037,-0.023 -0.048,-0.04l-0.001,0l0,0.215c0,0.007 -0.003,0.01 -0.01,0.01l-0.12,0Zm0.213,-0.287c0.039,0 0.064,-0.017 0.075,-0.052c0.003,-0.009 0.006,-0.02 0.007,-0.032c0.001,-0.013 0.002,-0.03 0.002,-0.051c0,-0.021 -0.001,-0.038 -0.002,-0.05c-0.001,-0.013 -0.004,-0.024 -0.007,-0.033c-0.011,-0.035 -0.036,-0.052 -0.075,-0.052c-0.039,0 -0.063,0.017 -0.074,0.052c-0.003,0.009 -0.006,0.02 -0.007,0.033c-0.001,0.012 -0.002,0.029 -0.002,0.05c0,0.021 0.001,0.038 0.002,0.051c0.001,0.012 0.004,0.023 0.007,0.032c0.011,0.035 0.036,0.052 0.074,0.052Z" style="fill:#fff;fill-rule:nonzero;"/></g><g transform="matrix(16,0,0,16,202.221,89.9875)"><path d="M0.364,0c-0.007,0 -0.01,-0.003 -0.01,-0.01l0,-0.278c0,-0.027 -0.006,-0.048 -0.018,-0.064c-0.013,-0.016 -0.032,-0.024 -0.057,-0.024c-0.024,0 -0.043,0.008 -0.056,0.024c-0.013,0.016 -0.02,0.037 -0.02,0.064l0,0.278c0,0.007 -0.003,0.01 -0.01,0.01l-0.12,0c-0.007,0 -0.01,-0.003 -0.01,-0.01l0,-0.66c0,-0.007 0.003,-0.01 0.01,-0.01l0.12,0c0.007,0 0.01,0.003 0.01,0.01l0,0.23l0.001,0c0.011,-0.015 0.027,-0.028 0.048,-0.039c0.02,-0.011 0.046,-0.016 0.077,-0.016c0.027,0 0.05,0.004 0.071,0.013c0.021,0.009 0.038,0.021 0.052,0.037c0.014,0.016 0.024,0.035 0.031,0.057c0.008,0.022 0.011,0.046 0.011,0.073l0,0.305c0,0.007 -0.003,0.01 -0.01,0.01l-0.12,0Z" style="fill:#fff;fill-rule:nonzero;"/></g></g><path d="M59.903,74.867c-0.08,-0.213 -0.143,-0.43 -0.19,-0.65c-0.047,-0.22 -0.083,-0.466 -0.11,-0.74c-0.027,-0.273 -0.047,-0.593 -0.06,-0.96c-0.013,-0.366 -0.02,-0.81 -0.02,-1.33c0,-0.52 0.007,-0.963 0.02,-1.33c0.013,-0.366 0.033,-0.686 0.06,-0.96c0.027,-0.273 0.063,-0.516 0.11,-0.73c0.047,-0.213 0.11,-0.433 0.19,-0.66c0.36,-1.12 0.957,-1.956 1.79,-2.51c0.833,-0.553 1.85,-0.83 3.05,-0.83c1.16,0 2.143,0.264 2.95,0.79c0.807,0.527 1.403,1.27 1.79,2.23c0.067,0.12 0.033,0.2 -0.1,0.24l-2.18,0.98c-0.12,0.067 -0.213,0.034 -0.28,-0.1c-0.187,-0.44 -0.45,-0.806 -0.79,-1.1c-0.34,-0.293 -0.797,-0.44 -1.37,-0.44c-0.533,0 -0.97,0.134 -1.31,0.4c-0.34,0.267 -0.583,0.634 -0.73,1.1c-0.04,0.12 -0.073,0.25 -0.1,0.39c-0.027,0.14 -0.05,0.317 -0.07,0.53c-0.02,0.214 -0.033,0.48 -0.04,0.8c-0.007,0.32 -0.01,0.72 -0.01,1.2c0,0.48 0.003,0.88 0.01,1.2c0.007,0.32 0.02,0.587 0.04,0.8c0.02,0.214 0.043,0.39 0.07,0.53c0.027,0.14 0.06,0.27 0.1,0.39c0.147,0.467 0.39,0.834 0.73,1.1c0.34,0.267 0.777,0.4 1.31,0.4c0.573,0 1.03,-0.146 1.37,-0.44c0.34,-0.293 0.603,-0.66 0.79,-1.1c0.067,-0.133 0.16,-0.166 0.28,-0.1l2.18,0.98c0.133,0.04 0.167,0.12 0.1,0.24c-0.387,0.96 -0.983,1.704 -1.79,2.23c-0.807,0.527 -1.79,0.79 -2.95,0.79c-1.2,0 -2.217,-0.276 -3.05,-0.83c-0.833,-0.553 -1.43,-1.39 -1.79,-2.51Z" style="fill:#fff;fill-rule:nonzero;"/><path d="M77.203,77.987c-0.133,0 -0.2,-0.066 -0.2,-0.2l0,-0.7l-0.02,0c-0.253,0.334 -0.577,0.604 -0.97,0.81c-0.393,0.207 -0.897,0.31 -1.51,0.31c-0.533,0 -1.003,-0.09 -1.41,-0.27c-0.407,-0.18 -0.747,-0.43 -1.02,-0.75c-0.273,-0.32 -0.48,-0.7 -0.62,-1.14c-0.14,-0.44 -0.21,-0.92 -0.21,-1.44l0,-6.1c0,-0.133 0.067,-0.2 0.2,-0.2l2.4,0c0.133,0 0.2,0.067 0.2,0.2l0,5.56c0,0.52 0.123,0.944 0.37,1.27c0.247,0.327 0.617,0.49 1.11,0.49c0.48,0 0.847,-0.16 1.1,-0.48c0.253,-0.32 0.38,-0.746 0.38,-1.28l0,-5.56c0,-0.133 0.067,-0.2 0.2,-0.2l2.4,0c0.133,0 0.2,0.067 0.2,0.2l0,9.28c0,0.134 -0.067,0.2 -0.2,0.2l-2.4,0Z" style="fill:#fff;fill-rule:nonzero;"/><path d="M82.523,77.987c-0.133,0 -0.2,-0.066 -0.2,-0.2l0,-9.28c0,-0.133 0.067,-0.2 0.2,-0.2l2.4,0c0.133,0 0.2,0.067 0.2,0.2l0,0.82l0.02,0c0.227,-0.386 0.553,-0.69 0.98,-0.91c0.427,-0.22 0.94,-0.33 1.54,-0.33c0.32,0 0.63,0.05 0.93,0.15c0.3,0.1 0.557,0.244 0.77,0.43c0.093,0.08 0.113,0.174 0.06,0.28l-1.12,2.04c-0.067,0.08 -0.16,0.094 -0.28,0.04c-0.48,-0.306 -0.947,-0.453 -1.4,-0.44c-0.52,0.027 -0.9,0.22 -1.14,0.58c-0.24,0.36 -0.36,0.867 -0.36,1.52l0,5.1c0,0.134 -0.067,0.2 -0.2,0.2l-2.4,0Z" style="fill:#fff;fill-rule:nonzero;"/><path d="M91.043,77.987c-0.133,0 -0.2,-0.066 -0.2,-0.2l0,-9.28c0,-0.133 0.067,-0.2 0.2,-0.2l2.4,0c0.133,0 0.2,0.067 0.2,0.2l0,0.82l0.02,0c0.227,-0.386 0.553,-0.69 0.98,-0.91c0.427,-0.22 0.94,-0.33 1.54,-0.33c0.32,0 0.63,0.05 0.93,0.15c0.3,0.1 0.557,0.244 0.77,0.43c0.093,0.08 0.113,0.174 0.06,0.28l-1.12,2.04c-0.067,0.08 -0.16,0.094 -0.28,0.04c-0.48,-0.306 -0.947,-0.453 -1.4,-0.44c-0.52,0.027 -0.9,0.22 -1.14,0.58c-0.24,0.36 -0.36,0.867 -0.36,1.52l0,5.1c0,0.134 -0.067,0.2 -0.2,0.2l-2.4,0Z" style="fill:#fff;fill-rule:nonzero;"/><path d="M103.503,78.207c-1.107,0 -2.027,-0.24 -2.76,-0.72c-0.733,-0.48 -1.24,-1.16 -1.52,-2.04c-0.107,-0.306 -0.19,-0.64 -0.25,-1c-0.06,-0.36 -0.09,-0.793 -0.09,-1.3c0,-0.506 0.027,-0.943 0.08,-1.31c0.053,-0.366 0.133,-0.703 0.24,-1.01c0.28,-0.88 0.783,-1.556 1.51,-2.03c0.727,-0.473 1.61,-0.71 2.65,-0.71c1.08,0 1.977,0.24 2.69,0.72c0.713,0.48 1.21,1.147 1.49,2c0.053,0.16 0.1,0.33 0.14,0.51c0.04,0.18 0.073,0.384 0.1,0.61c0.027,0.227 0.047,0.49 0.06,0.79c0.013,0.3 0.02,0.657 0.02,1.07c0,0.134 -0.073,0.2 -0.22,0.2l-5.86,0c-0.08,0 -0.12,0.04 -0.12,0.12c0.013,0.2 0.053,0.38 0.12,0.54c0.133,0.427 0.373,0.747 0.72,0.96c0.347,0.214 0.773,0.32 1.28,0.32c0.48,0 0.9,-0.076 1.26,-0.23c0.36,-0.153 0.68,-0.363 0.96,-0.63c0.12,-0.093 0.213,-0.093 0.28,0l1.32,1.24c0.107,0.094 0.113,0.187 0.02,0.28c-0.467,0.494 -1.047,0.887 -1.74,1.18c-0.693,0.294 -1.487,0.44 -2.38,0.44Zm1.48,-6.08c0.08,0 0.12,-0.04 0.12,-0.12c0,-0.146 -0.01,-0.276 -0.03,-0.39c-0.02,-0.113 -0.043,-0.223 -0.07,-0.33c-0.107,-0.333 -0.303,-0.593 -0.59,-0.78c-0.287,-0.186 -0.63,-0.28 -1.03,-0.28c-0.4,0 -0.743,0.094 -1.03,0.28c-0.287,0.187 -0.483,0.447 -0.59,0.78c-0.027,0.107 -0.05,0.217 -0.07,0.33c-0.02,0.114 -0.03,0.244 -0.03,0.39c0,0.08 0.04,0.12 0.12,0.12l3.2,0Z" style="fill:#fff;fill-rule:nonzero;"/><path d="M115.923,77.987c-0.133,0 -0.2,-0.066 -0.2,-0.2l0,-5.56c0,-0.533 -0.123,-0.96 -0.37,-1.28c-0.247,-0.32 -0.623,-0.48 -1.13,-0.48c-0.48,0 -0.853,0.16 -1.12,0.48c-0.267,0.32 -0.4,0.747 -0.4,1.28l0,5.56c0,0.134 -0.067,0.2 -0.2,0.2l-2.4,0c-0.133,0 -0.2,-0.066 -0.2,-0.2l0,-9.28c0,-0.133 0.067,-0.2 0.2,-0.2l2.4,0c0.133,0 0.2,0.067 0.2,0.2l0,0.68l0.02,0c0.227,-0.306 0.543,-0.566 0.95,-0.78c0.407,-0.213 0.923,-0.32 1.55,-0.32c0.533,0 1.007,0.087 1.42,0.26c0.413,0.174 0.76,0.42 1.04,0.74c0.28,0.32 0.49,0.7 0.63,1.14c0.14,0.44 0.21,0.927 0.21,1.46l0,6.1c0,0.134 -0.067,0.2 -0.2,0.2l-2.4,0Z" style="fill:#fff;fill-rule:nonzero;"/><path d="M124.243,78.107c-1.12,0 -1.913,-0.26 -2.38,-0.78c-0.467,-0.52 -0.7,-1.333 -0.7,-2.44l0,-4.4c0,-0.08 -0.04,-0.12 -0.12,-0.12l-0.6,0c-0.133,0 -0.2,-0.066 -0.2,-0.2l0,-1.66c0,-0.133 0.067,-0.2 0.2,-0.2l0.6,0c0.08,0 0.12,-0.04 0.12,-0.12l0,-2.6c0,-0.133 0.067,-0.2 0.2,-0.2l2.38,0c0.133,0 0.2,0.067 0.2,0.2l0,2.6c0,0.08 0.04,0.12 0.12,0.12l1.24,0c0.133,0 0.2,0.067 0.2,0.2l0,1.66c0,0.134 -0.067,0.2 -0.2,0.2l-1.24,0c-0.08,0 -0.12,0.04 -0.12,0.12l0,4.28c0,0.36 0.067,0.61 0.2,0.75c0.133,0.14 0.36,0.21 0.68,0.21l0.48,0c0.133,0 0.2,0.067 0.2,0.2l0,1.98c0,0.134 -0.067,0.2 -0.2,0.2l-1.06,0Z" style="fill:#fff;fill-rule:nonzero;"/><rect x="18.342" y="97" width="265.658" height="32.375" style="fill:#191d20;"/><rect x="155.342" y="97" width="128.658" height="32.375" style="fill:#394b59;"/><g transform="matrix(1,0,0,1,38.171,30)"><g transform="matrix(20,0,0,20,147.761,89.9875)"><path d="M0.289,-0.273l-0.002,-0.002c-0.003,0.001 -0.009,0.003 -0.016,0.004c-0.008,0.001 -0.017,0.002 -0.026,0.002c-0.027,0 -0.052,-0.005 -0.075,-0.015c-0.024,-0.009 -0.045,-0.023 -0.062,-0.04c-0.018,-0.018 -0.032,-0.04 -0.042,-0.065c-0.011,-0.025 -0.016,-0.054 -0.016,-0.085c0,-0.034 0.006,-0.064 0.018,-0.091c0.011,-0.027 0.027,-0.05 0.048,-0.069c0.02,-0.019 0.044,-0.033 0.072,-0.042c0.028,-0.01 0.058,-0.015 0.09,-0.015c0.033,0 0.063,0.005 0.09,0.015c0.028,0.009 0.052,0.023 0.073,0.042c0.02,0.018 0.036,0.04 0.047,0.067c0.012,0.027 0.018,0.057 0.018,0.09c0,0.029 -0.004,0.057 -0.013,0.084c-0.009,0.027 -0.021,0.055 -0.037,0.084l-0.165,0.302c-0.003,0.005 -0.007,0.007 -0.012,0.007l-0.127,0c-0.008,0 -0.01,-0.003 -0.007,-0.01l0.144,-0.263Zm-0.011,-0.111c0.028,0 0.05,-0.009 0.066,-0.026c0.016,-0.018 0.024,-0.041 0.024,-0.069c0,-0.028 -0.008,-0.051 -0.024,-0.068c-0.016,-0.017 -0.038,-0.026 -0.066,-0.026c-0.028,0 -0.05,0.009 -0.066,0.026c-0.016,0.017 -0.024,0.04 -0.024,0.068c0,0.028 0.008,0.051 0.024,0.069c0.016,0.017 0.038,0.026 0.066,0.026Z" style="fill:#fff;fill-rule:nonzero;"/></g><g transform="matrix(20,0,0,20,158.881,89.9875)"><path d="M0.06,-0.13c0,-0.007 0.003,-0.01 0.01,-0.01l0.119,0c0.007,0 0.01,0.003 0.01,0.01l0,0.12c0,0.007 -0.003,0.01 -0.01,0.01l-0.119,0c-0.007,0 -0.01,-0.003 -0.01,-0.01l0,-0.12Z" style="fill:#fff;fill-rule:nonzero;"/></g><g transform="matrix(20,0,0,20,164.061,89.9875)"><path d="M0.065,-0.103c0,-0.005 0.002,-0.01 0.005,-0.014l0.239,-0.284c0.013,-0.015 0.023,-0.03 0.03,-0.045c0.007,-0.016 0.01,-0.032 0.01,-0.049c0,-0.023 -0.007,-0.041 -0.02,-0.056c-0.013,-0.015 -0.031,-0.022 -0.054,-0.022c-0.047,0 -0.074,0.027 -0.08,0.08c0,0.007 -0.004,0.009 -0.011,0.008l-0.11,-0.018c-0.007,-0.001 -0.009,-0.005 -0.008,-0.012c0.002,-0.023 0.008,-0.046 0.018,-0.067c0.01,-0.021 0.024,-0.04 0.042,-0.056c0.019,-0.016 0.041,-0.029 0.066,-0.038c0.026,-0.01 0.055,-0.015 0.088,-0.015c0.033,0 0.062,0.005 0.087,0.015c0.026,0.01 0.048,0.024 0.066,0.041c0.018,0.017 0.032,0.038 0.041,0.062c0.01,0.023 0.015,0.049 0.015,0.076c0,0.033 -0.006,0.062 -0.019,0.089c-0.012,0.026 -0.029,0.051 -0.05,0.076l-0.179,0.211l0,0.002l0.238,0c0.007,0 0.01,0.003 0.01,0.01l0,0.099c0,0.007 -0.003,0.01 -0.01,0.01l-0.404,0c-0.007,0 -0.01,-0.003 -0.01,-0.01l0,-0.093Z" style="fill:#fff;fill-rule:nonzero;"/></g><g transform="matrix(16,0,0,16,179.901,89.9875)"><path d="M0.655,0c-0.007,0 -0.01,-0.003 -0.01,-0.01l0,-0.278c0,-0.027 -0.006,-0.048 -0.019,-0.064c-0.013,-0.016 -0.032,-0.024 -0.057,-0.024c-0.024,0 -0.042,0.008 -0.055,0.024c-0.013,0.016 -0.02,0.037 -0.02,0.064l0,0.278c0,0.007 -0.003,0.01 -0.01,0.01l-0.12,0c-0.007,0 -0.01,-0.003 -0.01,-0.01l0,-0.278c0,-0.027 -0.006,-0.048 -0.018,-0.064c-0.013,-0.016 -0.032,-0.024 -0.057,-0.024c-0.024,0 -0.043,0.008 -0.056,0.024c-0.013,0.016 -0.02,0.037 -0.02,0.064l0,0.278c0,0.007 -0.003,0.01 -0.01,0.01l-0.12,0c-0.007,0 -0.01,-0.003 -0.01,-0.01l0,-0.464c0,-0.007 0.003,-0.01 0.01,-0.01l0.12,0c0.007,0 0.01,0.003 0.01,0.01l0,0.034l0.001,0c0.011,-0.015 0.027,-0.028 0.048,-0.039c0.02,-0.011 0.046,-0.016 0.077,-0.016c0.058,0 0.101,0.02 0.13,0.061l0.001,0c0.018,-0.019 0.039,-0.034 0.064,-0.045c0.025,-0.011 0.054,-0.016 0.088,-0.016c0.057,0 0.1,0.017 0.129,0.05c0.029,0.033 0.044,0.077 0.044,0.13l0,0.305c0,0.007 -0.003,0.01 -0.01,0.01l-0.12,0Z" style="fill:#fff;fill-rule:nonzero;"/></g><g transform="matrix(16,0,0,16,193.405,89.9875)"><path d="M0.073,0.18c-0.007,0 -0.01,-0.003 -0.01,-0.01l0,-0.644c0,-0.007 0.003,-0.01 0.01,-0.01l0.12,0c0.007,0 0.01,0.003 0.01,0.01l0,0.035l0.001,0c0.011,-0.017 0.027,-0.03 0.048,-0.04c0.021,-0.011 0.047,-0.016 0.079,-0.016c0.041,0 0.075,0.01 0.103,0.029c0.028,0.019 0.048,0.048 0.061,0.087c0.006,0.019 0.01,0.039 0.013,0.059c0.003,0.02 0.004,0.046 0.004,0.078c0,0.031 -0.001,0.057 -0.004,0.077c-0.003,0.021 -0.007,0.041 -0.013,0.06c-0.013,0.038 -0.033,0.067 -0.061,0.086c-0.028,0.02 -0.062,0.03 -0.103,0.03c-0.032,0 -0.058,-0.005 -0.079,-0.016c-0.021,-0.01 -0.037,-0.023 -0.048,-0.04l-0.001,0l0,0.215c0,0.007 -0.003,0.01 -0.01,0.01l-0.12,0Zm0.213,-0.287c0.039,0 0.064,-0.017 0.075,-0.052c0.003,-0.009 0.006,-0.02 0.007,-0.032c0.001,-0.013 0.002,-0.03 0.002,-0.051c0,-0.021 -0.001,-0.038 -0.002,-0.05c-0.001,-0.013 -0.004,-0.024 -0.007,-0.033c-0.011,-0.035 -0.036,-0.052 -0.075,-0.052c-0.039,0 -0.063,0.017 -0.074,0.052c-0.003,0.009 -0.006,0.02 -0.007,0.033c-0.001,0.012 -0.002,0.029 -0.002,0.05c0,0.021 0.001,0.038 0.002,0.051c0.001,0.012 0.004,0.023 0.007,0.032c0.011,0.035 0.036,0.052 0.074,0.052Z" style="fill:#fff;fill-rule:nonzero;"/></g><g transform="matrix(16,0,0,16,202.221,89.9875)"><path d="M0.364,0c-0.007,0 -0.01,-0.003 -0.01,-0.01l0,-0.278c0,-0.027 -0.006,-0.048 -0.018,-0.064c-0.013,-0.016 -0.032,-0.024 -0.057,-0.024c-0.024,0 -0.043,0.008 -0.056,0.024c-0.013,0.016 -0.02,0.037 -0.02,0.064l0,0.278c0,0.007 -0.003,0.01 -0.01,0.01l-0.12,0c-0.007,0 -0.01,-0.003 -0.01,-0.01l0,-0.66c0,-0.007 0.003,-0.01 0.01,-0.01l0.12,0c0.007,0 0.01,0.003 0.01,0.01l0,0.23l0.001,0c0.011,-0.015 0.027,-0.028 0.048,-0.039c0.02,-0.011 0.046,-0.016 0.077,-0.016c0.027,0 0.05,0.004 0.071,0.013c0.021,0.009 0.038,0.021 0.052,0.037c0.014,0.016 0.024,0.035 0.031,0.057c0.008,0.022 0.011,0.046 0.011,0.073l0,0.305c0,0.007 -0.003,0.01 -0.01,0.01l-0.12,0Z" style="fill:#fff;fill-rule:nonzero;"/></g></g><path d="M61.143,106.587c0.04,-0.133 0.127,-0.2 0.26,-0.2l2.52,0c0.133,0 0.22,0.067 0.26,0.2l4.6,13.2c0.04,0.134 -0.007,0.2 -0.14,0.2l-2.6,0c-0.133,0 -0.22,-0.066 -0.26,-0.2l-0.78,-2.38l-4.76,0l-0.76,2.38c-0.04,0.134 -0.127,0.2 -0.26,0.2l-2.62,0c-0.133,0 -0.18,-0.066 -0.14,-0.2l4.68,-13.2Zm3.06,8.32l-1.54,-4.76l-0.06,0l-1.54,4.76l3.14,0Z" style="fill:#fff;fill-rule:nonzero;"/><path d="M72.003,119.987c-0.12,0 -0.2,-0.066 -0.24,-0.2l-3.44,-9.28c-0.04,-0.133 0.013,-0.2 0.16,-0.2l2.52,0c0.133,0 0.22,0.067 0.26,0.2l1.88,5.74l0.04,0l1.8,-5.74c0.04,-0.133 0.127,-0.2 0.26,-0.2l2.48,0c0.147,0 0.2,0.067 0.16,0.2l-3.44,9.28c-0.04,0.134 -0.12,0.2 -0.24,0.2l-2.2,0Z" style="fill:#fff;fill-rule:nonzero;"/><path d="M83.583,120.207c-1.107,0 -2.027,-0.24 -2.76,-0.72c-0.733,-0.48 -1.24,-1.16 -1.52,-2.04c-0.107,-0.306 -0.19,-0.64 -0.25,-1c-0.06,-0.36 -0.09,-0.793 -0.09,-1.3c0,-0.506 0.027,-0.943 0.08,-1.31c0.053,-0.366 0.133,-0.703 0.24,-1.01c0.28,-0.88 0.783,-1.556 1.51,-2.03c0.727,-0.473 1.61,-0.71 2.65,-0.71c1.08,0 1.977,0.24 2.69,0.72c0.713,0.48 1.21,1.147 1.49,2c0.053,0.16 0.1,0.33 0.14,0.51c0.04,0.18 0.073,0.384 0.1,0.61c0.027,0.227 0.047,0.49 0.06,0.79c0.013,0.3 0.02,0.657 0.02,1.07c0,0.134 -0.073,0.2 -0.22,0.2l-5.86,0c-0.08,0 -0.12,0.04 -0.12,0.12c0.013,0.2 0.053,0.38 0.12,0.54c0.133,0.427 0.373,0.747 0.72,0.96c0.347,0.214 0.773,0.32 1.28,0.32c0.48,0 0.9,-0.076 1.26,-0.23c0.36,-0.153 0.68,-0.363 0.96,-0.63c0.12,-0.093 0.213,-0.093 0.28,0l1.32,1.24c0.107,0.094 0.113,0.187 0.02,0.28c-0.467,0.494 -1.047,0.887 -1.74,1.18c-0.693,0.294 -1.487,0.44 -2.38,0.44Zm1.48,-6.08c0.08,0 0.12,-0.04 0.12,-0.12c0,-0.146 -0.01,-0.276 -0.03,-0.39c-0.02,-0.113 -0.043,-0.223 -0.07,-0.33c-0.107,-0.333 -0.303,-0.593 -0.59,-0.78c-0.287,-0.186 -0.63,-0.28 -1.03,-0.28c-0.4,0 -0.743,0.094 -1.03,0.28c-0.287,0.187 -0.483,0.447 -0.59,0.78c-0.027,0.107 -0.05,0.217 -0.07,0.33c-0.02,0.114 -0.03,0.244 -0.03,0.39c0,0.08 0.04,0.12 0.12,0.12l3.2,0Z" style="fill:#fff;fill-rule:nonzero;"/><path d="M90.183,119.987c-0.133,0 -0.2,-0.066 -0.2,-0.2l0,-9.28c0,-0.133 0.067,-0.2 0.2,-0.2l2.4,0c0.133,0 0.2,0.067 0.2,0.2l0,0.82l0.02,0c0.227,-0.386 0.553,-0.69 0.98,-0.91c0.427,-0.22 0.94,-0.33 1.54,-0.33c0.32,0 0.63,0.05 0.93,0.15c0.3,0.1 0.557,0.244 0.77,0.43c0.093,0.08 0.113,0.174 0.06,0.28l-1.12,2.04c-0.067,0.08 -0.16,0.094 -0.28,0.04c-0.48,-0.306 -0.947,-0.453 -1.4,-0.44c-0.52,0.027 -0.9,0.22 -1.14,0.58c-0.24,0.36 -0.36,0.867 -0.36,1.52l0,5.1c0,0.134 -0.067,0.2 -0.2,0.2l-2.4,0Z" style="fill:#fff;fill-rule:nonzero;"/><path d="M103.703,119.987c-0.133,0 -0.2,-0.066 -0.2,-0.2l0,-0.64l-0.02,0c-0.253,0.32 -0.593,0.577 -1.02,0.77c-0.427,0.194 -0.973,0.29 -1.64,0.29c-0.427,0 -0.837,-0.056 -1.23,-0.17c-0.393,-0.113 -0.737,-0.29 -1.03,-0.53c-0.293,-0.24 -0.527,-0.546 -0.7,-0.92c-0.173,-0.373 -0.26,-0.82 -0.26,-1.34c0,-1.066 0.37,-1.853 1.11,-2.36c0.74,-0.506 1.71,-0.76 2.91,-0.76l1.72,0c0.08,0 0.12,-0.04 0.12,-0.12l0,-0.36c0,-0.453 -0.137,-0.786 -0.41,-1c-0.273,-0.213 -0.797,-0.32 -1.57,-0.32c-0.493,0 -0.92,0.06 -1.28,0.18c-0.36,0.12 -0.653,0.267 -0.88,0.44c-0.107,0.08 -0.193,0.067 -0.26,-0.04l-0.9,-1.58c-0.067,-0.12 -0.047,-0.213 0.06,-0.28c0.413,-0.293 0.917,-0.526 1.51,-0.7c0.593,-0.173 1.29,-0.26 2.09,-0.26c0.787,0 1.453,0.07 2,0.21c0.547,0.14 0.99,0.354 1.33,0.64c0.34,0.287 0.587,0.65 0.74,1.09c0.153,0.44 0.23,0.96 0.23,1.56l0,6.2c0,0.134 -0.067,0.2 -0.2,0.2l-2.22,0Zm-2.04,-1.88c1.2,0 1.8,-0.446 1.8,-1.34l0,-0.66c0,-0.08 -0.04,-0.12 -0.12,-0.12l-1.36,0c-1.147,0 -1.72,0.367 -1.72,1.1c0,0.68 0.467,1.02 1.4,1.02Z" style="fill:#fff;fill-rule:nonzero;"/><path d="M112.103,123.807c-0.36,0 -0.72,-0.036 -1.08,-0.11c-0.36,-0.073 -0.703,-0.173 -1.03,-0.3c-0.327,-0.126 -0.623,-0.28 -0.89,-0.46c-0.267,-0.18 -0.487,-0.376 -0.66,-0.59c-0.08,-0.106 -0.073,-0.206 0.02,-0.3l1.42,-1.44c0.093,-0.093 0.193,-0.093 0.3,0c0.307,0.267 0.62,0.474 0.94,0.62c0.32,0.147 0.673,0.22 1.06,0.22c0.68,0 1.173,-0.176 1.48,-0.53c0.307,-0.353 0.46,-0.89 0.46,-1.61l0,-0.82l-0.02,0c-0.213,0.347 -0.527,0.62 -0.94,0.82c-0.413,0.2 -0.927,0.3 -1.54,0.3c-0.8,0 -1.477,-0.196 -2.03,-0.59c-0.553,-0.393 -0.957,-0.976 -1.21,-1.75c-0.107,-0.36 -0.187,-0.723 -0.24,-1.09c-0.053,-0.366 -0.08,-0.81 -0.08,-1.33c0,-0.52 0.027,-0.966 0.08,-1.34c0.053,-0.373 0.133,-0.733 0.24,-1.08c0.253,-0.773 0.657,-1.356 1.21,-1.75c0.553,-0.393 1.23,-0.59 2.03,-0.59c0.613,0 1.127,0.1 1.54,0.3c0.413,0.2 0.727,0.474 0.94,0.82l0.02,0l0,-0.7c0,-0.133 0.067,-0.2 0.2,-0.2l2.4,0c0.133,0 0.2,0.067 0.2,0.2l0,8.44c0,3.24 -1.607,4.86 -4.82,4.86Zm0.4,-6.56c0.387,0 0.697,-0.086 0.93,-0.26c0.233,-0.173 0.403,-0.433 0.51,-0.78c0.067,-0.186 0.113,-0.383 0.14,-0.59c0.027,-0.206 0.04,-0.463 0.04,-0.77c0,-0.306 -0.013,-0.563 -0.04,-0.77c-0.027,-0.206 -0.073,-0.403 -0.14,-0.59c-0.107,-0.346 -0.277,-0.606 -0.51,-0.78c-0.233,-0.173 -0.543,-0.26 -0.93,-0.26c-0.387,0 -0.693,0.087 -0.92,0.26c-0.227,0.174 -0.4,0.434 -0.52,0.78c-0.053,0.187 -0.093,0.384 -0.12,0.59c-0.027,0.207 -0.04,0.464 -0.04,0.77c0,0.307 0.013,0.564 0.04,0.77c0.027,0.207 0.067,0.404 0.12,0.59c0.12,0.347 0.293,0.607 0.52,0.78c0.227,0.174 0.533,0.26 0.92,0.26Z" style="fill:#fff;fill-rule:nonzero;"/><path d="M123.583,120.207c-1.107,0 -2.027,-0.24 -2.76,-0.72c-0.733,-0.48 -1.24,-1.16 -1.52,-2.04c-0.107,-0.306 -0.19,-0.64 -0.25,-1c-0.06,-0.36 -0.09,-0.793 -0.09,-1.3c0,-0.506 0.027,-0.943 0.08,-1.31c0.053,-0.366 0.133,-0.703 0.24,-1.01c0.28,-0.88 0.783,-1.556 1.51,-2.03c0.727,-0.473 1.61,-0.71 2.65,-0.71c1.08,0 1.977,0.24 2.69,0.72c0.713,0.48 1.21,1.147 1.49,2c0.053,0.16 0.1,0.33 0.14,0.51c0.04,0.18 0.073,0.384 0.1,0.61c0.027,0.227 0.047,0.49 0.06,0.79c0.013,0.3 0.02,0.657 0.02,1.07c0,0.134 -0.073,0.2 -0.22,0.2l-5.86,0c-0.08,0 -0.12,0.04 -0.12,0.12c0.013,0.2 0.053,0.38 0.12,0.54c0.133,0.427 0.373,0.747 0.72,0.96c0.347,0.214 0.773,0.32 1.28,0.32c0.48,0 0.9,-0.076 1.26,-0.23c0.36,-0.153 0.68,-0.363 0.96,-0.63c0.12,-0.093 0.213,-0.093 0.28,0l1.32,1.24c0.107,0.094 0.113,0.187 0.02,0.28c-0.467,0.494 -1.047,0.887 -1.74,1.18c-0.693,0.294 -1.487,0.44 -2.38,0.44Zm1.48,-6.08c0.08,0 0.12,-0.04 0.12,-0.12c0,-0.146 -0.01,-0.276 -0.03,-0.39c-0.02,-0.113 -0.043,-0.223 -0.07,-0.33c-0.107,-0.333 -0.303,-0.593 -0.59,-0.78c-0.287,-0.186 -0.63,-0.28 -1.03,-0.28c-0.4,0 -0.743,0.094 -1.03,0.28c-0.287,0.187 -0.483,0.447 -0.59,0.78c-0.027,0.107 -0.05,0.217 -0.07,0.33c-0.02,0.114 -0.03,0.244 -0.03,0.39c0,0.08 0.04,0.12 0.12,0.12l3.2,0Z" style="fill:#fff;fill-rule:nonzero;"/><rect x="18.342" y="139" width="265.658" height="32.375" style="fill:#191d20;"/><rect x="155.342" y="139" width="128.658" height="32.375" style="fill:#394b59;"/><g transform="matrix(1,0,0,1,38.171,72)"><g transform="matrix(20,0,0,20,142.201,89.9875)"><path d="M0.242,-0.522l-0.002,0l-0.108,0.074c-0.007,0.005 -0.011,0.003 -0.011,-0.006l0,-0.124c0,-0.005 0.002,-0.01 0.007,-0.014l0.114,-0.082c0.005,-0.004 0.011,-0.006 0.018,-0.006l0.112,0c0.007,0 0.01,0.003 0.01,0.01l0,0.66c0,0.007 -0.003,0.01 -0.01,0.01l-0.12,0c-0.007,0 -0.01,-0.003 -0.01,-0.01l0,-0.512Z" style="fill:#fff;fill-rule:nonzero;"/></g><g transform="matrix(20,0,0,20,153.321,89.9875)"><path d="M0.056,-0.145c-0.001,-0.007 0.001,-0.011 0.008,-0.013l0.11,-0.021c0.006,-0.001 0.01,0.002 0.012,0.008c0.006,0.018 0.016,0.033 0.031,0.045c0.015,0.013 0.034,0.019 0.058,0.019c0.026,0 0.046,-0.008 0.062,-0.025c0.014,-0.017 0.022,-0.038 0.022,-0.063c0,-0.031 -0.009,-0.054 -0.026,-0.071c-0.017,-0.017 -0.04,-0.025 -0.069,-0.025l-0.029,0c-0.007,0 -0.01,-0.003 -0.01,-0.01l0,-0.097c0,-0.007 0.003,-0.01 0.01,-0.01l0.027,0c0.025,0 0.046,-0.008 0.061,-0.023c0.015,-0.015 0.023,-0.036 0.023,-0.062c0,-0.024 -0.007,-0.043 -0.021,-0.058c-0.013,-0.015 -0.032,-0.022 -0.056,-0.022c-0.021,0 -0.038,0.006 -0.051,0.017c-0.012,0.011 -0.021,0.027 -0.026,0.046c-0.002,0.006 -0.006,0.008 -0.012,0.007l-0.109,-0.021c-0.007,-0.001 -0.009,-0.005 -0.008,-0.011c0.004,-0.023 0.012,-0.043 0.023,-0.063c0.011,-0.018 0.026,-0.035 0.044,-0.049c0.019,-0.014 0.04,-0.025 0.065,-0.032c0.024,-0.008 0.051,-0.012 0.081,-0.012c0.033,0 0.063,0.005 0.089,0.014c0.026,0.009 0.048,0.022 0.066,0.039c0.018,0.017 0.032,0.037 0.041,0.06c0.009,0.023 0.014,0.048 0.014,0.075c0,0.029 -0.007,0.056 -0.019,0.08c-0.013,0.024 -0.032,0.044 -0.057,0.06l0,0.002c0.01,0.005 0.02,0.013 0.031,0.022c0.011,0.009 0.02,0.021 0.029,0.035c0.009,0.013 0.016,0.029 0.021,0.047c0.005,0.018 0.008,0.038 0.008,0.061c0,0.031 -0.006,0.06 -0.017,0.085c-0.01,0.025 -0.026,0.047 -0.046,0.065c-0.02,0.018 -0.043,0.032 -0.071,0.042c-0.026,0.01 -0.056,0.015 -0.088,0.015c-0.058,0 -0.107,-0.014 -0.147,-0.041c-0.04,-0.027 -0.065,-0.066 -0.074,-0.115Z" style="fill:#fff;fill-rule:nonzero;"/></g><g transform="matrix(20,0,0,20,164.441,89.9875)"><path d="M0.06,-0.13c0,-0.007 0.003,-0.01 0.01,-0.01l0.119,0c0.007,0 0.01,0.003 0.01,0.01l0,0.12c0,0.007 -0.003,0.01 -0.01,0.01l-0.119,0c-0.007,0 -0.01,-0.003 -0.01,-0.01l0,-0.12Z" style="fill:#fff;fill-rule:nonzero;"/></g><g transform="matrix(20,0,0,20,169.621,89.9875)"><path d="M0.242,-0.522l-0.002,0l-0.108,0.074c-0.007,0.005 -0.011,0.003 -0.011,-0.006l0,-0.124c0,-0.005 0.002,-0.01 0.007,-0.014l0.114,-0.082c0.005,-0.004 0.011,-0.006 0.018,-0.006l0.112,0c0.007,0 0.01,0.003 0.01,0.01l0,0.66c0,0.007 -0.003,0.01 -0.01,0.01l-0.12,0c-0.007,0 -0.01,-0.003 -0.01,-0.01l0,-0.512Z" style="fill:#fff;fill-rule:nonzero;"/></g><g transform="matrix(16,0,0,16,185.461,89.9875)"><path d="M0.655,0c-0.007,0 -0.01,-0.003 -0.01,-0.01l0,-0.278c0,-0.027 -0.006,-0.048 -0.019,-0.064c-0.013,-0.016 -0.032,-0.024 -0.057,-0.024c-0.024,0 -0.042,0.008 -0.055,0.024c-0.013,0.016 -0.02,0.037 -0.02,0.064l0,0.278c0,0.007 -0.003,0.01 -0.01,0.01l-0.12,0c-0.007,0 -0.01,-0.003 -0.01,-0.01l0,-0.278c0,-0.027 -0.006,-0.048 -0.018,-0.064c-0.013,-0.016 -0.032,-0.024 -0.057,-0.024c-0.024,0 -0.043,0.008 -0.056,0.024c-0.013,0.016 -0.02,0.037 -0.02,0.064l0,0.278c0,0.007 -0.003,0.01 -0.01,0.01l-0.12,0c-0.007,0 -0.01,-0.003 -0.01,-0.01l0,-0.464c0,-0.007 0.003,-0.01 0.01,-0.01l0.12,0c0.007,0 0.01,0.003 0.01,0.01l0,0.034l0.001,0c0.011,-0.015 0.027,-0.028 0.048,-0.039c0.02,-0.011 0.046,-0.016 0.077,-0.016c0.058,0 0.101,0.02 0.13,0.061l0.001,0c0.018,-0.019 0.039,-0.034 0.064,-0.045c0.025,-0.011 0.054,-0.016 0.088,-0.016c0.057,0 0.1,0.017 0.129,0.05c0.029,0.033 0.044,0.077 0.044,0.13l0,0.305c0,0.007 -0.003,0.01 -0.01,0.01l-0.12,0Z" style="fill:#fff;fill-rule:nonzero;"/></g><g transform="matrix(16,0,0,16,198.965,89.9875)"><path d="M0.073,0.18c-0.007,0 -0.01,-0.003 -0.01,-0.01l0,-0.644c0,-0.007 0.003,-0.01 0.01,-0.01l0.12,0c0.007,0 0.01,0.003 0.01,0.01l0,0.035l0.001,0c0.011,-0.017 0.027,-0.03 0.048,-0.04c0.021,-0.011 0.047,-0.016 0.079,-0.016c0.041,0 0.075,0.01 0.103,0.029c0.028,0.019 0.048,0.048 0.061,0.087c0.006,0.019 0.01,0.039 0.013,0.059c0.003,0.02 0.004,0.046 0.004,0.078c0,0.031 -0.001,0.057 -0.004,0.077c-0.003,0.021 -0.007,0.041 -0.013,0.06c-0.013,0.038 -0.033,0.067 -0.061,0.086c-0.028,0.02 -0.062,0.03 -0.103,0.03c-0.032,0 -0.058,-0.005 -0.079,-0.016c-0.021,-0.01 -0.037,-0.023 -0.048,-0.04l-0.001,0l0,0.215c0,0.007 -0.003,0.01 -0.01,0.01l-0.12,0Zm0.213,-0.287c0.039,0 0.064,-0.017 0.075,-0.052c0.003,-0.009 0.006,-0.02 0.007,-0.032c0.001,-0.013 0.002,-0.03 0.002,-0.051c0,-0.021 -0.001,-0.038 -0.002,-0.05c-0.001,-0.013 -0.004,-0.024 -0.007,-0.033c-0.011,-0.035 -0.036,-0.052 -0.075,-0.052c-0.039,0 -0.063,0.017 -0.074,0.052c-0.003,0.009 -0.006,0.02 -0.007,0.033c-0.001,0.012 -0.002,0.029 -0.002,0.05c0,0.021 0.001,0.038 0.002,0.051c0.001,0.012 0.004,0.023 0.007,0.032c0.011,0.035 0.036,0.052 0.074,0.052Z" style="fill:#fff;fill-rule:nonzero;"/></g><g transform="matrix(16,0,0,16,207.781,89.9875)"><path d="M0.364,0c-0.007,0 -0.01,-0.003 -0.01,-0.01l0,-0.278c0,-0.027 -0.006,-0.048 -0.018,-0.064c-0.013,-0.016 -0.032,-0.024 -0.057,-0.024c-0.024,0 -0.043,0.008 -0.056,0.024c-0.013,0.016 -0.02,0.037 -0.02,0.064l0,0.278c0,0.007 -0.003,0.01 -0.01,0.01l-0.12,0c-0.007,0 -0.01,-0.003 -0.01,-0.01l0,-0.66c0,-0.007 0.003,-0.01 0.01,-0.01l0.12,0c0.007,0 0.01,0.003 0.01,0.01l0,0.23l0.001,0c0.011,-0.015 0.027,-0.028 0.048,-0.039c0.02,-0.011 0.046,-0.016 0.077,-0.016c0.027,0 0.05,0.004 0.071,0.013c0.021,0.009 0.038,0.021 0.052,0.037c0.014,0.016 0.024,0.035 0.031,0.057c0.008,0.022 0.011,0.046 0.011,0.073l0,0.305c0,0.007 -0.003,0.01 -0.01,0.01l-0.12,0Z" style="fill:#fff;fill-rule:nonzero;"/></g></g><path d="M50.663,148.587c0,-0.133 0.067,-0.2 0.2,-0.2l2.38,0c0.16,0 0.267,0.067 0.32,0.2l3.44,7.76l0.08,0l3.38,-7.76c0.053,-0.133 0.16,-0.2 0.32,-0.2l2.34,0c0.133,0 0.2,0.067 0.2,0.2l0,13.2c0,0.134 -0.067,0.2 -0.2,0.2l-2.26,0c-0.133,0 -0.2,-0.066 -0.2,-0.2l0,-7.66l-0.08,0l-2.52,5.74c-0.08,0.174 -0.207,0.26 -0.38,0.26l-1.38,0c-0.173,0 -0.3,-0.086 -0.38,-0.26l-2.52,-5.74l-0.08,0l0,7.66c0,0.134 -0.067,0.2 -0.2,0.2l-2.26,0c-0.133,0 -0.2,-0.066 -0.2,-0.2l0,-13.2Z" style="fill:#fff;fill-rule:nonzero;"/><path d="M71.563,161.987c-0.133,0 -0.2,-0.066 -0.2,-0.2l0,-0.64l-0.02,0c-0.253,0.32 -0.593,0.577 -1.02,0.77c-0.427,0.194 -0.973,0.29 -1.64,0.29c-0.427,0 -0.837,-0.056 -1.23,-0.17c-0.393,-0.113 -0.737,-0.29 -1.03,-0.53c-0.293,-0.24 -0.527,-0.546 -0.7,-0.92c-0.173,-0.373 -0.26,-0.82 -0.26,-1.34c0,-1.066 0.37,-1.853 1.11,-2.36c0.74,-0.506 1.71,-0.76 2.91,-0.76l1.72,0c0.08,0 0.12,-0.04 0.12,-0.12l0,-0.36c0,-0.453 -0.137,-0.786 -0.41,-1c-0.273,-0.213 -0.797,-0.32 -1.57,-0.32c-0.493,0 -0.92,0.06 -1.28,0.18c-0.36,0.12 -0.653,0.267 -0.88,0.44c-0.107,0.08 -0.193,0.067 -0.26,-0.04l-0.9,-1.58c-0.067,-0.12 -0.047,-0.213 0.06,-0.28c0.413,-0.293 0.917,-0.526 1.51,-0.7c0.593,-0.173 1.29,-0.26 2.09,-0.26c0.787,0 1.453,0.07 2,0.21c0.547,0.14 0.99,0.354 1.33,0.64c0.34,0.287 0.587,0.65 0.74,1.09c0.153,0.44 0.23,0.96 0.23,1.56l0,6.2c0,0.134 -0.067,0.2 -0.2,0.2l-2.22,0Zm-2.04,-1.88c1.2,0 1.8,-0.446 1.8,-1.34l0,-0.66c0,-0.08 -0.04,-0.12 -0.12,-0.12l-1.36,0c-1.147,0 -1.72,0.367 -1.72,1.1c0,0.68 0.467,1.02 1.4,1.02Z" style="fill:#fff;fill-rule:nonzero;"/><path d="M82.363,161.987c-0.12,0 -0.22,-0.06 -0.3,-0.18l-1.74,-2.64l-0.02,0l-1.72,2.64c-0.107,0.12 -0.213,0.18 -0.32,0.18l-2.58,0c-0.08,0 -0.13,-0.02 -0.15,-0.06c-0.02,-0.04 -0.017,-0.086 0.01,-0.14l3.26,-4.82l-3.02,-4.46c-0.027,-0.053 -0.03,-0.1 -0.01,-0.14c0.02,-0.04 0.07,-0.06 0.15,-0.06l2.6,0c0.147,0 0.26,0.06 0.34,0.18l1.46,2.28l0.02,0l1.48,-2.28c0.093,-0.12 0.2,-0.18 0.32,-0.18l2.58,0c0.093,0 0.15,0.02 0.17,0.06c0.02,0.04 0.017,0.087 -0.01,0.14l-3.02,4.46l3.26,4.82c0.027,0.054 0.03,0.1 0.01,0.14c-0.02,0.04 -0.077,0.06 -0.17,0.06l-2.6,0Z" style="fill:#fff;fill-rule:nonzero;"/><path d="M86.943,150.767c-0.133,0 -0.2,-0.066 -0.2,-0.2l0,-1.98c0,-0.133 0.067,-0.2 0.2,-0.2l2.4,0c0.133,0 0.2,0.067 0.2,0.2l0,1.98c0,0.134 -0.067,0.2 -0.2,0.2l-2.4,0Zm0,11.22c-0.133,0 -0.2,-0.066 -0.2,-0.2l0,-9.28c0,-0.133 0.067,-0.2 0.2,-0.2l2.4,0c0.133,0 0.2,0.067 0.2,0.2l0,9.28c0,0.134 -0.067,0.2 -0.2,0.2l-2.4,0Z" style="fill:#fff;fill-rule:nonzero;"/><path d="M103.903,161.987c-0.133,0 -0.2,-0.066 -0.2,-0.2l0,-5.56c0,-0.533 -0.127,-0.96 -0.38,-1.28c-0.253,-0.32 -0.633,-0.48 -1.14,-0.48c-0.48,0 -0.85,0.16 -1.11,0.48c-0.26,0.32 -0.39,0.747 -0.39,1.28l0,5.56c0,0.134 -0.067,0.2 -0.2,0.2l-2.4,0c-0.133,0 -0.2,-0.066 -0.2,-0.2l0,-5.56c0,-0.533 -0.123,-0.96 -0.37,-1.28c-0.247,-0.32 -0.623,-0.48 -1.13,-0.48c-0.48,0 -0.853,0.16 -1.12,0.48c-0.267,0.32 -0.4,0.747 -0.4,1.28l0,5.56c0,0.134 -0.067,0.2 -0.2,0.2l-2.4,0c-0.133,0 -0.2,-0.066 -0.2,-0.2l0,-9.28c0,-0.133 0.067,-0.2 0.2,-0.2l2.4,0c0.133,0 0.2,0.067 0.2,0.2l0,0.68l0.02,0c0.227,-0.306 0.543,-0.566 0.95,-0.78c0.407,-0.213 0.923,-0.32 1.55,-0.32c1.16,0 2.027,0.407 2.6,1.22l0.02,0c0.36,-0.386 0.787,-0.686 1.28,-0.9c0.493,-0.213 1.08,-0.32 1.76,-0.32c1.133,0 1.993,0.334 2.58,1c0.587,0.667 0.88,1.534 0.88,2.6l0,6.1c0,0.134 -0.067,0.2 -0.2,0.2l-2.4,0Z" style="fill:#fff;fill-rule:nonzero;"/><path d="M114.803,161.987c-0.133,0 -0.2,-0.066 -0.2,-0.2l0,-0.7l-0.02,0c-0.253,0.334 -0.577,0.604 -0.97,0.81c-0.393,0.207 -0.897,0.31 -1.51,0.31c-0.533,0 -1.003,-0.09 -1.41,-0.27c-0.407,-0.18 -0.747,-0.43 -1.02,-0.75c-0.273,-0.32 -0.48,-0.7 -0.62,-1.14c-0.14,-0.44 -0.21,-0.92 -0.21,-1.44l0,-6.1c0,-0.133 0.067,-0.2 0.2,-0.2l2.4,0c0.133,0 0.2,0.067 0.2,0.2l0,5.56c0,0.52 0.123,0.944 0.37,1.27c0.247,0.327 0.617,0.49 1.11,0.49c0.48,0 0.847,-0.16 1.1,-0.48c0.253,-0.32 0.38,-0.746 0.38,-1.28l0,-5.56c0,-0.133 0.067,-0.2 0.2,-0.2l2.4,0c0.133,0 0.2,0.067 0.2,0.2l0,9.28c0,0.134 -0.067,0.2 -0.2,0.2l-2.4,0Z" style="fill:#fff;fill-rule:nonzero;"/><path d="M131.763,161.987c-0.133,0 -0.2,-0.066 -0.2,-0.2l0,-5.56c0,-0.533 -0.127,-0.96 -0.38,-1.28c-0.253,-0.32 -0.633,-0.48 -1.14,-0.48c-0.48,0 -0.85,0.16 -1.11,0.48c-0.26,0.32 -0.39,0.747 -0.39,1.28l0,5.56c0,0.134 -0.067,0.2 -0.2,0.2l-2.4,0c-0.133,0 -0.2,-0.066 -0.2,-0.2l0,-5.56c0,-0.533 -0.123,-0.96 -0.37,-1.28c-0.247,-0.32 -0.623,-0.48 -1.13,-0.48c-0.48,0 -0.853,0.16 -1.12,0.48c-0.267,0.32 -0.4,0.747 -0.4,1.28l0,5.56c0,0.134 -0.067,0.2 -0.2,0.2l-2.4,0c-0.133,0 -0.2,-0.066 -0.2,-0.2l0,-9.28c0,-0.133 0.067,-0.2 0.2,-0.2l2.4,0c0.133,0 0.2,0.067 0.2,0.2l0,0.68l0.02,0c0.227,-0.306 0.543,-0.566 0.95,-0.78c0.407,-0.213 0.923,-0.32 1.55,-0.32c1.16,0 2.027,0.407 2.6,1.22l0.02,0c0.36,-0.386 0.787,-0.686 1.28,-0.9c0.493,-0.213 1.08,-0.32 1.76,-0.32c1.133,0 1.993,0.334 2.58,1c0.587,0.667 0.88,1.534 0.88,2.6l0,6.1c0,0.134 -0.067,0.2 -0.2,0.2l-2.4,0Z" style="fill:#fff;fill-rule:nonzero;"/><path d="M19.926,28.624c-0.096,-0.288 -0.172,-0.568 -0.228,-0.84c-0.056,-0.272 -0.1,-0.576 -0.132,-0.912c-0.032,-0.336 -0.056,-0.72 -0.072,-1.152c-0.016,-0.432 -0.024,-0.952 -0.024,-1.56c0,-0.608 0.008,-1.128 0.024,-1.56c0.016,-0.432 0.04,-0.816 0.072,-1.152c0.032,-0.336 0.076,-0.64 0.132,-0.912c0.056,-0.272 0.132,-0.552 0.228,-0.84c0.416,-1.328 1.156,-2.32 2.22,-2.976c1.064,-0.656 2.324,-0.984 3.78,-0.984c0.768,0 1.464,0.088 2.088,0.264c0.624,0.176 1.18,0.42 1.668,0.732c0.488,0.312 0.904,0.68 1.248,1.104c0.344,0.424 0.612,0.884 0.804,1.38c0.08,0.16 0.048,0.28 -0.096,0.36l-2.568,1.08c-0.176,0.048 -0.288,0.008 -0.336,-0.12c-0.32,-0.56 -0.7,-0.98 -1.14,-1.26c-0.44,-0.28 -0.996,-0.42 -1.668,-0.42c-0.704,0 -1.272,0.164 -1.704,0.492c-0.432,0.328 -0.736,0.772 -0.912,1.332c-0.048,0.144 -0.088,0.308 -0.12,0.492c-0.032,0.184 -0.06,0.408 -0.084,0.672c-0.024,0.264 -0.04,0.584 -0.048,0.96c-0.008,0.376 -0.012,0.828 -0.012,1.356c0,0.528 0.004,0.984 0.012,1.368c0.008,0.384 0.024,0.708 0.048,0.972c0.024,0.264 0.052,0.488 0.084,0.672c0.032,0.184 0.072,0.348 0.12,0.492c0.176,0.56 0.484,1 0.924,1.32c0.44,0.32 1.02,0.48 1.74,0.48c0.608,0 1.152,-0.144 1.632,-0.432c0.48,-0.288 0.808,-0.704 0.984,-1.248c0.064,-0.208 0.112,-0.44 0.144,-0.696c0.032,-0.256 0.048,-0.56 0.048,-0.912c0,-0.096 -0.048,-0.144 -0.144,-0.144l-2.208,0c-0.16,0 -0.24,-0.08 -0.24,-0.24l0,-2.304c0,-0.16 0.08,-0.24 0.24,-0.24l5.616,0c0.16,0 0.24,0.08 0.24,0.24l0,1.344c0,0.72 -0.032,1.4 -0.096,2.04c-0.064,0.64 -0.168,1.184 -0.312,1.632c-0.416,1.312 -1.148,2.32 -2.196,3.024c-1.048,0.704 -2.3,1.056 -3.756,1.056c-1.456,0 -2.716,-0.328 -3.78,-0.984c-1.064,-0.656 -1.804,-1.648 -2.22,-2.976Z" style="fill:#fff;fill-rule:nonzero;"/><path d="M35.214,32.32c-0.16,0 -0.24,-0.08 -0.24,-0.24l0,-15.84c0,-0.16 0.08,-0.24 0.24,-0.24l6.336,0c0.88,0 1.672,0.128 2.376,0.384c0.704,0.256 1.304,0.616 1.8,1.08c0.496,0.464 0.872,1.016 1.128,1.656c0.256,0.64 0.384,1.352 0.384,2.136c0,0.768 -0.132,1.472 -0.396,2.112c-0.264,0.64 -0.64,1.192 -1.128,1.656c-0.488,0.464 -1.084,0.824 -1.788,1.08c-0.704,0.256 -1.496,0.384 -2.376,0.384l-2.904,0c-0.096,0 -0.144,0.048 -0.144,0.144l0,5.448c0,0.16 -0.08,0.24 -0.24,0.24l-3.048,0Zm6.12,-8.88c0.752,0 1.336,-0.196 1.752,-0.588c0.416,-0.392 0.624,-0.924 0.624,-1.596c0,-0.672 -0.208,-1.208 -0.624,-1.608c-0.416,-0.4 -1,-0.6 -1.752,-0.6l-2.688,0c-0.096,0 -0.144,0.048 -0.144,0.144l0,4.104c0,0.096 0.048,0.144 0.144,0.144l2.688,0Z" style="fill:#fff;fill-rule:nonzero;"/><path d="M54.99,32.584c-0.64,0 -1.268,-0.06 -1.884,-0.18c-0.616,-0.12 -1.196,-0.28 -1.74,-0.48c-0.544,-0.2 -1.044,-0.436 -1.5,-0.708c-0.456,-0.272 -0.844,-0.56 -1.164,-0.864c-0.128,-0.128 -0.136,-0.264 -0.024,-0.408l1.824,-2.088c0.096,-0.128 0.216,-0.136 0.36,-0.024c0.544,0.432 1.176,0.82 1.896,1.164c0.72,0.344 1.512,0.516 2.376,0.516c0.864,0 1.524,-0.18 1.98,-0.54c0.456,-0.36 0.684,-0.828 0.684,-1.404c0,-0.48 -0.176,-0.872 -0.528,-1.176c-0.352,-0.304 -1.016,-0.52 -1.992,-0.648l-0.864,-0.12c-1.664,-0.224 -2.94,-0.732 -3.828,-1.524c-0.888,-0.792 -1.332,-1.916 -1.332,-3.372c0,-0.752 0.136,-1.436 0.408,-2.052c0.272,-0.616 0.66,-1.14 1.164,-1.572c0.504,-0.432 1.112,-0.768 1.824,-1.008c0.712,-0.24 1.508,-0.36 2.388,-0.36c1.088,0 2.112,0.152 3.072,0.456c0.96,0.304 1.784,0.72 2.472,1.248c0.144,0.096 0.16,0.216 0.048,0.36l-1.464,2.184c-0.096,0.128 -0.208,0.152 -0.336,0.072c-0.624,-0.416 -1.244,-0.728 -1.86,-0.936c-0.616,-0.208 -1.26,-0.312 -1.932,-0.312c-0.72,0 -1.264,0.168 -1.632,0.504c-0.368,0.336 -0.552,0.76 -0.552,1.272c0,0.464 0.188,0.848 0.564,1.152c0.376,0.304 1.036,0.52 1.98,0.648l0.864,0.12c1.696,0.224 2.976,0.732 3.84,1.524c0.864,0.792 1.296,1.932 1.296,3.42c0,0.736 -0.136,1.42 -0.408,2.052c-0.272,0.632 -0.676,1.176 -1.212,1.632c-0.536,0.456 -1.204,0.812 -2.004,1.068c-0.8,0.256 -1.728,0.384 -2.784,0.384Z" style="fill:#fff;fill-rule:nonzero;"/><path d="M74.934,32.584c-0.64,0 -1.268,-0.06 -1.884,-0.18c-0.616,-0.12 -1.196,-0.28 -1.74,-0.48c-0.544,-0.2 -1.044,-0.436 -1.5,-0.708c-0.456,-0.272 -0.844,-0.56 -1.164,-0.864c-0.128,-0.128 -0.136,-0.264 -0.024,-0.408l1.824,-2.088c0.096,-0.128 0.216,-0.136 0.36,-0.024c0.544,0.432 1.176,0.82 1.896,1.164c0.72,0.344 1.512,0.516 2.376,0.516c0.864,0 1.524,-0.18 1.98,-0.54c0.456,-0.36 0.684,-0.828 0.684,-1.404c0,-0.48 -0.176,-0.872 -0.528,-1.176c-0.352,-0.304 -1.016,-0.52 -1.992,-0.648l-0.864,-0.12c-1.664,-0.224 -2.94,-0.732 -3.828,-1.524c-0.888,-0.792 -1.332,-1.916 -1.332,-3.372c0,-0.752 0.136,-1.436 0.408,-2.052c0.272,-0.616 0.66,-1.14 1.164,-1.572c0.504,-0.432 1.112,-0.768 1.824,-1.008c0.712,-0.24 1.508,-0.36 2.388,-0.36c1.088,0 2.112,0.152 3.072,0.456c0.96,0.304 1.784,0.72 2.472,1.248c0.144,0.096 0.16,0.216 0.048,0.36l-1.464,2.184c-0.096,0.128 -0.208,0.152 -0.336,0.072c-0.624,-0.416 -1.244,-0.728 -1.86,-0.936c-0.616,-0.208 -1.26,-0.312 -1.932,-0.312c-0.72,0 -1.264,0.168 -1.632,0.504c-0.368,0.336 -0.552,0.76 -0.552,1.272c0,0.464 0.188,0.848 0.564,1.152c0.376,0.304 1.036,0.52 1.98,0.648l0.864,0.12c1.696,0.224 2.976,0.732 3.84,1.524c0.864,0.792 1.296,1.932 1.296,3.42c0,0.736 -0.136,1.42 -0.408,2.052c-0.272,0.632 -0.676,1.176 -1.212,1.632c-0.536,0.456 -1.204,0.812 -2.004,1.068c-0.8,0.256 -1.728,0.384 -2.784,0.384Z" style="fill:#fff;fill-rule:nonzero;"/><path d="M83.91,36.64c-0.16,0 -0.24,-0.08 -0.24,-0.24l0,-15.456c0,-0.16 0.08,-0.24 0.24,-0.24l2.88,0c0.16,0 0.24,0.08 0.24,0.24l0,0.84l0.024,0c0.272,-0.4 0.656,-0.724 1.152,-0.972c0.496,-0.248 1.128,-0.372 1.896,-0.372c0.976,0 1.8,0.232 2.472,0.696c0.672,0.464 1.16,1.16 1.464,2.088c0.144,0.464 0.248,0.936 0.312,1.416c0.064,0.48 0.096,1.104 0.096,1.872c0,0.752 -0.032,1.372 -0.096,1.86c-0.064,0.488 -0.168,0.964 -0.312,1.428c-0.304,0.912 -0.792,1.604 -1.464,2.076c-0.672,0.472 -1.496,0.708 -2.472,0.708c-0.768,0 -1.4,-0.124 -1.896,-0.372c-0.496,-0.248 -0.88,-0.572 -1.152,-0.972l-0.024,0l0,5.16c0,0.16 -0.08,0.24 -0.24,0.24l-2.88,0Zm5.112,-6.888c0.928,0 1.528,-0.416 1.8,-1.248c0.08,-0.224 0.136,-0.484 0.168,-0.78c0.032,-0.296 0.048,-0.7 0.048,-1.212c0,-0.512 -0.016,-0.916 -0.048,-1.212c-0.032,-0.296 -0.088,-0.556 -0.168,-0.78c-0.256,-0.832 -0.856,-1.248 -1.8,-1.248c-0.928,0 -1.52,0.416 -1.776,1.248c-0.08,0.224 -0.136,0.484 -0.168,0.78c-0.032,0.296 -0.048,0.7 -0.048,1.212c0,0.512 0.016,0.916 0.048,1.212c0.032,0.296 0.088,0.556 0.168,0.78c0.272,0.832 0.864,1.248 1.776,1.248Z" style="fill:#fff;fill-rule:nonzero;"/><path d="M101.862,32.584c-1.328,0 -2.432,-0.288 -3.312,-0.864c-0.88,-0.576 -1.488,-1.392 -1.824,-2.448c-0.128,-0.368 -0.228,-0.768 -0.3,-1.2c-0.072,-0.432 -0.108,-0.952 -0.108,-1.56c0,-0.608 0.032,-1.132 0.096,-1.572c0.064,-0.44 0.16,-0.844 0.288,-1.212c0.336,-1.056 0.94,-1.868 1.812,-2.436c0.872,-0.568 1.932,-0.852 3.18,-0.852c1.296,0 2.372,0.288 3.228,0.864c0.856,0.576 1.452,1.376 1.788,2.4c0.064,0.192 0.12,0.396 0.168,0.612c0.048,0.216 0.088,0.46 0.12,0.732c0.032,0.272 0.056,0.588 0.072,0.948c0.016,0.36 0.024,0.788 0.024,1.284c0,0.16 -0.088,0.24 -0.264,0.24l-7.032,0c-0.096,0 -0.144,0.048 -0.144,0.144c0.016,0.24 0.064,0.456 0.144,0.648c0.16,0.512 0.448,0.896 0.864,1.152c0.416,0.256 0.928,0.384 1.536,0.384c0.576,0 1.08,-0.092 1.512,-0.276c0.432,-0.184 0.816,-0.436 1.152,-0.756c0.144,-0.112 0.256,-0.112 0.336,0l1.584,1.488c0.128,0.112 0.136,0.224 0.024,0.336c-0.56,0.592 -1.256,1.064 -2.088,1.416c-0.832,0.352 -1.784,0.528 -2.856,0.528Zm1.776,-7.296c0.096,0 0.144,-0.048 0.144,-0.144c0,-0.176 -0.012,-0.332 -0.036,-0.468c-0.024,-0.136 -0.052,-0.268 -0.084,-0.396c-0.128,-0.4 -0.364,-0.712 -0.708,-0.936c-0.344,-0.224 -0.756,-0.336 -1.236,-0.336c-0.48,0 -0.892,0.112 -1.236,0.336c-0.344,0.224 -0.58,0.536 -0.708,0.936c-0.032,0.128 -0.06,0.26 -0.084,0.396c-0.024,0.136 -0.036,0.292 -0.036,0.468c0,0.096 0.048,0.144 0.144,0.144l3.84,0Z" style="fill:#fff;fill-rule:nonzero;"/><path d="M114.51,32.584c-1.328,0 -2.432,-0.288 -3.312,-0.864c-0.88,-0.576 -1.488,-1.392 -1.824,-2.448c-0.128,-0.368 -0.228,-0.768 -0.3,-1.2c-0.072,-0.432 -0.108,-0.952 -0.108,-1.56c0,-0.608 0.032,-1.132 0.096,-1.572c0.064,-0.44 0.16,-0.844 0.288,-1.212c0.336,-1.056 0.94,-1.868 1.812,-2.436c0.872,-0.568 1.932,-0.852 3.18,-0.852c1.296,0 2.372,0.288 3.228,0.864c0.856,0.576 1.452,1.376 1.788,2.4c0.064,0.192 0.12,0.396 0.168,0.612c0.048,0.216 0.088,0.46 0.12,0.732c0.032,0.272 0.056,0.588 0.072,0.948c0.016,0.36 0.024,0.788 0.024,1.284c0,0.16 -0.088,0.24 -0.264,0.24l-7.032,0c-0.096,0 -0.144,0.048 -0.144,0.144c0.016,0.24 0.064,0.456 0.144,0.648c0.16,0.512 0.448,0.896 0.864,1.152c0.416,0.256 0.928,0.384 1.536,0.384c0.576,0 1.08,-0.092 1.512,-0.276c0.432,-0.184 0.816,-0.436 1.152,-0.756c0.144,-0.112 0.256,-0.112 0.336,0l1.584,1.488c0.128,0.112 0.136,0.224 0.024,0.336c-0.56,0.592 -1.256,1.064 -2.088,1.416c-0.832,0.352 -1.784,0.528 -2.856,0.528Zm1.776,-7.296c0.096,0 0.144,-0.048 0.144,-0.144c0,-0.176 -0.012,-0.332 -0.036,-0.468c-0.024,-0.136 -0.052,-0.268 -0.084,-0.396c-0.128,-0.4 -0.364,-0.712 -0.708,-0.936c-0.344,-0.224 -0.756,-0.336 -1.236,-0.336c-0.48,0 -0.892,0.112 -1.236,0.336c-0.344,0.224 -0.58,0.536 -0.708,0.936c-0.032,0.128 -0.06,0.26 -0.084,0.396c-0.024,0.136 -0.036,0.292 -0.036,0.468c0,0.096 0.048,0.144 0.144,0.144l3.84,0Z" style="fill:#fff;fill-rule:nonzero;"/><path d="M129.27,32.32c-0.16,0 -0.24,-0.08 -0.24,-0.24l0,-0.84l-0.024,0c-0.272,0.4 -0.656,0.724 -1.152,0.972c-0.496,0.248 -1.128,0.372 -1.896,0.372c-0.976,0 -1.8,-0.236 -2.472,-0.708c-0.672,-0.472 -1.16,-1.164 -1.464,-2.076c-0.144,-0.464 -0.248,-0.94 -0.312,-1.428c-0.064,-0.488 -0.096,-1.108 -0.096,-1.86c0,-0.768 0.032,-1.392 0.096,-1.872c0.064,-0.48 0.168,-0.952 0.312,-1.416c0.304,-0.928 0.792,-1.624 1.464,-2.088c0.672,-0.464 1.496,-0.696 2.472,-0.696c0.768,0 1.4,0.124 1.896,0.372c0.496,0.248 0.88,0.572 1.152,0.972l0.024,0l0,-5.544c0,-0.16 0.08,-0.24 0.24,-0.24l2.88,0c0.16,0 0.24,0.08 0.24,0.24l0,15.84c0,0.16 -0.08,0.24 -0.24,0.24l-2.88,0Zm-2.232,-2.568c0.912,0 1.504,-0.416 1.776,-1.248c0.08,-0.224 0.136,-0.484 0.168,-0.78c0.032,-0.296 0.048,-0.7 0.048,-1.212c0,-0.512 -0.016,-0.916 -0.048,-1.212c-0.032,-0.296 -0.088,-0.556 -0.168,-0.78c-0.256,-0.832 -0.848,-1.248 -1.776,-1.248c-0.944,0 -1.544,0.416 -1.8,1.248c-0.08,0.224 -0.136,0.484 -0.168,0.78c-0.032,0.296 -0.048,0.7 -0.048,1.212c0,0.512 0.016,0.916 0.048,1.212c0.032,0.296 0.088,0.556 0.168,0.78c0.272,0.832 0.872,1.248 1.8,1.248Z" style="fill:#fff;fill-rule:nonzero;"/></g></svg>