<?xml version="1.0" encoding="UTF-8" standalone="no"?>
<!DOCTYPE svg PUBLIC "-//W3C//DTD SVG 1.1//EN" "http://www.w3.org/Graphics/SVG/1.1/DTD/svg11.dtd">
<svg width="100%" height="100%" viewBox="0 0 350 50" version="1.1" xmlns="http://www.w3.org/2000/svg" xmlns:xlink="http://www.w3.org/1999/xlink" xml:space="preserve" xmlns:serif="http://www.serif.com/" style="fill-rule:evenodd;clip-rule:evenodd;stroke-linejoin:round;stroke-miterlimit:2;">
    <text x="9.307px" y="40.796px" style="font-family:'TechnaSans-Regular', 'Techna Sans';font-size:44px;fill:white;">T<tspan x="29.591px " y="40.796px ">e</tspan>lemetr<tspan x="179.587px 200.971px " y="40.796px 40.796px ">yJ</tspan>et</text>
    <g transform="matrix(1.79621,0,0,1.79621,265.73,11.0379)">
        <path d="M20,2C20,0.9 19.1,0 18,0C17.45,0 16.95,0.22 16.59,0.59L11.75,5.43L2,1L1,3L8.53,8.64L4.17,13L1,13L0,14L4,16L6,20L7,19L7,15.83L11.36,11.47L17,19L19,18L14.57,8.26L19.41,3.42C19.78,3.05 20,2.55 20,2Z" style="fill:white;"/>
    </g>
</svg>
