<?xml version="1.0" encoding="UTF-8" standalone="no"?><!DOCTYPE svg PUBLIC "-//W3C//DTD SVG 1.1//EN" "http://www.w3.org/Graphics/SVG/1.1/DTD/svg11.dtd"><svg width="100%" height="100%" viewBox="0 0 4000 1000" version="1.1" xmlns="http://www.w3.org/2000/svg" xmlns:xlink="http://www.w3.org/1999/xlink" xml:space="preserve" xmlns:serif="http://www.serif.com/" style="fill-rule:evenodd;clip-rule:evenodd;stroke-linejoin:round;stroke-miterlimit:2;"><path d="M3192.04,-154.324l-2420.23,52.148l7.891,366.219l2420.23,-52.148l-7.89,-366.219Z" style="fill:#bfccd6;"/><path id="Dark-Blob-4" serif:id="Dark Blob 4" d="M824.496,-369.02l-79.539,-4.783l7.506,706.89l75.604,0.613l-6.107,-278.806l52.244,-1.285l-5.787,-238.064l-42.985,-0.394l-0.936,-184.171Z" style="fill:none;"/><clipPath id="_clip1"><path d="M824.496,-369.02l-79.539,-4.783l7.506,706.89l75.604,0.613l-6.107,-278.806l52.244,-1.285l-5.787,-238.064l-42.985,-0.394l-0.936,-184.171Z"/></clipPath><g clip-path="url(#_clip1)"><g id="Grid-Dark" serif:id="Grid Dark"><g><g id="Grid-Texture" serif:id="Grid Texture"><path d="M763.121,34.66c2.572,-0.023 4.68,2.047 4.703,4.619c0.023,2.573 -2.047,4.68 -4.619,4.703c-2.573,0.023 -4.68,-2.047 -4.703,-4.619c-0.023,-2.572 2.046,-4.68 4.619,-4.703Z" style="fill:#a7b6c2;"/><path d="M762.911,11.355c2.573,-0.023 4.68,2.047 4.703,4.619c0.023,2.573 -2.046,4.68 -4.619,4.703c-2.572,0.023 -4.679,-2.046 -4.703,-4.619c-0.023,-2.572 2.047,-4.679 4.619,-4.703Z" style="fill:#a7b6c2;"/><path d="M763.749,104.574c2.573,-0.023 4.68,2.047 4.703,4.62c0.023,2.572 -2.047,4.679 -4.619,4.702c-2.573,0.023 -4.68,-2.046 -4.703,-4.619c-0.023,-2.572 2.047,-4.679 4.619,-4.703Z" style="fill:#a7b6c2;"/><path d="M763.33,57.965c2.573,-0.023 4.68,2.047 4.703,4.619c0.023,2.572 -2.046,4.68 -4.619,4.703c-2.572,0.023 -4.68,-2.047 -4.703,-4.619c-0.023,-2.573 2.047,-4.68 4.619,-4.703Z" style="fill:#a7b6c2;"/><path d="M763.54,81.27c2.572,-0.023 4.679,2.046 4.703,4.619c0.023,2.572 -2.047,4.679 -4.619,4.703c-2.573,0.023 -4.68,-2.047 -4.703,-4.619c-0.023,-2.573 2.046,-4.68 4.619,-4.703Z" style="fill:#a7b6c2;"/><path d="M786.216,11.146c2.573,-0.023 4.68,2.047 4.703,4.619c0.023,2.572 -2.047,4.68 -4.619,4.703c-2.572,0.023 -4.68,-2.047 -4.703,-4.619c-0.023,-2.573 2.047,-4.68 4.619,-4.703Z" style="fill:#a7b6c2;"/><path d="M809.521,10.937c2.572,-0.024 4.68,2.046 4.703,4.619c0.023,2.572 -2.047,4.679 -4.619,4.702c-2.573,0.024 -4.68,-2.046 -4.703,-4.619c-0.023,-2.572 2.047,-4.679 4.619,-4.702Z" style="fill:#a7b6c2;"/><path d="M832.826,10.727c2.572,-0.023 4.68,2.047 4.703,4.619c0.023,2.573 -2.047,4.68 -4.619,4.703c-2.573,0.023 -4.68,-2.047 -4.703,-4.619c-0.023,-2.572 2.046,-4.68 4.619,-4.703Z" style="fill:#a7b6c2;"/><path d="M786.426,34.451c2.572,-0.023 4.679,2.046 4.703,4.619c0.023,2.572 -2.047,4.68 -4.62,4.703c-2.572,0.023 -4.679,-2.047 -4.702,-4.619c-0.024,-2.573 2.046,-4.68 4.619,-4.703Z" style="fill:#a7b6c2;"/><path d="M809.73,34.241c2.573,-0.023 4.68,2.047 4.703,4.619c0.023,2.573 -2.046,4.68 -4.619,4.703c-2.572,0.023 -4.68,-2.046 -4.703,-4.619c-0.023,-2.572 2.047,-4.68 4.619,-4.703Z" style="fill:#a7b6c2;"/><path d="M833.035,34.032c2.573,-0.023 4.68,2.047 4.703,4.619c0.023,2.572 -2.047,4.68 -4.619,4.703c-2.572,0.023 -4.68,-2.047 -4.703,-4.619c-0.023,-2.573 2.047,-4.68 4.619,-4.703Z" style="fill:#a7b6c2;"/><path d="M786.635,57.756c2.573,-0.024 4.68,2.046 4.703,4.619c0.023,2.572 -2.047,4.679 -4.619,4.702c-2.573,0.024 -4.68,-2.046 -4.703,-4.619c-0.023,-2.572 2.047,-4.679 4.619,-4.702Z" style="fill:#a7b6c2;"/><path d="M809.94,57.546c2.572,-0.023 4.68,2.047 4.703,4.619c0.023,2.573 -2.047,4.68 -4.619,4.703c-2.573,0.023 -4.68,-2.047 -4.703,-4.619c-0.023,-2.573 2.046,-4.68 4.619,-4.703Z" style="fill:#a7b6c2;"/><path d="M786.845,81.06c2.572,-0.023 4.679,2.047 4.702,4.619c0.023,2.573 -2.046,4.68 -4.619,4.703c-2.572,0.023 -4.679,-2.046 -4.703,-4.619c-0.023,-2.572 2.047,-4.68 4.62,-4.703Z" style="fill:#a7b6c2;"/><path d="M810.149,80.851c2.573,-0.023 4.68,2.046 4.703,4.619c0.023,2.572 -2.047,4.68 -4.619,4.703c-2.572,0.023 -4.68,-2.047 -4.703,-4.619c-0.023,-2.573 2.047,-4.68 4.619,-4.703Z" style="fill:#a7b6c2;"/><path d="M787.054,104.365c2.572,-0.023 4.68,2.047 4.703,4.619c0.023,2.573 -2.047,4.68 -4.619,4.703c-2.573,0.023 -4.68,-2.047 -4.703,-4.619c-0.023,-2.573 2.046,-4.68 4.619,-4.703Z" style="fill:#a7b6c2;"/><path d="M810.359,104.156c2.572,-0.023 4.679,2.046 4.703,4.619c0.023,2.572 -2.047,4.679 -4.62,4.703c-2.572,0.023 -4.679,-2.047 -4.702,-4.62c-0.023,-2.572 2.046,-4.679 4.619,-4.702Z" style="fill:#a7b6c2;"/><path d="M763.959,127.879c2.572,-0.023 4.679,2.047 4.702,4.619c0.024,2.573 -2.046,4.68 -4.619,4.703c-2.572,0.023 -4.679,-2.046 -4.703,-4.619c-0.023,-2.572 2.047,-4.68 4.62,-4.703Z" style="fill:#a7b6c2;"/><path d="M764.168,151.184c2.572,-0.023 4.68,2.047 4.703,4.619c0.023,2.573 -2.047,4.68 -4.619,4.703c-2.573,0.023 -4.68,-2.047 -4.703,-4.619c-0.023,-2.573 2.047,-4.68 4.619,-4.703Z" style="fill:#a7b6c2;"/><path d="M787.263,127.67c2.573,-0.023 4.68,2.046 4.703,4.619c0.023,2.572 -2.046,4.68 -4.619,4.703c-2.572,0.023 -4.68,-2.047 -4.703,-4.619c-0.023,-2.573 2.047,-4.68 4.619,-4.703Z" style="fill:#a7b6c2;"/><path d="M810.568,127.46c2.573,-0.023 4.68,2.047 4.703,4.619c0.023,2.573 -2.047,4.68 -4.619,4.703c-2.573,0.023 -4.68,-2.046 -4.703,-4.619c-0.023,-2.572 2.047,-4.679 4.619,-4.703Z" style="fill:#a7b6c2;"/><path d="M787.473,150.975c2.572,-0.024 4.679,2.046 4.703,4.619c0.023,2.572 -2.047,4.679 -4.619,4.702c-2.573,0.024 -4.68,-2.046 -4.703,-4.619c-0.023,-2.572 2.046,-4.679 4.619,-4.702Z" style="fill:#a7b6c2;"/><path d="M810.778,150.765c2.572,-0.023 4.679,2.047 4.702,4.619c0.023,2.573 -2.046,4.68 -4.619,4.703c-2.572,0.023 -4.679,-2.047 -4.703,-4.619c-0.023,-2.572 2.047,-4.68 4.62,-4.703Z" style="fill:#a7b6c2;"/><path d="M856.131,10.518c2.572,-0.023 4.679,2.046 4.702,4.619c0.024,2.572 -2.046,4.68 -4.619,4.703c-2.572,0.023 -4.679,-2.047 -4.703,-4.619c-0.023,-2.573 2.047,-4.68 4.62,-4.703Z" style="fill:#a7b6c2;"/><path d="M856.34,33.822c2.572,-0.023 4.68,2.047 4.703,4.62c0.023,2.572 -2.047,4.679 -4.619,4.702c-2.573,0.024 -4.68,-2.046 -4.703,-4.619c-0.023,-2.572 2.047,-4.679 4.619,-4.703Z" style="fill:#a7b6c2;"/><path d="M764.796,221.098c2.573,-0.023 4.68,2.047 4.703,4.619c0.023,2.573 -2.047,4.68 -4.619,4.703c-2.572,0.023 -4.68,-2.046 -4.703,-4.619c-0.023,-2.572 2.047,-4.68 4.619,-4.703Z" style="fill:#a7b6c2;"/><path d="M764.377,174.489c2.573,-0.023 4.68,2.046 4.703,4.619c0.023,2.572 -2.046,4.68 -4.619,4.703c-2.572,0.023 -4.68,-2.047 -4.703,-4.619c-0.023,-2.573 2.047,-4.68 4.619,-4.703Z" style="fill:#a7b6c2;"/><path d="M764.587,197.794c2.572,-0.024 4.68,2.046 4.703,4.619c0.023,2.572 -2.047,4.679 -4.619,4.702c-2.573,0.024 -4.68,-2.046 -4.703,-4.619c-0.023,-2.572 2.046,-4.679 4.619,-4.702Z" style="fill:#a7b6c2;"/><path d="M765.424,291.013c2.573,-0.024 4.68,2.046 4.703,4.619c0.023,2.572 -2.046,4.679 -4.619,4.703c-2.572,0.023 -4.679,-2.047 -4.703,-4.62c-0.023,-2.572 2.047,-4.679 4.619,-4.702Z" style="fill:#a7b6c2;"/><path d="M765.006,244.403c2.572,-0.023 4.679,2.047 4.702,4.619c0.024,2.573 -2.046,4.68 -4.619,4.703c-2.572,0.023 -4.679,-2.047 -4.702,-4.619c-0.024,-2.573 2.046,-4.68 4.619,-4.703Z" style="fill:#a7b6c2;"/><path d="M765.215,267.708c2.573,-0.023 4.68,2.046 4.703,4.619c0.023,2.572 -2.047,4.68 -4.619,4.703c-2.573,0.023 -4.68,-2.047 -4.703,-4.619c-0.023,-2.573 2.047,-4.68 4.619,-4.703Z" style="fill:#a7b6c2;"/><path d="M787.682,174.279c2.573,-0.023 4.68,2.047 4.703,4.619c0.023,2.573 -2.047,4.68 -4.619,4.703c-2.573,0.023 -4.68,-2.046 -4.703,-4.619c-0.023,-2.572 2.047,-4.68 4.619,-4.703Z" style="fill:#a7b6c2;"/><path d="M810.987,174.07c2.572,-0.023 4.68,2.047 4.703,4.619c0.023,2.572 -2.047,4.68 -4.619,4.703c-2.573,0.023 -4.68,-2.047 -4.703,-4.619c-0.023,-2.573 2.046,-4.68 4.619,-4.703Z" style="fill:#a7b6c2;"/><path d="M787.892,197.584c2.572,-0.023 4.679,2.047 4.702,4.619c0.024,2.573 -2.046,4.68 -4.619,4.703c-2.572,0.023 -4.679,-2.047 -4.702,-4.619c-0.024,-2.572 2.046,-4.68 4.619,-4.703Z" style="fill:#a7b6c2;"/><path d="M811.196,197.375c2.573,-0.023 4.68,2.046 4.703,4.619c0.023,2.572 -2.046,4.679 -4.619,4.703c-2.572,0.023 -4.68,-2.047 -4.703,-4.619c-0.023,-2.573 2.047,-4.68 4.619,-4.703Z" style="fill:#a7b6c2;"/><path d="M788.101,220.889c2.572,-0.023 4.68,2.047 4.703,4.619c0.023,2.572 -2.047,4.68 -4.619,4.703c-2.573,0.023 -4.68,-2.047 -4.703,-4.619c-0.023,-2.573 2.047,-4.68 4.619,-4.703Z" style="fill:#a7b6c2;"/><path d="M811.406,220.679c2.572,-0.023 4.679,2.047 4.703,4.62c0.023,2.572 -2.047,4.679 -4.619,4.702c-2.573,0.023 -4.68,-2.046 -4.703,-4.619c-0.023,-2.572 2.046,-4.679 4.619,-4.703Z" style="fill:#a7b6c2;"/><path d="M788.31,244.194c2.573,-0.023 4.68,2.046 4.703,4.619c0.023,2.572 -2.046,4.679 -4.619,4.703c-2.572,0.023 -4.68,-2.047 -4.703,-4.62c-0.023,-2.572 2.047,-4.679 4.619,-4.702Z" style="fill:#a7b6c2;"/><path d="M811.615,243.984c2.573,-0.023 4.68,2.047 4.703,4.619c0.023,2.573 -2.047,4.68 -4.619,4.703c-2.572,0.023 -4.68,-2.046 -4.703,-4.619c-0.023,-2.572 2.047,-4.68 4.619,-4.703Z" style="fill:#a7b6c2;"/><path d="M788.52,267.498c2.572,-0.023 4.68,2.047 4.703,4.619c0.023,2.573 -2.047,4.68 -4.619,4.703c-2.573,0.023 -4.68,-2.046 -4.703,-4.619c-0.023,-2.572 2.046,-4.679 4.619,-4.703Z" style="fill:#a7b6c2;"/><path d="M811.825,267.289c2.572,-0.023 4.679,2.047 4.702,4.619c0.024,2.573 -2.046,4.68 -4.619,4.703c-2.572,0.023 -4.679,-2.047 -4.702,-4.619c-0.024,-2.573 2.046,-4.68 4.619,-4.703Z" style="fill:#a7b6c2;"/><path d="M788.729,290.803c2.573,-0.023 4.68,2.047 4.703,4.619c0.023,2.573 -2.047,4.68 -4.619,4.703c-2.572,0.023 -4.68,-2.047 -4.703,-4.619c-0.023,-2.572 2.047,-4.68 4.619,-4.703Z" style="fill:#a7b6c2;"/><path d="M812.034,290.594c2.572,-0.023 4.68,2.046 4.703,4.619c0.023,2.572 -2.047,4.68 -4.619,4.703c-2.573,0.023 -4.68,-2.047 -4.703,-4.619c-0.023,-2.573 2.047,-4.68 4.619,-4.703Z" style="fill:#a7b6c2;"/><path d="M765.634,314.317c2.572,-0.023 4.68,2.047 4.703,4.619c0.023,2.573 -2.047,4.68 -4.619,4.703c-2.573,0.023 -4.68,-2.046 -4.703,-4.619c-0.023,-2.572 2.046,-4.68 4.619,-4.703Z" style="fill:#a7b6c2;"/><path d="M788.939,314.108c2.572,-0.023 4.679,2.047 4.703,4.619c0.023,2.572 -2.047,4.68 -4.62,4.703c-2.572,0.023 -4.679,-2.047 -4.702,-4.619c-0.024,-2.573 2.046,-4.68 4.619,-4.703Z" style="fill:#a7b6c2;"/><path d="M812.243,313.899c2.573,-0.024 4.68,2.046 4.703,4.619c0.023,2.572 -2.046,4.679 -4.619,4.702c-2.572,0.024 -4.68,-2.046 -4.703,-4.619c-0.023,-2.572 2.047,-4.679 4.619,-4.702Z" style="fill:#a7b6c2;"/></g></g></g></g><path id="Dark-Blob-3" serif:id="Dark Blob 3" d="M3221.55,28.897l-77.539,1.959l8.482,233.187l75.599,-1.016l-6.542,-234.13Z" style="fill:none;"/><clipPath id="_clip2"><path d="M3221.55,28.897l-77.539,1.959l8.482,233.187l75.599,-1.016l-6.542,-234.13Z"/></clipPath><g clip-path="url(#_clip2)"><g id="Grid-Dark1" serif:id="Grid Dark"><g><g id="Grid-Texture1" serif:id="Grid Texture"><path d="M3158.85,35.341c2.572,-0.079 4.723,1.945 4.802,4.516c0.078,2.572 -1.946,4.723 -4.517,4.802c-2.571,0.078 -4.723,-1.946 -4.801,-4.517c-0.079,-2.571 1.945,-4.723 4.516,-4.801Z" style="fill:#a7b6c2;"/><path d="M3182.14,34.629c2.572,-0.078 4.723,1.946 4.802,4.517c0.078,2.571 -1.946,4.723 -4.517,4.801c-2.572,0.079 -4.723,-1.945 -4.801,-4.517c-0.079,-2.571 1.945,-4.722 4.516,-4.801Z" style="fill:#a7b6c2;"/><path d="M3205.44,33.918c2.571,-0.079 4.723,1.945 4.801,4.517c0.079,2.571 -1.945,4.722 -4.516,4.801c-2.572,0.078 -4.723,-1.946 -4.802,-4.517c-0.078,-2.571 1.946,-4.723 4.517,-4.801Z" style="fill:#a7b6c2;"/><path d="M3159.56,58.635c2.571,-0.078 4.723,1.946 4.801,4.517c0.079,2.572 -1.945,4.723 -4.517,4.801c-2.571,0.079 -4.722,-1.945 -4.801,-4.516c-0.078,-2.572 1.945,-4.723 4.517,-4.802Z" style="fill:#a7b6c2;"/><path d="M3160.27,81.93c2.572,-0.078 4.723,1.946 4.801,4.517c0.079,2.571 -1.945,4.723 -4.516,4.801c-2.572,0.079 -4.723,-1.945 -4.801,-4.516c-0.079,-2.572 1.945,-4.723 4.516,-4.802Z" style="fill:#a7b6c2;"/><path d="M3182.86,57.924c2.571,-0.078 4.722,1.945 4.801,4.517c0.078,2.571 -1.945,4.723 -4.517,4.801c-2.571,0.079 -4.722,-1.945 -4.801,-4.517c-0.079,-2.571 1.945,-4.722 4.517,-4.801Z" style="fill:#a7b6c2;"/><path d="M3206.15,57.213c2.571,-0.079 4.722,1.945 4.801,4.516c0.078,2.572 -1.946,4.723 -4.517,4.802c-2.571,0.078 -4.723,-1.946 -4.801,-4.517c-0.079,-2.571 1.945,-4.723 4.517,-4.801Z" style="fill:#a7b6c2;"/><path d="M3183.57,81.219c2.571,-0.079 4.723,1.945 4.801,4.517c0.079,2.571 -1.945,4.722 -4.516,4.801c-2.572,0.078 -4.723,-1.945 -4.802,-4.517c-0.078,-2.571 1.946,-4.723 4.517,-4.801Z" style="fill:#a7b6c2;"/><path d="M3206.86,80.508c2.571,-0.079 4.723,1.945 4.801,4.516c0.079,2.572 -1.945,4.723 -4.517,4.801c-2.571,0.079 -4.722,-1.945 -4.801,-4.516c-0.078,-2.572 1.946,-4.723 4.517,-4.801Z" style="fill:#a7b6c2;"/><path d="M3162.41,151.815c2.572,-0.079 4.723,1.945 4.802,4.517c0.078,2.571 -1.946,4.722 -4.517,4.801c-2.571,0.078 -4.723,-1.946 -4.801,-4.517c-0.079,-2.571 1.945,-4.723 4.516,-4.801Z" style="fill:#a7b6c2;"/><path d="M3160.98,105.225c2.571,-0.078 4.722,1.946 4.801,4.517c0.078,2.571 -1.945,4.723 -4.517,4.801c-2.571,0.079 -4.723,-1.945 -4.801,-4.517c-0.079,-2.571 1.945,-4.722 4.517,-4.801Z" style="fill:#a7b6c2;"/><path d="M3161.69,128.52c2.571,-0.078 4.723,1.945 4.801,4.517c0.079,2.571 -1.945,4.722 -4.516,4.801c-2.572,0.079 -4.723,-1.945 -4.802,-4.517c-0.078,-2.571 1.946,-4.722 4.517,-4.801Z" style="fill:#a7b6c2;"/><path d="M3164.54,221.699c2.571,-0.078 4.722,1.946 4.801,4.517c0.078,2.571 -1.945,4.723 -4.517,4.801c-2.571,0.079 -4.723,-1.945 -4.801,-4.516c-0.079,-2.572 1.945,-4.723 4.517,-4.802Z" style="fill:#a7b6c2;"/><path d="M3163.12,175.11c2.571,-0.079 4.723,1.945 4.801,4.516c0.079,2.572 -1.945,4.723 -4.517,4.802c-2.571,0.078 -4.722,-1.946 -4.801,-4.517c-0.078,-2.571 1.945,-4.723 4.517,-4.801Z" style="fill:#a7b6c2;"/><path d="M3163.83,198.405c2.572,-0.079 4.723,1.945 4.801,4.516c0.079,2.572 -1.945,4.723 -4.516,4.802c-2.572,0.078 -4.723,-1.946 -4.801,-4.517c-0.079,-2.572 1.945,-4.723 4.516,-4.801Z" style="fill:#a7b6c2;"/><path d="M3184.28,104.514c2.572,-0.079 4.723,1.945 4.802,4.516c0.078,2.572 -1.946,4.723 -4.517,4.802c-2.571,0.078 -4.723,-1.946 -4.801,-4.517c-0.079,-2.571 1.945,-4.723 4.516,-4.801Z" style="fill:#a7b6c2;"/><path d="M3207.57,103.802c2.572,-0.078 4.723,1.946 4.802,4.517c0.078,2.571 -1.946,4.723 -4.517,4.801c-2.571,0.079 -4.723,-1.945 -4.801,-4.516c-0.079,-2.572 1.945,-4.723 4.516,-4.802Z" style="fill:#a7b6c2;"/><path d="M3184.99,127.809c2.571,-0.079 4.723,1.945 4.801,4.516c0.079,2.572 -1.945,4.723 -4.517,4.802c-2.571,0.078 -4.722,-1.946 -4.801,-4.517c-0.078,-2.571 1.946,-4.723 4.517,-4.801Z" style="fill:#a7b6c2;"/><path d="M3208.28,127.097c2.571,-0.078 4.722,1.946 4.801,4.517c0.078,2.571 -1.945,4.723 -4.517,4.801c-2.571,0.079 -4.722,-1.945 -4.801,-4.517c-0.079,-2.571 1.945,-4.722 4.517,-4.801Z" style="fill:#a7b6c2;"/><path d="M3185.7,151.103c2.572,-0.078 4.723,1.946 4.802,4.517c0.078,2.572 -1.946,4.723 -4.517,4.801c-2.572,0.079 -4.723,-1.945 -4.801,-4.516c-0.079,-2.572 1.945,-4.723 4.516,-4.802Z" style="fill:#a7b6c2;"/><path d="M3208.99,150.392c2.571,-0.078 4.723,1.945 4.801,4.517c0.079,2.571 -1.945,4.723 -4.516,4.801c-2.572,0.079 -4.723,-1.945 -4.802,-4.517c-0.078,-2.571 1.946,-4.722 4.517,-4.801Z" style="fill:#a7b6c2;"/><path d="M3186.41,174.398c2.571,-0.078 4.722,1.946 4.801,4.517c0.078,2.571 -1.945,4.723 -4.517,4.801c-2.571,0.079 -4.723,-1.945 -4.801,-4.516c-0.079,-2.572 1.945,-4.723 4.517,-4.802Z" style="fill:#a7b6c2;"/><path d="M3209.71,173.687c2.571,-0.079 4.722,1.945 4.801,4.517c0.078,2.571 -1.946,4.722 -4.517,4.801c-2.571,0.078 -4.723,-1.945 -4.801,-4.517c-0.079,-2.571 1.945,-4.723 4.517,-4.801Z" style="fill:#a7b6c2;"/><path d="M3187.12,197.693c2.571,-0.078 4.723,1.946 4.801,4.517c0.079,2.571 -1.945,4.723 -4.516,4.801c-2.572,0.079 -4.723,-1.945 -4.802,-4.517c-0.078,-2.571 1.946,-4.722 4.517,-4.801Z" style="fill:#a7b6c2;"/><path d="M3210.42,196.982c2.571,-0.079 4.723,1.945 4.801,4.516c0.079,2.572 -1.945,4.723 -4.517,4.802c-2.571,0.078 -4.722,-1.946 -4.801,-4.517c-0.078,-2.571 1.946,-4.723 4.517,-4.801Z" style="fill:#a7b6c2;"/><path d="M3187.83,220.988c2.572,-0.078 4.723,1.945 4.802,4.517c0.078,2.571 -1.946,4.722 -4.517,4.801c-2.571,0.079 -4.723,-1.945 -4.801,-4.517c-0.079,-2.571 1.945,-4.722 4.516,-4.801Z" style="fill:#a7b6c2;"/><path d="M3211.13,220.277c2.572,-0.079 4.723,1.945 4.802,4.516c0.078,2.572 -1.946,4.723 -4.517,4.802c-2.572,0.078 -4.723,-1.946 -4.801,-4.517c-0.079,-2.571 1.945,-4.723 4.516,-4.801Z" style="fill:#a7b6c2;"/><path d="M3165.25,244.994c2.571,-0.078 4.723,1.946 4.801,4.517c0.079,2.571 -1.945,4.723 -4.516,4.801c-2.572,0.079 -4.723,-1.945 -4.802,-4.516c-0.078,-2.572 1.946,-4.723 4.517,-4.802Z" style="fill:#a7b6c2;"/><path d="M3188.55,244.283c2.571,-0.079 4.723,1.945 4.801,4.517c0.079,2.571 -1.945,4.722 -4.517,4.801c-2.571,0.078 -4.722,-1.946 -4.801,-4.517c-0.078,-2.571 1.945,-4.723 4.517,-4.801Z" style="fill:#a7b6c2;"/><path d="M3211.84,243.571c2.571,-0.078 4.722,1.946 4.801,4.517c0.078,2.572 -1.945,4.723 -4.517,4.801c-2.571,0.079 -4.722,-1.945 -4.801,-4.516c-0.079,-2.572 1.945,-4.723 4.517,-4.802Z" style="fill:#a7b6c2;"/></g></g></g></g><path id="Dark-Blob-2" serif:id="Dark Blob 2" d="M2555.37,-76.865l-44.669,-1.196l-3.087,21.287l-21.032,2.07l-0.981,28.078l9.833,276.483l142.937,0.144l-4.877,-75.264l-69.844,0.946l-8.28,-252.548Z" style="fill:none;"/><clipPath id="_clip3"><path d="M2555.37,-76.865l-44.669,-1.196l-3.087,21.287l-21.032,2.07l-0.981,28.078l9.833,276.483l142.937,0.144l-4.877,-75.264l-69.844,0.946l-8.28,-252.548Z"/></clipPath><g clip-path="url(#_clip3)"><g id="Grid-Dark2" serif:id="Grid Dark"><g><g id="Grid-Texture2" serif:id="Grid Texture"><path d="M2504.7,2.61c2.571,-0.079 4.723,1.945 4.801,4.517c0.079,2.571 -1.945,4.722 -4.516,4.801c-2.572,0.078 -4.723,-1.945 -4.802,-4.517c-0.078,-2.571 1.946,-4.723 4.517,-4.801Z" style="fill:#a7b6c2;"/><path d="M2527.99,1.899c2.571,-0.079 4.723,1.945 4.801,4.516c0.079,2.572 -1.945,4.723 -4.517,4.801c-2.571,0.079 -4.722,-1.945 -4.801,-4.516c-0.078,-2.572 1.946,-4.723 4.517,-4.801Z" style="fill:#a7b6c2;"/><path d="M2551.29,1.187c2.571,-0.078 4.722,1.945 4.801,4.517c0.079,2.571 -1.945,4.723 -4.517,4.801c-2.571,0.079 -4.722,-1.945 -4.801,-4.517c-0.078,-2.571 1.945,-4.722 4.517,-4.801Z" style="fill:#a7b6c2;"/></g><g id="Grid-Texture3" serif:id="Grid Texture"><path d="M2530.13,71.783c2.571,-0.078 4.723,1.945 4.801,4.517c0.079,2.571 -1.945,4.723 -4.516,4.801c-2.572,0.079 -4.723,-1.945 -4.802,-4.517c-0.078,-2.571 1.946,-4.722 4.517,-4.801Z" style="fill:#a7b6c2;"/><path d="M2505.41,25.905c2.572,-0.079 4.723,1.945 4.802,4.516c0.078,2.572 -1.946,4.723 -4.517,4.802c-2.571,0.078 -4.723,-1.946 -4.801,-4.517c-0.079,-2.571 1.945,-4.723 4.516,-4.801Z" style="fill:#a7b6c2;"/><path d="M2528.71,25.193c2.572,-0.078 4.723,1.946 4.802,4.517c0.078,2.571 -1.946,4.723 -4.517,4.801c-2.571,0.079 -4.723,-1.945 -4.801,-4.516c-0.079,-2.572 1.945,-4.723 4.516,-4.802Z" style="fill:#a7b6c2;"/><path d="M2506.12,49.2c2.571,-0.079 4.723,1.945 4.801,4.516c0.079,2.572 -1.945,4.723 -4.517,4.802c-2.571,0.078 -4.722,-1.946 -4.801,-4.517c-0.078,-2.571 1.945,-4.723 4.517,-4.801Z" style="fill:#a7b6c2;"/><path d="M2529.42,48.488c2.571,-0.078 4.722,1.946 4.801,4.517c0.078,2.571 -1.945,4.723 -4.517,4.801c-2.571,0.079 -4.722,-1.945 -4.801,-4.516c-0.079,-2.572 1.945,-4.723 4.517,-4.802Z" style="fill:#a7b6c2;"/><path d="M2506.83,72.494c2.572,-0.078 4.723,1.946 4.801,4.517c0.079,2.572 -1.945,4.723 -4.516,4.801c-2.572,0.079 -4.723,-1.945 -4.801,-4.516c-0.079,-2.572 1.945,-4.723 4.516,-4.802Z" style="fill:#a7b6c2;"/><path d="M2532.26,141.668c2.572,-0.079 4.723,1.945 4.802,4.516c0.078,2.572 -1.946,4.723 -4.517,4.802c-2.572,0.078 -4.723,-1.946 -4.801,-4.517c-0.079,-2.571 1.945,-4.723 4.516,-4.801Z" style="fill:#a7b6c2;"/><path d="M2507.55,95.789c2.571,-0.078 4.722,1.946 4.801,4.517c0.078,2.571 -1.945,4.723 -4.517,4.801c-2.571,0.079 -4.723,-1.945 -4.801,-4.516c-0.079,-2.572 1.945,-4.723 4.517,-4.802Z" style="fill:#a7b6c2;"/><path d="M2530.84,95.078c2.572,-0.079 4.723,1.945 4.802,4.517c0.078,2.571 -1.946,4.722 -4.517,4.801c-2.571,0.078 -4.723,-1.945 -4.801,-4.517c-0.079,-2.571 1.945,-4.723 4.516,-4.801Z" style="fill:#a7b6c2;"/><path d="M2508.26,119.084c2.571,-0.078 4.723,1.946 4.801,4.517c0.079,2.571 -1.945,4.723 -4.516,4.801c-2.572,0.079 -4.723,-1.945 -4.802,-4.517c-0.078,-2.571 1.946,-4.722 4.517,-4.801Z" style="fill:#a7b6c2;"/><path d="M2531.55,118.373c2.571,-0.079 4.723,1.945 4.801,4.516c0.079,2.572 -1.945,4.723 -4.517,4.802c-2.571,0.078 -4.722,-1.946 -4.801,-4.517c-0.078,-2.571 1.946,-4.723 4.517,-4.801Z" style="fill:#a7b6c2;"/><path d="M2508.97,142.379c2.572,-0.078 4.723,1.945 4.802,4.517c0.078,2.571 -1.946,4.722 -4.517,4.801c-2.571,0.079 -4.723,-1.945 -4.801,-4.517c-0.079,-2.571 1.945,-4.722 4.516,-4.801Z" style="fill:#a7b6c2;"/><path d="M2552,24.482c2.572,-0.079 4.723,1.945 4.801,4.517c0.079,2.571 -1.945,4.722 -4.516,4.801c-2.572,0.078 -4.723,-1.945 -4.802,-4.517c-0.078,-2.571 1.946,-4.722 4.517,-4.801Z" style="fill:#a7b6c2;"/><path d="M2552.71,47.777c2.571,-0.079 4.722,1.945 4.801,4.517c0.078,2.571 -1.946,4.722 -4.517,4.801c-2.571,0.078 -4.723,-1.946 -4.801,-4.517c-0.079,-2.571 1.945,-4.723 4.517,-4.801Z" style="fill:#a7b6c2;"/><path d="M2553.42,71.072c2.571,-0.079 4.723,1.945 4.801,4.516c0.079,2.572 -1.945,4.723 -4.517,4.802c-2.571,0.078 -4.722,-1.946 -4.801,-4.517c-0.078,-2.571 1.946,-4.723 4.517,-4.801Z" style="fill:#a7b6c2;"/><path d="M2554.14,94.367c2.572,-0.079 4.723,1.945 4.802,4.516c0.078,2.572 -1.946,4.723 -4.517,4.801c-2.571,0.079 -4.723,-1.945 -4.801,-4.516c-0.079,-2.572 1.945,-4.723 4.516,-4.801Z" style="fill:#a7b6c2;"/><path d="M2554.85,117.661c2.571,-0.078 4.722,1.946 4.801,4.517c0.079,2.571 -1.945,4.723 -4.517,4.801c-2.571,0.079 -4.722,-1.945 -4.801,-4.516c-0.078,-2.572 1.945,-4.723 4.517,-4.802Z" style="fill:#a7b6c2;"/><path d="M2555.56,140.956c2.571,-0.078 4.723,1.946 4.801,4.517c0.079,2.571 -1.945,4.723 -4.516,4.801c-2.572,0.079 -4.723,-1.945 -4.802,-4.516c-0.078,-2.572 1.946,-4.723 4.517,-4.802Z" style="fill:#a7b6c2;"/><path d="M2509.68,165.674c2.571,-0.079 4.723,1.945 4.801,4.517c0.079,2.571 -1.945,4.722 -4.517,4.801c-2.571,0.078 -4.722,-1.946 -4.801,-4.517c-0.078,-2.571 1.945,-4.723 4.517,-4.801Z" style="fill:#a7b6c2;"/><path d="M2532.97,164.963c2.571,-0.079 4.722,1.945 4.801,4.516c0.078,2.572 -1.945,4.723 -4.517,4.801c-2.571,0.079 -4.722,-1.945 -4.801,-4.516c-0.079,-2.572 1.945,-4.723 4.517,-4.801Z" style="fill:#a7b6c2;"/><path d="M2510.39,188.969c2.572,-0.079 4.723,1.945 4.801,4.516c0.079,2.572 -1.945,4.723 -4.516,4.802c-2.572,0.078 -4.723,-1.946 -4.801,-4.517c-0.079,-2.571 1.945,-4.723 4.516,-4.801Z" style="fill:#a7b6c2;"/><path d="M2533.69,188.257c2.571,-0.078 4.723,1.946 4.801,4.517c0.079,2.571 -1.945,4.723 -4.516,4.801c-2.572,0.079 -4.723,-1.945 -4.802,-4.516c-0.078,-2.572 1.946,-4.723 4.517,-4.802Z" style="fill:#a7b6c2;"/><path d="M2556.27,164.251c2.571,-0.078 4.722,1.945 4.801,4.517c0.078,2.571 -1.946,4.723 -4.517,4.801c-2.571,0.079 -4.723,-1.945 -4.801,-4.517c-0.079,-2.571 1.945,-4.722 4.517,-4.801Z" style="fill:#a7b6c2;"/><path d="M2556.98,187.546c2.571,-0.079 4.723,1.945 4.801,4.517c0.079,2.571 -1.945,4.722 -4.517,4.801c-2.571,0.078 -4.722,-1.945 -4.801,-4.517c-0.078,-2.571 1.946,-4.723 4.517,-4.801Z" style="fill:#a7b6c2;"/><path d="M2580.28,186.835c2.571,-0.079 4.722,1.945 4.801,4.516c0.079,2.572 -1.945,4.723 -4.517,4.802c-2.571,0.078 -4.722,-1.946 -4.801,-4.517c-0.078,-2.572 1.945,-4.723 4.517,-4.801Z" style="fill:#a7b6c2;"/><path d="M2603.57,186.123c2.571,-0.078 4.722,1.946 4.801,4.517c0.078,2.571 -1.945,4.723 -4.517,4.801c-2.571,0.079 -4.723,-1.945 -4.801,-4.517c-0.079,-2.571 1.945,-4.722 4.517,-4.801Z" style="fill:#a7b6c2;"/><path d="M2626.87,185.412c2.572,-0.079 4.723,1.945 4.802,4.516c0.078,2.572 -1.946,4.723 -4.517,4.802c-2.571,0.078 -4.723,-1.946 -4.801,-4.517c-0.079,-2.571 1.945,-4.723 4.516,-4.801Z" style="fill:#a7b6c2;"/><path d="M2511.1,212.264c2.571,-0.079 4.722,1.945 4.801,4.516c0.078,2.572 -1.945,4.723 -4.517,4.802c-2.571,0.078 -4.723,-1.946 -4.801,-4.517c-0.079,-2.572 1.945,-4.723 4.517,-4.801Z" style="fill:#a7b6c2;"/><path d="M2534.4,211.552c2.572,-0.078 4.723,1.946 4.802,4.517c0.078,2.571 -1.946,4.723 -4.517,4.801c-2.571,0.079 -4.723,-1.945 -4.801,-4.517c-0.079,-2.571 1.945,-4.722 4.516,-4.801Z" style="fill:#a7b6c2;"/><path d="M2511.81,235.558c2.571,-0.078 4.723,1.946 4.801,4.517c0.079,2.571 -1.945,4.723 -4.516,4.801c-2.572,0.079 -4.723,-1.945 -4.802,-4.516c-0.078,-2.572 1.946,-4.723 4.517,-4.802Z" style="fill:#a7b6c2;"/><path d="M2535.11,234.847c2.571,-0.078 4.723,1.945 4.801,4.517c0.079,2.571 -1.945,4.722 -4.517,4.801c-2.571,0.079 -4.722,-1.945 -4.801,-4.517c-0.078,-2.571 1.945,-4.722 4.517,-4.801Z" style="fill:#a7b6c2;"/><path d="M2557.69,210.841c2.572,-0.079 4.723,1.945 4.802,4.516c0.078,2.572 -1.946,4.723 -4.517,4.802c-2.571,0.078 -4.723,-1.946 -4.801,-4.517c-0.079,-2.571 1.945,-4.723 4.516,-4.801Z" style="fill:#a7b6c2;"/><path d="M2580.99,210.129c2.572,-0.078 4.723,1.946 4.801,4.517c0.079,2.571 -1.945,4.723 -4.516,4.801c-2.572,0.079 -4.723,-1.945 -4.802,-4.516c-0.078,-2.572 1.946,-4.723 4.517,-4.802Z" style="fill:#a7b6c2;"/><path d="M2604.28,209.418c2.571,-0.079 4.723,1.945 4.801,4.517c0.079,2.571 -1.945,4.722 -4.516,4.801c-2.572,0.078 -4.723,-1.945 -4.802,-4.517c-0.078,-2.571 1.946,-4.722 4.517,-4.801Z" style="fill:#a7b6c2;"/><path d="M2558.4,234.136c2.571,-0.079 4.722,1.945 4.801,4.516c0.078,2.572 -1.945,4.723 -4.517,4.802c-2.571,0.078 -4.722,-1.946 -4.801,-4.517c-0.079,-2.571 1.945,-4.723 4.517,-4.801Z" style="fill:#a7b6c2;"/><path d="M2581.7,233.424c2.571,-0.078 4.722,1.946 4.801,4.517c0.078,2.571 -1.946,4.723 -4.517,4.801c-2.571,0.079 -4.723,-1.945 -4.801,-4.516c-0.079,-2.572 1.945,-4.723 4.517,-4.802Z" style="fill:#a7b6c2;"/><path d="M2604.99,232.713c2.572,-0.079 4.723,1.945 4.802,4.517c0.078,2.571 -1.946,4.722 -4.517,4.801c-2.571,0.078 -4.723,-1.946 -4.801,-4.517c-0.079,-2.571 1.945,-4.723 4.516,-4.801Z" style="fill:#a7b6c2;"/><path d="M2627.58,208.707c2.571,-0.079 4.723,1.945 4.801,4.516c0.079,2.572 -1.945,4.723 -4.517,4.802c-2.571,0.078 -4.722,-1.946 -4.801,-4.517c-0.078,-2.571 1.945,-4.723 4.517,-4.801Z" style="fill:#a7b6c2;"/><path d="M2628.29,232.001c2.572,-0.078 4.723,1.946 4.801,4.517c0.079,2.572 -1.945,4.723 -4.516,4.801c-2.572,0.079 -4.723,-1.945 -4.801,-4.516c-0.079,-2.572 1.945,-4.723 4.516,-4.802Z" style="fill:#a7b6c2;"/></g></g></g></g><path id="Dark-Blob-1" serif:id="Dark Blob 1" d="M1245.19,80.195l3.721,218.275l186.05,-1.504l-3.166,-96.562l-112.42,-1.004l-1.07,-119.564l-73.115,0.359Z" style="fill:none;"/><clipPath id="_clip4"><path d="M1245.19,80.195l3.721,218.275l186.05,-1.504l-3.166,-96.562l-112.42,-1.004l-1.07,-119.564l-73.115,0.359Z"/></clipPath><g clip-path="url(#_clip4)"><g id="Grid-Dark3" serif:id="Grid Dark"><g><g id="Grid-Texture4" serif:id="Grid Texture"><path d="M1281.94,97.669c2.572,-0.056 4.705,1.987 4.76,4.559c0.056,2.572 -1.987,4.705 -4.559,4.761c-2.572,0.055 -4.705,-1.988 -4.761,-4.56c-0.055,-2.572 1.988,-4.705 4.56,-4.76Z" style="fill:#a7b6c2;"/><path d="M1258.64,98.172c2.572,-0.056 4.706,1.987 4.761,4.559c0.056,2.572 -1.987,4.705 -4.559,4.761c-2.572,0.055 -4.706,-1.988 -4.761,-4.56c-0.056,-2.572 1.987,-4.705 4.559,-4.76Z" style="fill:#a7b6c2;"/><path d="M1305.24,97.166c2.572,-0.056 4.705,1.987 4.761,4.559c0.055,2.572 -1.988,4.705 -4.56,4.761c-2.572,0.055 -4.705,-1.988 -4.76,-4.56c-0.056,-2.572 1.987,-4.705 4.559,-4.76Z" style="fill:#a7b6c2;"/><path d="M1259.14,121.472c2.572,-0.056 4.706,1.987 4.761,4.559c0.056,2.572 -1.987,4.705 -4.559,4.761c-2.572,0.055 -4.706,-1.988 -4.761,-4.559c-0.056,-2.572 1.987,-4.706 4.559,-4.761Z" style="fill:#a7b6c2;"/><path d="M1282.45,120.969c2.572,-0.056 4.705,1.987 4.76,4.559c0.056,2.572 -1.987,4.705 -4.559,4.761c-2.572,0.055 -4.705,-1.988 -4.761,-4.56c-0.055,-2.571 1.988,-4.705 4.56,-4.76Z" style="fill:#a7b6c2;"/><path d="M1305.75,120.466c2.572,-0.056 4.705,1.987 4.761,4.559c0.055,2.572 -1.988,4.705 -4.56,4.761c-2.572,0.055 -4.705,-1.988 -4.76,-4.56c-0.056,-2.571 1.987,-4.705 4.559,-4.76Z" style="fill:#a7b6c2;"/><path d="M1259.65,144.772c2.572,-0.055 4.706,1.988 4.761,4.56c0.056,2.572 -1.987,4.705 -4.559,4.76c-2.572,0.056 -4.705,-1.987 -4.761,-4.559c-0.056,-2.572 1.987,-4.705 4.559,-4.761Z" style="fill:#a7b6c2;"/><path d="M1282.95,144.269c2.572,-0.055 4.705,1.988 4.76,4.56c0.056,2.572 -1.987,4.705 -4.559,4.76c-2.572,0.056 -4.705,-1.987 -4.761,-4.559c-0.055,-2.572 1.988,-4.705 4.56,-4.761Z" style="fill:#a7b6c2;"/><path d="M1306.25,143.766c2.572,-0.055 4.705,1.988 4.761,4.56c0.055,2.571 -1.988,4.705 -4.56,4.76c-2.572,0.056 -4.705,-1.987 -4.76,-4.559c-0.056,-2.572 1.987,-4.705 4.559,-4.761Z" style="fill:#a7b6c2;"/><path d="M1260.15,168.072c2.572,-0.055 4.706,1.988 4.761,4.56c0.056,2.572 -1.987,4.705 -4.559,4.761c-2.572,0.055 -4.705,-1.988 -4.761,-4.56c-0.056,-2.572 1.987,-4.705 4.559,-4.761Z" style="fill:#a7b6c2;"/><path d="M1331.06,213.164c2.572,-0.056 4.705,1.987 4.761,4.559c0.056,2.572 -1.988,4.706 -4.559,4.761c-2.572,0.056 -4.706,-1.987 -4.761,-4.559c-0.056,-2.572 1.987,-4.706 4.559,-4.761Z" style="fill:#a7b6c2;"/><path d="M1283.45,167.569c2.572,-0.055 4.705,1.988 4.76,4.56c0.056,2.572 -1.987,4.705 -4.559,4.76c-2.572,0.056 -4.705,-1.987 -4.761,-4.559c-0.055,-2.572 1.988,-4.705 4.56,-4.761Z" style="fill:#a7b6c2;"/><path d="M1306.75,167.066c2.572,-0.055 4.705,1.988 4.761,4.56c0.055,2.572 -1.988,4.705 -4.56,4.76c-2.572,0.056 -4.705,-1.987 -4.76,-4.559c-0.056,-2.572 1.987,-4.705 4.559,-4.761Z" style="fill:#a7b6c2;"/><path d="M1260.65,191.373c2.572,-0.056 4.706,1.987 4.761,4.559c0.056,2.572 -1.987,4.705 -4.559,4.761c-2.572,0.055 -4.705,-1.988 -4.761,-4.56c-0.056,-2.572 1.988,-4.705 4.559,-4.76Z" style="fill:#a7b6c2;"/><path d="M1283.95,190.87c2.572,-0.056 4.705,1.987 4.76,4.559c0.056,2.572 -1.987,4.705 -4.559,4.761c-2.572,0.055 -4.705,-1.988 -4.761,-4.56c-0.055,-2.572 1.988,-4.705 4.56,-4.76Z" style="fill:#a7b6c2;"/><path d="M1307.26,190.367c2.572,-0.056 4.705,1.987 4.761,4.559c0.055,2.572 -1.988,4.705 -4.56,4.761c-2.572,0.055 -4.705,-1.988 -4.76,-4.56c-0.056,-2.572 1.987,-4.705 4.559,-4.76Z" style="fill:#a7b6c2;"/><path d="M1261.16,214.673c2.572,-0.056 4.706,1.987 4.761,4.559c0.056,2.572 -1.987,4.706 -4.559,4.761c-2.572,0.056 -4.705,-1.987 -4.761,-4.559c-0.055,-2.572 1.988,-4.706 4.559,-4.761Z" style="fill:#a7b6c2;"/><path d="M1284.46,214.17c2.572,-0.056 4.705,1.987 4.76,4.559c0.056,2.572 -1.987,4.706 -4.559,4.761c-2.572,0.056 -4.705,-1.987 -4.761,-4.559c-0.055,-2.572 1.988,-4.706 4.56,-4.761Z" style="fill:#a7b6c2;"/><path d="M1307.76,213.667c2.572,-0.056 4.705,1.987 4.761,4.559c0.055,2.572 -1.988,4.706 -4.56,4.761c-2.572,0.056 -4.705,-1.987 -4.76,-4.559c-0.056,-2.572 1.987,-4.706 4.559,-4.761Z" style="fill:#a7b6c2;"/><path d="M1354.36,212.661c2.572,-0.056 4.705,1.987 4.76,4.559c0.056,2.572 -1.987,4.705 -4.559,4.761c-2.572,0.056 -4.705,-1.987 -4.761,-4.559c-0.055,-2.572 1.988,-4.706 4.56,-4.761Z" style="fill:#a7b6c2;"/><path d="M1377.66,212.158c2.572,-0.056 4.705,1.987 4.761,4.559c0.055,2.572 -1.988,4.705 -4.56,4.761c-2.572,0.056 -4.705,-1.988 -4.761,-4.559c-0.055,-2.572 1.988,-4.706 4.56,-4.761Z" style="fill:#a7b6c2;"/><path d="M1400.96,211.655c2.572,-0.056 4.705,1.987 4.761,4.559c0.055,2.572 -1.988,4.705 -4.56,4.761c-2.572,0.056 -4.705,-1.988 -4.76,-4.559c-0.056,-2.572 1.987,-4.706 4.559,-4.761Z" style="fill:#a7b6c2;"/><path d="M1261.66,237.973c2.572,-0.055 4.706,1.988 4.761,4.56c0.056,2.572 -1.987,4.705 -4.559,4.76c-2.572,0.056 -4.705,-1.987 -4.761,-4.559c-0.055,-2.572 1.988,-4.705 4.559,-4.761Z" style="fill:#a7b6c2;"/><path d="M1284.96,237.47c2.572,-0.055 4.705,1.988 4.76,4.56c0.056,2.572 -1.987,4.705 -4.559,4.76c-2.572,0.056 -4.705,-1.987 -4.761,-4.559c-0.055,-2.572 1.988,-4.705 4.56,-4.761Z" style="fill:#a7b6c2;"/><path d="M1308.26,236.967c2.572,-0.055 4.705,1.988 4.761,4.56c0.055,2.572 -1.988,4.705 -4.56,4.76c-2.572,0.056 -4.705,-1.987 -4.76,-4.559c-0.056,-2.572 1.987,-4.705 4.559,-4.761Z" style="fill:#a7b6c2;"/><path d="M1331.56,236.464c2.572,-0.055 4.705,1.988 4.761,4.56c0.056,2.572 -1.988,4.705 -4.559,4.76c-2.572,0.056 -4.706,-1.987 -4.761,-4.559c-0.056,-2.572 1.987,-4.705 4.559,-4.761Z" style="fill:#a7b6c2;"/><path d="M1262.16,261.274c2.571,-0.056 4.705,1.987 4.76,4.559c0.056,2.572 -1.987,4.705 -4.559,4.761c-2.572,0.055 -4.705,-1.988 -4.761,-4.56c-0.055,-2.572 1.988,-4.705 4.56,-4.76Z" style="fill:#a7b6c2;"/><path d="M1285.46,260.771c2.572,-0.056 4.705,1.987 4.76,4.559c0.056,2.572 -1.987,4.705 -4.559,4.761c-2.572,0.055 -4.705,-1.988 -4.761,-4.56c-0.055,-2.572 1.988,-4.705 4.56,-4.76Z" style="fill:#a7b6c2;"/><path d="M1308.76,260.267c2.572,-0.055 4.705,1.988 4.761,4.56c0.055,2.572 -1.988,4.705 -4.56,4.761c-2.572,0.055 -4.705,-1.988 -4.76,-4.56c-0.056,-2.572 1.987,-4.705 4.559,-4.761Z" style="fill:#a7b6c2;"/><path d="M1332.06,259.764c2.572,-0.055 4.705,1.988 4.761,4.56c0.056,2.572 -1.987,4.705 -4.559,4.761c-2.572,0.055 -4.706,-1.988 -4.761,-4.56c-0.056,-2.572 1.987,-4.705 4.559,-4.761Z" style="fill:#a7b6c2;"/><path d="M1354.86,235.961c2.572,-0.055 4.705,1.988 4.76,4.56c0.056,2.572 -1.987,4.705 -4.559,4.76c-2.572,0.056 -4.705,-1.987 -4.761,-4.559c-0.055,-2.572 1.988,-4.705 4.56,-4.761Z" style="fill:#a7b6c2;"/><path d="M1378.16,235.458c2.572,-0.055 4.705,1.988 4.761,4.56c0.055,2.572 -1.988,4.705 -4.56,4.76c-2.572,0.056 -4.705,-1.987 -4.761,-4.559c-0.055,-2.572 1.988,-4.705 4.56,-4.761Z" style="fill:#a7b6c2;"/><path d="M1401.46,234.955c2.572,-0.055 4.705,1.988 4.761,4.56c0.055,2.572 -1.988,4.705 -4.56,4.76c-2.572,0.056 -4.705,-1.987 -4.76,-4.559c-0.056,-2.572 1.987,-4.705 4.559,-4.761Z" style="fill:#a7b6c2;"/><path d="M1355.37,259.261c2.572,-0.055 4.705,1.988 4.76,4.56c0.056,2.572 -1.987,4.705 -4.559,4.761c-2.572,0.055 -4.705,-1.988 -4.761,-4.56c-0.055,-2.572 1.988,-4.705 4.56,-4.761Z" style="fill:#a7b6c2;"/><path d="M1378.66,258.758c2.572,-0.055 4.705,1.988 4.761,4.56c0.055,2.572 -1.988,4.705 -4.56,4.761c-2.572,0.055 -4.705,-1.988 -4.761,-4.56c-0.055,-2.572 1.988,-4.705 4.56,-4.761Z" style="fill:#a7b6c2;"/><path d="M1401.96,258.255c2.572,-0.055 4.705,1.988 4.761,4.56c0.055,2.572 -1.988,4.705 -4.56,4.761c-2.572,0.055 -4.705,-1.988 -4.76,-4.56c-0.056,-2.572 1.987,-4.705 4.559,-4.761Z" style="fill:#a7b6c2;"/><path d="M1424.26,211.152c2.572,-0.056 4.706,1.987 4.761,4.559c0.056,2.572 -1.987,4.705 -4.559,4.761c-2.572,0.055 -4.705,-1.988 -4.761,-4.559c-0.056,-2.572 1.987,-4.706 4.559,-4.761Z" style="fill:#a7b6c2;"/><path d="M1424.76,234.452c2.572,-0.055 4.706,1.988 4.761,4.56c0.056,2.572 -1.987,4.705 -4.559,4.76c-2.572,0.056 -4.705,-1.987 -4.761,-4.559c-0.056,-2.572 1.988,-4.705 4.559,-4.761Z" style="fill:#a7b6c2;"/><path d="M1425.27,257.752c2.572,-0.055 4.706,1.988 4.761,4.56c0.056,2.572 -1.987,4.705 -4.559,4.761c-2.572,0.055 -4.705,-1.988 -4.761,-4.56c-0.056,-2.572 1.988,-4.705 4.559,-4.761Z" style="fill:#a7b6c2;"/><path d="M1285.97,284.071c2.572,-0.056 4.705,1.987 4.76,4.559c0.056,2.572 -1.987,4.705 -4.559,4.761c-2.572,0.055 -4.705,-1.988 -4.761,-4.56c-0.055,-2.572 1.988,-4.705 4.56,-4.76Z" style="fill:#a7b6c2;"/><path d="M1262.67,284.574c2.571,-0.056 4.705,1.987 4.76,4.559c0.056,2.572 -1.987,4.705 -4.559,4.761c-2.572,0.055 -4.705,-1.988 -4.761,-4.56c-0.055,-2.571 1.988,-4.705 4.56,-4.76Z" style="fill:#a7b6c2;"/><path d="M1309.27,283.568c2.572,-0.056 4.705,1.987 4.761,4.559c0.055,2.572 -1.988,4.705 -4.56,4.761c-2.572,0.055 -4.705,-1.988 -4.76,-4.56c-0.056,-2.572 1.987,-4.705 4.559,-4.76Z" style="fill:#a7b6c2;"/><path d="M1332.57,283.065c2.572,-0.056 4.706,1.987 4.761,4.559c0.056,2.572 -1.987,4.705 -4.559,4.761c-2.572,0.055 -4.706,-1.988 -4.761,-4.56c-0.056,-2.572 1.987,-4.705 4.559,-4.76Z" style="fill:#a7b6c2;"/><path d="M1355.87,282.562c2.572,-0.056 4.705,1.987 4.76,4.559c0.056,2.572 -1.987,4.705 -4.559,4.761c-2.572,0.055 -4.705,-1.988 -4.761,-4.56c-0.055,-2.572 1.988,-4.705 4.56,-4.76Z" style="fill:#a7b6c2;"/><path d="M1379.17,282.059c2.572,-0.056 4.705,1.987 4.761,4.559c0.055,2.572 -1.988,4.705 -4.56,4.761c-2.572,0.055 -4.705,-1.988 -4.761,-4.56c-0.055,-2.572 1.988,-4.705 4.56,-4.76Z" style="fill:#a7b6c2;"/><path d="M1402.47,281.556c2.572,-0.056 4.705,1.987 4.761,4.559c0.055,2.572 -1.988,4.705 -4.56,4.761c-2.572,0.055 -4.705,-1.988 -4.76,-4.56c-0.056,-2.572 1.987,-4.705 4.559,-4.76Z" style="fill:#a7b6c2;"/><path d="M1425.77,281.053c2.572,-0.056 4.706,1.987 4.761,4.559c0.056,2.572 -1.987,4.705 -4.559,4.761c-2.572,0.055 -4.705,-1.988 -4.761,-4.56c-0.055,-2.572 1.988,-4.705 4.559,-4.76Z" style="fill:#a7b6c2;"/></g></g></g></g><path id="Dark-Blob-11" serif:id="Dark Blob 1" d="M1660.01,-159.522l5.673,218.233l186.03,-3.168l-4.03,-96.53l-112.425,0.002l-2.139,-119.55l-73.109,1.013Z" style="fill:none;"/><clipPath id="_clip5"><path d="M1660.01,-159.522l5.673,218.233l186.03,-3.168l-4.03,-96.53l-112.425,0.002l-2.139,-119.55l-73.109,1.013Z"/></clipPath><g clip-path="url(#_clip5)"><g id="Grid-Dark4" serif:id="Grid Dark"><g><g id="Grid-Texture5" serif:id="Grid Texture"><path d="M1677.88,-1.898c2.571,-0.078 4.722,1.946 4.801,4.517c0.078,2.571 -1.945,4.723 -4.517,4.801c-2.571,0.079 -4.723,-1.945 -4.801,-4.516c-0.079,-2.572 1.945,-4.723 4.517,-4.802Z" style="fill:#a7b6c2;"/><path d="M1701.18,-2.609c2.572,-0.078 4.723,1.945 4.802,4.517c0.078,2.571 -1.946,4.722 -4.517,4.801c-2.571,0.078 -4.723,-1.945 -4.801,-4.517c-0.079,-2.571 1.945,-4.722 4.516,-4.801Z" style="fill:#a7b6c2;"/><path d="M1724.47,-3.32c2.572,-0.079 4.723,1.945 4.802,4.516c0.078,2.572 -1.946,4.723 -4.517,4.802c-2.572,0.078 -4.723,-1.946 -4.801,-4.517c-0.079,-2.571 1.945,-4.723 4.516,-4.801Z" style="fill:#a7b6c2;"/><path d="M1747.77,-4.032c2.571,-0.078 4.723,1.946 4.801,4.517c0.079,2.571 -1.945,4.723 -4.516,4.801c-2.572,0.079 -4.723,-1.945 -4.802,-4.517c-0.078,-2.571 1.946,-4.722 4.517,-4.801Z" style="fill:#a7b6c2;"/><path d="M1678.59,21.397c2.571,-0.078 4.723,1.946 4.801,4.517c0.079,2.571 -1.945,4.723 -4.516,4.801c-2.572,0.079 -4.723,-1.945 -4.802,-4.516c-0.078,-2.572 1.946,-4.723 4.517,-4.802Z" style="fill:#a7b6c2;"/><path d="M1701.89,20.686c2.571,-0.079 4.723,1.945 4.801,4.517c0.079,2.571 -1.945,4.722 -4.517,4.801c-2.571,0.078 -4.722,-1.946 -4.801,-4.517c-0.078,-2.571 1.945,-4.723 4.517,-4.801Z" style="fill:#a7b6c2;"/><path d="M1725.18,19.974c2.571,-0.078 4.722,1.946 4.801,4.517c0.078,2.572 -1.945,4.723 -4.517,4.801c-2.571,0.079 -4.722,-1.945 -4.801,-4.516c-0.079,-2.572 1.945,-4.723 4.517,-4.802Z" style="fill:#a7b6c2;"/><path d="M1748.48,19.263c2.571,-0.078 4.722,1.945 4.801,4.517c0.078,2.571 -1.946,4.723 -4.517,4.801c-2.571,0.079 -4.723,-1.945 -4.801,-4.517c-0.079,-2.571 1.945,-4.722 4.517,-4.801Z" style="fill:#a7b6c2;"/><path d="M1771.06,-4.743c2.571,-0.079 4.723,1.945 4.801,4.517c0.079,2.571 -1.945,4.722 -4.516,4.801c-2.572,0.078 -4.723,-1.946 -4.802,-4.517c-0.078,-2.571 1.946,-4.723 4.517,-4.801Z" style="fill:#a7b6c2;"/><path d="M1794.36,-5.455c2.571,-0.078 4.723,1.946 4.801,4.517c0.079,2.572 -1.945,4.723 -4.517,4.801c-2.571,0.079 -4.722,-1.945 -4.801,-4.516c-0.078,-2.572 1.945,-4.723 4.517,-4.802Z" style="fill:#a7b6c2;"/><path d="M1817.65,-6.166c2.571,-0.078 4.722,1.945 4.801,4.517c0.078,2.571 -1.945,4.722 -4.517,4.801c-2.571,0.079 -4.722,-1.945 -4.801,-4.517c-0.079,-2.571 1.945,-4.722 4.517,-4.801Z" style="fill:#a7b6c2;"/><path d="M1771.77,18.552c2.572,-0.079 4.723,1.945 4.802,4.516c0.078,2.572 -1.946,4.723 -4.517,4.802c-2.571,0.078 -4.723,-1.946 -4.801,-4.517c-0.079,-2.571 1.945,-4.723 4.516,-4.801Z" style="fill:#a7b6c2;"/><path d="M1795.07,17.84c2.572,-0.078 4.723,1.946 4.801,4.517c0.079,2.571 -1.945,4.723 -4.516,4.801c-2.572,0.079 -4.723,-1.945 -4.801,-4.516c-0.079,-2.572 1.945,-4.723 4.516,-4.802Z" style="fill:#a7b6c2;"/><path d="M1818.36,17.129c2.571,-0.079 4.723,1.945 4.801,4.517c0.079,2.571 -1.945,4.722 -4.516,4.801c-2.572,0.078 -4.723,-1.945 -4.802,-4.517c-0.078,-2.571 1.946,-4.723 4.517,-4.801Z" style="fill:#a7b6c2;"/><path d="M1840.95,-6.877c2.571,-0.079 4.722,1.945 4.801,4.516c0.078,2.572 -1.946,4.723 -4.517,4.802c-2.571,0.078 -4.723,-1.946 -4.801,-4.517c-0.079,-2.571 1.945,-4.723 4.517,-4.801Z" style="fill:#a7b6c2;"/><path d="M1841.66,16.418c2.571,-0.079 4.723,1.945 4.801,4.516c0.079,2.572 -1.945,4.723 -4.517,4.801c-2.571,0.079 -4.722,-1.945 -4.801,-4.516c-0.078,-2.572 1.946,-4.723 4.517,-4.801Z" style="fill:#a7b6c2;"/><path d="M1702.6,43.981c2.572,-0.079 4.723,1.945 4.801,4.516c0.079,2.572 -1.945,4.723 -4.516,4.802c-2.572,0.078 -4.723,-1.946 -4.801,-4.517c-0.079,-2.571 1.945,-4.723 4.516,-4.801Z" style="fill:#a7b6c2;"/><path d="M1679.31,44.692c2.572,-0.078 4.723,1.945 4.802,4.517c0.078,2.571 -1.946,4.723 -4.517,4.801c-2.571,0.079 -4.723,-1.945 -4.801,-4.517c-0.079,-2.571 1.945,-4.722 4.516,-4.801Z" style="fill:#a7b6c2;"/><path d="M1725.89,43.269c2.571,-0.078 4.723,1.946 4.801,4.517c0.079,2.571 -1.945,4.723 -4.516,4.801c-2.572,0.079 -4.723,-1.945 -4.802,-4.516c-0.078,-2.572 1.946,-4.723 4.517,-4.802Z" style="fill:#a7b6c2;"/><path d="M1749.19,42.558c2.571,-0.079 4.723,1.945 4.801,4.517c0.079,2.571 -1.945,4.722 -4.517,4.801c-2.571,0.078 -4.722,-1.945 -4.801,-4.517c-0.078,-2.571 1.946,-4.723 4.517,-4.801Z" style="fill:#a7b6c2;"/><path d="M1772.49,41.847c2.571,-0.079 4.722,1.945 4.801,4.516c0.079,2.572 -1.945,4.723 -4.517,4.801c-2.571,0.079 -4.722,-1.945 -4.801,-4.516c-0.078,-2.572 1.945,-4.723 4.517,-4.801Z" style="fill:#a7b6c2;"/><path d="M1795.78,41.135c2.571,-0.078 4.722,1.945 4.801,4.517c0.078,2.571 -1.945,4.723 -4.517,4.801c-2.571,0.079 -4.723,-1.945 -4.801,-4.517c-0.079,-2.571 1.945,-4.722 4.517,-4.801Z" style="fill:#a7b6c2;"/><path d="M1819.07,40.424c2.572,-0.079 4.723,1.945 4.802,4.516c0.078,2.572 -1.946,4.723 -4.517,4.802c-2.571,0.078 -4.723,-1.946 -4.801,-4.517c-0.079,-2.571 1.945,-4.723 4.516,-4.801Z" style="fill:#a7b6c2;"/><path d="M1842.37,39.712c2.572,-0.078 4.723,1.946 4.802,4.517c0.078,2.571 -1.946,4.723 -4.517,4.801c-2.571,0.079 -4.723,-1.945 -4.801,-4.516c-0.079,-2.572 1.945,-4.723 4.516,-4.802Z" style="fill:#a7b6c2;"/></g></g></g></g><path id="Light-Blob-8" serif:id="Light Blob 8" d="M859.201,96.023l164.542,-4.4l-0.905,116.674l-158.201,6.143l-5.436,-118.417Z" style="fill:none;"/><clipPath id="_clip6"><path d="M859.201,96.023l164.542,-4.4l-0.905,116.674l-158.201,6.143l-5.436,-118.417Z"/></clipPath><g clip-path="url(#_clip6)"><g id="Grid-Light" serif:id="Grid Light"><g><g id="Grid-Texture6" serif:id="Grid Texture"><path d="M873.236,125.696c2.571,-0.079 4.722,1.945 4.801,4.517c0.078,2.571 -1.945,4.722 -4.517,4.801c-2.571,0.078 -4.722,-1.945 -4.801,-4.517c-0.079,-2.571 1.945,-4.722 4.517,-4.801Z" style="fill:#ced9e0;"/><path d="M872.524,102.401c2.572,-0.078 4.723,1.946 4.802,4.517c0.078,2.571 -1.946,4.723 -4.517,4.801c-2.571,0.079 -4.723,-1.945 -4.801,-4.517c-0.079,-2.571 1.945,-4.722 4.516,-4.801Z" style="fill:#ced9e0;"/><path d="M875.37,195.581c2.571,-0.079 4.723,1.945 4.801,4.516c0.079,2.572 -1.945,4.723 -4.517,4.802c-2.571,0.078 -4.722,-1.946 -4.801,-4.517c-0.078,-2.572 1.946,-4.723 4.517,-4.801Z" style="fill:#ced9e0;"/><path d="M873.947,148.991c2.571,-0.079 4.723,1.945 4.801,4.517c0.079,2.571 -1.945,4.722 -4.516,4.801c-2.572,0.078 -4.723,-1.946 -4.802,-4.517c-0.078,-2.571 1.946,-4.723 4.517,-4.801Z" style="fill:#ced9e0;"/><path d="M874.658,172.286c2.572,-0.079 4.723,1.945 4.802,4.516c0.078,2.572 -1.946,4.723 -4.517,4.802c-2.571,0.078 -4.723,-1.946 -4.801,-4.517c-0.079,-2.571 1.945,-4.723 4.516,-4.801Z" style="fill:#ced9e0;"/><path d="M895.819,101.69c2.572,-0.079 4.723,1.945 4.801,4.516c0.079,2.572 -1.945,4.723 -4.516,4.802c-2.572,0.078 -4.723,-1.946 -4.802,-4.517c-0.078,-2.571 1.946,-4.723 4.517,-4.801Z" style="fill:#ced9e0;"/><path d="M919.114,100.978c2.571,-0.078 4.723,1.946 4.801,4.517c0.079,2.571 -1.945,4.723 -4.516,4.801c-2.572,0.079 -4.723,-1.945 -4.802,-4.516c-0.078,-2.572 1.946,-4.723 4.517,-4.802Z" style="fill:#ced9e0;"/><path d="M942.409,100.267c2.571,-0.079 4.723,1.945 4.801,4.517c0.079,2.571 -1.945,4.722 -4.517,4.801c-2.571,0.078 -4.722,-1.945 -4.801,-4.517c-0.078,-2.571 1.945,-4.722 4.517,-4.801Z" style="fill:#ced9e0;"/><path d="M896.531,124.985c2.571,-0.079 4.722,1.945 4.801,4.516c0.078,2.572 -1.946,4.723 -4.517,4.802c-2.571,0.078 -4.723,-1.946 -4.801,-4.517c-0.079,-2.571 1.945,-4.723 4.517,-4.801Z" style="fill:#ced9e0;"/><path d="M919.825,124.273c2.572,-0.078 4.723,1.946 4.802,4.517c0.078,2.571 -1.946,4.723 -4.517,4.801c-2.571,0.079 -4.723,-1.945 -4.801,-4.517c-0.079,-2.571 1.945,-4.722 4.516,-4.801Z" style="fill:#ced9e0;"/><path d="M943.12,123.562c2.572,-0.079 4.723,1.945 4.801,4.517c0.079,2.571 -1.945,4.722 -4.516,4.801c-2.572,0.078 -4.723,-1.946 -4.801,-4.517c-0.079,-2.571 1.945,-4.723 4.516,-4.801Z" style="fill:#ced9e0;"/><path d="M897.242,148.279c2.571,-0.078 4.723,1.946 4.801,4.517c0.079,2.572 -1.945,4.723 -4.516,4.801c-2.572,0.079 -4.723,-1.945 -4.802,-4.516c-0.078,-2.572 1.946,-4.723 4.517,-4.802Z" style="fill:#ced9e0;"/><path d="M920.537,147.568c2.571,-0.078 4.723,1.945 4.801,4.517c0.079,2.571 -1.945,4.722 -4.517,4.801c-2.571,0.079 -4.722,-1.945 -4.801,-4.517c-0.078,-2.571 1.945,-4.722 4.517,-4.801Z" style="fill:#ced9e0;"/><path d="M943.832,146.857c2.571,-0.079 4.722,1.945 4.801,4.516c0.078,2.572 -1.945,4.723 -4.517,4.802c-2.571,0.078 -4.723,-1.946 -4.801,-4.517c-0.079,-2.571 1.945,-4.723 4.517,-4.801Z" style="fill:#ced9e0;"/><path d="M897.953,171.574c2.572,-0.078 4.723,1.946 4.802,4.517c0.078,2.571 -1.946,4.723 -4.517,4.801c-2.571,0.079 -4.723,-1.945 -4.801,-4.516c-0.079,-2.572 1.945,-4.723 4.516,-4.802Z" style="fill:#ced9e0;"/><path d="M921.248,170.863c2.572,-0.079 4.723,1.945 4.801,4.517c0.079,2.571 -1.945,4.722 -4.516,4.801c-2.572,0.078 -4.723,-1.945 -4.802,-4.517c-0.078,-2.571 1.946,-4.723 4.517,-4.801Z" style="fill:#ced9e0;"/><path d="M944.543,170.152c2.571,-0.079 4.723,1.945 4.801,4.516c0.079,2.572 -1.945,4.723 -4.516,4.801c-2.572,0.079 -4.723,-1.945 -4.802,-4.516c-0.078,-2.572 1.946,-4.723 4.517,-4.801Z" style="fill:#ced9e0;"/><path d="M898.665,194.869c2.571,-0.078 4.722,1.946 4.801,4.517c0.079,2.571 -1.945,4.723 -4.517,4.801c-2.571,0.079 -4.722,-1.945 -4.801,-4.517c-0.078,-2.571 1.945,-4.722 4.517,-4.801Z" style="fill:#ced9e0;"/><path d="M921.96,194.158c2.571,-0.079 4.722,1.945 4.801,4.516c0.078,2.572 -1.946,4.723 -4.517,4.802c-2.571,0.078 -4.723,-1.946 -4.801,-4.517c-0.079,-2.571 1.945,-4.723 4.517,-4.801Z" style="fill:#ced9e0;"/><path d="M945.254,193.446c2.572,-0.078 4.723,1.946 4.802,4.517c0.078,2.571 -1.946,4.723 -4.517,4.801c-2.571,0.079 -4.723,-1.945 -4.801,-4.516c-0.079,-2.572 1.945,-4.723 4.516,-4.802Z" style="fill:#ced9e0;"/><path d="M965.704,99.556c2.571,-0.079 4.722,1.945 4.801,4.516c0.078,2.572 -1.945,4.723 -4.517,4.802c-2.571,0.078 -4.722,-1.946 -4.801,-4.517c-0.079,-2.572 1.945,-4.723 4.517,-4.801Z" style="fill:#ced9e0;"/><path d="M966.415,122.85c2.571,-0.078 4.723,1.946 4.801,4.517c0.079,2.571 -1.945,4.723 -4.516,4.801c-2.572,0.079 -4.723,-1.945 -4.802,-4.516c-0.078,-2.572 1.946,-4.723 4.517,-4.802Z" style="fill:#ced9e0;"/><path d="M967.126,146.145c2.572,-0.078 4.723,1.946 4.802,4.517c0.078,2.571 -1.946,4.723 -4.517,4.801c-2.571,0.079 -4.723,-1.945 -4.801,-4.516c-0.079,-2.572 1.945,-4.723 4.516,-4.802Z" style="fill:#ced9e0;"/><path d="M967.838,169.44c2.571,-0.078 4.723,1.945 4.801,4.517c0.079,2.571 -1.945,4.723 -4.517,4.801c-2.571,0.079 -4.722,-1.945 -4.801,-4.517c-0.078,-2.571 1.946,-4.722 4.517,-4.801Z" style="fill:#ced9e0;"/><path d="M968.549,192.735c2.572,-0.079 4.723,1.945 4.802,4.517c0.078,2.571 -1.946,4.722 -4.517,4.801c-2.572,0.078 -4.723,-1.945 -4.801,-4.517c-0.079,-2.571 1.945,-4.722 4.516,-4.801Z" style="fill:#ced9e0;"/><path d="M988.999,98.844c2.571,-0.078 4.722,1.946 4.801,4.517c0.078,2.571 -1.946,4.723 -4.517,4.801c-2.571,0.079 -4.723,-1.945 -4.801,-4.517c-0.079,-2.571 1.945,-4.722 4.517,-4.801Z" style="fill:#ced9e0;"/><path d="M1012.29,98.133c2.572,-0.079 4.723,1.945 4.802,4.516c0.078,2.572 -1.946,4.723 -4.517,4.802c-2.571,0.078 -4.723,-1.946 -4.801,-4.517c-0.079,-2.571 1.945,-4.723 4.516,-4.801Z" style="fill:#ced9e0;"/><path d="M989.71,122.139c2.571,-0.078 4.723,1.945 4.801,4.517c0.079,2.571 -1.945,4.722 -4.516,4.801c-2.572,0.079 -4.723,-1.945 -4.802,-4.517c-0.078,-2.571 1.946,-4.722 4.517,-4.801Z" style="fill:#ced9e0;"/><path d="M1013,121.428c2.571,-0.079 4.723,1.945 4.801,4.516c0.079,2.572 -1.945,4.723 -4.517,4.802c-2.571,0.078 -4.722,-1.946 -4.801,-4.517c-0.078,-2.571 1.945,-4.723 4.517,-4.801Z" style="fill:#ced9e0;"/><path d="M990.421,145.434c2.572,-0.079 4.723,1.945 4.802,4.517c0.078,2.571 -1.946,4.722 -4.517,4.801c-2.571,0.078 -4.723,-1.945 -4.801,-4.517c-0.079,-2.571 1.945,-4.723 4.516,-4.801Z" style="fill:#ced9e0;"/><path d="M1013.72,144.723c2.572,-0.079 4.723,1.945 4.801,4.516c0.079,2.572 -1.945,4.723 -4.516,4.801c-2.572,0.079 -4.723,-1.945 -4.801,-4.516c-0.079,-2.572 1.945,-4.723 4.516,-4.801Z" style="fill:#ced9e0;"/><path d="M991.133,168.729c2.571,-0.079 4.722,1.945 4.801,4.516c0.079,2.572 -1.945,4.723 -4.517,4.802c-2.571,0.078 -4.722,-1.946 -4.801,-4.517c-0.078,-2.571 1.945,-4.723 4.517,-4.801Z" style="fill:#ced9e0;"/><path d="M1014.43,168.017c2.571,-0.078 4.722,1.946 4.801,4.517c0.078,2.571 -1.946,4.723 -4.517,4.801c-2.571,0.079 -4.723,-1.945 -4.801,-4.516c-0.079,-2.572 1.945,-4.723 4.517,-4.802Z" style="fill:#ced9e0;"/><path d="M991.844,192.024c2.571,-0.079 4.723,1.945 4.801,4.516c0.079,2.572 -1.945,4.723 -4.516,4.802c-2.572,0.078 -4.723,-1.946 -4.802,-4.517c-0.078,-2.572 1.946,-4.723 4.517,-4.801Z" style="fill:#ced9e0;"/><path d="M1015.14,191.312c2.571,-0.078 4.723,1.946 4.801,4.517c0.079,2.571 -1.945,4.723 -4.516,4.801c-2.572,0.079 -4.723,-1.945 -4.802,-4.517c-0.078,-2.571 1.946,-4.722 4.517,-4.801Z" style="fill:#ced9e0;"/></g><g id="Grid-Texture7" serif:id="Grid Texture"></g></g></g></g><path id="Light-Blob-7" serif:id="Light Blob 7" d="M2155.68,130.261l91.631,-1.784l5.516,72.39l-93.98,-1.5l-3.167,-69.106Z" style="fill:none;"/><clipPath id="_clip7"><path d="M2155.68,130.261l91.631,-1.784l5.516,72.39l-93.98,-1.5l-3.167,-69.106Z"/></clipPath><g clip-path="url(#_clip7)"><g id="Grid-Light1" serif:id="Grid Light"><g><g id="Grid-Texture8" serif:id="Grid Texture"><path d="M2165.97,137.121c2.572,-0.079 4.723,1.945 4.802,4.517c0.078,2.571 -1.946,4.722 -4.517,4.801c-2.572,0.078 -4.723,-1.946 -4.801,-4.517c-0.079,-2.571 1.945,-4.723 4.516,-4.801Z" style="fill:#ced9e0;"/><path d="M2166.68,160.416c2.571,-0.079 4.722,1.945 4.801,4.516c0.078,2.572 -1.945,4.723 -4.517,4.802c-2.571,0.078 -4.723,-1.946 -4.801,-4.517c-0.079,-2.571 1.945,-4.723 4.517,-4.801Z" style="fill:#ced9e0;"/><path d="M2167.39,183.711c2.571,-0.079 4.723,1.945 4.801,4.516c0.079,2.572 -1.945,4.723 -4.516,4.801c-2.572,0.079 -4.723,-1.945 -4.802,-4.516c-0.078,-2.572 1.946,-4.723 4.517,-4.801Z" style="fill:#ced9e0;"/><path d="M2189.27,136.409c2.571,-0.078 4.723,1.946 4.801,4.517c0.079,2.571 -1.945,4.723 -4.516,4.801c-2.572,0.079 -4.723,-1.945 -4.802,-4.516c-0.078,-2.572 1.946,-4.723 4.517,-4.802Z" style="fill:#ced9e0;"/><path d="M2189.98,159.704c2.571,-0.078 4.722,1.946 4.801,4.517c0.078,2.571 -1.946,4.723 -4.517,4.801c-2.571,0.079 -4.723,-1.945 -4.801,-4.516c-0.079,-2.572 1.945,-4.723 4.517,-4.802Z" style="fill:#ced9e0;"/><path d="M2190.69,182.999c2.571,-0.078 4.723,1.945 4.801,4.517c0.079,2.571 -1.945,4.723 -4.517,4.801c-2.571,0.079 -4.722,-1.945 -4.801,-4.517c-0.078,-2.571 1.946,-4.722 4.517,-4.801Z" style="fill:#ced9e0;"/><path d="M2212.56,135.698c2.571,-0.078 4.723,1.945 4.801,4.517c0.079,2.571 -1.945,4.722 -4.516,4.801c-2.572,0.079 -4.723,-1.945 -4.802,-4.517c-0.078,-2.571 1.946,-4.722 4.517,-4.801Z" style="fill:#ced9e0;"/><path d="M2235.86,134.987c2.571,-0.079 4.723,1.945 4.801,4.516c0.079,2.572 -1.945,4.723 -4.517,4.802c-2.571,0.078 -4.722,-1.946 -4.801,-4.517c-0.078,-2.571 1.945,-4.723 4.517,-4.801Z" style="fill:#ced9e0;"/><path d="M2213.27,158.993c2.572,-0.079 4.723,1.945 4.802,4.517c0.078,2.571 -1.946,4.722 -4.517,4.801c-2.571,0.078 -4.723,-1.946 -4.801,-4.517c-0.079,-2.571 1.945,-4.723 4.516,-4.801Z" style="fill:#ced9e0;"/><path d="M2236.57,158.282c2.572,-0.079 4.723,1.945 4.801,4.516c0.079,2.572 -1.945,4.723 -4.516,4.801c-2.572,0.079 -4.723,-1.945 -4.801,-4.516c-0.079,-2.572 1.945,-4.723 4.516,-4.801Z" style="fill:#ced9e0;"/><path d="M2213.98,182.288c2.571,-0.079 4.722,1.945 4.801,4.516c0.079,2.572 -1.945,4.723 -4.517,4.802c-2.571,0.078 -4.722,-1.946 -4.801,-4.517c-0.078,-2.571 1.945,-4.723 4.517,-4.801Z" style="fill:#ced9e0;"/><path d="M2237.28,181.576c2.571,-0.078 4.722,1.946 4.801,4.517c0.078,2.571 -1.945,4.723 -4.517,4.801c-2.571,0.079 -4.723,-1.945 -4.801,-4.516c-0.079,-2.572 1.945,-4.723 4.517,-4.802Z" style="fill:#ced9e0;"/></g></g></g></g><path id="Light-Blob-9" serif:id="Light Blob 9" d="M1770.77,-0.353l100.067,-1.503l1.708,54.197l-20.686,5.221l0.744,19.722l-83.359,3.686l1.526,-81.323Z" style="fill:none;"/><clipPath id="_clip8"><path d="M1770.77,-0.353l100.067,-1.503l1.708,54.197l-20.686,5.221l0.744,19.722l-83.359,3.686l1.526,-81.323Z"/></clipPath><g clip-path="url(#_clip8)"><g id="Grid-Light2" serif:id="Grid Light"><g><g id="Grid-Texture9" serif:id="Grid Texture"><path d="M1814.51,13.321c2.572,-0.078 4.723,1.946 4.802,4.517c0.078,2.571 -1.946,4.723 -4.517,4.801c-2.572,0.079 -4.723,-1.945 -4.801,-4.517c-0.079,-2.571 1.945,-4.722 4.516,-4.801Z" style="fill:#ced9e0;"/><path d="M1791.22,14.033c2.572,-0.079 4.723,1.945 4.802,4.516c0.078,2.572 -1.946,4.723 -4.517,4.802c-2.571,0.078 -4.723,-1.946 -4.801,-4.517c-0.079,-2.571 1.945,-4.723 4.516,-4.801Z" style="fill:#ced9e0;"/><path d="M1837.81,12.61c2.571,-0.079 4.723,1.945 4.801,4.517c0.079,2.571 -1.945,4.722 -4.516,4.801c-2.572,0.078 -4.723,-1.946 -4.802,-4.517c-0.078,-2.571 1.946,-4.723 4.517,-4.801Z" style="fill:#ced9e0;"/><path d="M1861.1,11.898c2.571,-0.078 4.723,1.946 4.801,4.517c0.079,2.571 -1.945,4.723 -4.516,4.801c-2.572,0.079 -4.723,-1.945 -4.802,-4.516c-0.078,-2.572 1.946,-4.723 4.517,-4.802Z" style="fill:#ced9e0;"/><path d="M1791.93,37.327c2.571,-0.078 4.723,1.946 4.801,4.517c0.079,2.572 -1.945,4.723 -4.517,4.801c-2.571,0.079 -4.722,-1.945 -4.801,-4.516c-0.078,-2.572 1.945,-4.723 4.517,-4.802Z" style="fill:#ced9e0;"/><path d="M1815.23,36.616c2.571,-0.078 4.722,1.945 4.801,4.517c0.078,2.571 -1.945,4.722 -4.517,4.801c-2.571,0.079 -4.723,-1.945 -4.801,-4.517c-0.079,-2.571 1.945,-4.722 4.517,-4.801Z" style="fill:#ced9e0;"/><path d="M1838.52,35.905c2.571,-0.079 4.722,1.945 4.801,4.516c0.078,2.572 -1.946,4.723 -4.517,4.802c-2.571,0.078 -4.723,-1.946 -4.801,-4.517c-0.079,-2.571 1.945,-4.723 4.517,-4.801Z" style="fill:#ced9e0;"/><path d="M1861.82,35.193c2.572,-0.078 4.723,1.946 4.802,4.517c0.078,2.571 -1.946,4.723 -4.517,4.801c-2.571,0.079 -4.723,-1.945 -4.801,-4.516c-0.079,-2.572 1.945,-4.723 4.516,-4.802Z" style="fill:#ced9e0;"/><path d="M1792.64,60.622c2.572,-0.078 4.723,1.946 4.801,4.517c0.079,2.571 -1.945,4.723 -4.516,4.801c-2.572,0.079 -4.723,-1.945 -4.801,-4.516c-0.079,-2.572 1.945,-4.723 4.516,-4.802Z" style="fill:#ced9e0;"/><path d="M1815.94,59.911c2.571,-0.079 4.723,1.945 4.801,4.517c0.079,2.571 -1.945,4.722 -4.516,4.801c-2.572,0.078 -4.723,-1.945 -4.802,-4.517c-0.078,-2.571 1.946,-4.723 4.517,-4.801Z" style="fill:#ced9e0;"/><path d="M1839.23,59.2c2.571,-0.079 4.723,1.945 4.801,4.516c0.079,2.572 -1.945,4.723 -4.517,4.801c-2.571,0.079 -4.722,-1.945 -4.801,-4.516c-0.078,-2.572 1.946,-4.723 4.517,-4.801Z" style="fill:#ced9e0;"/></g></g></g></g><path id="Light-Blob-6" serif:id="Light Blob 6" d="M3004.01,124.486l-0.198,-31.114l70.753,1.18l1.236,24.665l92.714,1.126l2.934,64.218l-164.673,11.798l-2.766,-71.873Z" style="fill:none;"/><clipPath id="_clip9"><path d="M3004.01,124.486l-0.198,-31.114l70.753,1.18l1.236,24.665l92.714,1.126l2.934,64.218l-164.673,11.798l-2.766,-71.873Z"/></clipPath><g clip-path="url(#_clip9)"><g id="Grid-Light3" serif:id="Grid Light"><g><g id="Grid-Texture10" serif:id="Grid Texture"><path d="M3016.08,106.16c2.571,-0.078 4.722,1.946 4.801,4.517c0.078,2.571 -1.946,4.723 -4.517,4.801c-2.571,0.079 -4.723,-1.945 -4.801,-4.516c-0.079,-2.572 1.945,-4.723 4.517,-4.802Z" style="fill:#ced9e0;"/><path d="M3039.37,105.449c2.572,-0.079 4.723,1.945 4.802,4.517c0.078,2.571 -1.946,4.722 -4.517,4.801c-2.571,0.078 -4.723,-1.945 -4.801,-4.517c-0.079,-2.571 1.945,-4.722 4.516,-4.801Z" style="fill:#ced9e0;"/><path d="M3016.79,129.455c2.571,-0.078 4.723,1.946 4.801,4.517c0.079,2.571 -1.945,4.723 -4.517,4.801c-2.571,0.079 -4.722,-1.945 -4.801,-4.517c-0.078,-2.571 1.946,-4.722 4.517,-4.801Z" style="fill:#ced9e0;"/><path d="M3040.09,128.744c2.571,-0.079 4.722,1.945 4.801,4.517c0.079,2.571 -1.945,4.722 -4.517,4.801c-2.571,0.078 -4.722,-1.946 -4.801,-4.517c-0.078,-2.571 1.945,-4.723 4.517,-4.801Z" style="fill:#ced9e0;"/><path d="M3017.5,152.75c2.572,-0.078 4.723,1.945 4.802,4.517c0.078,2.571 -1.946,4.722 -4.517,4.801c-2.571,0.079 -4.723,-1.945 -4.801,-4.517c-0.079,-2.571 1.945,-4.722 4.516,-4.801Z" style="fill:#ced9e0;"/><path d="M3040.8,152.039c2.572,-0.079 4.723,1.945 4.801,4.516c0.079,2.572 -1.945,4.723 -4.516,4.802c-2.572,0.078 -4.723,-1.946 -4.802,-4.517c-0.078,-2.571 1.946,-4.723 4.517,-4.801Z" style="fill:#ced9e0;"/><path d="M3018.21,176.045c2.571,-0.079 4.722,1.945 4.801,4.517c0.078,2.571 -1.945,4.722 -4.517,4.801c-2.571,0.078 -4.722,-1.945 -4.801,-4.517c-0.079,-2.571 1.945,-4.723 4.517,-4.801Z" style="fill:#ced9e0;"/><path d="M3041.51,175.334c2.571,-0.079 4.722,1.945 4.801,4.516c0.078,2.572 -1.946,4.723 -4.517,4.801c-2.571,0.079 -4.723,-1.945 -4.801,-4.516c-0.079,-2.572 1.945,-4.723 4.517,-4.801Z" style="fill:#ced9e0;"/><path d="M3062.67,104.738c2.572,-0.079 4.723,1.945 4.801,4.516c0.079,2.572 -1.945,4.723 -4.516,4.802c-2.572,0.078 -4.723,-1.946 -4.801,-4.517c-0.079,-2.572 1.945,-4.723 4.516,-4.801Z" style="fill:#ced9e0;"/><path d="M3063.38,128.032c2.571,-0.078 4.722,1.946 4.801,4.517c0.078,2.571 -1.945,4.723 -4.517,4.801c-2.571,0.079 -4.723,-1.945 -4.801,-4.516c-0.079,-2.572 1.945,-4.723 4.517,-4.802Z" style="fill:#ced9e0;"/><path d="M3064.09,151.327c2.571,-0.078 4.723,1.946 4.801,4.517c0.079,2.571 -1.945,4.723 -4.516,4.801c-2.572,0.079 -4.723,-1.945 -4.802,-4.516c-0.078,-2.572 1.946,-4.723 4.517,-4.802Z" style="fill:#ced9e0;"/><path d="M3064.8,174.622c2.572,-0.078 4.723,1.945 4.802,4.517c0.078,2.571 -1.946,4.723 -4.517,4.801c-2.571,0.079 -4.723,-1.945 -4.801,-4.517c-0.079,-2.571 1.945,-4.722 4.516,-4.801Z" style="fill:#ced9e0;"/></g><g id="Grid-Texture11" serif:id="Grid Texture"><path d="M3157.27,148.482c2.572,-0.079 4.723,1.945 4.802,4.516c0.078,2.572 -1.946,4.723 -4.517,4.802c-2.571,0.078 -4.723,-1.946 -4.801,-4.517c-0.079,-2.571 1.945,-4.723 4.516,-4.801Z" style="fill:#ced9e0;"/><path d="M3086.68,127.321c2.572,-0.078 4.723,1.945 4.802,4.517c0.078,2.571 -1.946,4.722 -4.517,4.801c-2.571,0.079 -4.723,-1.945 -4.801,-4.517c-0.079,-2.571 1.945,-4.722 4.516,-4.801Z" style="fill:#ced9e0;"/><path d="M3109.97,126.61c2.572,-0.079 4.723,1.945 4.802,4.516c0.078,2.572 -1.946,4.723 -4.517,4.802c-2.571,0.078 -4.723,-1.946 -4.801,-4.517c-0.079,-2.571 1.945,-4.723 4.516,-4.801Z" style="fill:#ced9e0;"/><path d="M3133.26,125.898c2.572,-0.078 4.723,1.946 4.801,4.517c0.079,2.571 -1.945,4.723 -4.516,4.801c-2.572,0.079 -4.723,-1.945 -4.802,-4.516c-0.078,-2.572 1.946,-4.723 4.517,-4.802Z" style="fill:#ced9e0;"/><path d="M3156.56,125.187c2.571,-0.079 4.723,1.945 4.801,4.517c0.079,2.571 -1.945,4.722 -4.516,4.801c-2.572,0.078 -4.723,-1.946 -4.802,-4.517c-0.078,-2.571 1.946,-4.723 4.517,-4.801Z" style="fill:#ced9e0;"/><path d="M3087.39,150.616c2.571,-0.079 4.723,1.945 4.801,4.517c0.079,2.571 -1.945,4.722 -4.517,4.801c-2.571,0.078 -4.722,-1.946 -4.801,-4.517c-0.078,-2.571 1.946,-4.723 4.517,-4.801Z" style="fill:#ced9e0;"/><path d="M3110.68,149.904c2.571,-0.078 4.722,1.946 4.801,4.517c0.078,2.572 -1.945,4.723 -4.517,4.801c-2.571,0.079 -4.722,-1.945 -4.801,-4.516c-0.079,-2.572 1.945,-4.723 4.517,-4.802Z" style="fill:#ced9e0;"/><path d="M3133.98,149.193c2.571,-0.078 4.722,1.945 4.801,4.517c0.078,2.571 -1.946,4.723 -4.517,4.801c-2.571,0.079 -4.723,-1.945 -4.801,-4.517c-0.079,-2.571 1.945,-4.722 4.517,-4.801Z" style="fill:#ced9e0;"/><path d="M3088.1,173.911c2.572,-0.079 4.723,1.945 4.802,4.516c0.078,2.572 -1.946,4.723 -4.517,4.802c-2.572,0.078 -4.723,-1.946 -4.801,-4.517c-0.079,-2.571 1.945,-4.723 4.516,-4.801Z" style="fill:#ced9e0;"/><path d="M3111.39,173.199c2.571,-0.078 4.723,1.946 4.801,4.517c0.079,2.571 -1.945,4.723 -4.516,4.801c-2.572,0.079 -4.723,-1.945 -4.802,-4.516c-0.078,-2.572 1.946,-4.723 4.517,-4.802Z" style="fill:#ced9e0;"/><path d="M3134.69,172.488c2.571,-0.079 4.723,1.945 4.801,4.517c0.079,2.571 -1.945,4.722 -4.516,4.801c-2.572,0.078 -4.723,-1.945 -4.802,-4.517c-0.078,-2.571 1.946,-4.723 4.517,-4.801Z" style="fill:#ced9e0;"/><path d="M3157.98,171.777c2.571,-0.079 4.723,1.945 4.801,4.516c0.079,2.572 -1.945,4.723 -4.517,4.801c-2.571,0.079 -4.722,-1.945 -4.801,-4.516c-0.078,-2.572 1.945,-4.723 4.517,-4.801Z" style="fill:#ced9e0;"/></g></g></g></g><path id="Light-Blob-4" serif:id="Light Blob 4" d="M1219.42,204.342l447.871,-6.633l-0.563,44.778l-444.713,9.024l-2.595,-47.169Z" style="fill:none;"/><clipPath id="_clip10"><path d="M1219.42,204.342l447.871,-6.633l-0.563,44.778l-444.713,9.024l-2.595,-47.169Z"/></clipPath><g clip-path="url(#_clip10)"><g id="Grid-Light4" serif:id="Grid Light"><g><g id="Grid-Texture12" serif:id="Grid Texture"><path d="M1233.83,211.135c2.572,-0.056 4.705,1.987 4.76,4.559c0.056,2.572 -1.987,4.705 -4.559,4.761c-2.572,0.055 -4.705,-1.988 -4.761,-4.56c-0.055,-2.571 1.988,-4.705 4.56,-4.76Z" style="fill:#ced9e0;"/><path d="M1234.34,234.435c2.572,-0.055 4.705,1.988 4.76,4.56c0.056,2.572 -1.987,4.705 -4.559,4.76c-2.572,0.056 -4.705,-1.987 -4.761,-4.559c-0.055,-2.572 1.988,-4.705 4.56,-4.761Z" style="fill:#ced9e0;"/><path d="M1257.13,210.632c2.572,-0.056 4.705,1.987 4.761,4.559c0.055,2.572 -1.988,4.705 -4.56,4.761c-2.572,0.055 -4.705,-1.988 -4.76,-4.56c-0.056,-2.571 1.987,-4.705 4.559,-4.76Z" style="fill:#ced9e0;"/><path d="M1280.43,210.129c2.572,-0.056 4.705,1.987 4.761,4.559c0.056,2.572 -1.988,4.705 -4.559,4.761c-2.572,0.055 -4.706,-1.988 -4.761,-4.56c-0.056,-2.572 1.987,-4.705 4.559,-4.76Z" style="fill:#ced9e0;"/><path d="M1303.73,209.626c2.572,-0.056 4.705,1.987 4.76,4.559c0.056,2.572 -1.987,4.705 -4.559,4.761c-2.572,0.055 -4.705,-1.988 -4.761,-4.56c-0.055,-2.572 1.988,-4.705 4.56,-4.76Z" style="fill:#ced9e0;"/><path d="M1257.64,233.932c2.572,-0.055 4.705,1.988 4.761,4.56c0.055,2.571 -1.988,4.705 -4.56,4.76c-2.572,0.056 -4.705,-1.987 -4.76,-4.559c-0.056,-2.572 1.987,-4.705 4.559,-4.761Z" style="fill:#ced9e0;"/><path d="M1280.94,233.429c2.572,-0.055 4.705,1.988 4.761,4.56c0.056,2.571 -1.988,4.705 -4.559,4.76c-2.572,0.056 -4.706,-1.987 -4.761,-4.559c-0.056,-2.572 1.987,-4.705 4.559,-4.761Z" style="fill:#ced9e0;"/><path d="M1304.24,232.926c2.572,-0.055 4.705,1.988 4.76,4.56c0.056,2.571 -1.987,4.705 -4.559,4.76c-2.572,0.056 -4.705,-1.987 -4.761,-4.559c-0.055,-2.572 1.988,-4.705 4.56,-4.761Z" style="fill:#ced9e0;"/><path d="M1327.03,209.123c2.572,-0.056 4.705,1.987 4.761,4.559c0.055,2.572 -1.988,4.705 -4.56,4.761c-2.572,0.055 -4.705,-1.988 -4.761,-4.56c-0.055,-2.572 1.988,-4.705 4.56,-4.76Z" style="fill:#ced9e0;"/><path d="M1327.54,232.423c2.572,-0.055 4.705,1.988 4.761,4.559c0.055,2.572 -1.988,4.706 -4.56,4.761c-2.572,0.056 -4.705,-1.987 -4.761,-4.559c-0.055,-2.572 1.988,-4.705 4.56,-4.761Z" style="fill:#ced9e0;"/><path d="M1420.24,207.111c2.572,-0.056 4.705,1.987 4.761,4.559c0.055,2.572 -1.988,4.705 -4.56,4.761c-2.572,0.055 -4.705,-1.988 -4.76,-4.56c-0.056,-2.572 1.987,-4.705 4.559,-4.76Z" style="fill:#ced9e0;"/><path d="M1350.33,208.62c2.572,-0.056 4.705,1.987 4.761,4.559c0.055,2.572 -1.988,4.705 -4.56,4.761c-2.572,0.055 -4.705,-1.988 -4.76,-4.56c-0.056,-2.572 1.987,-4.705 4.559,-4.76Z" style="fill:#ced9e0;"/><path d="M1373.63,208.117c2.572,-0.056 4.706,1.987 4.761,4.559c0.056,2.572 -1.987,4.705 -4.559,4.761c-2.572,0.055 -4.705,-1.988 -4.761,-4.56c-0.056,-2.572 1.987,-4.705 4.559,-4.76Z" style="fill:#ced9e0;"/><path d="M1396.93,207.614c2.572,-0.056 4.705,1.987 4.76,4.559c0.056,2.572 -1.987,4.705 -4.559,4.761c-2.572,0.055 -4.705,-1.988 -4.761,-4.56c-0.055,-2.572 1.988,-4.705 4.56,-4.76Z" style="fill:#ced9e0;"/><path d="M1350.84,231.92c2.572,-0.055 4.705,1.988 4.761,4.559c0.055,2.572 -1.988,4.706 -4.56,4.761c-2.572,0.056 -4.705,-1.987 -4.76,-4.559c-0.056,-2.572 1.987,-4.705 4.559,-4.761Z" style="fill:#ced9e0;"/><path d="M1374.14,231.417c2.572,-0.056 4.706,1.988 4.761,4.559c0.056,2.572 -1.987,4.706 -4.559,4.761c-2.572,0.056 -4.705,-1.987 -4.761,-4.559c-0.056,-2.572 1.988,-4.705 4.559,-4.761Z" style="fill:#ced9e0;"/><path d="M1397.44,230.914c2.572,-0.056 4.705,1.987 4.76,4.559c0.056,2.572 -1.987,4.706 -4.559,4.761c-2.572,0.056 -4.705,-1.987 -4.761,-4.559c-0.055,-2.572 1.988,-4.705 4.56,-4.761Z" style="fill:#ced9e0;"/><path d="M1420.74,230.411c2.572,-0.056 4.705,1.987 4.761,4.559c0.055,2.572 -1.988,4.706 -4.56,4.761c-2.572,0.056 -4.705,-1.987 -4.76,-4.559c-0.056,-2.572 1.987,-4.705 4.559,-4.761Z" style="fill:#ced9e0;"/><path d="M1443.54,206.608c2.572,-0.056 4.705,1.987 4.761,4.559c0.055,2.572 -1.988,4.705 -4.56,4.761c-2.571,0.055 -4.705,-1.988 -4.76,-4.56c-0.056,-2.572 1.987,-4.705 4.559,-4.76Z" style="fill:#ced9e0;"/><path d="M1466.84,206.105c2.572,-0.056 4.705,1.987 4.76,4.559c0.056,2.572 -1.987,4.705 -4.559,4.761c-2.572,0.055 -4.705,-1.988 -4.761,-4.56c-0.055,-2.572 1.988,-4.705 4.56,-4.76Z" style="fill:#ced9e0;"/><path d="M1490.14,205.602c2.572,-0.056 4.705,1.987 4.761,4.559c0.055,2.572 -1.988,4.705 -4.56,4.761c-2.572,0.055 -4.705,-1.988 -4.761,-4.56c-0.055,-2.572 1.988,-4.705 4.56,-4.76Z" style="fill:#ced9e0;"/><path d="M1444.04,229.908c2.572,-0.056 4.705,1.987 4.761,4.559c0.055,2.572 -1.988,4.706 -4.559,4.761c-2.572,0.056 -4.706,-1.987 -4.761,-4.559c-0.056,-2.572 1.987,-4.706 4.559,-4.761Z" style="fill:#ced9e0;"/><path d="M1467.34,229.405c2.572,-0.056 4.705,1.987 4.76,4.559c0.056,2.572 -1.987,4.706 -4.559,4.761c-2.572,0.056 -4.705,-1.987 -4.761,-4.559c-0.055,-2.572 1.988,-4.706 4.56,-4.761Z" style="fill:#ced9e0;"/><path d="M1490.64,228.902c2.572,-0.056 4.705,1.987 4.761,4.559c0.055,2.572 -1.988,4.706 -4.56,4.761c-2.572,0.056 -4.705,-1.987 -4.761,-4.559c-0.055,-2.572 1.988,-4.706 4.56,-4.761Z" style="fill:#ced9e0;"/><path d="M1513.44,205.099c2.572,-0.056 4.705,1.987 4.761,4.559c0.055,2.572 -1.988,4.705 -4.56,4.761c-2.572,0.055 -4.705,-1.988 -4.76,-4.56c-0.056,-2.572 1.987,-4.705 4.559,-4.76Z" style="fill:#ced9e0;"/><path d="M1513.94,228.399c2.572,-0.056 4.705,1.987 4.761,4.559c0.055,2.572 -1.988,4.706 -4.56,4.761c-2.572,0.056 -4.705,-1.987 -4.76,-4.559c-0.056,-2.572 1.987,-4.706 4.559,-4.761Z" style="fill:#ced9e0;"/></g><g id="Grid-Texture13" serif:id="Grid Texture"><path d="M1606.64,203.087c2.572,-0.056 4.705,1.987 4.761,4.559c0.055,2.572 -1.988,4.705 -4.56,4.761c-2.572,0.055 -4.705,-1.988 -4.76,-4.56c-0.056,-2.572 1.987,-4.705 4.559,-4.76Z" style="fill:#ced9e0;"/><path d="M1536.74,204.596c2.572,-0.056 4.706,1.987 4.761,4.559c0.056,2.572 -1.987,4.705 -4.559,4.761c-2.572,0.055 -4.706,-1.988 -4.761,-4.56c-0.056,-2.572 1.987,-4.705 4.559,-4.76Z" style="fill:#ced9e0;"/><path d="M1560.04,204.093c2.572,-0.056 4.705,1.987 4.76,4.559c0.056,2.572 -1.987,4.705 -4.559,4.761c-2.572,0.055 -4.705,-1.988 -4.761,-4.56c-0.055,-2.572 1.988,-4.705 4.56,-4.76Z" style="fill:#ced9e0;"/><path d="M1583.34,203.59c2.572,-0.056 4.705,1.987 4.761,4.559c0.055,2.572 -1.988,4.705 -4.56,4.761c-2.572,0.055 -4.705,-1.988 -4.76,-4.56c-0.056,-2.572 1.987,-4.705 4.559,-4.76Z" style="fill:#ced9e0;"/><path d="M1537.24,227.896c2.572,-0.056 4.706,1.987 4.761,4.559c0.056,2.572 -1.987,4.705 -4.559,4.761c-2.572,0.056 -4.706,-1.987 -4.761,-4.559c-0.056,-2.572 1.987,-4.706 4.559,-4.761Z" style="fill:#ced9e0;"/><path d="M1560.54,227.393c2.572,-0.056 4.705,1.987 4.76,4.559c0.056,2.572 -1.987,4.705 -4.559,4.761c-2.572,0.056 -4.705,-1.988 -4.761,-4.559c-0.055,-2.572 1.988,-4.706 4.56,-4.761Z" style="fill:#ced9e0;"/><path d="M1583.84,226.89c2.572,-0.056 4.705,1.987 4.761,4.559c0.055,2.572 -1.988,4.705 -4.56,4.761c-2.572,0.056 -4.705,-1.988 -4.76,-4.559c-0.056,-2.572 1.987,-4.706 4.559,-4.761Z" style="fill:#ced9e0;"/><path d="M1607.14,226.387c2.572,-0.056 4.705,1.987 4.761,4.559c0.055,2.572 -1.988,4.705 -4.56,4.761c-2.571,0.055 -4.705,-1.988 -4.76,-4.559c-0.056,-2.572 1.987,-4.706 4.559,-4.761Z" style="fill:#ced9e0;"/><path d="M1629.94,202.584c2.571,-0.056 4.705,1.987 4.76,4.559c0.056,2.572 -1.987,4.705 -4.559,4.761c-2.572,0.055 -4.705,-1.988 -4.761,-4.56c-0.055,-2.572 1.988,-4.705 4.56,-4.76Z" style="fill:#ced9e0;"/><path d="M1653.24,202.081c2.572,-0.056 4.705,1.987 4.76,4.559c0.056,2.572 -1.987,4.705 -4.559,4.761c-2.572,0.055 -4.705,-1.988 -4.761,-4.56c-0.055,-2.572 1.988,-4.705 4.56,-4.76Z" style="fill:#ced9e0;"/><path d="M1630.44,225.884c2.571,-0.056 4.705,1.987 4.76,4.559c0.056,2.572 -1.987,4.705 -4.559,4.761c-2.572,0.055 -4.705,-1.988 -4.761,-4.56c-0.055,-2.571 1.988,-4.705 4.56,-4.76Z" style="fill:#ced9e0;"/><path d="M1653.74,225.381c2.572,-0.056 4.705,1.987 4.76,4.559c0.056,2.572 -1.987,4.705 -4.559,4.761c-2.572,0.055 -4.705,-1.988 -4.761,-4.56c-0.055,-2.571 1.988,-4.705 4.56,-4.76Z" style="fill:#ced9e0;"/></g></g></g></g><path id="Light-Blob-3" serif:id="Light Blob 3" d="M2391.25,84.584l191.228,-3.61l4.8,93.292l-190.841,7.169l-5.187,-96.851Z" style="fill:none;"/><clipPath id="_clip11"><path d="M2391.25,84.584l191.228,-3.61l4.8,93.292l-190.841,7.169l-5.187,-96.851Z"/></clipPath><g clip-path="url(#_clip11)"><g id="Grid-Light5" serif:id="Grid Light"><g><g id="Grid-Texture14" serif:id="Grid Texture"><path d="M2408.4,94.326c2.571,-0.079 4.723,1.945 4.801,4.516c0.079,2.572 -1.945,4.723 -4.517,4.802c-2.571,0.078 -4.722,-1.946 -4.801,-4.517c-0.078,-2.571 1.946,-4.723 4.517,-4.801Z" style="fill:#ced9e0;"/><path d="M2409.11,117.621c2.572,-0.079 4.723,1.945 4.802,4.516c0.078,2.572 -1.946,4.723 -4.517,4.801c-2.572,0.079 -4.723,-1.945 -4.801,-4.516c-0.079,-2.572 1.945,-4.723 4.516,-4.801Z" style="fill:#ced9e0;"/><path d="M2409.83,140.915c2.571,-0.078 4.722,1.946 4.801,4.517c0.078,2.571 -1.945,4.723 -4.517,4.801c-2.571,0.079 -4.722,-1.945 -4.801,-4.516c-0.079,-2.572 1.945,-4.723 4.517,-4.802Z" style="fill:#ced9e0;"/><path d="M2410.54,164.21c2.571,-0.078 4.723,1.946 4.801,4.517c0.079,2.571 -1.945,4.723 -4.516,4.801c-2.572,0.079 -4.723,-1.945 -4.802,-4.517c-0.078,-2.571 1.946,-4.722 4.517,-4.801Z" style="fill:#ced9e0;"/><path d="M2431.7,93.614c2.571,-0.078 4.722,1.946 4.801,4.517c0.079,2.571 -1.945,4.723 -4.517,4.801c-2.571,0.079 -4.722,-1.945 -4.801,-4.516c-0.078,-2.572 1.945,-4.723 4.517,-4.802Z" style="fill:#ced9e0;"/><path d="M2432.41,116.909c2.571,-0.078 4.723,1.945 4.801,4.517c0.079,2.571 -1.945,4.723 -4.516,4.801c-2.572,0.079 -4.723,-1.945 -4.802,-4.517c-0.078,-2.571 1.946,-4.722 4.517,-4.801Z" style="fill:#ced9e0;"/><path d="M2433.12,140.204c2.571,-0.079 4.722,1.945 4.801,4.517c0.078,2.571 -1.946,4.722 -4.517,4.801c-2.571,0.078 -4.723,-1.945 -4.801,-4.517c-0.079,-2.571 1.945,-4.723 4.517,-4.801Z" style="fill:#ced9e0;"/><path d="M2433.83,163.499c2.571,-0.079 4.723,1.945 4.801,4.517c0.079,2.571 -1.945,4.722 -4.517,4.801c-2.571,0.078 -4.722,-1.946 -4.801,-4.517c-0.078,-2.571 1.946,-4.723 4.517,-4.801Z" style="fill:#ced9e0;"/></g><g id="Grid-Texture15" serif:id="Grid Texture"><path d="M2526.51,114.197c2.571,-0.078 4.723,1.946 4.801,4.517c0.079,2.571 -1.945,4.723 -4.516,4.801c-2.572,0.079 -4.723,-1.945 -4.802,-4.516c-0.078,-2.572 1.946,-4.723 4.517,-4.802Z" style="fill:#ced9e0;"/><path d="M2455.91,93.037c2.572,-0.079 4.723,1.945 4.801,4.516c0.079,2.572 -1.945,4.723 -4.516,4.802c-2.572,0.078 -4.723,-1.946 -4.802,-4.517c-0.078,-2.571 1.946,-4.723 4.517,-4.801Z" style="fill:#ced9e0;"/><path d="M2479.21,92.325c2.571,-0.078 4.723,1.946 4.801,4.517c0.079,2.571 -1.945,4.723 -4.516,4.801c-2.572,0.079 -4.723,-1.945 -4.802,-4.516c-0.078,-2.572 1.946,-4.723 4.517,-4.802Z" style="fill:#ced9e0;"/><path d="M2502.5,91.614c2.571,-0.079 4.723,1.945 4.801,4.517c0.079,2.571 -1.945,4.722 -4.517,4.801c-2.571,0.078 -4.722,-1.946 -4.801,-4.517c-0.078,-2.571 1.946,-4.723 4.517,-4.801Z" style="fill:#ced9e0;"/><path d="M2525.8,90.902c2.571,-0.078 4.722,1.946 4.801,4.517c0.078,2.572 -1.945,4.723 -4.517,4.801c-2.571,0.079 -4.722,-1.945 -4.801,-4.516c-0.079,-2.572 1.945,-4.723 4.517,-4.802Z" style="fill:#ced9e0;"/><path d="M2456.63,116.332c2.571,-0.079 4.722,1.945 4.801,4.516c0.078,2.572 -1.946,4.723 -4.517,4.801c-2.571,0.079 -4.723,-1.945 -4.801,-4.516c-0.079,-2.572 1.945,-4.723 4.517,-4.801Z" style="fill:#ced9e0;"/><path d="M2479.92,115.62c2.572,-0.078 4.723,1.945 4.802,4.517c0.078,2.571 -1.946,4.723 -4.517,4.801c-2.571,0.079 -4.723,-1.945 -4.801,-4.517c-0.079,-2.571 1.945,-4.722 4.516,-4.801Z" style="fill:#ced9e0;"/><path d="M2503.22,114.909c2.572,-0.079 4.723,1.945 4.802,4.516c0.078,2.572 -1.946,4.723 -4.517,4.802c-2.572,0.078 -4.723,-1.946 -4.801,-4.517c-0.079,-2.571 1.945,-4.723 4.516,-4.801Z" style="fill:#ced9e0;"/><path d="M2457.34,139.626c2.571,-0.078 4.723,1.946 4.801,4.517c0.079,2.571 -1.945,4.723 -4.516,4.801c-2.572,0.079 -4.723,-1.945 -4.802,-4.516c-0.078,-2.572 1.946,-4.723 4.517,-4.802Z" style="fill:#ced9e0;"/><path d="M2480.63,138.915c2.571,-0.079 4.723,1.945 4.801,4.517c0.079,2.571 -1.945,4.722 -4.517,4.801c-2.571,0.078 -4.722,-1.945 -4.801,-4.517c-0.078,-2.571 1.945,-4.723 4.517,-4.801Z" style="fill:#ced9e0;"/><path d="M2503.93,138.204c2.571,-0.079 4.722,1.945 4.801,4.516c0.078,2.572 -1.945,4.723 -4.517,4.802c-2.571,0.078 -4.723,-1.946 -4.801,-4.517c-0.079,-2.572 1.945,-4.723 4.517,-4.801Z" style="fill:#ced9e0;"/><path d="M2527.22,137.492c2.571,-0.078 4.722,1.946 4.801,4.517c0.078,2.571 -1.946,4.723 -4.517,4.801c-2.571,0.079 -4.723,-1.945 -4.801,-4.517c-0.079,-2.571 1.945,-4.722 4.517,-4.801Z" style="fill:#ced9e0;"/><path d="M2458.05,162.921c2.572,-0.078 4.723,1.946 4.802,4.517c0.078,2.571 -1.946,4.723 -4.517,4.801c-2.571,0.079 -4.723,-1.945 -4.801,-4.517c-0.079,-2.571 1.945,-4.722 4.516,-4.801Z" style="fill:#ced9e0;"/><path d="M2481.34,162.21c2.572,-0.079 4.723,1.945 4.801,4.517c0.079,2.571 -1.945,4.722 -4.516,4.801c-2.572,0.078 -4.723,-1.946 -4.801,-4.517c-0.079,-2.571 1.945,-4.723 4.516,-4.801Z" style="fill:#ced9e0;"/><path d="M2504.64,161.498c2.571,-0.078 4.723,1.946 4.801,4.517c0.079,2.571 -1.945,4.723 -4.516,4.801c-2.572,0.079 -4.723,-1.945 -4.802,-4.516c-0.078,-2.572 1.946,-4.723 4.517,-4.802Z" style="fill:#ced9e0;"/><path d="M2527.93,160.787c2.571,-0.079 4.723,1.945 4.801,4.517c0.079,2.571 -1.945,4.722 -4.517,4.801c-2.571,0.078 -4.722,-1.945 -4.801,-4.517c-0.078,-2.571 1.946,-4.722 4.517,-4.801Z" style="fill:#ced9e0;"/><path d="M2549.09,90.191c2.571,-0.078 4.722,1.945 4.801,4.517c0.078,2.571 -1.946,4.722 -4.517,4.801c-2.571,0.079 -4.723,-1.945 -4.801,-4.517c-0.079,-2.571 1.945,-4.722 4.517,-4.801Z" style="fill:#ced9e0;"/><path d="M2572.39,89.48c2.572,-0.079 4.723,1.945 4.802,4.516c0.078,2.572 -1.946,4.723 -4.517,4.802c-2.571,0.078 -4.723,-1.946 -4.801,-4.517c-0.079,-2.571 1.945,-4.723 4.516,-4.801Z" style="fill:#ced9e0;"/><path d="M2549.8,113.486c2.571,-0.079 4.723,1.945 4.801,4.517c0.079,2.571 -1.945,4.722 -4.516,4.801c-2.572,0.078 -4.723,-1.945 -4.802,-4.517c-0.078,-2.571 1.946,-4.723 4.517,-4.801Z" style="fill:#ced9e0;"/><path d="M2573.1,112.775c2.571,-0.079 4.723,1.945 4.801,4.516c0.079,2.572 -1.945,4.723 -4.517,4.801c-2.571,0.079 -4.722,-1.945 -4.801,-4.516c-0.078,-2.572 1.945,-4.723 4.517,-4.801Z" style="fill:#ced9e0;"/><path d="M2550.52,136.781c2.572,-0.079 4.723,1.945 4.802,4.516c0.078,2.572 -1.946,4.723 -4.517,4.802c-2.571,0.078 -4.723,-1.946 -4.801,-4.517c-0.079,-2.571 1.945,-4.723 4.516,-4.801Z" style="fill:#ced9e0;"/><path d="M2573.81,136.069c2.572,-0.078 4.723,1.946 4.801,4.517c0.079,2.571 -1.945,4.723 -4.516,4.801c-2.572,0.079 -4.723,-1.945 -4.801,-4.516c-0.079,-2.572 1.945,-4.723 4.516,-4.802Z" style="fill:#ced9e0;"/><path d="M2551.23,160.076c2.571,-0.079 4.722,1.945 4.801,4.516c0.079,2.572 -1.945,4.723 -4.517,4.802c-2.571,0.078 -4.722,-1.946 -4.801,-4.517c-0.078,-2.571 1.945,-4.723 4.517,-4.801Z" style="fill:#ced9e0;"/><path d="M2574.52,159.364c2.571,-0.078 4.722,1.946 4.801,4.517c0.078,2.571 -1.945,4.723 -4.517,4.801c-2.571,0.079 -4.723,-1.945 -4.801,-4.517c-0.079,-2.571 1.945,-4.722 4.517,-4.801Z" style="fill:#ced9e0;"/></g></g></g></g><path id="Light-Blob-2" serif:id="Light Blob 2" d="M2124.26,-20.71l4.073,69.355l444.962,-12.431l-4.84,-73.522l-444.195,16.598Z" style="fill:none;"/><clipPath id="_clip12"><path d="M2124.26,-20.71l4.073,69.355l444.962,-12.431l-4.84,-73.522l-444.195,16.598Z"/></clipPath><g clip-path="url(#_clip12)"><g id="Grid-Light6" serif:id="Grid Light"><g><g id="Grid-Texture16" serif:id="Grid Texture"><path d="M2137.97,7.731c2.571,-0.078 4.723,1.946 4.801,4.517c0.079,2.571 -1.945,4.723 -4.516,4.801c-2.572,0.079 -4.723,-1.945 -4.802,-4.516c-0.078,-2.572 1.946,-4.723 4.517,-4.802Z" style="fill:#ced9e0;"/><path d="M2161.27,7.02c2.571,-0.079 4.723,1.945 4.801,4.517c0.079,2.571 -1.945,4.722 -4.517,4.801c-2.571,0.078 -4.722,-1.946 -4.801,-4.517c-0.078,-2.571 1.945,-4.723 4.517,-4.801Z" style="fill:#ced9e0;"/><path d="M2138.69,31.026c2.572,-0.078 4.723,1.945 4.802,4.517c0.078,2.571 -1.946,4.723 -4.517,4.801c-2.571,0.079 -4.723,-1.945 -4.801,-4.517c-0.079,-2.571 1.945,-4.722 4.516,-4.801Z" style="fill:#ced9e0;"/><path d="M2161.98,30.315c2.572,-0.079 4.723,1.945 4.801,4.516c0.079,2.572 -1.945,4.723 -4.516,4.802c-2.572,0.078 -4.723,-1.946 -4.801,-4.517c-0.079,-2.571 1.945,-4.723 4.516,-4.801Z" style="fill:#ced9e0;"/><path d="M2184.57,6.308c2.571,-0.078 4.722,1.946 4.801,4.517c0.078,2.572 -1.945,4.723 -4.517,4.801c-2.571,0.079 -4.722,-1.945 -4.801,-4.516c-0.079,-2.572 1.945,-4.723 4.517,-4.802Z" style="fill:#ced9e0;"/><path d="M2185.28,29.603c2.571,-0.078 4.723,1.946 4.801,4.517c0.079,2.571 -1.945,4.723 -4.516,4.801c-2.572,0.079 -4.723,-1.945 -4.802,-4.516c-0.078,-2.572 1.946,-4.723 4.517,-4.802Z" style="fill:#ced9e0;"/><path d="M2278.45,26.758c2.572,-0.079 4.723,1.945 4.802,4.516c0.078,2.572 -1.946,4.723 -4.517,4.802c-2.571,0.078 -4.723,-1.946 -4.801,-4.517c-0.079,-2.571 1.945,-4.723 4.516,-4.801Z" style="fill:#ced9e0;"/><path d="M2207.86,5.597c2.571,-0.078 4.722,1.945 4.801,4.517c0.078,2.571 -1.946,4.723 -4.517,4.801c-2.571,0.079 -4.723,-1.945 -4.801,-4.517c-0.079,-2.571 1.945,-4.722 4.517,-4.801Z" style="fill:#ced9e0;"/><path d="M2231.15,4.886c2.572,-0.079 4.723,1.945 4.802,4.516c0.078,2.572 -1.946,4.723 -4.517,4.802c-2.571,0.078 -4.723,-1.946 -4.801,-4.517c-0.079,-2.571 1.945,-4.723 4.516,-4.801Z" style="fill:#ced9e0;"/><path d="M2254.45,4.174c2.572,-0.078 4.723,1.946 4.801,4.517c0.079,2.571 -1.945,4.723 -4.516,4.801c-2.572,0.079 -4.723,-1.945 -4.801,-4.516c-0.079,-2.572 1.945,-4.723 4.516,-4.802Z" style="fill:#ced9e0;"/><path d="M2277.74,3.463c2.571,-0.079 4.723,1.945 4.801,4.517c0.079,2.571 -1.945,4.722 -4.516,4.801c-2.572,0.078 -4.723,-1.945 -4.802,-4.517c-0.078,-2.571 1.946,-4.723 4.517,-4.801Z" style="fill:#ced9e0;"/><path d="M2208.57,28.892c2.571,-0.079 4.723,1.945 4.801,4.517c0.079,2.571 -1.945,4.722 -4.517,4.801c-2.571,0.078 -4.722,-1.945 -4.801,-4.517c-0.078,-2.571 1.946,-4.723 4.517,-4.801Z" style="fill:#ced9e0;"/><path d="M2231.87,28.181c2.571,-0.079 4.722,1.945 4.801,4.516c0.079,2.572 -1.945,4.723 -4.517,4.801c-2.571,0.079 -4.722,-1.945 -4.801,-4.516c-0.078,-2.572 1.945,-4.723 4.517,-4.801Z" style="fill:#ced9e0;"/><path d="M2255.16,27.469c2.571,-0.078 4.722,1.945 4.801,4.517c0.078,2.571 -1.945,4.723 -4.517,4.801c-2.571,0.079 -4.723,-1.945 -4.801,-4.517c-0.079,-2.571 1.945,-4.722 4.517,-4.801Z" style="fill:#ced9e0;"/><path d="M2301.04,2.752c2.571,-0.079 4.723,1.945 4.801,4.516c0.079,2.572 -1.945,4.723 -4.517,4.801c-2.571,0.079 -4.722,-1.945 -4.801,-4.516c-0.078,-2.572 1.946,-4.723 4.517,-4.801Z" style="fill:#ced9e0;"/><path d="M2324.33,2.04c2.571,-0.078 4.722,1.945 4.801,4.517c0.079,2.571 -1.945,4.723 -4.517,4.801c-2.571,0.079 -4.722,-1.945 -4.801,-4.517c-0.078,-2.571 1.945,-4.722 4.517,-4.801Z" style="fill:#ced9e0;"/><path d="M2347.63,1.329c2.571,-0.079 4.722,1.945 4.801,4.516c0.078,2.572 -1.945,4.723 -4.517,4.802c-2.571,0.078 -4.723,-1.946 -4.801,-4.517c-0.079,-2.571 1.945,-4.723 4.517,-4.801Z" style="fill:#ced9e0;"/><path d="M2301.75,26.046c2.572,-0.078 4.723,1.946 4.802,4.517c0.078,2.571 -1.946,4.723 -4.517,4.801c-2.571,0.079 -4.723,-1.945 -4.801,-4.516c-0.079,-2.572 1.945,-4.723 4.516,-4.802Z" style="fill:#ced9e0;"/><path d="M2325.05,25.335c2.572,-0.079 4.723,1.945 4.801,4.517c0.079,2.571 -1.945,4.722 -4.516,4.801c-2.572,0.078 -4.723,-1.945 -4.802,-4.517c-0.078,-2.571 1.946,-4.723 4.517,-4.801Z" style="fill:#ced9e0;"/><path d="M2348.34,24.624c2.571,-0.079 4.723,1.945 4.801,4.516c0.079,2.572 -1.945,4.723 -4.516,4.802c-2.572,0.078 -4.723,-1.946 -4.802,-4.517c-0.078,-2.572 1.946,-4.723 4.517,-4.801Z" style="fill:#ced9e0;"/><path d="M2370.92,0.617c2.572,-0.078 4.723,1.946 4.802,4.517c0.078,2.571 -1.946,4.723 -4.517,4.801c-2.571,0.079 -4.723,-1.945 -4.801,-4.516c-0.079,-2.572 1.945,-4.723 4.516,-4.802Z" style="fill:#ced9e0;"/><path d="M2371.64,23.912c2.571,-0.078 4.723,1.946 4.801,4.517c0.079,2.571 -1.945,4.723 -4.517,4.801c-2.571,0.079 -4.722,-1.945 -4.801,-4.517c-0.078,-2.571 1.945,-4.722 4.517,-4.801Z" style="fill:#ced9e0;"/></g><g id="Grid-Texture17" serif:id="Grid Texture"><path d="M2464.81,21.067c2.572,-0.079 4.723,1.945 4.801,4.516c0.079,2.572 -1.945,4.723 -4.516,4.802c-2.572,0.078 -4.723,-1.946 -4.801,-4.517c-0.079,-2.572 1.945,-4.723 4.516,-4.801Z" style="fill:#ced9e0;"/><path d="M2394.22,-0.094c2.572,-0.079 4.723,1.945 4.802,4.517c0.078,2.571 -1.946,4.722 -4.517,4.801c-2.571,0.078 -4.723,-1.945 -4.801,-4.517c-0.079,-2.571 1.945,-4.723 4.516,-4.801Z" style="fill:#ced9e0;"/><path d="M2417.51,-0.805c2.572,-0.079 4.723,1.945 4.801,4.516c0.079,2.572 -1.945,4.723 -4.516,4.801c-2.572,0.079 -4.723,-1.945 -4.802,-4.516c-0.078,-2.572 1.946,-4.723 4.517,-4.801Z" style="fill:#ced9e0;"/><path d="M2440.81,-1.517c2.571,-0.078 4.723,1.945 4.801,4.517c0.079,2.571 -1.945,4.723 -4.516,4.801c-2.572,0.079 -4.723,-1.945 -4.802,-4.517c-0.078,-2.571 1.946,-4.722 4.517,-4.801Z" style="fill:#ced9e0;"/><path d="M2464.1,-2.228c2.571,-0.079 4.723,1.945 4.801,4.516c0.079,2.572 -1.945,4.723 -4.517,4.802c-2.571,0.078 -4.722,-1.946 -4.801,-4.517c-0.078,-2.571 1.946,-4.723 4.517,-4.801Z" style="fill:#ced9e0;"/><path d="M2394.93,23.201c2.571,-0.079 4.722,1.945 4.801,4.516c0.078,2.572 -1.945,4.723 -4.517,4.802c-2.571,0.078 -4.722,-1.946 -4.801,-4.517c-0.079,-2.571 1.945,-4.723 4.517,-4.801Z" style="fill:#ced9e0;"/><path d="M2418.22,22.489c2.571,-0.078 4.722,1.946 4.801,4.517c0.078,2.571 -1.946,4.723 -4.517,4.801c-2.571,0.079 -4.723,-1.945 -4.801,-4.516c-0.079,-2.572 1.945,-4.723 4.517,-4.802Z" style="fill:#ced9e0;"/><path d="M2441.52,21.778c2.572,-0.079 4.723,1.945 4.802,4.517c0.078,2.571 -1.946,4.722 -4.517,4.801c-2.571,0.078 -4.723,-1.945 -4.801,-4.517c-0.079,-2.571 1.945,-4.722 4.516,-4.801Z" style="fill:#ced9e0;"/><path d="M2487.4,-2.94c2.571,-0.078 4.722,1.946 4.801,4.517c0.078,2.571 -1.945,4.723 -4.517,4.801c-2.571,0.079 -4.722,-1.945 -4.801,-4.516c-0.079,-2.572 1.945,-4.723 4.517,-4.802Z" style="fill:#ced9e0;"/><path d="M2510.69,-3.651c2.571,-0.079 4.722,1.945 4.801,4.517c0.078,2.571 -1.946,4.722 -4.517,4.801c-2.571,0.078 -4.723,-1.945 -4.801,-4.517c-0.079,-2.571 1.945,-4.723 4.517,-4.801Z" style="fill:#ced9e0;"/><path d="M2533.99,-4.362c2.572,-0.079 4.723,1.945 4.802,4.516c0.078,2.572 -1.946,4.723 -4.517,4.802c-2.571,0.078 -4.723,-1.946 -4.801,-4.517c-0.079,-2.572 1.945,-4.723 4.516,-4.801Z" style="fill:#ced9e0;"/><path d="M2488.11,20.355c2.571,-0.078 4.723,1.946 4.801,4.517c0.079,2.571 -1.945,4.723 -4.516,4.801c-2.572,0.079 -4.723,-1.945 -4.802,-4.517c-0.078,-2.571 1.946,-4.722 4.517,-4.801Z" style="fill:#ced9e0;"/><path d="M2511.4,19.644c2.571,-0.079 4.723,1.945 4.801,4.517c0.079,2.571 -1.945,4.722 -4.516,4.801c-2.572,0.078 -4.723,-1.946 -4.802,-4.517c-0.078,-2.571 1.946,-4.723 4.517,-4.801Z" style="fill:#ced9e0;"/><path d="M2534.7,18.932c2.571,-0.078 4.723,1.946 4.801,4.517c0.079,2.571 -1.945,4.723 -4.517,4.801c-2.571,0.079 -4.722,-1.945 -4.801,-4.516c-0.078,-2.572 1.945,-4.723 4.517,-4.802Z" style="fill:#ced9e0;"/><path d="M2557.28,-5.074c2.572,-0.078 4.723,1.946 4.802,4.517c0.078,2.571 -1.946,4.723 -4.517,4.801c-2.572,0.079 -4.723,-1.945 -4.801,-4.517c-0.079,-2.571 1.945,-4.722 4.516,-4.801Z" style="fill:#ced9e0;"/><path d="M2557.99,18.221c2.571,-0.078 4.722,1.945 4.801,4.517c0.078,2.571 -1.945,4.722 -4.517,4.801c-2.571,0.078 -4.723,-1.945 -4.801,-4.517c-0.079,-2.571 1.945,-4.722 4.517,-4.801Z" style="fill:#ced9e0;"/></g></g></g></g></svg>