<?xml version="1.0" encoding="UTF-8" standalone="no"?>
<!DOCTYPE svg PUBLIC "-//W3C//DTD SVG 1.1//EN" "http://www.w3.org/Graphics/SVG/1.1/DTD/svg11.dtd">
<svg width="100%" height="100%" viewBox="0 0 1050 400" version="1.1" xmlns="http://www.w3.org/2000/svg" xmlns:xlink="http://www.w3.org/1999/xlink" xml:space="preserve" xmlns:serif="http://www.serif.com/" style="fill-rule:evenodd;clip-rule:evenodd;stroke-linecap:round;stroke-linejoin:round;stroke-miterlimit:1.5;">
    <path d="M919.246,149.943L866.819,228.584" style="fill:none;stroke:rgb(150,163,174);stroke-width:1px;"/>
    <path d="M681.547,296.561L919.246,149.943" style="fill:none;stroke:rgb(150,163,174);stroke-width:1px;"/>
    <path d="M281.539,384.561L338.687,360.275L367.429,352.904L620.234,371.203L681.547,296.561L746.169,360.275" style="fill:none;stroke:rgb(150,163,174);stroke-width:1px;"/>
    <path d="M274.829,322.359L350.334,349.895" style="fill:none;stroke:rgb(150,163,174);stroke-width:1px;"/>
    <path d="M916.561,151.518L977.005,223.252" style="fill:none;stroke:rgb(150,163,174);stroke-width:1px;"/>
    <path d="M919.246,151.518L1007.22,113.066" style="fill:none;stroke:rgb(150,163,174);stroke-width:1px;"/>
    <path d="M916.561,149.943L935.241,57.973" style="fill:none;stroke:rgb(150,163,174);stroke-width:1px;"/>
    <g transform="matrix(1.25,0,0,0.931034,-102.007,83.736)">
        <path d="M699.203,292.747C699.203,291.562 698.486,290.599 697.603,290.599L663.678,290.599C662.795,290.599 662.078,291.562 662.078,292.747L662.078,304.284C662.078,305.469 662.795,306.432 663.678,306.432L697.603,306.432C698.486,306.432 699.203,305.469 699.203,304.284L699.203,292.747Z" style="fill:rgb(191,204,215);stroke:rgb(150,163,174);stroke-width:0.91px;"/>
    </g>
    <g transform="matrix(1.25,0,0,0.931034,-170.615,19.4956)">
        <path d="M699.203,292.747C699.203,291.562 698.486,290.599 697.603,290.599L663.678,290.599C662.795,290.599 662.078,291.562 662.078,292.747L662.078,304.284C662.078,305.469 662.795,306.432 663.678,306.432L697.603,306.432C698.486,306.432 699.203,305.469 699.203,304.284L699.203,292.747Z" style="fill:rgb(191,204,215);stroke:rgb(150,163,174);stroke-width:0.91px;"/>
    </g>
    <g transform="matrix(1.25,0,0,0.931034,-229.396,93.1992)">
        <path d="M699.203,292.747C699.203,291.562 698.486,290.599 697.603,290.599L663.678,290.599C662.795,290.599 662.078,291.562 662.078,292.747L662.078,304.284C662.078,305.469 662.795,306.432 663.678,306.432L697.603,306.432C698.486,306.432 699.203,305.469 699.203,304.284L699.203,292.747Z" style="fill:rgb(191,204,215);stroke:rgb(150,163,174);stroke-width:0.91px;"/>
    </g>
    <g transform="matrix(1.25,0,0,0.931034,65.7597,-126.41)">
        <path d="M699.203,292.747C699.203,291.562 698.486,290.599 697.603,290.599L663.678,290.599C662.795,290.599 662.078,291.562 662.078,292.747L662.078,304.284C662.078,305.469 662.795,306.432 663.678,306.432L697.603,306.432C698.486,306.432 699.203,305.469 699.203,304.284L699.203,292.747Z" style="fill:rgb(191,204,215);stroke:rgb(150,163,174);stroke-width:0.91px;"/>
    </g>
    <g transform="matrix(1.25,0,0,0.931034,125.189,-56.1753)">
        <path d="M699.203,292.747C699.203,291.562 698.486,290.599 697.603,290.599L663.678,290.599C662.795,290.599 662.078,291.562 662.078,292.747L662.078,304.284C662.078,305.469 662.795,306.432 663.678,306.432L697.603,306.432C698.486,306.432 699.203,305.469 699.203,304.284L699.203,292.747Z" style="fill:rgb(191,204,215);stroke:rgb(150,163,174);stroke-width:0.91px;"/>
    </g>
    <g transform="matrix(1.25,0,0,0.931034,16.2828,-48.805)">
        <path d="M699.203,292.747C699.203,291.562 698.486,290.599 697.603,290.599L663.678,290.599C662.795,290.599 662.078,291.562 662.078,292.747L662.078,304.284C662.078,305.469 662.795,306.432 663.678,306.432L697.603,306.432C698.486,306.432 699.203,305.469 699.203,304.284L699.203,292.747Z" style="fill:rgb(191,204,215);stroke:rgb(150,163,174);stroke-width:0.91px;"/>
    </g>
    <g transform="matrix(1.25,0,0,0.931034,152.771,-164.82)">
        <path d="M699.203,292.747C699.203,291.562 698.486,290.599 697.603,290.599L663.678,290.599C662.795,290.599 662.078,291.562 662.078,292.747L662.078,304.284C662.078,305.469 662.795,306.432 663.678,306.432L697.603,306.432C698.486,306.432 699.203,305.469 699.203,304.284L699.203,292.747Z" style="fill:rgb(191,204,215);stroke:rgb(150,163,174);stroke-width:0.91px;"/>
    </g>
    <g transform="matrix(1.25,0,0,0.931034,84.8112,-218.562)">
        <path d="M699.203,292.747C699.203,291.562 698.486,290.599 697.603,290.599L663.678,290.599C662.795,290.599 662.078,291.562 662.078,292.747L662.078,304.284C662.078,305.469 662.795,306.432 663.678,306.432L697.603,306.432C698.486,306.432 699.203,305.469 699.203,304.284L699.203,292.747Z" style="fill:rgb(191,204,215);stroke:rgb(150,163,174);stroke-width:0.91px;"/>
    </g>
    <g transform="matrix(1.25,0,0,0.931034,-497.929,74.9763)">
        <path d="M699.203,292.747C699.203,291.562 698.486,290.599 697.603,290.599L663.678,290.599C662.795,290.599 662.078,291.562 662.078,292.747L662.078,304.284C662.078,305.469 662.795,306.432 663.678,306.432L697.603,306.432C698.486,306.432 699.203,305.469 699.203,304.284L699.203,292.747Z" style="fill:rgb(191,204,215);stroke:rgb(150,163,174);stroke-width:0.91px;"/>
    </g>
    <g transform="matrix(1.25,0,0,0.931034,-599.175,44.4308)">
        <path d="M699.203,292.747C699.203,291.562 698.486,290.599 697.603,290.599L663.678,290.599C662.795,290.599 662.078,291.562 662.078,292.747L662.078,304.284C662.078,305.469 662.795,306.432 663.678,306.432L697.603,306.432C698.486,306.432 699.203,305.469 699.203,304.284L699.203,292.747Z" style="fill:rgb(191,204,215);stroke:rgb(150,163,174);stroke-width:0.91px;"/>
    </g>
    <g transform="matrix(1.25,0,0,0.931034,-592.465,106.632)">
        <path d="M699.203,292.747C699.203,291.562 698.486,290.599 697.603,290.599L663.678,290.599C662.795,290.599 662.078,291.562 662.078,292.747L662.078,304.284C662.078,305.469 662.795,306.432 663.678,306.432L697.603,306.432C698.486,306.432 699.203,305.469 699.203,304.284L699.203,292.747Z" style="fill:rgb(191,204,215);stroke:rgb(150,163,174);stroke-width:0.91px;"/>
    </g>
</svg>
