<?xml version="1.0" encoding="UTF-8" standalone="no"?>
<!DOCTYPE svg PUBLIC "-//W3C//DTD SVG 1.1//EN" "http://www.w3.org/Graphics/SVG/1.1/DTD/svg11.dtd">
<svg width="100%" height="100%" viewBox="0 0 400 300" version="1.1" xmlns="http://www.w3.org/2000/svg" xmlns:xlink="http://www.w3.org/1999/xlink" xml:space="preserve" xmlns:serif="http://www.serif.com/" style="fill-rule:evenodd;clip-rule:evenodd;stroke-linecap:round;stroke-linejoin:round;stroke-miterlimit:1.5;">
    <g transform="matrix(1,0,-1.2326e-32,1,9.09495e-13,-60.0707)">
        <path d="M397.318,62.134L388.773,61.982L386.393,62.565L379.518,69.705L378.354,70.313L375.822,70.313L374.505,70.895L370.834,73.68L368.643,75.655L367.01,77.2L363.807,79.719L361.149,82.011L358.685,84.648L356.517,86.547L353.874,89.3L351.2,91.199L348.304,92.75L346.231,94.633L343.525,95.155L340.85,96.564L338.73,98.431L337.496,99.143L334.948,99.317L332.78,99.46L330.978,100.384L328.664,102.243L326.389,103.964L324.154,105.962L322.374,107.722L319.94,108.494L313.69,108.454L311.949,109.246L310.366,110.947L307.538,112.529L305.124,112.687L300.159,112.608L298.537,112.885L296.678,114.863L294.541,116.664L293.552,117.217L291.139,117.376L289.556,118.108L287.994,119.789L286.292,121.055L284.473,121.747L282.237,121.767L274.226,121.807L272.841,122.45L271.753,122.766L270.665,123.439L267.698,126.762L265.759,129.274L264.058,131.49L262.812,132.637L261.902,132.894L261.131,133.151L254.84,136.85L250.31,139.363L247.798,141.004L246.235,142.251L243.96,144.011L241.151,144.09L239.45,145.416L238.342,146.741L236.879,148.066L235.613,149.253L234.406,149.649L233.041,150.223L230.944,152.438L229.322,154.04L227.483,156.098L226.256,156.75L224.891,157.324L224.041,157.621L222.755,158.254L221.37,159.282L220.361,160.133L219.352,160.41L218.205,160.469L216.642,160.469L213.556,161.379L212.014,161.498L210.233,161.419L207.365,162.23L195.912,162.17L194.052,163.08L192.569,164.069L191.54,164.267L190.551,165.197L188.988,166.206L187.425,167.017L186.179,168.283L185.012,168.876L183.904,169.391L182.084,169.747L180.502,169.964L179.236,170.36L176.862,172.2L174.666,173.861L171.64,175.562L169.385,176.403L167.802,177.194L164.934,179.469L163.569,180.636L162.105,181.526L160.701,182.713L159.079,183.386L156.586,184.909L152.668,188.818L149.917,190.981L148.062,192.156L146.579,192.836L144.137,194.227L141.757,195.339L139.655,196.669L138.45,197.565L136.935,197.905L135.761,198.77L134.524,199.976L133.103,200.872L131.743,201.274L130.63,201.954L129.115,203.19L127.879,203.407L126.519,204.581L125.376,205.137L124.077,206.157L123.181,206.992L121.79,207.888L120.647,208.537L119.998,209.31L118.885,210.083L118.081,210.392L116.659,210.855L115.299,211.752L114.156,213.112L113.074,213.235L112.085,214.224L109.396,216.156L107.912,217.083L106.46,218.474L104.914,219.896L103.369,221.565L102.133,222.585L101.143,223.265L100.278,223.389L98.238,225.212L96.476,226.541L95.055,227.994L93.818,228.89L93.045,229.169L91.778,230.189L90.233,230.776L89.275,231.332L87.729,232.352L86.678,233.218L85.751,234.238L84.515,235.227L83.155,235.783L81.826,236.988L80.62,237.637L79.168,238.287L77.9,238.843L76.633,239.987L75.273,240.79L74.068,241.006L72.368,241.068L70.297,241.068L68.473,241.223L66.959,241.223L64.857,241.47L63.343,242.181L61.983,243.201L60.654,244.005L59.479,244.715L58.366,245.148L57.532,245.674L56.388,246.292L55.399,246.879L53.946,247.652L52.463,248.95L51.01,250.032L50.361,251.175L49.248,252.35L48.012,253.555L46.714,255.039L45.121,257.066L42.842,259.42L41.338,261.663L39.676,263.672L38.479,264.792L37.049,266.26L35.426,266.956L34.615,267.226L32.374,269.699L31.061,270.858L29.283,272.983L27.197,274.915L25.883,276.305L24.377,278.044L22.986,279.821L21.363,281.676L19.663,283.685L17.925,285.23L16.225,286.66L14.331,288.128L13.327,288.901L7.841,289.132L5.948,289.828L4.17,290.601L3.089,291.644L1.852,292.725L0,293.885" style="fill:none;stroke:rgb(38,101,204);stroke-width:2.09px;"/>
    </g>
    <g transform="matrix(1,0,-1.2326e-32,1,9.09495e-13,-60.0707)">
        <path d="M0,293.885L-2.259,295.089L-11.744,370.196L397.318,378.849L397.318,62.134L388.773,61.982L386.393,62.565L379.518,69.705L378.354,70.313L375.822,70.313L374.505,70.895L370.834,73.68L368.643,75.655L367.01,77.2L363.807,79.719L361.149,82.011L358.685,84.648L356.517,86.547L353.874,89.3L351.2,91.199L348.304,92.75L346.231,94.633L343.525,95.155L340.85,96.564L338.73,98.431L337.496,99.143L334.948,99.317L332.78,99.46L330.978,100.384L328.664,102.243L326.389,103.964L324.154,105.962L322.374,107.722L319.94,108.494L313.69,108.454L311.949,109.246L310.366,110.947L307.538,112.529L305.124,112.687L300.159,112.608L298.537,112.885L296.678,114.863L294.541,116.664L293.552,117.217L291.139,117.376L289.556,118.108L287.994,119.789L286.292,121.055L284.473,121.747L282.237,121.767L274.226,121.807L272.841,122.45L271.753,122.766L270.665,123.439L267.698,126.762L265.759,129.274L264.058,131.49L262.812,132.637L261.902,132.894L261.131,133.151L254.84,136.85L250.31,139.363L247.798,141.004L246.235,142.251L243.96,144.011L241.151,144.09L239.45,145.416L238.342,146.741L236.879,148.066L235.613,149.253L234.406,149.649L233.041,150.223L230.944,152.438L229.322,154.04L227.483,156.098L226.256,156.75L224.891,157.324L224.041,157.621L222.755,158.254L221.37,159.282L220.361,160.133L219.352,160.41L218.205,160.469L216.642,160.469L213.556,161.379L212.014,161.498L210.233,161.419L207.365,162.23L195.912,162.17L194.052,163.08L192.569,164.069L191.54,164.267L190.551,165.197L188.988,166.206L187.425,167.017L186.179,168.283L185.012,168.876L183.904,169.391L182.084,169.747L180.502,169.964L179.236,170.36L176.862,172.2L174.666,173.861L171.64,175.562L169.385,176.403L167.802,177.194L164.934,179.469L163.569,180.636L162.105,181.526L160.701,182.713L159.079,183.386L156.586,184.909L152.668,188.818L149.917,190.981L148.062,192.156L146.579,192.836L144.137,194.227L141.757,195.339L139.655,196.669L138.45,197.565L136.935,197.905L135.761,198.77L134.524,199.976L133.103,200.872L131.743,201.274L130.63,201.954L129.115,203.19L127.879,203.407L126.519,204.581L125.376,205.137L124.077,206.157L123.181,206.992L121.79,207.888L120.647,208.537L119.998,209.31L118.885,210.083L118.081,210.392L116.659,210.855L115.299,211.752L114.156,213.112L113.074,213.235L112.085,214.224L109.396,216.156L107.912,217.083L106.46,218.474L104.914,219.896L103.369,221.565L102.133,222.585L101.143,223.265L100.278,223.389L98.238,225.212L96.476,226.541L95.055,227.994L93.818,228.89L93.045,229.169L91.778,230.189L90.233,230.776L89.275,231.332L87.729,232.352L86.678,233.218L85.751,234.238L84.515,235.227L83.155,235.783L81.826,236.988L80.62,237.637L79.168,238.287L77.9,238.843L76.633,239.987L75.273,240.79L74.068,241.006L72.368,241.068L70.297,241.068L68.473,241.223L66.959,241.223L64.857,241.47L63.343,242.181L61.983,243.201L60.654,244.005L59.479,244.715L58.366,245.148L57.532,245.674L56.388,246.292L55.399,246.879L53.946,247.652L52.463,248.95L51.01,250.032L50.361,251.175L49.248,252.35L48.012,253.555L46.714,255.039L45.121,257.066L42.842,259.42L41.338,261.663L39.676,263.672L38.479,264.792L37.049,266.26L35.426,266.956L34.615,267.226L32.374,269.699L31.061,270.858L29.283,272.983L27.197,274.915L25.883,276.305L24.377,278.044L22.986,279.821L21.363,281.676L19.663,283.685L17.925,285.23L16.225,286.66L14.331,288.128L13.327,288.901L7.841,289.132L5.948,289.828L4.17,290.601L3.089,291.644L1.852,292.725L0,293.885" style="fill:none;"/>
        <clipPath id="_clip1">
            <path d="M0,293.885L-2.259,295.089L-11.744,370.196L397.318,378.849L397.318,62.134L388.773,61.982L386.393,62.565L379.518,69.705L378.354,70.313L375.822,70.313L374.505,70.895L370.834,73.68L368.643,75.655L367.01,77.2L363.807,79.719L361.149,82.011L358.685,84.648L356.517,86.547L353.874,89.3L351.2,91.199L348.304,92.75L346.231,94.633L343.525,95.155L340.85,96.564L338.73,98.431L337.496,99.143L334.948,99.317L332.78,99.46L330.978,100.384L328.664,102.243L326.389,103.964L324.154,105.962L322.374,107.722L319.94,108.494L313.69,108.454L311.949,109.246L310.366,110.947L307.538,112.529L305.124,112.687L300.159,112.608L298.537,112.885L296.678,114.863L294.541,116.664L293.552,117.217L291.139,117.376L289.556,118.108L287.994,119.789L286.292,121.055L284.473,121.747L282.237,121.767L274.226,121.807L272.841,122.45L271.753,122.766L270.665,123.439L267.698,126.762L265.759,129.274L264.058,131.49L262.812,132.637L261.902,132.894L261.131,133.151L254.84,136.85L250.31,139.363L247.798,141.004L246.235,142.251L243.96,144.011L241.151,144.09L239.45,145.416L238.342,146.741L236.879,148.066L235.613,149.253L234.406,149.649L233.041,150.223L230.944,152.438L229.322,154.04L227.483,156.098L226.256,156.75L224.891,157.324L224.041,157.621L222.755,158.254L221.37,159.282L220.361,160.133L219.352,160.41L218.205,160.469L216.642,160.469L213.556,161.379L212.014,161.498L210.233,161.419L207.365,162.23L195.912,162.17L194.052,163.08L192.569,164.069L191.54,164.267L190.551,165.197L188.988,166.206L187.425,167.017L186.179,168.283L185.012,168.876L183.904,169.391L182.084,169.747L180.502,169.964L179.236,170.36L176.862,172.2L174.666,173.861L171.64,175.562L169.385,176.403L167.802,177.194L164.934,179.469L163.569,180.636L162.105,181.526L160.701,182.713L159.079,183.386L156.586,184.909L152.668,188.818L149.917,190.981L148.062,192.156L146.579,192.836L144.137,194.227L141.757,195.339L139.655,196.669L138.45,197.565L136.935,197.905L135.761,198.77L134.524,199.976L133.103,200.872L131.743,201.274L130.63,201.954L129.115,203.19L127.879,203.407L126.519,204.581L125.376,205.137L124.077,206.157L123.181,206.992L121.79,207.888L120.647,208.537L119.998,209.31L118.885,210.083L118.081,210.392L116.659,210.855L115.299,211.752L114.156,213.112L113.074,213.235L112.085,214.224L109.396,216.156L107.912,217.083L106.46,218.474L104.914,219.896L103.369,221.565L102.133,222.585L101.143,223.265L100.278,223.389L98.238,225.212L96.476,226.541L95.055,227.994L93.818,228.89L93.045,229.169L91.778,230.189L90.233,230.776L89.275,231.332L87.729,232.352L86.678,233.218L85.751,234.238L84.515,235.227L83.155,235.783L81.826,236.988L80.62,237.637L79.168,238.287L77.9,238.843L76.633,239.987L75.273,240.79L74.068,241.006L72.368,241.068L70.297,241.068L68.473,241.223L66.959,241.223L64.857,241.47L63.343,242.181L61.983,243.201L60.654,244.005L59.479,244.715L58.366,245.148L57.532,245.674L56.388,246.292L55.399,246.879L53.946,247.652L52.463,248.95L51.01,250.032L50.361,251.175L49.248,252.35L48.012,253.555L46.714,255.039L45.121,257.066L42.842,259.42L41.338,261.663L39.676,263.672L38.479,264.792L37.049,266.26L35.426,266.956L34.615,267.226L32.374,269.699L31.061,270.858L29.283,272.983L27.197,274.915L25.883,276.305L24.377,278.044L22.986,279.821L21.363,281.676L19.663,283.685L17.925,285.23L16.225,286.66L14.331,288.128L13.327,288.901L7.841,289.132L5.948,289.828L4.17,290.601L3.089,291.644L1.852,292.725L0,293.885"/>
        </clipPath>
        <g clip-path="url(#_clip1)">
            <g transform="matrix(-2.05096,-0.239412,0.487331,-4.1748,677.355,1227.34)">
                <rect x="200" y="185.783" width="182.865" height="141.525" style="fill:url(#_Linear2);"/>
            </g>
        </g>
    </g>
    <g transform="matrix(1,0,-1.2326e-32,1,9.09495e-13,-60.0707)">
        <circle cx="397.318" cy="62.134" r="2.064" style="fill:rgb(38,101,204);"/>
    </g>
    <defs>
        <linearGradient id="_Linear2" x1="0" y1="0" x2="1" y2="0" gradientUnits="userSpaceOnUse" gradientTransform="matrix(182.865,0,0,141.525,200,256.545)"><stop offset="0" style="stop-color:rgb(38,101,204);stop-opacity:0"/><stop offset="1" style="stop-color:rgb(38,101,204);stop-opacity:0.24"/></linearGradient>
    </defs>
</svg>
