<?xml version="1.0" encoding="UTF-8" standalone="no"?>
<svg xmlns:rdf="http://www.w3.org/1999/02/22-rdf-syntax-ns#" xmlns="http://www.w3.org/2000/svg" xml:space="preserve" height="144.912509328" viewBox="0 0 191.97029 40.312808" width="690.071550509" version="1.1" xmlns:cc="http://creativecommons.org/ns#" xmlns:dc="http://purl.org/dc/elements/1.1/"><g transform="matrix(1.25 0 0 -1.25 -286.46 515.45)"><g style="" transform="matrix(.25 0 0 .25 229.57 297.28)"><g fill="#00467f"><path d="m160.65 442.71c-0.2647-0.1308-0.6634-0.1308-0.7973-2.2362-0.1339-2.6302-0.1339-30.516-0.1339-32.62 0-1.9746 0.5325-2.3701 0.9312-2.3701 0.7989-0.1308 2.5274-0.1308 3.5926-0.1308 3.8557 0 12.104 1.0527 14.764 2.7625 3.7234 2.6302 7.9793 8.023 7.9793 15.126 0 6.9734-2.1287 11.971-5.5874 15.129-3.591 3.2874-8.3796 5.2604-16.36 5.2604-1.7285 0-3.7218-0.5248-4.3883-0.9203zm26.467-1.7099c5.7214-4.0784 8.2488-9.9975 8.2488-15.786 0-8.811-4.5222-12.625-7.5791-14.995-2.2612-1.9731-5.9877-3.5521-8.1149-4.3401-0.5326-0.2616-0.2678-1.1835 0.2663-2.4994 2.6582-5.128 11.307-18.547 15.029-23.544 4.122-5.5235 6.9173-8.8156 9.7094-11.577 4.2575-4.2092 8.1133-5.3927 10.508-5.3927 1.0636 0 1.7285-0.3925 1.7285-0.788 0-0.2647-0.531-0.6603-1.5962-1.0527-1.0636-0.394-3.1923-0.5248-5.0548-0.5248-8.1133 0-13.436 4.3401-18.355 10.39-6.7819 8.5493-17.954 26.701-19.818 28.938-1.3299 1.4451-2.5259 2.6318-4.1236 3.0242-1.3268 0.3955-3.1924 0.6571-6.6495 0.5263-0.6665 0-1.1991-0.5263-1.3299-1.0527-0.2678-1.3143-0.3987-18.151-0.2678-23.413 0.1339-6.0499 0.6665-10.786 1.0651-11.969 0.5326-1.5775 1.4623-2.8949 6.2539-3.6829 1.4623-0.2616 1.9918-0.5263 1.9918-1.0527 0-0.5263-1.0636-0.9219-2.6598-0.9219-2.7922 0-5.3212 0.6603-9.8403 0.6603-4.9225 0-8.7813-0.6603-11.309-0.6603-1.3299 0-2.2595 0.2647-2.2595 0.9219 0 0.5264 0.9296 0.7911 2.6613 1.1835 4.1221 0.7911 5.5874 1.9746 5.9845 7.4982 0.3987 7.4966 0.6634 17.363 0.6634 36.437 0 18.413-0.5326 25.385-0.7957 29.594-0.2648 3.8137-0.5342 5.6575-6.12 6.5747-1.196 0.2647-2.2596 0.5295-2.2596 1.1866 0 0.3956 0.6649 0.788 2.3935 0.788 1.8625 0 5.0548-0.5264 9.8418-0.5264 4.9209 0 9.8419 0.6603 14.233 0.6603 7.9794 0 13.167-1.4482 17.553-4.6048"/><path d="m242.32 371.7c4.2684 3.3091 9.3435 10.837 9.3435 22.133 0 8.2114-2.42 15.63-7.7287 20.876-3.2281 3.3092-8.3063 6.5031-15.574 6.5031-4.8462 0-10.267-2.8498-13.612-6.3878-4.8477-5.0206-6.3473-12.324-6.3473-19.738 0-6.2757 2.6551-13.69 6.5778-18.14 5.536-6.5031 11.19-8.4435 17.074-8.4435 3.8075 0 7.2661 1.0294 10.267 3.1971zm-41.417 23.729c0 7.8719 3.2313 15.63 11.885 21.906 4.9599 3.7654 10.842 5.5905 17.19 5.5905 16.493 0 28.954-12.777 28.954-28.524 0-13.461-9.5771-22.361-16.613-25.21-3.8075-1.6009-7.7302-2.6256-11.999-2.6256-16.614 0-29.418 13.462-29.418 28.864"/><path d="m311.65 419.73c0.4594-0.1153 1.1524-0.9126 1.1524-1.4841-0.2305-2.054 0.1121-6.391 0.1121-7.1883 0.1184-1.3672-0.3426-2.2798-0.6898-2.2798-0.4594 0-0.5747 0.5684-0.8098 1.3688-0.8051 3.0803-1.959 5.3617-4.8446 7.4141-2.8825 2.054-6.5747 3.7654-13.498 3.7654-6.5732 0-12.573-2.8528-16.264-6.6183-3.806-3.8775-6.8052-11.18-6.8052-19.508 0-7.9871 3.8043-15.515 7.7271-19.511 4.6157-4.6748 11.306-6.9593 16.73-6.9593 5.3071 0 8.0744 0.8004 10.611 2.3966 3.3466 2.1677 5.8864 5.1342 7.2693 8.5586 0.4625 1.1399 0.693 1.5962 1.1524 1.5962 0.3472 0 0.4625-0.9125 0.4625-1.7114 0-1.713-1.1524-4.9069-1.3829-5.7058-0.232-0.7973-0.6945-2.2814-1.3875-2.7376-5.536-2.965-9.8045-4.5628-17.879-4.5628-11.307 0-17.306 3.3092-23.074 8.4434-4.0395 3.535-7.8454 11.408-7.8454 19.508 0 9.5849 4.5004 16.543 10.384 21.45 4.9599 4.1065 12.573 6.9594 20.764 6.9594 7.9622 0 13.961-1.8251 18.116-3.1939"/><path d="m323.12 413.68c0 3.6502-0.5761 5.4753-4.3836 6.1589-1.1524 0.2289-2.0743 0.5715-2.0743 1.0278 0 0.4562 1.1493 0.6852 1.959 0.6852 1.5028 0 4.4989-0.3442 7.3845-0.3442 2.3063 0 6.8068 0.3442 7.9591 0.3442 1.0372 0 1.8469-0.1168 1.8469-0.5716 0-0.5699-1.1523-1.0262-1.8469-1.1414-3.0008-0.5684-3.9227-1.7099-4.0379-4.4491 0-1.8251-0.2289-15.971-0.1168-16.999 0.1168-0.7974 0.232-1.5978 0.8098-1.5978h24.109c7.847 0 8.6537 0 9.2314 0.1152 0.6915 0.1137 0.8067 0.4563 0.9219 1.0263 0.2305 1.2551 0.1153 12.209 0 15.174-0.2304 4.9054-1.0371 6.1621-4.27 6.6184-1.0371 0.2273-2.1895 0.5684-2.1895 1.0246 0 0.5715 0.9204 0.8005 2.1895 0.8005 3.9228 0 4.27-0.3442 7.9623-0.3442 2.884 0 4.8446 0.3442 7.0387 0.3442 1.6118 0 2.3048-0.229 2.3048-0.6852 0-0.3426-0.693-0.7989-1.8454-0.9126-4.0364-0.5715-4.6141-2.3966-4.6141-5.8179 0-2.1692-0.1168-15.062 0-20.88 0.1152-5.7027 0.2305-14.146 0.2305-16.772 0-4.7901 0.4625-5.8179 5.0766-6.8457 1.1524-0.2258 1.8454-0.4531 1.8454-1.0247 0-0.4562-0.8051-0.6852-1.9606-0.6852-1.4997 0-6.5763 0.3411-8.4232 0.3411-2.42 0-6.1122-0.3411-7.2661-0.3411-1.618 0-2.3079 0.229-2.3079 0.6852 0 0.5716 0.9219 0.7989 1.727 1.0247 3.4649 0.5715 4.1548 1.0278 4.502 4.5643 0.1153 1.4825 0.1153 8.4434 0.1153 17.684 0 1.0278-0.693 1.9403-0.9219 1.9403-1.6149 0.2274-6.922 0.341-18.805 0.341h-14.881c-0.4625 0-0.8098-0.5699-0.8098-1.7098 0-17.915 0.2305-18.939 0.4625-19.852 0.3473-1.7129 1.3844-2.1692 4.0395-2.8529 1.2676-0.341 1.9606-0.6836 1.9606-1.1399 0-0.6852-1.4981-0.6852-2.0774-0.6852-1.7301 0-5.4223 0.3411-8.1895 0.3411-2.4247 0-5.6513-0.3411-7.0388-0.3411-0.925 0-2.3063 0.1122-2.3063 0.7974 0 0.3441 1.1539 0.8004 2.0758 0.9125 3.9227 0.7989 4.038 1.8282 4.27 4.2217 0.2273 2.3966 0.3441 7.9872 0.3441 21.221v18.598"/><path d="m382.51 420.76c0 0.4563 0.6945 0.8005 1.3875 0.8005 2.3032 0 5.4177-0.3442 7.6103-0.3442 4.9598 0 15.688 0.2274 19.38 0.2274 3.345 0 6.2321 0.1168 7.0419 0.1168 0.4578 0 0.8051-0.8005 0.9203-1.3689 0.1137-0.9125 0.4625-4.9069 0.6914-6.503 0.1153-0.9126-0.1168-1.5962-0.5777-1.5962-0.3442 0-0.6914 0.5684-1.034 1.3688-1.7348 3.8776-3.2344 5.2464-4.6173 5.4737-1.4965 0.229-1.8469 0.3442-17.072 0.3442-0.5778 0-0.925-0.2289-0.925-1.2567 0-4.678-0.1153-17.683 0-20.193 0-0.4563 0.2304-0.9126 0.6929-0.9126h9.9182c4.6172 0 6.5794 0.4563 7.5013 0.9126 0.5746 0.341 1.2676 1.0262 2.1926 3.3092 0.232 0.6852 0.5746 1.3657 1.0371 1.3657 0.3442 0 0.4625-0.4563 0.4625-1.5962 0-0.4563-0.4625-3.8776-0.5777-5.1312-0.1122-1.3719-0.1122-4.449 0-5.1342 0.1152-0.7989-0.1122-1.7114-0.4594-1.7114-0.4625 0-0.693 0.5715-1.2707 1.9403-0.5793 1.3688-1.154 3.1924-2.5368 3.4213-1.3875 0.341-4.0395 0.5684-16.498 0.5684-0.2321 0-0.693-0.3411-0.693-1.1399-0.1168-2.7377 0.2305-16.656 0.3457-18.368 0.232-3.1939 0.3473-4.678 2.3094-4.9069 1.1524-0.1121 4.4974-0.3426 9.3435-0.3426 8.4185 0 9.2299 0.4594 10.614 1.484 0.9218 0.8005 2.1894 2.3967 3.9211 5.3617 0.4625 0.9125 0.9235 1.484 1.2676 1.484 0.4656 0 0.5778-0.7988 0-2.3966-0.3441-0.9125-1.7301-5.7026-1.9621-6.8425-0.1121-0.5716-0.9204-1.2568-1.6118-1.2568-9.806 0-19.036 0.3411-27.342 0.3411-2.9993 0-6.9236-0.3411-7.9576-0.3411-1.0433 0-2.3109 0-2.3109 0.6852 0 0.4563 0.925 0.7989 1.8453 0.9126 3.1176 0.5684 4.502 1.4841 4.7294 4.9053 0.3473 5.4753 0.3473 15.515 0.3473 24.074v15.174c0 4.5627-1.3844 5.4753-4.4989 6.1589-1.0372 0.2289-1.4981 0.5715-1.4981 1.0278l-0.1168-0.1153"/><path d="m435.65 411.29c0-4.449 2.8872-7.643 5.7727-9.697 3.3435-2.1677 6.3458-4.108 9.6908-6.0452 3.4587-2.2845 9.1131-6.2789 9.1131-13.35 0-9.6986-8.9978-15.63-18.228-15.63-4.1547 0-9.2283 1.0247-12.231 2.5103-1.1524 0.3426-1.3844 1.8236-1.727 3.1924-0.1168 1.484-0.4625 3.3091-0.6946 6.162-0.1152 1.0294 0 1.9404 0.4625 1.9404 0.4594 0 1.0372-0.7989 1.4997-2.1677 0.9219-3.0818 2.3063-5.4784 4.3836-7.0746 2.7673-2.1662 6.4595-2.8529 8.6521-2.8529 7.1509 0 11.306 4.5658 11.306 10.496 0 6.162-3.4618 9.2438-11.19 13.805-6.5747 3.8791-12.576 8.5587-12.576 16.086 0 4.1096 1.9653 8.3282 5.5391 10.84 3.2298 2.3967 7.7318 3.4229 11.651 3.4229 4.4989 0 8.3064-1.3688 9.4603-1.8251 0.693-0.2289 1.0387-0.6852 1.1555-1.1415 0-2.3966 0.4594-5.1342 0.693-6.3894 0.2289-1.2567 0.1121-2.054-0.3504-2.054-0.4594 0-0.8051 0.5731-1.1524 1.713-0.9219 2.5087-2.0774 4.3338-3.8043 5.5905-2.0774 1.7099-4.8478 2.5087-7.5013 2.5087-4.2669 0-9.9244-2.3966-9.9244-10.04"/><path d="m503.62 421.21c4.1547 0 5.7665 0.2274 7.2692 0.8004 0.5747 0.3395 1.1524 0.6837 1.3798 0.4563 0.2351-0.2289 0.2351-0.5699 0.1199-1.0293-0.3473-0.6837-0.6914-4.4491-0.5778-8.3267 0-1.2567-0.232-2.1692-0.6914-2.1692-0.3457 0-0.693 0.8004-0.8082 1.3688-0.232 1.1446-1.157 4.337-1.7317 5.1343-0.6898 0.9156-0.9234 1.3719-3.8043 1.3719h-13.501c-0.4594 0-0.6899-1.0278-0.6899-1.484l-0.232-30.005c0-5.0206 0-11.067 0.3473-13.693 0.3472-2.5087 1.6148-3.4213 4.6141-3.9928 1.2676-0.2258 1.9622-0.6821 1.9622-1.1415 0-0.4562-1.3844-0.6836-2.1942-0.6836-2.7673 0-4.7294 0.4563-8.1896 0.4563-4.7294 0-6.8052-0.4563-8.1911-0.4563-1.618 0-2.1895 0.3442-2.1895 0.6836 0 0.4594 0.8051 0.8005 1.9574 1.0294 4.2684 0.5684 4.8462 1.5962 4.9614 5.9331 0.3504 8.5556 0.5778 40.957 0.5778 41.87 0 0.4562-0.1153 1.3688-0.5778 1.484h-7.2661c-3.8075 0-6.5763-0.1152-7.7287-0.2289-1.7332-0.2274-3.1176-1.3673-4.0395-5.9331-0.2304-1.0247-0.5777-1.5978-0.9203-1.5978-0.4625 0-0.6945 0.6852-0.6945 1.713 0 1.8251 0.9219 5.7027 0.9219 8.6677 0 0.573 0.1152 1.0293 0.3441 1.2567 0.3488 0.2289 0.5809 0 1.0403-0.4563 0.3488-0.341 1.6148-0.5684 2.8855-0.6836 1.2692-0.1168 10.613-0.3442 20.075-0.3442h15.572"/><path d="m516.09 420.76c0 0.4563 0.6899 0.8005 1.3829 0.8005 2.3094 0 5.4208-0.3442 7.6134-0.3442 4.9614 0 15.691 0.2274 19.383 0.2274 3.3465 0 6.2259 0.1168 7.0357 0.1168 0.4625 0 0.8082-0.8005 0.925-1.3689 0.1152-0.9125 0.4625-4.9069 0.6929-6.503 0.1122-0.9126-0.1152-1.5962-0.5777-1.5962-0.3504 0-0.693 0.5684-1.0402 1.3688-1.727 3.8776-3.2298 5.2464-4.6142 5.4737-1.4996 0.229-1.8469 0.3442-17.075 0.3442-0.5778 0-0.9188-0.2289-0.9188-1.2567 0-4.678-0.1184-17.683 0-20.193 0-0.4563 0.2289-0.9126 0.6883-0.9126h9.9212c4.6173 0 6.5748 0.4563 7.5029 0.9126 0.5715 0.341 1.266 1.0262 2.1895 3.3092 0.2289 0.6852 0.5793 1.3657 1.0371 1.3657 0.3504 0 0.4594-0.4563 0.4594-1.5962 0-0.4563-0.4594-3.8776-0.5746-5.1312-0.1153-1.3719-0.1153-4.449 0-5.1342 0.1152-0.7989-0.1153-1.7114-0.4594-1.7114-0.4625 0-0.6899 0.5715-1.2707 1.9403-0.5747 1.3688-1.1524 3.1924-2.5368 3.4213-1.3844 0.341-4.0395 0.5684-16.498 0.5684-0.2305 0-0.6899-0.3411-0.6899-1.1399-0.1183-2.7377 0.2305-16.656 0.3442-18.368 0.2273-3.1939 0.3457-4.678 2.3078-4.9069 1.1524-0.1121 4.4958-0.3426 9.3435-0.3426 8.4216 0 9.2283 0.4594 10.614 1.484 0.9188 0.8005 2.188 2.3967 3.9212 5.3617 0.4594 0.9125 0.925 1.484 1.2676 1.484 0.4625 0 0.5793-0.7988 0-2.3966-0.3426-0.9125-1.727-5.7026-1.9606-6.8425-0.1136-0.5716-0.9219-1.2568-1.6117-1.2568-9.806 0-19.037 0.3411-27.347 0.3411-2.9962 0-6.9189-0.3411-7.9529-0.3411-1.0403 0-2.3094 0-2.3094 0.6852 0 0.4563 0.9188 0.7989 1.8438 0.9126 3.1145 0.5684 4.5004 1.4841 4.7325 4.9053 0.3426 5.4753 0.3426 15.515 0.3426 24.074v15.174c0 4.5627-1.3829 5.4753-4.4974 6.1589-1.0402 0.2289-1.5027 0.5715-1.5027 1.0278l-0.1122-0.1153"/><path d="m572.68 419.16c-0.2305-0.1137-0.5778-0.6852-0.693-2.2814-0.1121-1.3688-0.3442-18.256-0.3442-19.624 0-0.4563 0.2321-1.7083 0.8067-1.7083 1.3875-0.1168 3.2328-0.1168 5.0766-0.1168 3.4602 0.1168 6.229 1.0262 8.1927 2.1692 2.5399 1.5962 5.0736 4.678 5.0736 9.3529 0 3.4244-1.1524 6.2773-3.1145 8.5587-2.42 2.6239-5.997 4.3338-10.496 4.3338-0.925 0-3.577-0.2274-4.502-0.6836zm-1.0372-37.648c0-6.0468 0.3442-7.9871 0.4594-8.6708 0.1184-1.825 1.5028-2.7407 4.0395-3.197 0.8098-0.1121 1.8469-0.4531 1.8469-0.9125 0-0.4563-1.0371-0.7974-2.0773-0.7974-1.9622 0-5.4208 0.3411-8.6506 0.3411-3.2328 0-4.9614-0.3411-6.6915-0.3411-1.3844 0-1.9621 0.3411-1.9621 0.6852 0 0.4563 0.6945 0.7989 1.9621 1.0247 3.2298 0.5715 4.1548 1.4841 4.3837 4.5643 0.3457 4.7917 0.3457 10.725 0.3457 22.931 0 11.64 0 16.202-0.1152 18.483-0.1122 2.5118-0.9219 3.7654-4.5021 4.3369-0.9203 0.1137-1.727 0.57-1.727 0.9126 0 0.4562 1.0372 0.6852 1.727 0.6852 1.2723 0 3.4618-0.3442 6.5794-0.3442 4.0364 0 7.9591 0.4594 11.996 0.4594 6.0017 0 9.5756-1.143 12.576-3.197 3.809-2.3967 5.536-6.1621 5.536-9.8123 0-6.8425-4.7262-10.952-10.496-12.777-0.6946-0.2274-0.6946-0.5684-0.2321-1.4841 2.0774-3.7623 6.5763-10.152 10.153-14.83 2.7672-3.6502 4.7294-5.4784 6.4595-7.1867 2.4215-2.2845 5.1919-3.1939 7.1509-3.1939 1.0402 0 0.8098-0.6884 0-1.1446-0.8067-0.4563-2.1895-0.6837-4.3821-0.6837-6.0017 0-8.8795 2.624-12.69 6.6184-4.5004 4.7901-10.962 14.946-12.92 17.57-0.9234 1.0247-2.652 1.7099-3.8075 1.9373-0.8066 0.1152-2.7672 0.2289-4.1547 0.2289-0.4625 0-0.8067-0.7973-0.8067-1.5978v-10.608"/><path d="m510.31 446.82c-1.5542-2.5243-2.1054-5.276-2.1054-6.9251 0-1.2318 0.5185-2.1039 1.7161-2.1039 0.5824 0 1.1975 0.3551 2.1365 1.6819 1.101 1.523 2.3951 5.2759 2.3951 7.1851 0 1.0683-0.3239 2.2004-1.5869 2.2004-0.5824 0-1.5198-0.355-2.5554-2.0384zm6.5373-1.1976c0-3.0428-1.4576-6.5684-3.8526-8.2207-0.9702-0.6462-2.135-1.1648-3.2671-1.1648-2.6224 0-4.0785 2.7517-4.0458 5.0486 0.0327 3.0429 1.7473 6.2461 3.753 7.7676 1.0044 0.7443 2.7517 1.2629 3.4633 1.2629 2.5555 0 3.9492-2.3639 3.9492-4.6936"/><path d="m529.08 449.96c0.6151 0.0327 0.7459-0.162 0.7459-0.3566 0-0.2912-0.3239-0.9702-0.7459-1.0683-0.324-0.0638-1.8438-0.1292-2.4917-0.1604-0.1931 0-0.7443-0.1635-0.8409-0.5186-1.5214-7.1836-2.5243-10.971-3.1705-13.366-0.6806-2.4589-1.5542-3.5288-3.4307-4.6936-1.4887-0.9063-2.5912-1.2287-3.3667-1.2287-0.7771 0-2.2331 0.6151-2.2331 1.6819 0 0.6166 0.3239 1.3594 0.6478 1.5541 0.1604 0.0638 0.9374 0.2585 1.0994 0.0981 0.7771-0.7459 1.7145-1.3922 2.3312-1.3922 0.7755 0 1.4233 0.2274 2.1039 2.8155 0.9374 3.5599 3.074 13.302 3.3325 14.596 0 0.1292-0.0654 0.3877-0.2258 0.3877l-2.1039-0.0638c-0.1308 0-0.3566 0.2585-0.3566 0.4189 0 0.4874 0.5497 1.0355 0.679 1.0355 0.26 0.0343 1.5541 0.0981 2.1054 0.1293 0.2258 0 0.3877 0.3239 0.4531 0.3893 0.8721 2.9136 2.4901 6.0857 4.7247 7.5091 1.1649 0.7443 2.297 1.0028 2.881 1.0028 2.1349 0 3.0413-1.1648 3.0413-2.3296 0-0.3239-0.1293-1.0356-0.6805-1.456-0.2586-0.1947-0.679-0.324-0.9064-0.324-0.1604 0-0.5824 0.1947-0.6135 0.4532-0.162 1.3595-0.6805 2.2004-1.9108 2.2004-0.3566 0-1.0682-0.3239-1.7161-1.2302-0.6135-0.9048-1.5198-3.2033-2.1023-5.9223-0.0327-0.1292 0.1947-0.2927 0.2258-0.2927l2.5244 0.1308"/><path d="m229.43 456.75c1.5961 0 2.4698-0.2585 4.5814-0.2585 1.6974 0 2.5726 0.1028 3.9102 0.1028 1.0808 0 1.4935-0.3083 1.4935-0.5653 0-0.3613-0.2072-0.6696-1.3907-0.9265-1.4918-0.3099-2.3156-0.6183-2.3156-2.5742-0.0514-2.9338 0-6.5373 0.0514-9.8309 0.0514-3.345 1.5448-5.5578 2.3686-6.2275 0.9779-0.721 2.7781-1.4918 4.5284-1.4918 3.2936 0 6.0733 0.8752 6.6386 7.0512 0.2585 3.7047 0.2056 9.6238 0.2056 10.242-0.1542 1.646-0.4111 2.5725-2.8296 2.9852-0.5668 0.1028-1.0807 0.4111-1.0807 0.7724 0 0.4625 0.6681 0.5653 1.3377 0.5653 1.2863 0 1.1321-0.1028 2.4184-0.1028 2.0587 0 3.8604 0.2585 4.9926 0.2585 0.7724 0 1.1835-0.3613 1.1835-0.5154 0-0.5139-0.5139-0.721-1.1835-0.8752-1.903-0.4641-2.4698-1.0807-2.5212-3.1924-0.0514-1.4404-0.257-4.2201-0.3598-7.3066-0.1043-4.2715-0.9779-8.2347-3.7062-10.398-1.4934-1.2349-3.5007-2.0073-6.2275-2.0073-2.8311 0-5.1467 0.8768-6.5887 2.1117-2.1615 1.8002-3.2936 4.3743-3.2936 10.653 0 1.3891-0.0514 7.2568-0.1542 8.1834-0.0514 0.5139-0.2055 1.4404-2.2642 1.9045-0.6182 0.1542-1.1835 0.5653-1.1835 0.8222 0 0.4641 0.5653 0.6198 1.3891 0.6198"/><path d="m260.35 456.7c1.1835 0 4.6312-0.3084 5.8148-0.3084 0.4126 0 0.6696-0.2071 1.0309-0.668 0.9764-1.2365 2.11-2.3686 3.4477-3.9118 1.3891-1.5978 8.0806-8.8546 10.705-11.633 0.0513-0.0514 0.3612-0.1028 0.3612 0.2056 0.0514 2.831 0.3084 9.5724 0.0514 12.044-0.1557 1.4919-0.721 2.3172-3.1908 2.8825-0.4126 0.1542-1.0823 0.3597-1.0823 0.8222 0 0.5669 1.0823 0.5669 1.2365 0.5669 1.7488 0 3.088-0.2056 4.3743-0.2056 1.0294 0 2.3156 0.2056 3.6019 0.2056 0.5155 0 1.0823-0.2056 1.0823-0.5669 0-0.3597-0.2585-0.5139-1.0823-0.8222-2.0073-0.5653-2.4184-1.2349-2.6239-3.2422-0.2056-1.9559-0.4641-8.5431-0.4641-11.528 0-2.8841 0.1557-6.2804 0.1557-6.6401 0-0.8238-0.2071-1.3907-0.6696-1.3907-0.3613 0-1.1321 0.4127-1.5448 0.7724-0.8736 1.0309-2.8809 3.7577-5.712 6.7943-2.367 2.5726-5.9705 6.9999-9.0071 10.191-0.1028 0.1541-0.4625 0.1541-0.4625-0.2056-0.0514-1.7503-0.3099-9.2127-0.0514-12.611 0.1541-1.646 1.3377-2.367 2.8825-2.8809 0.5652-0.2071 0.925-0.4127 0.925-0.7724 0-0.5155-0.721-0.6696-1.1836-0.6696-0.1541 0-1.7487 0.1541-3.1908 0.1541-1.2863 0-3.4493-0.3083-4.5814-0.3083-0.6681 0-1.2349 0.1542-1.2349 0.6696 0 0.257 0.2056 0.4625 1.1851 0.7195 2.4698 0.6182 2.7781 1.5448 2.9323 2.831 0.1028 1.2863 0.4126 6.1247 0.4126 10.655 0 2.4184-0.0513 3.8074-0.1027 4.2201-0.053 0.4111-0.8238 1.699-1.8532 2.4698-0.464 0.3597-1.0293 0.6167-2.11 0.8238-0.9266 0.1542-1.3393 0.4111-1.3393 0.8222 0 0.2071 0.6183 0.5155 1.2879 0.5155"/><path d="m294.47 456.65c0.4111-0.0514 4.0146-0.1542 5.5064-0.1542 1.5962 0 3.8605 0.1542 4.9926 0.3084 0.3597 0.0513 1.1321-0.3084 1.1321-0.5653 0-0.3613-0.668-0.8238-1.2863-0.9266-2.4713-0.721-2.6753-1.1337-2.7797-2.9852-0.1027-1.1337-0.1027-3.7577-0.1027-7.1027 0-2.9338 0-5.5594 0.0513-6.6385 0.1028-2.9339 0.4641-3.398 2.8825-3.9632 0.6167-0.1558 1.1835-0.5669 1.1835-1.0294 0-0.3613-0.5139-0.464-1.0293-0.464-1.4405 0-2.8311 0.1541-5.044 0.1541-1.4918 0-4.2201-0.2569-5.1981-0.2569-0.7724 0-1.2349 0.2055-1.2349 0.5668 0 0.4625 0.7724 0.8222 1.2349 0.978 2.4698 0.6166 2.9339 1.1819 3.0367 3.1378 0.0514 0.9282 0.1028 2.5228 0.1028 4.2217 0 5.4037 0 9.0056-0.0514 9.831-0.1542 2.2128-1.0294 2.8809-3.0367 3.4462-0.9265 0.3099-1.0807 0.6696-1.0807 0.9779 0 0.2071 0.1542 0.5155 0.721 0.4641"/><path d="m312.63 456.75c0.9779 0 3.0366-0.2585 4.6842-0.2585 1.5432 0 3.0366 0.1542 4.2202 0.1542 1.0293 0 1.3376-0.3083 1.3376-0.6167 0-0.3083-0.3597-0.5668-1.1819-0.8253-2.0073-0.4111-1.9061-1.2863-1.442-2.4683 0.6696-1.6475 1.442-3.7592 2.5212-6.3831 1.185-2.6256 2.4199-6.0733 3.0366-6.7414 0.2071-0.2071 0.4127-0.464 0.6182 0.1012 0.6167 1.442 4.0146 9.7811 4.8384 12.147 0.7709 2.3156 0.6696 2.884-1.3891 3.3979-0.464 0.1542-1.0822 0.5139-1.0822 0.8238 0 0.1542 0.4126 0.5653 1.2349 0.5653 1.3906 0 2.0586-0.1542 3.3465-0.1542 1.8017 0 3.3964 0.2585 4.2201 0.2585 0.5669 0 1.1322-0.1557 1.1322-0.5154 0-0.5139-0.6167-0.721-1.3377-0.9266-1.6476-0.4127-2.6255-1.2349-3.9118-3.6549-1.1835-2.11-2.5212-5.6621-4.1688-9.3154-2.4714-5.4551-3.2936-8.0806-3.5521-8.6973-0.2055-0.6182-0.9266-1.3906-1.3377-1.3906-0.3597 0-0.6696 0.5668-0.7724 1.0293-0.1027 0.4127-0.8751 3.0382-1.9029 5.4037-1.1851 2.7283-4.787 11.324-6.3318 14.361-0.6167 1.1305-1.3377 1.9029-3.1394 2.3156-0.4625 0.1542-1.1322 0.4111-1.1322 0.7708 0 0.5155 0.7709 0.6198 1.4919 0.6198"/><path d="m353.75 446c2.2113 0 2.4683 0.2585 3.1893 2.0088 0.2569 0.4625 0.6182 1.0294 0.9779 1.0294 0.4127 0 0.4641-0.5139 0.4641-1.1835 0-0.3613-0.1542-1.0294-0.1542-2.3686 0-1.4934 0.1542-1.646 0.1542-2.7283 0-1.1321-0.3083-1.4405-0.721-1.4405-0.3083 0-0.5653 0.4111-0.8238 1.0294-0.4625 1.0293-0.6696 1.4934-1.1321 1.6989-0.6167 0.204-3.6533 0.3084-4.4787 0.204-0.1526 0-0.4095-0.3581-0.5139-0.7179-0.1541-0.9281-0.204-6.1262 0.1044-7.3611 0.0498-0.2056 0.668-0.721 0.8736-0.8222 0.3099-0.2071 1.9045-0.5684 3.0896-0.5684 1.1819 0 2.6239 0.1043 3.2936 0.3099 1.5946 0.4625 2.2128 0.721 3.7047 3.0366 0.4111 0.6696 0.721 1.0294 1.0293 1.0294 0.5155 0 0.5155-0.8752 0.5155-1.1337 0-0.8223-1.0294-4.0131-1.3907-4.5285-0.2055-0.3597-0.5154-0.4625-1.646-0.4625-4.8384 0-4.787 0.2569-11.838 0.2569-1.646 0-3.3964-0.2569-4.6313-0.2569-0.6696 0-1.5448 0.1541-1.5448 0.6696 0 0.4625 0.6183 0.7194 1.1835 0.8752 2.8825 0.668 2.9853 1.2863 3.1395 3.0864 0.1027 1.3907 0.1541 4.7356 0.1541 8.0806 0 2.3686 0 4.9926-0.1028 7.2054-0.0513 1.0823-0.3597 1.8033-2.5211 2.3172-0.6183 0.1542-1.2349 0.4111-1.2349 0.8736 0 0.3613 0.5652 0.5669 1.389 0.5669 0.9266 0 2.5742-0.2056 4.5301-0.2056 9.8807 0 10.086-0.0529 11.321 0.2056 0.3083 0.0529 0.6182-0.2585 0.6182-0.4625 0-1.4919 0.3597-3.6549 0.3597-4.3759 0-0.6167-0.3597-0.9266-0.5138-0.9266-0.257 0-0.6697 0.2071-1.0808 1.0294-0.9265 1.9045-1.5432 2.5741-3.1394 2.7812-0.721 0.0499-1.2863 0.204-5.0953 0.204-0.2056 0-0.4127-0.4625-0.4625-0.668-0.1558-0.7724-0.2071-5.9705-0.1044-7.5667 0-0.257 0.2056-0.5139 0.6183-0.6167 0.8237-0.1043 1.9559-0.1043 2.4199-0.1043"/><path d="m376.65 455c-0.257-0.1044-0.5139-0.4127-0.5139-0.8254 0-0.5139-0.1558-7.7193-0.1558-8.1833 0-0.3084 0.2072-0.5653 0.5155-0.5653 2.2642 0 4.8898 0.4127 5.5578 0.8752 0.7724 0.5668 2.1615 1.9029 2.1615 3.9632 0 2.1614-1.6476 4.9925-6.1247 4.9925-0.5139 0-1.0807-0.1043-1.4404-0.2569zm-7.2584 1.5432h2.884c1.2349 0 3.2422 0.2071 7.5138 0.2071 3.3465 0 5.6108-0.7724 6.6915-1.9061 1.2863-1.1835 1.8531-2.5211 1.8531-4.0644 0-3.6035-2.8825-5.1996-4.4272-5.6621-0.1028-0.0514-0.257-0.257-0.2056-0.3084 1.0293-1.9559 3.088-5.3024 5.1981-7.6694 1.1851-1.2863 2.8311-2.5726 4.2715-2.8296 0.7724-0.1557 0.9266-0.2585 0.9266-0.721 0-0.6182-1.1835-0.9265-3.088-0.9265-2.1101 0-4.0146 0.7194-6.2275 3.1908-0.9265 1.0293-3.809 5.6606-4.6312 6.8955-0.4641 0.721-1.9559 1.3906-3.141 1.3906-0.2056 0-0.4625-0.0514-0.8222-0.3597-0.1044-0.1044-0.2072-0.257-0.2072-0.4127 0-1.0807 0.0514-3.8075 0.1558-6.5872 0.0514-1.5448 0.925-1.7519 2.2642-2.1614 0.4111-0.1044 1.0294-0.3613 1.0294-0.7724 0-0.6183-0.8752-0.721-1.3907-0.721-1.646 0-2.7283 0.1541-4.0146 0.1541-1.5946 0-3.1908-0.3597-4.7854-0.3597-0.8767 0-1.3906 0.2569-1.3906 0.6167 0 0.3099 0.4126 0.721 1.2863 0.9265 2.3172 0.5653 2.6769 1.0294 2.7812 3.2936 0.0514 1.0309 0.257 5.508 0.257 10.346 0 2.2129 0.0514 3.4992-0.053 4.7341-0.1028 1.0807-0.1526 1.906-2.7283 2.3156-0.7708 0.1557-1.2863 0.464-1.2863 0.8253 0 0.3598 0.6182 0.5653 1.2863 0.5653"/><path d="m413.29 456.5c0.3598-0.0529 0.5139-0.6696 0.5139-1.2349 0-1.4918 0.0514-2.6769-0.0498-3.3465-0.1557-0.978-0.5668-1.1306-0.721-1.1306-0.4641 0-0.6696 0.6167-0.8238 1.2349-0.4111 1.4919-1.0807 2.3157-1.7488 2.8809-0.6696 0.5669-1.8547 1.0294-3.0896 1.0294-2.5726 0-4.3229-1.8018-4.3229-4.0146 0-1.7488 1.442-3.1379 3.1908-4.1158 1.646-0.9266 3.0366-1.5962 4.5301-2.4714 2.1614-1.2349 3.9118-3.1394 3.9118-6.0219 0-2.367-1.5962-4.3229-3.0896-5.2495-1.0808-0.7194-3.4478-1.5962-5.712-1.5962-3.0881 0-5.3009 0.721-6.486 1.5962-0.4126 0.2585-0.5139 0.7724-0.5653 1.0808-0.0513 0.6166-0.464 3.088-0.464 3.8588 0 0.978 0.3597 1.3907 0.721 1.3907 0.4641 0 0.6167-0.5653 0.8238-1.1322 0.2569-0.668 0.7708-1.7503 1.1835-2.4184 1.2863-1.6989 3.088-2.9338 5.3523-2.9338 2.8824 0 4.2731 2.0586 4.2731 3.8074 0 2.0073-1.0823 3.0896-2.9853 4.2716-1.5448 0.9281-2.9339 1.6475-4.0675 2.3686-1.8516 1.185-4.2202 3.1908-4.2202 6.2788 0 3.8604 3.1908 6.6915 8.3391 6.6915 2.624 0 4.0644-0.6182 5.5064-0.8238"/><path d="m423.07 456.65c0.4111-0.0514 4.0131-0.1542 5.5065-0.1542 1.5961 0 3.8604 0.1542 4.9925 0.3084 0.3613 0.0513 1.1321-0.3084 1.1321-0.5653 0-0.3613-0.6696-0.8238-1.2863-0.9266-2.4698-0.721-2.6769-1.1337-2.7781-2.9852-0.1043-1.1337-0.1043-3.7577-0.1043-7.1027 0-2.9338 0-5.5594 0.0514-6.6385 0.1027-2.9339 0.4625-3.398 2.8824-3.9632 0.6183-0.1558 1.1835-0.5669 1.1835-1.0294 0-0.3613-0.5139-0.464-1.0277-0.464-1.4421 0-2.8327 0.1541-5.0455 0.1541-1.4934 0-4.2202-0.2569-5.1966-0.2569-0.7739 0-1.2365 0.2055-1.2365 0.5668 0 0.4625 0.7724 0.8222 1.2365 0.978 2.4682 0.6166 2.9323 1.1819 3.0351 3.1378 0.0514 0.9282 0.1028 2.5228 0.1028 4.2217 0 5.4037 0 9.0056-0.0514 9.831-0.1542 2.2128-1.0294 2.8809-3.0367 3.4462-0.9265 0.3099-1.0807 0.6696-1.0807 0.9779 0 0.2071 0.1542 0.5155 0.721 0.4641"/><path d="m457.18 456.5c5.8179 0 6.2804 0.3597 7.5683 1.1835 0.2055 0.1028 0.7708-0.1541 0.7708-0.7724-0.1028-2.3156 0.1558-4.4257 0.1558-4.9925 0-0.721-0.4641-1.1306-0.7211-1.1306-0.3612 0-0.6696 0.3597-0.8253 0.925-0.925 2.6769-1.7488 2.8311-2.8295 2.8825-1.0808 0.0514-3.9632 0-5.6108-0.1542-0.204 0-0.3597-0.4625-0.4111-0.7194-0.1028-0.774-0.1028-6.4875-0.1028-11.737 0-2.8295 0.1028-4.5285 0.3597-5.4021 0.3099-1.1851 0.7724-1.3907 2.8825-1.9559 0.9266-0.2072 1.2878-0.5155 1.2878-0.8768 0-0.3597-0.721-0.668-1.3906-0.668-2.1614 0-2.6769 0.2055-5.1467 0.2055-1.3377 0-4.1174-0.2569-5.4037-0.2569-0.721 0-1.2878 0.3099-1.2878 0.7194 0 0.4127 0.7739 0.6696 1.442 0.8254 2.8825 0.721 2.9339 1.3377 3.0351 3.3449 0.1557 4.5285 0.3099 9.8824 0.3099 15.853 0 0.1012-0.2056 0.5653-0.5139 0.6166-0.9266 0.1542-4.1189 0.4112-5.1981 0.3084-0.978-0.1028-1.699-0.5669-2.5742-1.9544-0.6182-0.9265-0.7723-1.3906-1.1835-1.3906-0.4126 0-0.6182 0.6167-0.6182 1.0293 0.0514 0.978 0.6182 3.3964 0.6182 4.6329 0 0.6166 0.6167 0.925 0.7724 0.925 0.3598 0 0.721-0.4111 0.925-0.6167 0.4641-0.4127 1.5448-0.8238 6.9485-0.8238h6.7413"/><path d="m471.85 456.75c1.0309 0 3.5521-0.2585 5.0953-0.2585 1.7504 0 2.5228 0.1542 3.6019 0.1542 0.6183 0 1.1851-0.257 1.1851-0.5653 0-0.4127-0.5154-0.7724-1.1321-0.9281-1.4919-0.3597-1.3906-1.0792-1.0309-1.903 0.4127-1.0823 2.6769-5.0455 4.3245-7.9778 0.1028-0.1541 0.464-0.1028 0.5139 0 0.2585 0.4625 3.7576 6.5374 4.53 8.2348 0.5139 1.0293 0.3613 1.2863-1.1321 1.7503-0.9266 0.257-1.0823 0.5139-1.0823 0.8238 0 0.3083 0.4641 0.5653 1.2365 0.5653 1.2862 0 1.3906-0.1542 2.8824-0.1542 0.8223 0 3.7577 0.2056 4.066 0.2056 0.4625 0 1.2349-0.1542 1.2349-0.5155 0-0.5653-0.8238-0.8736-1.2349-0.925-2.42-0.4127-2.8311-1.0823-4.4273-3.0896-1.389-1.6974-4.0145-6.176-5.0439-8.2347-0.2055-0.4096-0.3597-0.7195-0.4111-1.903-0.0514-1.1321-0.0514-4.1174 0.0514-5.3024 0.1542-1.2349 0.7724-1.699 2.4713-2.1085 0.8223-0.2072 1.4405-0.3613 1.4405-0.8238 0-0.3613-0.4111-0.6696-1.3377-0.6696-1.9559 0-1.9061 0.1541-3.862 0.1541-1.4389 0-4.0644-0.2569-5.9175-0.2569-0.8752 0-1.3393 0.1541-1.3393 0.6696 0 0.2056 0.3613 0.5653 1.0294 0.7194 2.6769 0.5669 3.2422 1.1851 3.2951 2.0587 0.0514 0.978 0.1542 4.119 0.1542 4.9412 0 1.2349-0.0514 1.2863-0.3597 2.1116-0.6696 1.6974-3.7577 6.9983-4.8898 8.4917-1.442 2.1599-1.903 2.7782-4.0146 3.345-0.7724 0.2056-1.1321 0.5139-1.1321 0.8752 0 0.204 0.4625 0.5154 1.2349 0.5154"/><path d="m114.72 398.02c0.009 0.2258 0.0186 0.4516 0.0249 0.6619-0.006-0.2134-0.0156-0.433-0.0249-0.6619zm-0.0732-1.2863c0.0187 0.271 0.0373 0.5404 0.0514 0.7927-0.0141-0.2539-0.0327-0.5201-0.0514-0.7927zm-0.1168-1.4248c0.0109 0.1199 0.0218 0.2367 0.0311 0.3534-0.009-0.1167-0.0202-0.232-0.0311-0.3534zm-0.1106-1.045c0.002 0.006 0.002 0.0125 0.003 0.0172-0.002-0.005-0.002-0.0109-0.003-0.0172zm0.3348 4.7668c0.006 0.313 0.0109 0.6151 0.0109 0.8829 0-0.2678-0.003-0.5699-0.0109-0.8829zm-101.28-3.35c0.0109-0.123 0.0218-0.2445 0.03426-0.3706-0.01246 0.1261-0.02336 0.2476-0.03426 0.3706zm-0.13548 1.8547c0.01401-0.2647 0.03426-0.5466 0.05294-0.8316-0.01868 0.2866-0.03893 0.5669-0.05294 0.8316zm-0.04672 1.1508c0.0062-0.2118 0.01557-0.4376 0.02491-0.6649-0.0093 0.2304-0.01868 0.4531-0.02491 0.6649zm0.32235-4.393c0.0016-0.0109 0.0031-0.0249 0.0047-0.0374-0.0016 0.0125-0.0031 0.0265-0.0047 0.0374zm-0.33325 4.7481c-0.0062 0.313-0.0094 0.6104-0.0094 0.8782 0-0.2662 0.0047-0.5668 0.0094-0.8782zm114.75 0.9016-3.5287 0.5092c-2.5897 0.3769-5.7915 0.8394-9.736 1.3128v40.204c0.3193 0.7085 4.3634 9.7203 4.3634 9.7203l-2.5663 0.4283c-0.2507 0.0436-25.347 4.1968-52.543 4.1968-27.201 0-52.302-4.1532-52.553-4.1968l-2.5679-0.4283s4.052-9.0118 4.3696-9.7203v-40.204c-3.9234-0.47-7.1251-0.93-9.7148-1.31l-3.5272-0.5 0.77084-2.04c0.71946-1.89 3.155-6.92 3.9305-8.51-0.5808-2.86-1.0246-6.44-1.1445-9.84l-0.076305-2.0602 2.0447 0.2787c2.9494 0.3847 6.9874 0.8472 11.748 1.3097-0.0016 0.005-0.0031 0.009-0.0047 0.0124 1.4-3.8106 3.264-7.8999 5.7867-12.139 8.3842-14.059 20.909-24.938 37.235-32.332-0.0047 0.003 2.8903-1.3143 2.8903-1.3143l0.83313-0.38 3.7281 1.6974c16.318 7.3907 28.847 18.267 37.234 32.327 2.5196 4.2342 4.3806 8.3204 5.779 12.129v-0.002c4.7589-0.4641 8.7969-0.925 11.748-1.3097l2.04-0.2787-0.0794 2.0602c-0.1215 3.4026-0.5607 6.9859-1.1353 9.8481 0.7662 1.5837 3.2048 6.6121 3.9321 8.5104l0.7646 2.0275"/></g><g fill="#fd0"><path d="m125.64 398.54c-2.7906 0.3986-6.3427 0.9312-10.877 1.4794v-0.0982c0-3.3387-0.4407-10.384-3.4072-19.146 4.7371-0.4687 8.6583-0.9219 11.379-1.2769-0.1402 3.6237-0.6011 7.4328-1.2053 10.18 0 0 3.2842 6.6993 4.1111 8.8624zm-112.37 1.4794c-4.5316-0.5482-8.0821-1.0808-10.871-1.4794 0.82534-2.1631 4.0987-8.8624 4.0987-8.8624-0.59643-2.7469-1.0636-6.556-1.2038-10.18 2.7221 0.355 6.6479 0.8082 11.387 1.2769-2.9681 8.7658-3.4104 15.809-3.4104 19.146v0.0982"/><path d="m51.86 444.61c0.25072 0.0997 0.46251 0.1962 0.63692 0.285 0.17597 0.0888 0.31145 0.1729 0.41423 0.2476 0.0981 0.0716 0.16351 0.1386 0.18998 0.1931 0.02492 0.0498 0.04516 0.162 0.05918 0.3379 0.01246 0.1776 0.02024 0.4174 0.02336 0.7179 0.0047 0.3021 0.0078 0.6665 0.0078 1.0932v0.447 0.4827 0.4859 0.4469c0 0.4205-0.0031 0.7817-0.0078 1.0792-0.0031 0.3005-0.0109 0.5357-0.02336 0.7101-0.01402 0.1759-0.03426 0.2912-0.05918 0.3441-0.02958 0.0545-0.0981 0.1137-0.19777 0.176-0.10122 0.0607-0.23981 0.123-0.41267 0.1884-0.17441 0.067-0.38464 0.1339-0.63069 0.204v0.1853c0.21646 0.009 0.42825 0.0218 0.63848 0.0374 0.21178 0.0125 0.41734 0.0296 0.61823 0.0483 0.204 0.0187 0.40488 0.0389 0.59954 0.0638 0.19621 0.0234 0.38931 0.0499 0.5793 0.0795 0.18998 0.028 0.5388 0.1121 0.55749 0.0949 0.01557-0.014-0.0062-0.232-0.0093-0.3784-0.0047-0.1463-0.0093-0.313-0.01246-0.5014-0.0031-0.1853-0.0062-0.394-0.0093-0.6245-0.0031-0.2258-0.0062-0.4749-0.0093-0.7443-0.0016-0.271-0.0031-0.5591-0.0031-0.8736-0.0016-0.3099-0.0031-0.6416-0.0031-0.9951v-0.4874-0.4485c0-0.4283 0.0016-0.7942 0.0062-1.0979 0.0047-0.3021 0.01402-0.5435 0.02803-0.721 0.01246-0.176 0.03115-0.2897 0.05918-0.341 0.02959-0.0514 0.09343-0.1137 0.19621-0.1854 0.10122-0.07 0.2367-0.1479 0.41112-0.2367 0.17129-0.0887 0.37841-0.1868 0.61978-0.2943v-0.2382c-0.22736 0.0186-0.4407 0.0342-0.6447 0.0451-0.204 0.0125-0.39554 0.0218-0.57307 0.0281-0.18064 0.009-0.34882 0.0124-0.50299 0.0155-0.15573 0.003-0.29899 0.005-0.4298 0.005-0.14015-0.002-0.28654-0.005-0.44693-0.009-0.15729-0.005-0.32391-0.0141-0.49988-0.0234-0.17753-0.009-0.36284-0.0203-0.5575-0.0327-0.19621-0.0125-0.39865-0.028-0.612-0.0436v0.2351"/><path d="m61.111 450.45c0 0.2881-0.04984 0.5544-0.1386 0.7786-0.08876 0.2227-0.21646 0.4065-0.37218 0.5326-0.15728 0.1261-0.34415 0.1947-0.54815 0.1947-0.18376-0.003-0.34883-0.0545-0.49054-0.1464-0.14171-0.0935-0.25695-0.2243-0.33948-0.3831-0.08098-0.1588-0.12614-0.3473-0.12614-0.5513 0-0.1759 0.0327-0.3379 0.09344-0.4983 0.06385-0.1588 0.15572-0.3099 0.28186-0.4609 0.12302-0.1511 0.27408-0.299 0.46095-0.4485 0.18531-0.1526 0.53881-0.475 0.64314-0.4641 0.07008 0.008 0.23359 0.2632 0.31145 0.408 0.07942 0.1448 0.13704 0.299 0.1713 0.4703 0.03582 0.1713 0.05295 0.3582 0.05295 0.5684zm-2.23-4.7512c0-0.2741 0.03115-0.5232 0.09344-0.7412 0.05917-0.2196 0.14949-0.4111 0.26162-0.5669 0.109-0.1541 0.24448-0.2756 0.39709-0.3581 0.15573-0.0826 0.32703-0.1277 0.51078-0.1262 0.21335 0 0.41267 0.0685 0.58086 0.19 0.17285 0.1215 0.31301 0.2974 0.41267 0.5108 0.09811 0.2149 0.15573 0.4656 0.15573 0.7428 0 0.2056-0.03271 0.3971-0.10123 0.5746-0.06696 0.1791-0.16662 0.3457-0.30366 0.5139-0.13548 0.1651-0.30834 0.3286-0.51078 0.4952-0.20556 0.1682-0.59487 0.5326-0.72256 0.5233-0.09344-0.006-0.31457-0.313-0.42981-0.4937-0.11367-0.1822-0.20244-0.38-0.2585-0.5902-0.05762-0.2102-0.08565-0.436-0.08565-0.6743zm-1.1726 4.3899c0 0.2336 0.02959 0.4594 0.09032 0.6759 0.06073 0.218 0.1495 0.4251 0.26318 0.6182 0.11368 0.1915 0.25383 0.3691 0.41734 0.5263 0.16351 0.162 0.34727 0.3006 0.55283 0.4174 0.20555 0.1152 0.43135 0.2087 0.67117 0.2709 0.24137 0.0655 0.49988 0.0997 0.77084 0.1028 0.25228 0.003 0.48742-0.0264 0.70076-0.0872 0.21179-0.0607 0.40645-0.1495 0.57307-0.2616 0.16974-0.1168 0.31457-0.2538 0.43448-0.4111 0.11679-0.1557 0.20711-0.3348 0.2694-0.5248 0.06073-0.1931 0.09344-0.4002 0.09344-0.6151 0-0.2196-0.02648-0.4236-0.08098-0.6182-0.05295-0.1963-0.13704-0.3831-0.24605-0.5622-0.10745-0.1807-0.24293-0.3535-0.408-0.5264-0.16351-0.1728-0.57462-0.4967-0.57462-0.5139 0.0016-0.0498 0.41111-0.299 0.58241-0.4469s0.31924-0.2959 0.44537-0.4469c0.1277-0.1526 0.23359-0.3099 0.31768-0.4734s0.14483-0.3348 0.18687-0.5186c0.04205-0.1806 0.06385-0.3753 0.06385-0.584 0-0.2522-0.02803-0.4874-0.07942-0.7054-0.05139-0.2196-0.13237-0.4267-0.24293-0.6213-0.11057-0.1947-0.24916-0.38-0.4189-0.5622-0.16974-0.1807-0.34883-0.341-0.53725-0.4781-0.18687-0.1355-0.38153-0.2476-0.58397-0.3379-0.20245-0.0903-0.41423-0.1573-0.63692-0.2025-0.22113-0.0467-0.45005-0.0669-0.6883-0.0669-0.23048 0-0.44694 0.0265-0.64938 0.0778-0.20244 0.053-0.39087 0.1293-0.56061 0.2274-0.16974 0.0966-0.32391 0.2149-0.45627 0.3519-0.13393 0.1324-0.25072 0.2881-0.34571 0.4548-0.09344 0.1681-0.16663 0.3488-0.2149 0.5419-0.04828 0.1915-0.07475 0.3955-0.07475 0.6058 0 0.2071 0.02336 0.4017 0.06852 0.587 0.0436 0.1822 0.11212 0.3551 0.20244 0.5217 0.09188 0.1635 0.204 0.3208 0.34104 0.4703 0.13859 0.1511 0.29899 0.2959 0.48275 0.4376 0.18531 0.1402 0.62601 0.4111 0.62601 0.4127 0.0016 0.0405-0.42669 0.3161-0.59798 0.4889-0.16974 0.1682-0.3099 0.3473-0.42202 0.5357-0.11368 0.1869-0.19621 0.3847-0.25227 0.5902-0.05607 0.2056-0.08254 0.4221-0.08254 0.6494"/><path d="m64.229 443.82c0.27564 0.0514 0.53259 0.1215 0.77084 0.204 0.23982 0.0826 0.45939 0.1791 0.66339 0.2881 0.20245 0.1106 0.38465 0.2321 0.54971 0.366 0.16352 0.1339 0.30678 0.2803 0.43292 0.4345 0.12458 0.1541 0.22736 0.3192 0.31145 0.4936 0.08565 0.1744 0.14794 0.3566 0.18999 0.5466 0.04516 0.1915 0.06384 0.3878 0.06384 0.5933 0 0.2149-0.02491 0.4111-0.07942 0.5902-0.05294 0.176-0.13392 0.3379-0.24137 0.4765s-0.23982 0.2585-0.39866 0.3535c-0.15728 0.0981-0.34104 0.1713-0.54971 0.2227-0.20867 0.0498-0.4407 0.0763-0.6992 0.0763-0.10123 0-0.22736-0.005-0.37686-0.0156-0.14638-0.0109-0.49521-0.0576-0.51078-0.0404-0.03737 0.0467 0.08565 0.5372 0.1277 0.7973 0.04204 0.2585 0.08097 0.5107 0.11835 0.7584 0.03893 0.2476 0.07475 0.4889 0.11212 0.7225 0.0327 0.2352 0.06852 0.4625 0.09811 0.6868 0.0327 0.2227 0.06229 0.4391 0.09188 0.6525 0.02491 0.2086 0.04671 0.5902 0.07786 0.6151 0.03114 0.0249 0.29588-0.0499 0.47029-0.0654 0.17441-0.0156 0.36595-0.0265 0.56995-0.0327 0.20712-0.006 0.42825-0.009 0.66651-0.0109 0.20088-0.002 0.39398-0.002 0.58552 0 0.18999 0.001 0.37686 0.005 0.56061 0.0109 0.1822 0.006 0.35973 0.0109 0.53103 0.0202 0.17597 0.008 0.49364 0.0498 0.51077 0.0311 0.02492-0.028-0.02491-0.3316-0.02958-0.5014-0.0062-0.1728-0.0062-0.3473-0.0062-0.5248 0-0.0576 0-0.1759 0.0031-0.3519s0.0093-0.4111 0.0218-0.7023c-0.04204 0-0.06229 0-0.10277 0.002-0.09811 0.1853-0.19778 0.2897-0.3099 0.3473-0.11523 0.0592-0.24293 0.0701-0.3971 0.0716-0.07942 0.002-0.1822 0.002-0.29587 0.002-0.21646 0.003-0.40489 0.005-0.58086 0.006-0.17597 0.002-0.33948 0.003-0.50144 0.003-0.16039 0.002-0.32235 0.003-0.49832 0.003-0.17752 0-0.36439 0.003-0.58241 0.003-0.03581-0.2491-0.06385-0.4344-0.09032-0.6197-0.02803-0.1869-0.0545-0.3753-0.09188-0.6245 0.1931 0.0156 0.37686 0.014 0.5575 0.014 0.28031-0.002 0.54348-0.0202 0.78485-0.056 0.24138-0.0374 0.46095-0.0935 0.66495-0.1651 0.20244-0.0716 0.38153-0.1635 0.54348-0.2725 0.1604-0.1106 0.30211-0.2352 0.42202-0.3784 0.12146-0.1449 0.22268-0.3068 0.3021-0.4875 0.07942-0.1806 0.14171-0.3784 0.1822-0.5948 0.03893-0.2149 0.06074-0.4501 0.06074-0.7024 0-0.2133-0.01869-0.4204-0.04984-0.6197-0.03426-0.2025-0.08409-0.3971-0.14949-0.5856-0.06696-0.1884-0.1495-0.3706-0.24761-0.5434-0.09966-0.1729-0.21178-0.3411-0.34103-0.4968-0.13081-0.1573-0.27719-0.3068-0.43448-0.4454-0.16039-0.1386-0.33636-0.2678-0.52479-0.3877-0.18999-0.1184-0.39399-0.2258-0.61356-0.3224-0.21801-0.0965-0.4516-0.1822-0.69765-0.2554-0.24604-0.0732-0.50766-0.1323-0.78018-0.1791-0.27563-0.0451-0.56217-0.0794-0.86428-0.0965v0.6867"/><path d="m74.236 447.8c0 0.3846-0.01091 0.7397-0.02803 1.0714-0.01713 0.3317-0.04361 0.6353-0.07787 0.9125-0.03737 0.2772-0.07942 0.5295-0.13081 0.7537-0.05294 0.2227-0.11056 0.4205-0.17752 0.5902-0.06697 0.1682-0.14171 0.3115-0.21958 0.4267-0.08253 0.1137-0.16974 0.2009-0.26161 0.2601-0.09655 0.0592-0.19466 0.0887-0.299 0.0919-0.13859 0.003-0.2585-0.0312-0.36439-0.1059-0.1059-0.0763-0.19466-0.1885-0.27408-0.3442-0.07631-0.151-0.1386-0.3457-0.18687-0.5777-0.04983-0.2336-0.08565-0.5046-0.10745-0.8176-0.02492-0.3114-0.03582-0.6649-0.03582-1.0574 0-0.3877 0.0093-0.749 0.02492-1.0807 0.01713-0.3332 0.04204-0.6385 0.07475-0.9172 0.03114-0.2788 0.07475-0.5295 0.12302-0.7537 0.04827-0.2212 0.10434-0.4174 0.1713-0.5856 0.06696-0.1681 0.14015-0.3067 0.21957-0.4204 0.08253-0.1106 0.1713-0.1947 0.26785-0.2507 0.09499-0.0576 0.20088-0.0857 0.31301-0.0857 0.14326-0.002 0.26629 0.0358 0.37685 0.1106 0.10589 0.0763 0.19777 0.1915 0.27408 0.3426 0.0763 0.1542 0.13703 0.3457 0.18219 0.5762 0.04672 0.232 0.0841 0.5014 0.10123 0.8097 0.02335 0.3099 0.03426 0.6619 0.03426 1.0512zm-3.8371 0.4609c0 0.2367 0.0109 0.4703 0.03581 0.6992 0.02025 0.2274 0.05606 0.4516 0.09967 0.6681 0.0436 0.218 0.09966 0.4298 0.16662 0.6354 0.06541 0.2055 0.14327 0.4033 0.23359 0.5964 0.10278 0.2242 0.21646 0.4298 0.34104 0.6089 0.12614 0.1822 0.26318 0.341 0.40489 0.4796 0.14326 0.137 0.29432 0.2507 0.45316 0.341 0.15884 0.0919 0.32235 0.1589 0.49209 0.204 0.16818 0.0436 0.34104 0.0639 0.517 0.0592 0.20245-0.006 0.39555-0.0327 0.58242-0.0825s0.36128-0.1199 0.53102-0.2118c0.16663-0.0934 0.32391-0.204 0.46873-0.3364 0.14483-0.1308 0.28031-0.2803 0.40022-0.4485 0.12302-0.1681 0.23203-0.355 0.32702-0.5575 0.09499-0.204 0.17597-0.4266 0.24293-0.6602 0.06229-0.2383 0.11679-0.4906 0.15105-0.7584 0.03271-0.2663 0.04984-0.5497 0.04984-0.8472 0-0.3332-0.01713-0.654-0.05295-0.9561-0.03582-0.3037-0.08876-0.5886-0.15884-0.8581-0.06852-0.2662-0.15261-0.517-0.25072-0.7474-0.0981-0.229-0.21023-0.4407-0.33325-0.6292-0.12302-0.1899-0.2585-0.3597-0.40644-0.5061-0.14638-0.1479-0.30211-0.2725-0.46874-0.3737-0.16351-0.0997-0.33948-0.176-0.52012-0.2274s-0.36907-0.0794-0.56217-0.0778c-0.204 0-0.39709 0.0249-0.58241 0.0716-0.18375 0.0467-0.36284 0.1152-0.52791 0.2071-0.16818 0.0903-0.3239 0.2056-0.47029 0.3364-0.14326 0.1339-0.27719 0.2881-0.3971 0.4594-0.12146 0.1728-0.22891 0.3659-0.32546 0.5746-0.09188 0.2071-0.17441 0.436-0.23982 0.6805-0.0654 0.2445-0.11523 0.5046-0.14949 0.7802-0.03271 0.2772-0.05139 0.5684-0.05139 0.8767"/><path d="m62.408 424.22c0 10.402-8.4528 18.855-18.837 18.855-10.395 0-18.846-8.4528-18.846-18.855 0-7.3316 4.2373-13.698 10.39-16.806 5.3102 0.2974 11.324 0.5248 18.072 0.6463 5.5096 3.2935 9.2205 9.303 9.2205 16.16zm10.929-39.017c-2.9666 0.0467-6.067 0.0732-9.3233 0.0732-3.2562 0-6.3583-0.0265-9.3248-0.0732-5.6777-3.25-9.5179-9.3575-9.5179-16.362 0-10.367 8.4512-18.833 18.843-18.833 10.387 0 18.84 8.4667 18.84 18.833 0 7.0045-3.8417 13.112-9.5164 16.362zm11.128 57.872c-10.395 0-18.844-8.4528-18.844-18.855 0-6.8566 3.7094-12.866 9.222-16.161 6.7476-0.1199 12.76-0.3488 18.07-0.6463 6.1511 3.1083 10.388 9.4744 10.388 16.808 0 10.402-8.4512 18.855-18.837 18.855"/></g><path d="m70.673 385.24c-2.1552 0.0233-4.3572 0.0389-6.6588 0.0389s-4.5067-0.014-6.6635-0.0389c-6.4657-2.6396-11.038-8.99-11.038-16.396 0-9.7531 7.9404-17.689 17.701-17.689 9.7531 0 17.69 7.9358 17.69 17.689 0 7.4063-4.5705 13.757-11.032 16.396zm-9.412 38.983c0 9.7655-7.9358 17.709-17.689 17.709-9.7609 0-17.7-7.9435-17.7-17.709 0-7.6975 4.9521-14.243 11.834-16.669 3.9445 0.1947 8.2472 0.3535 12.922 0.4579 6.2492 2.7314 10.633 8.9666 10.633 16.211zm23.205 17.709c-9.7593 0-17.701-7.9435-17.701-17.709 0-7.2444 4.3868-13.48 10.641-16.211 4.6749-0.1059 8.9776-0.2632 12.921-0.4594 6.8768 2.4277 11.829 8.9729 11.829 16.67 0 9.7655-7.9358 17.709-17.689 17.709" fill="#00467f"/><g style=""><path d="m60.354 424.22c0 9.2641-7.5293 16.801-16.782 16.801-9.261 0-16.797-7.5371-16.797-16.801 0-8.3002 6.0702-15.196 14.004-16.53 2.1474 0.0919 4.3961 0.1698 6.7429 0.2383 7.3502 1.7846 12.832 8.4029 12.832 16.292zm24.111 16.801c-9.261 0-16.793-7.5371-16.793-16.801 0-7.8906 5.4846-14.509 12.841-16.294 2.3452-0.0669 4.5939-0.1448 6.7413-0.2367 7.928 1.3346 13.993 8.2286 13.993 16.53 0 9.2641-7.5277 16.801-16.782 16.801zm-16.93-55.76c-1.1586 0.005-2.3219 0.0109-3.521 0.0109s-2.3624-0.006-3.5209-0.0109c-7.5745-1.6258-13.272-8.3687-13.272-16.424 0-9.2532 7.534-16.782 16.793-16.782 9.2548 0 16.784 7.5293 16.784 16.782 0 8.0556-5.6949 14.798-13.263 16.424" fill="#fff"/></g><g fill="#00467f"><path d="m66.418 383.25c-0.09032 0.1697-0.29743 0.2818-0.55127 0.3488l-1.8531-0.2367c-0.76149-0.3037-2.2876-0.7023-2.2876-0.7023-0.16195-0.4143 0.06385-0.6852 0.19466-1.0808 0.06073-0.1868 0.13548-0.4376 0.21178-0.6992l1.3408-0.1666c0.69142-0.0888 0.69142-0.0888 0.95615-0.1043l0.2149-0.0109 0.09499-0.006c0.40333-0.0249 0.77396-0.0405 1.0823-0.0218 0.0093 0.0436 0.01402 0.0748 0.02336 0.1199 0.13081 0.6416 0.90477 1.9404 0.57307 2.5602"/><path d="m66.848 362.72c-0.13548 0.0451-0.28186 0.0778-0.42201 0.1168l-0.14171-0.7459-0.16351-1.618c0.16195-0.0795 0.30366-0.1651 0.40488-0.2648 0.01246-0.0109 0.02336-0.0218 0.03426-0.0358 0.3971-0.4329 0.32235-1.1835-0.23359-1.6226-0.42513-0.313-0.85337-0.5264-1.2941-0.6681 0.02336 0.246 0.04516 0.4952 0.06384 0.735 0.06074 0.8129 0.1059 1.3361 0.1604 1.9154 0.04516 0.4563 0.09499 0.9484 0.16663 1.6461 0.01868 0.1759 0.11368 0.5606 0.18375 0.9826 0.07164 0.4298 0.1168 0.9063 0.03426 1.2598-0.02959 0.1277-0.11056 0.2242-0.19465 0.3192l-0.87829 0.0265-0.08565 0.006c-0.84092 0.0545-1.428 0.0421-1.8531 0.006 0.0436-0.2321 0.09032-0.4594 0.109-0.7148 0.0031-0.0701 0.0078-0.1448 0.01246-0.218 0.02648-0.5342 0.16351-1.0527 0.21958-1.5853 0.03893-0.3706 0.22268-0.8845 0.04983-1.2365-0.0031-0.006-0.0062-0.014-0.0109-0.0233-0.23048-0.4127-0.35038-0.9095-0.31301-1.4607 0.0436-0.665 0.12925-0.7366 0.16351-1.3611 0.0078-0.1479 0.02803-0.2943 0.0436-0.4407-0.66494 0.0997-1.6507 0.3707-2.0166 1.154-0.3862 0.8315 0.47185 1.4669 0.01246 1.6382-0.30678 0.1121-1.0761-0.6541-0.95615-1.7208 0.09343-0.8284 0.56528-1.3781 1.5713-1.973 0.39243-0.232 0.9655-0.4283 1.5121-0.5575 0.0062-0.4267-0.0109-0.7553 0.09499-1.1788 0.08565-0.3333-0.0093-0.7475 0.27096-1.0216 0.21179-0.2071 0.32079-0.1884 0.62446-0.3068 0.6447 0.3395 0.77395 1.4358 0.80666 1.9886 0.0047 0.0888 0.01868 0.2289 0.0327 0.3629 0.93435 0.0498 1.8064 0.2881 2.4386 0.763 1.386 1.0434 1.9061 2.1335 1.7394 3.4431-0.18064 1.428-1.0823 2.0229-2.1864 2.3904"/><path d="m66.024 371.98c-0.09032 0.2694-0.27564 0.3986-0.49054 0.6602-0.31923 0.3847-0.16974 1.1664-0.11056 1.6694 0.0327 0.2865 0.0545 0.5793 0.06696 0.8799 0.0062 0.1822 0.0016 0.3675 0.0031 0.5512l-0.56216 0.2149c-0.36907 0.1464-0.83002 0.3286-1.0434 0.3629-0.22425 0.0389-0.68675 0.0872-1.2178 0.0794-0.03115-0.679-0.01402-1.5168-0.3426-2.0431-0.17753-0.2881-0.30989-0.4158-0.3535-0.6074-0.02024-0.0965-0.01713-0.2071 0.01402-0.3597 0.08721-0.422 0.21179-0.8487 0.32858-1.2629 0.2585-0.925 0.31145-1.2209 0.37997-2.1677 0.0016-0.0296 0.0062-0.0748 0.0109-0.1246 0.0109-0.1121 0.02803-0.2647 0.0436-0.4298 0.43915 0.0374 0.88919 0.0701 1.3735 0.0919h-0.0062l1.1415 0.0436 0.37062 0.0124c0.02803 0.2508 0.05139 0.4921 0.06696 0.7148 0.0047 0.1012 0.1168 0.5264 0.20556 0.9297 0.08098 0.3597 0.1495 0.7008 0.12147 0.7849"/><path d="m69.131 378.63c-0.08409-0.2071-0.38775-0.3145-0.71945-0.2445-0.35816 0.0763-0.60577 0.3317-0.55282 0.57 0.05139 0.2367 0.37997 0.3675 0.73969 0.2912 0.05295-0.0125 0.10745-0.0296 0.15729-0.0483 0.21801-0.0794 0.52168-0.2694 0.7101-0.7241 0 0-0.14794 0.067-0.33481 0.1557zm3.6798-0.4952c-0.01869 0.1324-0.04049 0.3084-0.21802 0.4189-0.17596 0.109-1.4078 0.6136-1.6273 0.6805-0.21802 0.0654-0.74593 0.3084-0.9873 0.4392-0.24138 0.1339-0.08876 0.2211-1.1212 0.4407-1.034 0.218-1.8672-0.1324-2.353-0.3068-0.14015-0.0529-0.29744-0.0825-0.47029-0.1012-0.42046-0.0436-0.92345-0.009-1.4405 0.0218-0.72568 0.0436-0.15572-0.0109-2.638 0.2974-0.07164 0.009-0.14327 0.0156-0.21335 0.0249-2.3717 0.2227-4.0582-0.7661-4.6671-1.2769-2.8638-2.4137-2.2129-5.0346-1.9948-5.6731 0.21957-0.6353 0.56061-1.4809 1.3143-2.0867 1.1804-0.9468 2.5523-1.1524 3.957-1.1383 0.36284 0.005 0.72879 0.0218 1.0916 0.0451 0.14015 0.009 0.25539 0.0312 0.38464 0.0452-0.06073 0.8144-0.10745 1.0792-0.34571 1.9263l-0.03893 0.1355c-0.10589 0.3846-0.21957 0.7786-0.30211 1.185-0.0093 0.0437 0.0047 0.0732-0.0015 0.1122-0.23515-0.0312-0.46874-0.0483-0.69921-0.0421-0.02959 0-0.06073 0.003-0.08876 0.006-0.64159 0.07-1.7675 0.696-1.495 1.8406 0.21334 0.9079 0.66806 1.3237 1.699 1.7628 0.47496 0.204 1.0247 0.3053 1.5495 0.3473 0.83158 0.0685 1.604-0.0125 1.9263-0.067 0.46095-0.0763 1.2863-0.4594 1.8936-0.6711 0.09032-0.0312 0.17286-0.0592 0.25072-0.081 0.28186-0.081 1.6273-0.3068 2.7486-0.2196 1.1197 0.0888 3.4275 0.57 3.6689 0.8145 0.24138 0.2413 0.24138 0.9873 0.21802 1.1196"/><path d="m71.121 372.56c-0.83624 1.7363-2.7314 2.2798-3.6113 2.3888-0.11523 0.0156-0.23514 0.0265-0.36283 0.0374-0.24605 0.0187-0.51857 0.0171-0.8051 0.002-0.01558-0.2741-0.03115-0.5404-0.05918-0.7771l-0.02492-0.19c-0.02024-0.151-0.05761-0.4438-0.05761-0.6572 0-0.0825 0.0093-0.151 0.02335-0.1962 0.03115-0.0373 0.12147-0.1355 0.12147-0.1355 0.16663-0.1806 0.37218-0.4048 0.49832-0.7723 0.03582-0.1028 0.05295-0.2072 0.05295-0.3317 0-0.1215-0.02025-0.271-0.05139-0.447 0.15572-0.003 0.31768 0.009 0.45939-0.0327 0.21334-0.0623 0.40488-0.1744 0.55282-0.3566 0.79109-0.9717 0.34415-1.7971-0.18064-2.1412-0.26162-0.1697-0.93591-0.2227-1.769-0.2554-0.53413-0.0202-1.1384-0.0311-1.7426-0.0607-0.7288-0.0358-1.4327-0.0888-2.1241-0.1651-0.23826-0.0265-0.47341-0.0545-0.707-0.0872-2.2829-0.3146-3.1425-1.9466-3.3761-2.5337-0.71789-2.1567 1.0854-3.4244 2.9245-4.0737 0.11524-0.039 0.23203-0.0748 0.34883-0.1121 0.14482-0.0452 0.2912-0.0873 0.43447-0.1262 0.1822-0.0483 0.37218-0.0903 0.56217-0.1339-0.0016 0.0934-0.03271 0.2647-0.05295 0.3753l-0.06385 0.394-0.09343 0.6135c-0.05606 0.3224-0.11368 0.6587-0.13081 1.02l-0.0109 0.2025-0.0062 0.1214c-0.04828 0.0187-0.10122 0.039-0.14638 0.0577-0.11213 0.0529-0.2149 0.1012-0.3099 0.1526-0.26006 0.1448-0.44693 0.2927-0.4952 0.4422-0.07787 0.3816 0.26629 0.6042 0.76928 0.7335 1.0496 0.2678 2.7937 0.123 2.9183 0.1168 0.37218-0.0156 0.73814-0.028 1.0948-0.0327 0.65716-0.009 1.2878 0.008 1.8687 0.1106 0.56684 0.0965 1.048 0.2335 1.5713 0.4702 0.59642 0.2679 1.5775 0.7865 2.3281 2.4387 0.44537 0.9904 0.48898 2.2051-0.34727 3.9414"/><path d="m87.426 419.3v14.459h1.6616v-7.6788c0.95148-0.7801 1.5541-1.783 1.5541-2.9027 0-1.6787-1.3081-3.1223-3.2157-3.8775zm0-4.5441v2.406c0.93435-0.2959 1.5386-0.7211 1.5386-1.2038 0-0.4812-0.60421-0.9079-1.5386-1.2022zm-7.3923 1.2022c0 0.4703 0.57307 0.8907 1.4716 1.1835v-2.3655c-0.89854 0.2928-1.4716 0.7133-1.4716 1.182zm-1.7457 7.2194c0 1.1197 0.60265 2.1226 1.5541 2.9043v7.6772h1.6632v-14.459c-1.9092 0.7552-3.2173 2.1988-3.2173 3.8775zm5.7447 10.582v-14.995c-0.58086 0.0296-1.1368 0.1121-1.6616 0.2491v14.746h1.6616zm0.86583-16.211c0.59643-0.0187 1.1555-0.0795 1.6616-0.1729v-2.8311c-0.50611-0.095-1.0652-0.1557-1.6616-0.1744v3.1784zm-0.86583-3.1753c-0.59954 0.0218-1.1586 0.0857-1.6616 0.1838v2.8046c0.50299 0.0981 1.062 0.1619 1.6616 0.1853v-3.1737zm2.5274 19.386v-14.747c-0.5248-0.1371-1.0823-0.218-1.6616-0.2476v14.995h1.6616zm7.2895-9.0336c-1.4093 2.5072-1.7114 4.5986-1.7114 5.6513v3.3823h0.55906v-0.7381c0.1822-0.1417 0.39242-0.2258 0.61978-0.2258 0.66495 0 1.2038 0.7054 1.2038 1.5759 0 0.869-0.53881 1.5744-1.2038 1.5744-0.22736 0-0.43758-0.081-0.61978-0.2242v-0.7366h-0.55906v3.0693h-3.0506v-3.0693h-1.6616v0.1246c0 0.2398-0.19466 0.4329-0.43292 0.4329s-0.43291-0.1931-0.43291-0.4329v-0.1246h-1.6616v0.1246c0 0.2398-0.19466 0.4329-0.43292 0.4329-0.23981 0-0.43291-0.1931-0.43291-0.4329v-0.1246h-1.6616v0.1246c0 0.2398-0.19466 0.4329-0.43292 0.4329-0.23981 0-0.43291-0.1931-0.43291-0.4329v-0.1246h-1.6632v3.0693h-3.0491v-3.0693h-0.56216v0.7366c-0.18065 0.1432-0.39087 0.2242-0.61823 0.2242-0.66495 0-1.2038-0.7054-1.2038-1.5744 0-0.8705 0.53881-1.5759 1.2038-1.5759 0.22736 0 0.43758 0.0841 0.61823 0.2258v0.7381h0.56216v-3.3823c0-1.0527-0.30522-3.1441-1.713-5.6513-1.7893-3.1799-0.43915-8.0852-0.30055-8.6412 0.3971-1.6273 1.5261-4.5534 2.1428-5.4846h15.085c0.61356 0.9312 1.7472 3.8573 2.1459 5.4846 0.13548 0.556 1.4841 5.4613-0.30367 8.6412"/><path d="m10.98 405.17-1.495-0.2211v-5.0269c0-2.8264 0.30055-8.6645 2.2985-16.044l0.38931-1.4623 1.5012 0.1931c9.2874 1.2178 25.55 2.6707 50.34 2.6707 24.787 0 41.057-1.4529 50.341-2.6707l1.4966-0.1931 0.3955 1.4623c1.9917 7.3798 2.2892 13.218 2.2892 16.044v5.0269l-1.4857 0.2211c-9.5615 1.3641-26.512 2.9915-53.037 2.9915-26.528 0-43.485-1.6274-53.034-2.9915"/></g><path d="m100.15 369.84c-7.791-13.06-19.477-23.18-34.722-30.08 0 0-0.79887-0.3629-1.414-0.6432-0.60265 0.2741-1.3984 0.6354-1.3984 0.6385-15.261 6.9095-26.947 17.032-34.728 30.085-2.8949 4.8648-4.8571 9.5023-6.201 13.671-0.55905-0.0545-1.1025-0.109-1.6336-0.162 1.3766-4.3603 3.4166-9.2283 6.4532-14.33 7.956-13.343 19.88-23.68 35.445-30.731 0 0 1.2178-0.5529 2.0634-0.9375 0.85494 0.3909 2.0649 0.9406 2.0665 0.9406 15.56 7.0481 27.485 17.385 35.446 30.726 3.0351 5.1 5.0735 9.9696 6.4501 14.331-0.531 0.0545-1.0745 0.1075-1.6351 0.1635-1.3408-4.1719-3.3029-8.8093-6.1947-13.673zm-50.237 80.505v1.5993c-16.074-0.7631-29.717-2.5788-35.202-3.387 1.0262-2.2861 2.5726-5.726 2.5726-5.726v-36.863c0.51701 0.0592 1.0605 0.1152 1.6055 0.1729v37.034s-1.0761 2.3982-1.8391 4.094c6.6277 0.9282 18.799 2.406 32.863 3.0756zm57.508-3.5832c-7.4764 0.967-17.81 2.0649-29.298 2.6115v-1.6118c11.771-0.5653 22.202-1.7005 29.091-2.5944-0.1978-0.4438-0.6447-1.4389-0.6447-1.4389v-37.329c0.5434-0.0514 1.0838-0.1059 1.6039-0.1573v37.142c0.1729 0.3862 1.3922 3.0989 1.3922 3.0989l-2.1443 0.2788zm-77.321-75.6c-2.6613 4.4708-4.4973 8.7315-5.7821 12.589-0.56373-0.0483-1.1025-0.1012-1.6398-0.1495 1.319-4.052 3.2344-8.5478 6.0406-13.262 7.6648-12.877 19.204-22.871 34.297-29.703l0.24137-0.109 0.72724-0.3488 1.0107 0.4376 0.01245 0.005c15.099 6.8519 26.641 16.851 34.305 29.72 2.8062 4.7138 4.7201 9.2096 6.039 13.26-0.5372 0.0498-1.076 0.1012-1.6397 0.1495-1.2832-3.8573-3.1192-8.118-5.7806-12.589-7.5013-12.597-18.799-22.367-33.587-29.077 0 0-0.19932-0.0841-0.32858-0.1433-0.08876 0.0483-0.35349 0.1588-0.35349 0.1588h0.01713c-14.789 6.6947-26.081 16.465-33.579 29.062zm48.021 80.779v-1.5993c14.06-0.6696 26.227-2.1474 32.855-3.0756-0.7615-1.6958-1.8375-4.094-1.8375-4.094v-37.034c0.545-0.0561 1.0901-0.1137 1.6071-0.1713v36.862s1.5432 3.4399 2.5679 5.7244c-5.4815 0.8098-19.122 2.6255-35.192 3.3886zm-56.656-45.543v37.327s-0.44849 0.9951-0.64781 1.4389c6.8924 0.8939 17.318 2.0291 29.094 2.5944v1.6118c-11.489-0.5466-21.822-1.6445-29.298-2.6115l-2.1474-0.2772 0.88763-1.9746s0.33481-0.7413 0.50455-1.1259v-37.142c0.52012 0.0514 1.0636 0.1059 1.6071 0.1588" fill="#fd0"/><path d="m64.014 406.43c-26.61 0-43.505-1.6554-52.791-2.9868v-3.5257c0-2.9058 0.31613-8.5041 2.2347-15.604 9.6518 1.2894 25.945 2.7034 50.556 2.7034 24.612 0 40.898-1.414 50.559-2.7034 1.9154 7.0995 2.2315 12.698 2.2315 15.604v3.5257c-9.2843 1.3314-26.177 2.9868-52.791 2.9868" fill="#fd0"/><g fill="#00467f"><path d="m16.11 388.15c1.2006 0.4547 1.8298 0.735 1.9123 1.2458 0.10122 0.5746 0.204 1.3797 0.24448 2.4121 0.21335 4.8836 0.1277 7.4998 0.10278 7.7925-0.0763 0.9375-0.24916 1.0076-1.8266 1.319l-0.02648 0.313c0.50455-0.002 0.94526-0.008 1.361 0.0281 0.71011 0.056 1.4778 0.1604 2.3701 0.2756 1.4778-2.965 3.1425-6.1465 5.0517-9.5148 1.3361 3.4664 2.5274 6.8768 3.6191 10.219 0.73346 0.0171 1.361 0.0249 1.8827 0.0685 0.54192 0.0436 1.2256 0.1417 1.9746 0.2445l0.02492-0.313c-1.5292-0.5451-1.878-0.6572-1.8142-1.4265 0.07007-0.8767 0.43447-2.5056 0.94058-4.8757 0.56995-2.6396 0.92501-4.4164 1.2941-5.3508 0.18688-0.4889 0.7833-0.6073 1.9403-0.8907l0.02492-0.313c-1.3019 0.0202-2.2035 0.009-2.705-0.0312-0.89542-0.0716-1.9746-0.2226-3.2142-0.45l-0.02647 0.3146c1.7161 0.5777 2.0073 0.6011 1.9403 1.4342-0.12458 1.523-0.82534 4.7387-1.959 9.6612-1.3486-3.5505-2.6458-7.4733-3.9134-11.751l-0.25072-0.0203c-2.1007 4.1735-4.0551 7.8314-5.8241 11.024-0.10278-5.4644-0.05295-8.6692 0.02491-9.6285 0.08565-1.0418 0.24916-1.006 1.9995-1.3672l0.02491-0.3146c-1.3439 0.0171-2.2035 0.009-2.599-0.0203-0.77084-0.0638-1.6211-0.1946-2.5492-0.3955l-0.02492 0.3115"/><path d="m36.694 389.74c1.1742 0.3721 1.8033 0.7786 1.9388 1.0168 0.13548 0.2367 0.08564 2.0354-0.08254 5.4193-0.16974 3.4041-0.30211 5.2199-0.46095 5.441-0.15884 0.2445-0.84403 0.5451-2.0291 0.8004l-0.02181 0.4376c0.71634-0.0887 1.4903-0.0732 2.3047-0.0296 0.75215 0.0359 1.5448 0.0966 2.3795 0.1386 0.91878 0.0468 1.8391 0.0717 2.7376 0.1168 1.0231 0.0499 2.0244 0.1215 3.0211 0.2959l0.17909-3.1737-0.27096-0.0124c-0.3535 1.1959-0.69921 1.85-0.91567 1.9839-0.17285 0.0966-1.0761 0.1557-2.7268 0.0748-0.83468-0.0421-1.713-0.0452-2.6754-0.0935-0.03271-1.006 0.0093-2.68 0.13081-5.1436l1.6927 0.0857c1.7971 0.0887 2.7984 0.1604 3.0008 0.2959 0.20245 0.1354 0.50611 0.7583 0.80822 1.8609l0.2912 0.0155c-0.0545-0.9857-0.05917-1.741-0.03114-2.2844 0.02491-0.5217 0.109-1.3549 0.22891-2.5212l-0.2912-0.0156c-0.35194 1.1555-0.7179 1.7862-0.95616 1.9216-0.21334 0.1153-1.2178 0.0857-3.0133-0.006l-1.6912-0.0825c0.0218-0.4407 0.04204-0.8783 0.06229-1.2739 0.0981-1.9636 0.2149-3.4462 0.32702-4.4241 0.98574-0.0343 1.8235-0.0343 2.5118 0 1.8594 0.0934 2.8747 0.313 2.9946 0.4018 0.22269 0.179 0.51857 0.9265 0.80666 2.3016l0.33325 0.0171 0.06385-3.3699c-3.2438-0.0358-5.4379-0.1246-6.5856-0.1822-1.3361-0.0669-2.6925-0.1759-4.0457-0.327l-0.01557 0.3146"/><path d="m50.136 390.38c1.1851 0.3395 1.8251 0.7319 1.9652 0.967 0.14171 0.2321 0.14171 2.0307 0.06384 5.4177-0.07942 3.4088-0.16195 5.2261-0.313 5.4519-0.15261 0.2477-0.82846 0.5669-2.0073 0.8534l-0.0078 0.3146c1.2147-0.0981 2.2206-0.1386 3.0351-0.1184 0.81755 0.0187 1.7971 0.1028 3.007 0.257l0.0078-0.3146c-1.143-0.3395-1.8251-0.6898-1.9653-0.9421-0.14171-0.2352-0.14171-2.054-0.06229-5.4629 0.03582-1.6304 0.12303-3.5536 0.23671-5.7665 0.69142-0.006 1.2972-0.0124 1.8407 0 1.7986 0.0421 2.7999 0.19 2.9837 0.3193 0.18532 0.1308 0.58709 0.872 1.0138 2.2829l0.33481 0.006-0.17285-3.3699c-3.1581 0.0312-5.3352 0.0218-6.5264-0.006-1.0449-0.0218-2.1724-0.0903-3.426-0.2024l-0.0078 0.313"/><path d="m62.24 390.61c1.1929 0.3099 1.8422 0.6852 1.9886 0.9126 0.14794 0.232 0.19622 2.0291 0.20712 5.4177 0.01246 3.4072-0.02336 5.2277-0.16818 5.4566-0.14639 0.2523-0.81445 0.5886-1.9839 0.9063v0.3146c1.2131-0.1293 2.2175-0.1963 3.032-0.1994 0.816-0.001 1.8002 0.0577 3.0117 0.1791v-0.313c-1.1508-0.3099-1.8438-0.6431-1.9902-0.8939-0.14638-0.2289-0.19465-2.0477-0.20711-5.4566-0.0109-3.3885 0.02336-5.1856 0.16974-5.4176 0.14482-0.2305 0.79264-0.6074 1.9839-0.9266l-0.0016-0.3146c-1.2131 0.1308-2.1942 0.1962-3.0102 0.1978-0.816 0.003-1.8204-0.0545-3.0335-0.176l0.0016 0.313"/><path d="m77.062 403c-2.7579 0.0856-4.4101-1.8485-4.5269-5.5283-0.1386-4.368 1.5199-6.869 4.3416-6.9562 2.7797-0.0888 4.4319 1.8453 4.5472 5.5049 0.13704 4.3665-1.5401 6.8893-4.3619 6.9796zm4.6671-11.195c-1.1726-1.3641-2.9323-2.1054-4.9598-2.0416-1.8594 0.0608-3.4275 0.7787-4.5581 2.0696-1.1929 1.3548-1.8049 3.1332-1.741 5.1608 0.05762 1.8188 0.65249 3.4104 1.7379 4.6748 1.2147 1.4047 2.9339 2.1241 4.9816 2.0587 1.8609-0.0576 3.4073-0.777 4.5363-2.068 1.2131-1.3782 1.8251-3.1752 1.7612-5.223-0.05606-1.7769-0.65093-3.3481-1.7581-4.6313"/><path d="m89.273 396.96 1.3782-0.0825c2.5243-0.1542 3.8059 0.6073 3.9165 2.4044 0.11212 1.8765-1.1586 2.708-3.8293 2.8684-0.27096 0.0172-0.62757 0.0172-1.0901 0.003-0.15417-1.8764-0.27875-3.6066-0.3753-5.1934zm8.4855-7.6134c0.04204-0.003 0.08409-0.005 0.12458-0.008l-0.01869-0.3348c-0.49988 0.0732-0.97796 0.1215-1.4576 0.1526-0.47963 0.0265-0.94058 0.0343-1.4015 0.0203-1.2956 2.4885-2.624 4.787-3.9196 6.9204-0.14482 0.028-0.39554 0.0436-0.70855 0.0638-0.29276 0.0156-0.6883 0.0405-1.1492 0.0483-0.02959-0.4812-0.05606-0.9188-0.07942-1.3174-0.12925-2.1288-0.14327-3.4042-0.12458-3.7841 0.02492-0.651 0.59798-0.8721 1.9917-1.3767l-0.01869-0.313c-1.2038 0.1978-2.2004 0.3224-3.0366 0.3722-0.62602 0.0374-1.6304 0.0343-2.9962-0.008l0.01869 0.313c1.21 0.2399 1.878 0.5778 2.0384 0.7989 0.15884 0.2196 0.3099 2.0135 0.5139 5.3959 0.20555 3.401 0.27407 5.2199 0.14171 5.4582-0.13081 0.26-0.77863 0.6353-1.931 1.0184l0.02025 0.313c0.74748-0.1292 1.3486-0.2071 1.7877-0.2336 1.7535-0.1074 3.2235-0.0498 4.4133-0.1199 3.1924-0.1946 4.7356-1.375 4.6141-3.3777-0.09187-1.5463-1.2676-2.6068-3.5178-3.1207 2.3966-4.3556 3.3388-6.8021 4.6951-6.8815"/><path d="m107.03 393.57c-0.4765 1.7612-1.0231 3.7187-1.6834 5.8116-0.8908-1.5821-1.8438-3.3885-2.8778-5.4208l4.5612-0.3908zm-9.3871-4.2311c0.94213 0.2118 1.4825 0.3971 1.7504 0.8363 0.43914 0.7179 2.6723 4.7231 6.5187 12.117l0.3753-0.0327c2.2097-7.5153 3.5598-11.829 4.0083-12.958 0.2258-0.5652 0.788-0.8455 1.8065-1.2037l-0.0265-0.313c-1.3439 0.2398-2.3375 0.3893-2.9635 0.4438-0.8533 0.0732-1.8609 0.0763-3.0569 0.0732l0.0265 0.313c1.3579 0.176 2.0494 0.4111 2.0727 0.6805 0.028 0.3146-0.232 1.4483-0.8814 3.4135l-5.1888 0.4469c-0.9343-1.8313-1.4248-2.9229-1.4591-3.2967-0.0265-0.3332 0.5373-0.5917 1.7099-0.8829l-0.0312-0.352c-0.9265 0.204-1.7332 0.338-2.3577 0.3909-0.50143 0.0421-1.2567 0.0436-2.3296 0.0109l0.02648 0.313"/><path d="m52.096 418.47c-0.81133-0.1245-1.8625-0.2164-2.9401-0.0981-2.2502 0.2461-1.9341 0.8191-3.6798 0.8394-0.49521 0.006-0.86428-0.0748-1.1648-0.1698v14.878s0.28498 0.1526 0.74125 0.2134c0.11836 0.0155 0.25072 0.0264 0.40489 0.0249 0.58708-0.006 0.74904-0.0748 1.101-0.2227 0.46406-0.1962 1.1025-0.4625 2.4371-0.6073 1.1243-0.1246 2.2191-0.0499 3.1005 0.0716v-14.929zm-9.2672 0.5715c-0.30055 0.095-0.66806 0.176-1.1633 0.1698-1.7472-0.0203-1.4311-0.5933-3.6813-0.8394-1.0761-0.1183-2.1288-0.0264-2.9401 0.0981v14.929c0.8814-0.1215 1.9762-0.1962 3.1005-0.0716 1.3361 0.1448 1.9715 0.4111 2.4371 0.6073 0.35194 0.1479 0.5139 0.2165 1.101 0.2227 0.15417 0.002 0.28654-0.009 0.40333-0.0249 0.46095-0.0608 0.74281-0.2134 0.74281-0.2134v-14.878zm14.509 8.3095c0.33325-0.0186 0.60109 0.2492 0.60109 0.612v1.1898c0 0.3457-0.26784 0.6525-0.60109 0.6696l-1.1321 0.0623v3.4493c0 0.3442-0.2694 0.6509-0.6011 0.6681l-1.5199 0.0841c0.204-0.4034 0.44848-0.8254 0.70076-1.1213l0.0436-16.524c-0.61667 0.721-1.2505 2.3406-1.2505 2.3406v16.429s-2.1708-0.6556-4.4226-0.4111c-2.2502 0.246-1.9341 0.8206-3.6798 0.8409-1.2801 0.0156-1.9045-0.5123-1.9045-0.5123s-0.62757 0.5279-1.9061 0.5123c-1.7472-0.0203-1.4311-0.5949-3.6813-0.8409-2.2487-0.2445-4.421 0.4111-4.421 0.4111v-16.429s-0.6338-1.6196-1.252-2.3406l0.04672 16.524c0.25071 0.2959 0.4952 0.7179 0.6992 1.1197l-1.5043-0.0825c-0.3317-0.0172-0.6011-0.3239-0.6011-0.6681v-3.4493l-1.1492-0.0623c-0.3317-0.0171-0.60266-0.3239-0.60266-0.6696v-1.1898c0-0.3628 0.27096-0.6306 0.60266-0.612l1.1492 0.0608v-6.7118l-1.1492-0.0623c-0.3317-0.0171-0.60266-0.3223-0.60266-0.668v-1.1898c0-0.3644 0.27096-0.6307 0.60266-0.6151l1.1492 0.0639v-3.2033c0-0.3644 0.2694-0.6307 0.6011-0.6136l9.9026 0.5311c0.45939-0.1075 1.2349-0.1807 2.1163-0.1807s1.6585 0.0732 2.1179 0.1822l9.915-0.5326c0.3317-0.0171 0.6011 0.2492 0.6011 0.6136v3.2017l1.1321-0.0623c0.33325-0.0156 0.60109 0.2507 0.60109 0.6151v1.1898c0 0.3457-0.26784 0.6509-0.60109 0.668l-1.1321 0.0608v6.7133l1.1321-0.0608"/></g></g></g></svg>
