<?xml version="1.0" encoding="UTF-8" standalone="no"?>
<!DOCTYPE svg PUBLIC "-//W3C//DTD SVG 1.1//EN" "http://www.w3.org/Graphics/SVG/1.1/DTD/svg11.dtd">
<svg width="100%" height="100%" viewBox="0 0 1024 334" version="1.1" xmlns="http://www.w3.org/2000/svg" xmlns:xlink="http://www.w3.org/1999/xlink" xml:space="preserve" xmlns:serif="http://www.serif.com/" style="fill-rule:evenodd;clip-rule:evenodd;stroke-linejoin:round;stroke-miterlimit:2;">
    <path d="M206,94.93L205.922,225.094L238.904,225.094L239,180L304.979,180.02L305.049,225.094L338.82,225.094C338.82,225.094 339.104,185.166 338.576,179.648C338.053,174.188 336.312,171.803 333,169C329.783,166.277 324.532,163.528 324.532,163.528C324.532,163.528 330.834,159.591 333.116,157.491C335.468,155.327 339.053,150.985 339,145C338.994,144.279 339.127,124.906 338.826,124.024C337.036,118.774 335.283,111.576 329,105C323.134,98.86 315.833,95.044 310.526,95C304.599,94.95 206,94.93 206,94.93ZM300,125L239,125L239,150L298,150C298,150 299.872,149.893 302,149C304.128,148.107 305.069,146.751 305.069,146.751L305,129C305,129 303.953,126.238 303,126C302.05,125.763 300.01,125.004 300,125Z" style="fill:rgb(21,11,77);"/>
    <path d="M687,78L687,255L950,167L687,78Z" style="fill:rgb(21,11,77);"/>
    <g transform="matrix(0.671488,0,0,0.671488,225.688,55.1973)">
        <path d="M687,78L687,255L950,167L687,78Z" style="fill:rgb(245,219,20);"/>
    </g>
    <path d="M66,95L94,95C94,95 96.182,94.949 97.095,96.064C98.153,97.357 98,99 98,99L98.043,192.646C98.043,192.646 102.484,193.979 105,194C109.052,194.034 146.734,194.037 149,194C152.158,193.949 154,193 154,193L154.01,96.612C154.01,96.612 159.177,94.999 163,95C167.814,95.001 186,95 186,95L185.997,225.016C185.997,225.016 164.631,225.115 160.284,224.988C155.519,224.848 153,223 153,223C153,223 147.324,225.182 143.956,225.091C140.405,224.996 101.598,225.004 94.916,225.011C86.734,225.018 80.366,220.582 76.009,216.646C71.236,212.333 65.946,205.132 66,198C66.064,189.449 66,95 66,95Z" style="fill:rgb(21,11,77);"/>
    <path d="M389.607,125L453.714,125L457.588,129.079C457.588,129.079 477.116,128.941 479.528,128.954C481.939,128.968 483.237,127.869 483.255,125.678C483.272,123.488 483.314,113.018 483.309,111.493C483.303,109.968 481.906,105.073 477.037,100.994C472.168,96.915 469.194,95.071 465.902,95C462.611,94.928 382.228,95.023 378.704,95C373.697,94.967 367.741,97.092 365.008,99.615C362.276,102.138 357.403,105.937 357.064,112.585C356.914,115.54 357.149,147.95 357.076,151.454C357.003,154.958 360.748,161.99 363.565,165.063C366.382,168.136 372.116,171.427 377.512,171.864C382.908,172.3 455.099,172.056 455.099,172.056L455.105,195.048L391.23,194.953L386.314,190.963C386.314,190.963 363.25,190.976 360.882,190.914C358.515,190.851 357.056,192.704 357.13,195.13C357.204,197.556 357.075,205.102 357.128,207.803C357.217,212.273 360.409,215.569 364.13,218.737C367.824,221.881 372.03,225.018 375.941,225.094C379.851,225.169 465.336,225.201 469.023,225.094C472.71,224.987 478.498,220.616 481.807,217.433C484.798,214.556 487.804,208.086 487.722,204.981C487.641,201.875 487.56,166.404 487.534,163.771C487.507,161.138 486.435,155.266 481.557,150C476.963,145.04 471.802,141.608 467.075,141.757C462.348,141.905 389.533,141.969 389.533,141.969L389.607,125Z" style="fill:rgb(21,11,77);"/>
    <g transform="matrix(1,0,0,1,148.607,-0.0688287)">
        <path d="M389.607,125L453.714,125L457.588,129.079C457.588,129.079 477.116,128.941 479.528,128.954C481.939,128.968 483.237,127.869 483.255,125.678C483.272,123.488 483.314,113.018 483.309,111.493C483.303,109.968 481.906,105.073 477.037,100.994C472.168,96.915 469.194,95.071 465.902,95C462.611,94.928 382.228,95.023 378.704,95C373.697,94.967 367.741,97.092 365.008,99.615C362.276,102.138 357.403,105.937 357.064,112.585C356.914,115.54 357.149,147.95 357.076,151.454C357.003,154.958 360.748,161.99 363.565,165.063C366.382,168.136 372.116,171.427 377.512,171.864C382.908,172.3 455.099,172.056 455.099,172.056L455.105,195.048L391.23,194.953L386.314,190.963C386.314,190.963 363.25,190.976 360.882,190.914C358.515,190.851 357.056,192.704 357.13,195.13C357.204,197.556 357.075,205.102 357.128,207.803C357.217,212.273 360.409,215.569 364.13,218.737C367.824,221.881 372.03,225.018 375.941,225.094C379.851,225.169 465.336,225.201 469.023,225.094C472.71,224.987 478.498,220.616 481.807,217.433C484.798,214.556 487.804,208.086 487.722,204.981C487.641,201.875 487.56,166.404 487.534,163.771C487.507,161.138 486.435,155.266 481.557,150C476.963,145.04 471.802,141.608 467.075,141.757C462.348,141.905 389.533,141.969 389.533,141.969L389.607,125Z" style="fill:rgb(21,11,77);"/>
    </g>
</svg>
